<?xml version="1.0" encoding="utf-8" standalone="no"?>
<!DOCTYPE svg PUBLIC "-//W3C//DTD SVG 1.1//EN"
  "http://www.w3.org/Graphics/SVG/1.1/DTD/svg11.dtd">
<svg xmlns:xlink="http://www.w3.org/1999/xlink" width="864pt" height="576pt" viewBox="0 0 864 576" xmlns="http://www.w3.org/2000/svg" version="1.1">
 <metadata>
  <rdf:RDF xmlns:dc="http://purl.org/dc/elements/1.1/" xmlns:cc="http://creativecommons.org/ns#" xmlns:rdf="http://www.w3.org/1999/02/22-rdf-syntax-ns#">
   <cc:Work>
    <dc:type rdf:resource="http://purl.org/dc/dcmitype/StillImage"/>
    <dc:date>2025-03-09T16:57:01.668948</dc:date>
    <dc:format>image/svg+xml</dc:format>
    <dc:creator>
     <cc:Agent>
      <dc:title>Matplotlib v3.8.4, https://matplotlib.org/</dc:title>
     </cc:Agent>
    </dc:creator>
   </cc:Work>
  </rdf:RDF>
 </metadata>
 <defs>
  <style type="text/css">*{stroke-linejoin: round; stroke-linecap: butt}</style>
 </defs>
 <g id="figure_1">
  <g id="patch_1">
   <path d="M 0 576 
L 864 576 
L 864 0 
L 0 0 
z
" style="fill: #ffffff"/>
  </g>
  <g id="axes_1">
   <g id="patch_2">
    <path d="M 47.99 251.130625 
L 853.2 251.130625 
L 853.2 27.7125 
L 47.99 27.7125 
z
" style="fill: #ffffff"/>
   </g>
   <g id="matplotlib.axis_1">
    <g id="xtick_1">
     <g id="text_1">
      <!-- 0 -->
      <g style="fill: #262626" transform="translate(145.860781 265.288437) scale(0.1 -0.1)">
       <defs>
        <path id="ArialMT-30" d="M 266 2259 
Q 266 3072 433 3567 
Q 600 4063 929 4331 
Q 1259 4600 1759 4600 
Q 2128 4600 2406 4451 
Q 2684 4303 2865 4023 
Q 3047 3744 3150 3342 
Q 3253 2941 3253 2259 
Q 3253 1453 3087 958 
Q 2922 463 2592 192 
Q 2263 -78 1759 -78 
Q 1097 -78 719 397 
Q 266 969 266 2259 
z
M 844 2259 
Q 844 1131 1108 757 
Q 1372 384 1759 384 
Q 2147 384 2411 759 
Q 2675 1134 2675 2259 
Q 2675 3391 2411 3762 
Q 2147 4134 1753 4134 
Q 1366 4134 1134 3806 
Q 844 3388 844 2259 
z
" transform="scale(0.015625)"/>
       </defs>
       <use xlink:href="#ArialMT-30"/>
      </g>
     </g>
    </g>
    <g id="xtick_2">
     <g id="text_2">
      <!-- 1 -->
      <g style="fill: #262626" transform="translate(347.163281 265.288437) scale(0.1 -0.1)">
       <defs>
        <path id="ArialMT-31" d="M 2384 0 
L 1822 0 
L 1822 3584 
Q 1619 3391 1289 3197 
Q 959 3003 697 2906 
L 697 3450 
Q 1169 3672 1522 3987 
Q 1875 4303 2022 4600 
L 2384 4600 
L 2384 0 
z
" transform="scale(0.015625)"/>
       </defs>
       <use xlink:href="#ArialMT-31"/>
      </g>
     </g>
    </g>
    <g id="xtick_3">
     <g id="text_3">
      <!-- 2 -->
      <g style="fill: #262626" transform="translate(548.465781 265.288437) scale(0.1 -0.1)">
       <defs>
        <path id="ArialMT-32" d="M 3222 541 
L 3222 0 
L 194 0 
Q 188 203 259 391 
Q 375 700 629 1000 
Q 884 1300 1366 1694 
Q 2113 2306 2375 2664 
Q 2638 3022 2638 3341 
Q 2638 3675 2398 3904 
Q 2159 4134 1775 4134 
Q 1369 4134 1125 3890 
Q 881 3647 878 3216 
L 300 3275 
Q 359 3922 746 4261 
Q 1134 4600 1788 4600 
Q 2447 4600 2831 4234 
Q 3216 3869 3216 3328 
Q 3216 3053 3103 2787 
Q 2991 2522 2730 2228 
Q 2469 1934 1863 1422 
Q 1356 997 1212 845 
Q 1069 694 975 541 
L 3222 541 
z
" transform="scale(0.015625)"/>
       </defs>
       <use xlink:href="#ArialMT-32"/>
      </g>
     </g>
    </g>
    <g id="xtick_4"/>
    <g id="text_4">
     <!-- Nhóm -->
     <g style="fill: #262626" transform="translate(437.258281 278.43375) scale(0.1 -0.1)">
      <defs>
       <path id="ArialMT-4e" d="M 488 0 
L 488 4581 
L 1109 4581 
L 3516 984 
L 3516 4581 
L 4097 4581 
L 4097 0 
L 3475 0 
L 1069 3600 
L 1069 0 
L 488 0 
z
" transform="scale(0.015625)"/>
       <path id="ArialMT-68" d="M 422 0 
L 422 4581 
L 984 4581 
L 984 2938 
Q 1378 3394 1978 3394 
Q 2347 3394 2619 3248 
Q 2891 3103 3008 2847 
Q 3125 2591 3125 2103 
L 3125 0 
L 2563 0 
L 2563 2103 
Q 2563 2525 2380 2717 
Q 2197 2909 1863 2909 
Q 1613 2909 1392 2779 
Q 1172 2650 1078 2428 
Q 984 2206 984 1816 
L 984 0 
L 422 0 
z
" transform="scale(0.015625)"/>
       <path id="ArialMT-f3" d="M 213 1659 
Q 213 2581 725 3025 
Q 1153 3394 1769 3394 
Q 2453 3394 2887 2945 
Q 3322 2497 3322 1706 
Q 3322 1066 3130 698 
Q 2938 331 2570 128 
Q 2203 -75 1769 -75 
Q 1072 -75 642 372 
Q 213 819 213 1659 
z
M 791 1659 
Q 791 1022 1069 705 
Q 1347 388 1769 388 
Q 2188 388 2466 706 
Q 2744 1025 2744 1678 
Q 2744 2294 2464 2611 
Q 2184 2928 1769 2928 
Q 1347 2928 1069 2612 
Q 791 2297 791 1659 
z
M 1454 3731 
L 1869 4606 
L 2607 4606 
L 1919 3731 
L 1454 3731 
z
" transform="scale(0.015625)"/>
       <path id="ArialMT-6d" d="M 422 0 
L 422 3319 
L 925 3319 
L 925 2853 
Q 1081 3097 1340 3245 
Q 1600 3394 1931 3394 
Q 2300 3394 2536 3241 
Q 2772 3088 2869 2813 
Q 3263 3394 3894 3394 
Q 4388 3394 4653 3120 
Q 4919 2847 4919 2278 
L 4919 0 
L 4359 0 
L 4359 2091 
Q 4359 2428 4304 2576 
Q 4250 2725 4106 2815 
Q 3963 2906 3769 2906 
Q 3419 2906 3187 2673 
Q 2956 2441 2956 1928 
L 2956 0 
L 2394 0 
L 2394 2156 
Q 2394 2531 2256 2718 
Q 2119 2906 1806 2906 
Q 1569 2906 1367 2781 
Q 1166 2656 1075 2415 
Q 984 2175 984 1722 
L 984 0 
L 422 0 
z
" transform="scale(0.015625)"/>
      </defs>
      <use xlink:href="#ArialMT-4e"/>
      <use xlink:href="#ArialMT-68" x="72.216797"/>
      <use xlink:href="#ArialMT-f3" x="127.832031"/>
      <use xlink:href="#ArialMT-6d" x="183.447266"/>
     </g>
    </g>
   </g>
   <g id="matplotlib.axis_2">
    <g id="ytick_1">
     <g id="line2d_1">
      <path d="M 47.99 237.798684 
L 853.2 237.798684 
" clip-path="url(#pdafcb618c0)" style="fill: none; stroke: #cccccc; stroke-width: 0.8; stroke-linecap: round"/>
     </g>
     <g id="text_5">
      <!-- 0.0 -->
      <g style="fill: #262626" transform="translate(27.09 241.37759) scale(0.1 -0.1)">
       <defs>
        <path id="ArialMT-2e" d="M 581 0 
L 581 641 
L 1222 641 
L 1222 0 
L 581 0 
z
" transform="scale(0.015625)"/>
       </defs>
       <use xlink:href="#ArialMT-30"/>
       <use xlink:href="#ArialMT-2e" x="55.615234"/>
       <use xlink:href="#ArialMT-30" x="83.398438"/>
      </g>
     </g>
    </g>
    <g id="ytick_2">
     <g id="line2d_2">
      <path d="M 47.99 207.714635 
L 853.2 207.714635 
" clip-path="url(#pdafcb618c0)" style="fill: none; stroke: #cccccc; stroke-width: 0.8; stroke-linecap: round"/>
     </g>
     <g id="text_6">
      <!-- 0.5 -->
      <g style="fill: #262626" transform="translate(27.09 211.293542) scale(0.1 -0.1)">
       <defs>
        <path id="ArialMT-35" d="M 266 1200 
L 856 1250 
Q 922 819 1161 601 
Q 1400 384 1738 384 
Q 2144 384 2425 690 
Q 2706 997 2706 1503 
Q 2706 1984 2436 2262 
Q 2166 2541 1728 2541 
Q 1456 2541 1237 2417 
Q 1019 2294 894 2097 
L 366 2166 
L 809 4519 
L 3088 4519 
L 3088 3981 
L 1259 3981 
L 1013 2750 
Q 1425 3038 1878 3038 
Q 2478 3038 2890 2622 
Q 3303 2206 3303 1553 
Q 3303 931 2941 478 
Q 2500 -78 1738 -78 
Q 1113 -78 717 272 
Q 322 622 266 1200 
z
" transform="scale(0.015625)"/>
       </defs>
       <use xlink:href="#ArialMT-30"/>
       <use xlink:href="#ArialMT-2e" x="55.615234"/>
       <use xlink:href="#ArialMT-35" x="83.398438"/>
      </g>
     </g>
    </g>
    <g id="ytick_3">
     <g id="line2d_3">
      <path d="M 47.99 177.630587 
L 853.2 177.630587 
" clip-path="url(#pdafcb618c0)" style="fill: none; stroke: #cccccc; stroke-width: 0.8; stroke-linecap: round"/>
     </g>
     <g id="text_7">
      <!-- 1.0 -->
      <g style="fill: #262626" transform="translate(27.09 181.209493) scale(0.1 -0.1)">
       <use xlink:href="#ArialMT-31"/>
       <use xlink:href="#ArialMT-2e" x="55.615234"/>
       <use xlink:href="#ArialMT-30" x="83.398438"/>
      </g>
     </g>
    </g>
    <g id="ytick_4">
     <g id="line2d_4">
      <path d="M 47.99 147.546538 
L 853.2 147.546538 
" clip-path="url(#pdafcb618c0)" style="fill: none; stroke: #cccccc; stroke-width: 0.8; stroke-linecap: round"/>
     </g>
     <g id="text_8">
      <!-- 1.5 -->
      <g style="fill: #262626" transform="translate(27.09 151.125445) scale(0.1 -0.1)">
       <use xlink:href="#ArialMT-31"/>
       <use xlink:href="#ArialMT-2e" x="55.615234"/>
       <use xlink:href="#ArialMT-35" x="83.398438"/>
      </g>
     </g>
    </g>
    <g id="ytick_5">
     <g id="line2d_5">
      <path d="M 47.99 117.46249 
L 853.2 117.46249 
" clip-path="url(#pdafcb618c0)" style="fill: none; stroke: #cccccc; stroke-width: 0.8; stroke-linecap: round"/>
     </g>
     <g id="text_9">
      <!-- 2.0 -->
      <g style="fill: #262626" transform="translate(27.09 121.041396) scale(0.1 -0.1)">
       <use xlink:href="#ArialMT-32"/>
       <use xlink:href="#ArialMT-2e" x="55.615234"/>
       <use xlink:href="#ArialMT-30" x="83.398438"/>
      </g>
     </g>
    </g>
    <g id="ytick_6">
     <g id="line2d_6">
      <path d="M 47.99 87.378441 
L 853.2 87.378441 
" clip-path="url(#pdafcb618c0)" style="fill: none; stroke: #cccccc; stroke-width: 0.8; stroke-linecap: round"/>
     </g>
     <g id="text_10">
      <!-- 2.5 -->
      <g style="fill: #262626" transform="translate(27.09 90.957347) scale(0.1 -0.1)">
       <use xlink:href="#ArialMT-32"/>
       <use xlink:href="#ArialMT-2e" x="55.615234"/>
       <use xlink:href="#ArialMT-35" x="83.398438"/>
      </g>
     </g>
    </g>
    <g id="ytick_7">
     <g id="line2d_7">
      <path d="M 47.99 57.294393 
L 853.2 57.294393 
" clip-path="url(#pdafcb618c0)" style="fill: none; stroke: #cccccc; stroke-width: 0.8; stroke-linecap: round"/>
     </g>
     <g id="text_11">
      <!-- 3.0 -->
      <g style="fill: #262626" transform="translate(27.09 60.873299) scale(0.1 -0.1)">
       <defs>
        <path id="ArialMT-33" d="M 269 1209 
L 831 1284 
Q 928 806 1161 595 
Q 1394 384 1728 384 
Q 2125 384 2398 659 
Q 2672 934 2672 1341 
Q 2672 1728 2419 1979 
Q 2166 2231 1775 2231 
Q 1616 2231 1378 2169 
L 1441 2663 
Q 1497 2656 1531 2656 
Q 1891 2656 2178 2843 
Q 2466 3031 2466 3422 
Q 2466 3731 2256 3934 
Q 2047 4138 1716 4138 
Q 1388 4138 1169 3931 
Q 950 3725 888 3313 
L 325 3413 
Q 428 3978 793 4289 
Q 1159 4600 1703 4600 
Q 2078 4600 2393 4439 
Q 2709 4278 2876 4000 
Q 3044 3722 3044 3409 
Q 3044 3113 2884 2869 
Q 2725 2625 2413 2481 
Q 2819 2388 3044 2092 
Q 3269 1797 3269 1353 
Q 3269 753 2831 336 
Q 2394 -81 1725 -81 
Q 1122 -81 723 278 
Q 325 638 269 1209 
z
" transform="scale(0.015625)"/>
       </defs>
       <use xlink:href="#ArialMT-33"/>
       <use xlink:href="#ArialMT-2e" x="55.615234"/>
       <use xlink:href="#ArialMT-30" x="83.398438"/>
      </g>
     </g>
    </g>
    <g id="text_12">
     <!-- Số lượng người theo dõi (triệu người) -->
     <g style="fill: #262626" transform="translate(20.985313 223.222344) rotate(-90) scale(0.1 -0.1)">
      <defs>
       <path id="ArialMT-53" d="M 288 1472 
L 859 1522 
Q 900 1178 1048 958 
Q 1197 738 1509 602 
Q 1822 466 2213 466 
Q 2559 466 2825 569 
Q 3091 672 3220 851 
Q 3350 1031 3350 1244 
Q 3350 1459 3225 1620 
Q 3100 1781 2813 1891 
Q 2628 1963 1997 2114 
Q 1366 2266 1113 2400 
Q 784 2572 623 2826 
Q 463 3081 463 3397 
Q 463 3744 659 4045 
Q 856 4347 1234 4503 
Q 1613 4659 2075 4659 
Q 2584 4659 2973 4495 
Q 3363 4331 3572 4012 
Q 3781 3694 3797 3291 
L 3216 3247 
Q 3169 3681 2898 3903 
Q 2628 4125 2100 4125 
Q 1550 4125 1298 3923 
Q 1047 3722 1047 3438 
Q 1047 3191 1225 3031 
Q 1400 2872 2139 2705 
Q 2878 2538 3153 2413 
Q 3553 2228 3743 1945 
Q 3934 1663 3934 1294 
Q 3934 928 3725 604 
Q 3516 281 3123 101 
Q 2731 -78 2241 -78 
Q 1619 -78 1198 103 
Q 778 284 539 648 
Q 300 1013 288 1472 
z
" transform="scale(0.015625)"/>
       <path id="ArialMT-1ed1" d="M 213 1659 
Q 213 2581 725 3025 
Q 1153 3394 1769 3394 
Q 2453 3394 2887 2945 
Q 3322 2497 3322 1706 
Q 3322 1066 3130 698 
Q 2938 331 2570 128 
Q 2203 -75 1769 -75 
Q 1072 -75 642 372 
Q 213 819 213 1659 
z
M 791 1659 
Q 791 1022 1069 705 
Q 1347 388 1769 388 
Q 2188 388 2466 706 
Q 2744 1025 2744 1678 
Q 2744 2294 2464 2611 
Q 2184 2928 1769 2928 
Q 1347 2928 1069 2612 
Q 791 2297 791 1659 
z
M 1779 4263 
L 1426 3731 
L 782 3731 
L 1457 4606 
L 2057 4606 
L 2760 3731 
L 2123 3731 
L 1779 4263 
z
M 1874 5709 
L 2628 5709 
L 1906 4834 
L 1453 4834 
L 1874 5709 
z
" transform="scale(0.015625)"/>
       <path id="ArialMT-20" transform="scale(0.015625)"/>
       <path id="ArialMT-6c" d="M 409 0 
L 409 4581 
L 972 4581 
L 972 0 
L 409 0 
z
" transform="scale(0.015625)"/>
       <path id="ArialMT-1b0" d="M 3488 2666 
L 3488 3319 
L 4091 3319 
L 4091 2803 
Q 4091 2313 3978 2119 
Q 3691 1619 3100 1556 
L 3100 0 
L 2597 0 
L 2597 488 
Q 2209 -75 1544 -75 
Q 1253 -75 998 36 
Q 744 147 619 319 
Q 494 491 444 738 
Q 409 906 409 1263 
L 409 3319 
L 972 3319 
L 972 1478 
Q 972 1031 1006 884 
Q 1116 409 1656 409 
Q 1916 409 2136 540 
Q 2356 672 2447 894 
Q 2538 1116 2538 1541 
L 2538 3319 
L 3100 3319 
L 3100 1794 
Q 3497 1863 3694 2166 
Q 3781 2297 3781 2666 
L 3488 2666 
z
" transform="scale(0.015625)"/>
       <path id="ArialMT-1ee3" d="M 791 1659 
Q 791 1044 1069 706 
Q 1331 388 1769 388 
Q 2206 388 2466 706 
Q 2744 1047 2744 1678 
Q 2744 2275 2463 2609 
Q 2200 2928 1769 2928 
Q 1328 2928 1069 2613 
Q 791 2275 791 1659 
z
M 3397 2747 
L 3397 3400 
L 4000 3400 
L 4000 2884 
Q 4000 2497 3881 2291 
Q 3728 2022 3322 1797 
Q 3322 1753 3322 1706 
Q 3322 544 2572 128 
Q 2203 -75 1769 -75 
Q 1056 -75 641 372 
Q 213 834 213 1659 
Q 213 2581 725 3025 
Q 1153 3394 1769 3394 
Q 2453 3394 2888 2947 
Q 3216 2606 3297 2069 
Q 3509 2200 3601 2340 
Q 3694 2481 3691 2747 
L 3397 2747 
z
M 1422 -1016 
L 1422 -375 
L 2063 -375 
L 2063 -1016 
L 1422 -1016 
z
" transform="scale(0.015625)"/>
       <path id="ArialMT-6e" d="M 422 0 
L 422 3319 
L 928 3319 
L 928 2847 
Q 1294 3394 1984 3394 
Q 2284 3394 2536 3286 
Q 2788 3178 2913 3003 
Q 3038 2828 3088 2588 
Q 3119 2431 3119 2041 
L 3119 0 
L 2556 0 
L 2556 2019 
Q 2556 2363 2490 2533 
Q 2425 2703 2258 2804 
Q 2091 2906 1866 2906 
Q 1506 2906 1245 2678 
Q 984 2450 984 1813 
L 984 0 
L 422 0 
z
" transform="scale(0.015625)"/>
       <path id="ArialMT-67" d="M 319 -275 
L 866 -356 
Q 900 -609 1056 -725 
Q 1266 -881 1628 -881 
Q 2019 -881 2231 -725 
Q 2444 -569 2519 -288 
Q 2563 -116 2559 434 
Q 2191 0 1641 0 
Q 956 0 581 494 
Q 206 988 206 1678 
Q 206 2153 378 2554 
Q 550 2956 876 3175 
Q 1203 3394 1644 3394 
Q 2231 3394 2613 2919 
L 2613 3319 
L 3131 3319 
L 3131 450 
Q 3131 -325 2973 -648 
Q 2816 -972 2473 -1159 
Q 2131 -1347 1631 -1347 
Q 1038 -1347 672 -1080 
Q 306 -813 319 -275 
z
M 784 1719 
Q 784 1066 1043 766 
Q 1303 466 1694 466 
Q 2081 466 2343 764 
Q 2606 1063 2606 1700 
Q 2606 2309 2336 2618 
Q 2066 2928 1684 2928 
Q 1309 2928 1046 2623 
Q 784 2319 784 1719 
z
" transform="scale(0.015625)"/>
       <path id="ArialMT-1edd" d="M 791 1659 
Q 791 1044 1069 706 
Q 1331 388 1769 388 
Q 2206 388 2466 706 
Q 2744 1047 2744 1678 
Q 2744 2275 2463 2609 
Q 2200 2928 1769 2928 
Q 1328 2928 1069 2613 
Q 791 2275 791 1659 
z
M 3397 2747 
L 3397 3400 
L 4000 3400 
L 4000 2884 
Q 4000 2497 3881 2291 
Q 3728 2022 3322 1797 
Q 3322 1753 3322 1706 
Q 3322 544 2572 128 
Q 2203 -75 1769 -75 
Q 1056 -75 641 372 
Q 213 834 213 1659 
Q 213 2581 725 3025 
Q 1153 3394 1769 3394 
Q 2453 3394 2888 2947 
Q 3216 2606 3297 2069 
Q 3509 2200 3601 2340 
Q 3694 2481 3691 2747 
L 3397 2747 
z
M 2149 3731 
L 1696 3731 
L 974 4606 
L 1727 4606 
L 2149 3731 
z
" transform="scale(0.015625)"/>
       <path id="ArialMT-69" d="M 425 3934 
L 425 4581 
L 988 4581 
L 988 3934 
L 425 3934 
z
M 425 0 
L 425 3319 
L 988 3319 
L 988 0 
L 425 0 
z
" transform="scale(0.015625)"/>
       <path id="ArialMT-74" d="M 1650 503 
L 1731 6 
Q 1494 -44 1306 -44 
Q 1000 -44 831 53 
Q 663 150 594 308 
Q 525 466 525 972 
L 525 2881 
L 113 2881 
L 113 3319 
L 525 3319 
L 525 4141 
L 1084 4478 
L 1084 3319 
L 1650 3319 
L 1650 2881 
L 1084 2881 
L 1084 941 
Q 1084 700 1114 631 
Q 1144 563 1211 522 
Q 1278 481 1403 481 
Q 1497 481 1650 503 
z
" transform="scale(0.015625)"/>
       <path id="ArialMT-65" d="M 2694 1069 
L 3275 997 
Q 3138 488 2766 206 
Q 2394 -75 1816 -75 
Q 1088 -75 661 373 
Q 234 822 234 1631 
Q 234 2469 665 2931 
Q 1097 3394 1784 3394 
Q 2450 3394 2872 2941 
Q 3294 2488 3294 1666 
Q 3294 1616 3291 1516 
L 816 1516 
Q 847 969 1125 678 
Q 1403 388 1819 388 
Q 2128 388 2347 550 
Q 2566 713 2694 1069 
z
M 847 1978 
L 2700 1978 
Q 2663 2397 2488 2606 
Q 2219 2931 1791 2931 
Q 1403 2931 1139 2672 
Q 875 2413 847 1978 
z
" transform="scale(0.015625)"/>
       <path id="ArialMT-6f" d="M 213 1659 
Q 213 2581 725 3025 
Q 1153 3394 1769 3394 
Q 2453 3394 2887 2945 
Q 3322 2497 3322 1706 
Q 3322 1066 3130 698 
Q 2938 331 2570 128 
Q 2203 -75 1769 -75 
Q 1072 -75 642 372 
Q 213 819 213 1659 
z
M 791 1659 
Q 791 1022 1069 705 
Q 1347 388 1769 388 
Q 2188 388 2466 706 
Q 2744 1025 2744 1678 
Q 2744 2294 2464 2611 
Q 2184 2928 1769 2928 
Q 1347 2928 1069 2612 
Q 791 2297 791 1659 
z
" transform="scale(0.015625)"/>
       <path id="ArialMT-64" d="M 2575 0 
L 2575 419 
Q 2259 -75 1647 -75 
Q 1250 -75 917 144 
Q 584 363 401 755 
Q 219 1147 219 1656 
Q 219 2153 384 2558 
Q 550 2963 881 3178 
Q 1213 3394 1622 3394 
Q 1922 3394 2156 3267 
Q 2391 3141 2538 2938 
L 2538 4581 
L 3097 4581 
L 3097 0 
L 2575 0 
z
M 797 1656 
Q 797 1019 1065 703 
Q 1334 388 1700 388 
Q 2069 388 2326 689 
Q 2584 991 2584 1609 
Q 2584 2291 2321 2609 
Q 2059 2928 1675 2928 
Q 1300 2928 1048 2622 
Q 797 2316 797 1656 
z
" transform="scale(0.015625)"/>
       <path id="ArialMT-f5" d="M 213 1659 
Q 213 2581 725 3025 
Q 1153 3394 1769 3394 
Q 2453 3394 2887 2945 
Q 3322 2497 3322 1706 
Q 3322 1066 3130 698 
Q 2938 331 2570 128 
Q 2203 -75 1769 -75 
Q 1072 -75 642 372 
Q 213 819 213 1659 
z
M 791 1659 
Q 791 1022 1069 705 
Q 1347 388 1769 388 
Q 2188 388 2466 706 
Q 2744 1025 2744 1678 
Q 2744 2294 2464 2611 
Q 2184 2928 1769 2928 
Q 1347 2928 1069 2612 
Q 791 2297 791 1659 
z
M 726 3809 
Q 723 4134 904 4328 
Q 1082 4522 1360 4522 
Q 1554 4522 1888 4353 
Q 2073 4259 2182 4259 
Q 2282 4259 2335 4314 
Q 2388 4369 2410 4531 
L 2817 4531 
Q 2807 4175 2637 3997 
Q 2467 3819 2204 3819 
Q 2007 3819 1685 3994 
Q 1476 4106 1379 4106 
Q 1273 4106 1207 4031 
Q 1138 3956 1142 3809 
L 726 3809 
z
" transform="scale(0.015625)"/>
       <path id="ArialMT-28" d="M 1497 -1347 
Q 1031 -759 709 28 
Q 388 816 388 1659 
Q 388 2403 628 3084 
Q 909 3875 1497 4659 
L 1900 4659 
Q 1522 4009 1400 3731 
Q 1209 3300 1100 2831 
Q 966 2247 966 1656 
Q 966 153 1900 -1347 
L 1497 -1347 
z
" transform="scale(0.015625)"/>
       <path id="ArialMT-72" d="M 416 0 
L 416 3319 
L 922 3319 
L 922 2816 
Q 1116 3169 1280 3281 
Q 1444 3394 1641 3394 
Q 1925 3394 2219 3213 
L 2025 2691 
Q 1819 2813 1613 2813 
Q 1428 2813 1281 2702 
Q 1134 2591 1072 2394 
Q 978 2094 978 1738 
L 978 0 
L 416 0 
z
" transform="scale(0.015625)"/>
       <path id="ArialMT-1ec7" d="M 2694 1069 
L 3275 997 
Q 3138 488 2766 206 
Q 2394 -75 1816 -75 
Q 1088 -75 661 373 
Q 234 822 234 1631 
Q 234 2469 665 2931 
Q 1097 3394 1784 3394 
Q 2450 3394 2872 2941 
Q 3294 2488 3294 1666 
Q 3294 1616 3291 1516 
L 816 1516 
Q 847 969 1125 678 
Q 1403 388 1819 388 
Q 2128 388 2347 550 
Q 2566 713 2694 1069 
z
M 847 1978 
L 2700 1978 
Q 2663 2397 2488 2606 
Q 2219 2931 1791 2931 
Q 1403 2931 1139 2672 
Q 875 2413 847 1978 
z
M 1771 4263 
L 1418 3731 
L 774 3731 
L 1449 4606 
L 2049 4606 
L 2752 3731 
L 2115 3731 
L 1771 4263 
z
M 1486 -1016 
L 1486 -375 
L 2127 -375 
L 2127 -1016 
L 1486 -1016 
z
" transform="scale(0.015625)"/>
       <path id="ArialMT-75" d="M 2597 0 
L 2597 488 
Q 2209 -75 1544 -75 
Q 1250 -75 995 37 
Q 741 150 617 320 
Q 494 491 444 738 
Q 409 903 409 1263 
L 409 3319 
L 972 3319 
L 972 1478 
Q 972 1038 1006 884 
Q 1059 663 1231 536 
Q 1403 409 1656 409 
Q 1909 409 2131 539 
Q 2353 669 2445 892 
Q 2538 1116 2538 1541 
L 2538 3319 
L 3100 3319 
L 3100 0 
L 2597 0 
z
" transform="scale(0.015625)"/>
       <path id="ArialMT-29" d="M 791 -1347 
L 388 -1347 
Q 1322 153 1322 1656 
Q 1322 2244 1188 2822 
Q 1081 3291 891 3722 
Q 769 4003 388 4659 
L 791 4659 
Q 1378 3875 1659 3084 
Q 1900 2403 1900 1659 
Q 1900 816 1576 28 
Q 1253 -759 791 -1347 
z
" transform="scale(0.015625)"/>
      </defs>
      <use xlink:href="#ArialMT-53"/>
      <use xlink:href="#ArialMT-1ed1" x="66.699219"/>
      <use xlink:href="#ArialMT-20" x="122.314453"/>
      <use xlink:href="#ArialMT-6c" x="150.097656"/>
      <use xlink:href="#ArialMT-1b0" x="172.314453"/>
      <use xlink:href="#ArialMT-1ee3" x="239.257812"/>
      <use xlink:href="#ArialMT-6e" x="304.833984"/>
      <use xlink:href="#ArialMT-67" x="360.449219"/>
      <use xlink:href="#ArialMT-20" x="416.064453"/>
      <use xlink:href="#ArialMT-6e" x="443.847656"/>
      <use xlink:href="#ArialMT-67" x="499.462891"/>
      <use xlink:href="#ArialMT-1b0" x="555.078125"/>
      <use xlink:href="#ArialMT-1edd" x="622.021484"/>
      <use xlink:href="#ArialMT-69" x="687.597656"/>
      <use xlink:href="#ArialMT-20" x="709.814453"/>
      <use xlink:href="#ArialMT-74" x="737.597656"/>
      <use xlink:href="#ArialMT-68" x="765.380859"/>
      <use xlink:href="#ArialMT-65" x="820.996094"/>
      <use xlink:href="#ArialMT-6f" x="876.611328"/>
      <use xlink:href="#ArialMT-20" x="932.226562"/>
      <use xlink:href="#ArialMT-64" x="960.009766"/>
      <use xlink:href="#ArialMT-f5" x="1015.625"/>
      <use xlink:href="#ArialMT-69" x="1071.240234"/>
      <use xlink:href="#ArialMT-20" x="1093.457031"/>
      <use xlink:href="#ArialMT-28" x="1121.240234"/>
      <use xlink:href="#ArialMT-74" x="1154.541016"/>
      <use xlink:href="#ArialMT-72" x="1182.324219"/>
      <use xlink:href="#ArialMT-69" x="1215.625"/>
      <use xlink:href="#ArialMT-1ec7" x="1237.841797"/>
      <use xlink:href="#ArialMT-75" x="1293.457031"/>
      <use xlink:href="#ArialMT-20" x="1349.072266"/>
      <use xlink:href="#ArialMT-6e" x="1376.855469"/>
      <use xlink:href="#ArialMT-67" x="1432.470703"/>
      <use xlink:href="#ArialMT-1b0" x="1488.085938"/>
      <use xlink:href="#ArialMT-1edd" x="1555.029297"/>
      <use xlink:href="#ArialMT-69" x="1620.605469"/>
      <use xlink:href="#ArialMT-29" x="1642.822266"/>
     </g>
    </g>
    <g id="text_13">
     <!-- 1e7 -->
     <g style="fill: #262626" transform="translate(47.99 24.7125) scale(0.1 -0.1)">
      <defs>
       <path id="ArialMT-37" d="M 303 3981 
L 303 4522 
L 3269 4522 
L 3269 4084 
Q 2831 3619 2401 2847 
Q 1972 2075 1738 1259 
Q 1569 684 1522 0 
L 944 0 
Q 953 541 1156 1306 
Q 1359 2072 1739 2783 
Q 2119 3494 2547 3981 
L 303 3981 
z
" transform="scale(0.015625)"/>
      </defs>
      <use xlink:href="#ArialMT-31"/>
      <use xlink:href="#ArialMT-65" x="55.615234"/>
      <use xlink:href="#ArialMT-37" x="111.230469"/>
     </g>
    </g>
   </g>
   <g id="PolyCollection_1">
    <defs>
     <path id="m80c67c3632" d="M 158.725258 -337.859061 
L 138.557242 -337.859061 
L 102.617882 -338.027667 
L 68.12025 -338.196274 
L 93.915321 -338.364881 
L 133.681832 -338.533488 
L 146.848992 -338.702094 
L 148.531701 -338.870701 
L 148.637481 -339.039308 
L 148.641183 -339.207915 
L 148.641249 -339.376522 
L 148.64125 -339.545128 
L 148.64125 -339.713735 
L 148.64125 -339.882342 
L 148.64125 -340.050949 
L 148.64125 -340.219555 
L 148.64125 -340.388162 
L 148.64125 -340.556769 
L 148.64125 -340.725376 
L 148.64125 -340.893983 
L 148.64125 -341.062589 
L 148.64125 -341.231196 
L 148.64125 -341.399803 
L 148.64125 -341.56841 
L 148.64125 -341.737016 
L 148.64125 -341.905623 
L 148.64125 -342.07423 
L 148.64125 -342.242837 
L 148.64125 -342.411443 
L 148.64125 -342.58005 
L 148.64125 -342.748657 
L 148.64125 -342.917264 
L 148.64125 -343.085871 
L 148.64125 -343.254477 
L 148.64125 -343.423084 
L 148.64125 -343.591691 
L 148.64125 -343.760298 
L 148.64125 -343.928904 
L 148.64125 -344.097511 
L 148.64125 -344.266118 
L 148.64125 -344.434725 
L 148.64125 -344.603332 
L 148.64125 -344.771938 
L 148.64125 -344.940545 
L 148.64125 -345.109152 
L 148.64125 -345.277759 
L 148.64125 -345.446365 
L 148.64125 -345.614972 
L 148.64125 -345.783579 
L 148.64125 -345.952186 
L 148.64125 -346.120792 
L 148.64125 -346.289399 
L 148.64125 -346.458006 
L 148.64125 -346.626613 
L 148.64125 -346.79522 
L 148.64125 -346.963826 
L 148.64125 -347.132433 
L 148.64125 -347.30104 
L 148.64125 -347.469647 
L 148.64125 -347.638253 
L 148.64125 -347.80686 
L 148.64125 -347.975467 
L 148.64125 -348.144074 
L 148.64125 -348.312681 
L 148.64125 -348.481287 
L 148.64125 -348.649894 
L 148.64125 -348.818501 
L 148.64125 -348.987108 
L 148.64125 -349.155714 
L 148.64125 -349.324321 
L 148.64125 -349.492928 
L 148.64125 -349.661535 
L 148.64125 -349.830141 
L 148.64125 -349.998748 
L 148.64125 -350.167355 
L 148.64125 -350.335962 
L 148.64125 -350.504569 
L 148.64125 -350.673175 
L 148.64125 -350.841782 
L 148.64125 -351.010389 
L 148.64125 -351.178996 
L 148.64125 -351.347602 
L 148.64125 -351.516209 
L 148.64125 -351.684816 
L 148.64125 -351.853423 
L 148.64125 -352.02203 
L 148.64125 -352.190636 
L 148.64125 -352.359243 
L 148.64125 -352.52785 
L 148.64125 -352.696457 
L 148.64125 -352.865063 
L 148.64125 -353.03367 
L 148.64125 -353.202277 
L 148.641249 -353.370884 
L 148.64119 -353.539491 
L 148.639513 -353.708097 
L 148.622149 -353.876704 
L 148.561663 -354.045311 
L 148.515638 -354.213918 
L 148.566152 -354.382524 
L 148.624243 -354.551131 
L 148.658257 -354.551131 
L 148.658257 -354.551131 
L 148.716348 -354.382524 
L 148.766862 -354.213918 
L 148.720837 -354.045311 
L 148.660351 -353.876704 
L 148.642987 -353.708097 
L 148.64131 -353.539491 
L 148.641251 -353.370884 
L 148.64125 -353.202277 
L 148.64125 -353.03367 
L 148.64125 -352.865063 
L 148.64125 -352.696457 
L 148.64125 -352.52785 
L 148.64125 -352.359243 
L 148.64125 -352.190636 
L 148.64125 -352.02203 
L 148.64125 -351.853423 
L 148.64125 -351.684816 
L 148.64125 -351.516209 
L 148.64125 -351.347602 
L 148.64125 -351.178996 
L 148.64125 -351.010389 
L 148.64125 -350.841782 
L 148.64125 -350.673175 
L 148.64125 -350.504569 
L 148.64125 -350.335962 
L 148.64125 -350.167355 
L 148.64125 -349.998748 
L 148.64125 -349.830141 
L 148.64125 -349.661535 
L 148.64125 -349.492928 
L 148.64125 -349.324321 
L 148.64125 -349.155714 
L 148.64125 -348.987108 
L 148.64125 -348.818501 
L 148.64125 -348.649894 
L 148.64125 -348.481287 
L 148.64125 -348.312681 
L 148.64125 -348.144074 
L 148.64125 -347.975467 
L 148.64125 -347.80686 
L 148.64125 -347.638253 
L 148.64125 -347.469647 
L 148.64125 -347.30104 
L 148.64125 -347.132433 
L 148.64125 -346.963826 
L 148.64125 -346.79522 
L 148.64125 -346.626613 
L 148.64125 -346.458006 
L 148.64125 -346.289399 
L 148.64125 -346.120792 
L 148.64125 -345.952186 
L 148.64125 -345.783579 
L 148.64125 -345.614972 
L 148.64125 -345.446365 
L 148.64125 -345.277759 
L 148.64125 -345.109152 
L 148.64125 -344.940545 
L 148.64125 -344.771938 
L 148.64125 -344.603332 
L 148.64125 -344.434725 
L 148.64125 -344.266118 
L 148.64125 -344.097511 
L 148.64125 -343.928904 
L 148.64125 -343.760298 
L 148.64125 -343.591691 
L 148.64125 -343.423084 
L 148.64125 -343.254477 
L 148.64125 -343.085871 
L 148.64125 -342.917264 
L 148.64125 -342.748657 
L 148.64125 -342.58005 
L 148.64125 -342.411443 
L 148.64125 -342.242837 
L 148.64125 -342.07423 
L 148.64125 -341.905623 
L 148.64125 -341.737016 
L 148.64125 -341.56841 
L 148.64125 -341.399803 
L 148.64125 -341.231196 
L 148.64125 -341.062589 
L 148.64125 -340.893983 
L 148.64125 -340.725376 
L 148.64125 -340.556769 
L 148.64125 -340.388162 
L 148.64125 -340.219555 
L 148.64125 -340.050949 
L 148.64125 -339.882342 
L 148.64125 -339.713735 
L 148.64125 -339.545128 
L 148.641251 -339.376522 
L 148.641317 -339.207915 
L 148.645019 -339.039308 
L 148.750799 -338.870701 
L 150.433508 -338.702094 
L 163.600668 -338.533488 
L 203.367179 -338.364881 
L 229.16225 -338.196274 
L 194.664618 -338.027667 
L 158.725258 -337.859061 
z
" style="stroke: #5c5c5c; stroke-width: 1.25"/>
    </defs>
    <g clip-path="url(#pdafcb618c0)">
     <use xlink:href="#m80c67c3632" x="0" y="576" style="fill: #e6674c; stroke: #5c5c5c; stroke-width: 1.25"/>
    </g>
   </g>
   <g id="PolyCollection_2">
    <defs>
     <path id="m93c58128df" d="M 355.580565 -375.441287 
L 344.306935 -375.441287 
L 343.454331 -377.084629 
L 342.504455 -378.727971 
L 341.451603 -380.371313 
L 340.290604 -382.014655 
L 339.01697 -383.657996 
L 337.627063 -385.301338 
L 336.118253 -386.94468 
L 334.489075 -388.588022 
L 332.739386 -390.231364 
L 330.870494 -391.874706 
L 328.885285 -393.518048 
L 326.788312 -395.161389 
L 324.58587 -396.804731 
L 322.286027 -398.448073 
L 319.898621 -400.091415 
L 317.435223 -401.734757 
L 314.909048 -403.378099 
L 312.334826 -405.02144 
L 309.72863 -406.664782 
L 307.107658 -408.308124 
L 304.489973 -409.951466 
L 301.894211 -411.594808 
L 299.339253 -413.23815 
L 296.843869 -414.881492 
L 294.426355 -416.524833 
L 292.10415 -418.168175 
L 289.893461 -419.811517 
L 287.808902 -421.454859 
L 285.863148 -423.098201 
L 284.066627 -424.741543 
L 282.427257 -426.384885 
L 280.950235 -428.028226 
L 279.637887 -429.671568 
L 278.489586 -431.31491 
L 277.501747 -432.958252 
L 276.667905 -434.601594 
L 275.978858 -436.244936 
L 275.422908 -437.888278 
L 274.98616 -439.531619 
L 274.652902 -441.174961 
L 274.406039 -442.818303 
L 274.227579 -444.461645 
L 274.099161 -446.104987 
L 274.002596 -447.748329 
L 273.920429 -449.391671 
L 273.836476 -451.035012 
L 273.736352 -452.678354 
L 273.607942 -454.321696 
L 273.441821 -455.965038 
L 273.231603 -457.60838 
L 272.974195 -459.251722 
L 272.669969 -460.895064 
L 272.322818 -462.538405 
L 271.940117 -464.181747 
L 271.532569 -465.825089 
L 271.113951 -467.468431 
L 270.70076 -469.111773 
L 270.311772 -470.755115 
L 269.967526 -472.398457 
L 269.689752 -474.041798 
L 269.500749 -475.68514 
L 269.42275 -477.328482 
L 269.477278 -478.971824 
L 269.684519 -480.615166 
L 270.062741 -482.258508 
L 270.627753 -483.901849 
L 271.392448 -485.545191 
L 272.366424 -487.188533 
L 273.555703 -488.831875 
L 274.962547 -490.475217 
L 276.585388 -492.118559 
L 278.418854 -493.761901 
L 280.453905 -495.405242 
L 282.67806 -497.048584 
L 285.075711 -498.691926 
L 287.628505 -500.335268 
L 290.315796 -501.97861 
L 293.115128 -503.621952 
L 296.002751 -505.265294 
L 298.95415 -506.908635 
L 301.944562 -508.551977 
L 304.949479 -510.195319 
L 307.945116 -511.838661 
L 310.908835 -513.482003 
L 313.819512 -515.125345 
L 316.657851 -516.768687 
L 319.406625 -518.412028 
L 322.050857 -520.05537 
L 324.577932 -521.698712 
L 326.977646 -523.342054 
L 329.242192 -524.985396 
L 331.366102 -526.628738 
L 333.34613 -528.27208 
L 335.181101 -529.915421 
L 336.871735 -531.558763 
L 338.420436 -533.202105 
L 339.831073 -534.845447 
L 341.108756 -536.488789 
L 342.259603 -538.132131 
L 357.627897 -538.132131 
L 357.627897 -538.132131 
L 358.778744 -536.488789 
L 360.056427 -534.845447 
L 361.467064 -533.202105 
L 363.015765 -531.558763 
L 364.706399 -529.915421 
L 366.54137 -528.27208 
L 368.521398 -526.628738 
L 370.645308 -524.985396 
L 372.909854 -523.342054 
L 375.309568 -521.698712 
L 377.836643 -520.05537 
L 380.480875 -518.412028 
L 383.229649 -516.768687 
L 386.067988 -515.125345 
L 388.978665 -513.482003 
L 391.942384 -511.838661 
L 394.938021 -510.195319 
L 397.942938 -508.551977 
L 400.93335 -506.908635 
L 403.884749 -505.265294 
L 406.772372 -503.621952 
L 409.571704 -501.97861 
L 412.258995 -500.335268 
L 414.811789 -498.691926 
L 417.20944 -497.048584 
L 419.433595 -495.405242 
L 421.468646 -493.761901 
L 423.302112 -492.118559 
L 424.924953 -490.475217 
L 426.331797 -488.831875 
L 427.521076 -487.188533 
L 428.495052 -485.545191 
L 429.259747 -483.901849 
L 429.824759 -482.258508 
L 430.202981 -480.615166 
L 430.410222 -478.971824 
L 430.46475 -477.328482 
L 430.386751 -475.68514 
L 430.197748 -474.041798 
L 429.919974 -472.398457 
L 429.575728 -470.755115 
L 429.18674 -469.111773 
L 428.773549 -467.468431 
L 428.354931 -465.825089 
L 427.947383 -464.181747 
L 427.564682 -462.538405 
L 427.217531 -460.895064 
L 426.913305 -459.251722 
L 426.655897 -457.60838 
L 426.445679 -455.965038 
L 426.279558 -454.321696 
L 426.151148 -452.678354 
L 426.051024 -451.035012 
L 425.967071 -449.391671 
L 425.884904 -447.748329 
L 425.788339 -446.104987 
L 425.659921 -444.461645 
L 425.481461 -442.818303 
L 425.234598 -441.174961 
L 424.90134 -439.531619 
L 424.464592 -437.888278 
L 423.908642 -436.244936 
L 423.219595 -434.601594 
L 422.385753 -432.958252 
L 421.397914 -431.31491 
L 420.249613 -429.671568 
L 418.937265 -428.028226 
L 417.460243 -426.384885 
L 415.820873 -424.741543 
L 414.024352 -423.098201 
L 412.078598 -421.454859 
L 409.994039 -419.811517 
L 407.78335 -418.168175 
L 405.461145 -416.524833 
L 403.043631 -414.881492 
L 400.548247 -413.23815 
L 397.993289 -411.594808 
L 395.397527 -409.951466 
L 392.779842 -408.308124 
L 390.15887 -406.664782 
L 387.552674 -405.02144 
L 384.978452 -403.378099 
L 382.452277 -401.734757 
L 379.988879 -400.091415 
L 377.601473 -398.448073 
L 375.30163 -396.804731 
L 373.099188 -395.161389 
L 371.002215 -393.518048 
L 369.017006 -391.874706 
L 367.148114 -390.231364 
L 365.398425 -388.588022 
L 363.769247 -386.94468 
L 362.260437 -385.301338 
L 360.87053 -383.657996 
L 359.596896 -382.014655 
L 358.435897 -380.371313 
L 357.383045 -378.727971 
L 356.433169 -377.084629 
L 355.580565 -375.441287 
z
" style="stroke: #5c5c5c; stroke-width: 1.25"/>
    </defs>
    <g clip-path="url(#pdafcb618c0)">
     <use xlink:href="#m93c58128df" x="0" y="576" style="fill: #4ce668; stroke: #5c5c5c; stroke-width: 1.25"/>
    </g>
   </g>
   <g id="PolyCollection_3">
    <defs>
     <path id="m4cbcd4cf1f" d="M 559.041627 -336.71073 
L 543.450873 -336.71073 
L 529.090046 -337.135256 
L 505.145927 -337.559783 
L 480.614948 -337.98431 
L 470.72525 -338.408836 
L 481.573864 -338.833363 
L 503.660572 -339.25789 
L 523.573928 -339.682416 
L 535.723836 -340.106943 
L 541.663163 -340.53147 
L 544.504649 -340.955996 
L 546.219557 -341.380523 
L 547.553552 -341.805049 
L 548.593364 -342.229576 
L 549.267026 -342.654103 
L 549.582545 -343.078629 
L 549.6437 -343.503156 
L 549.594927 -343.927683 
L 549.561256 -344.352209 
L 549.614956 -344.776736 
L 549.781198 -345.201263 
L 550.034451 -345.625789 
L 550.294012 -346.050316 
L 550.479824 -346.474843 
L 550.583785 -346.899369 
L 550.663846 -347.323896 
L 550.772122 -347.748422 
L 550.89599 -348.172949 
L 550.967319 -348.597476 
L 550.935209 -349.022002 
L 550.831909 -349.446529 
L 550.754523 -349.871056 
L 550.771494 -350.295582 
L 550.862677 -350.720109 
L 550.962324 -351.144636 
L 551.028356 -351.569162 
L 551.055219 -351.993689 
L 551.056875 -352.418216 
L 551.053107 -352.842742 
L 551.059125 -353.267269 
L 551.084298 -353.691795 
L 551.129438 -354.116322 
L 551.180303 -354.540849 
L 551.218268 -354.965375 
L 551.237514 -355.389902 
L 551.244263 -355.814429 
L 551.245922 -356.238955 
L 551.246211 -356.663482 
L 551.246247 -357.088009 
L 551.24625 -357.512535 
L 551.24625 -357.937062 
L 551.24625 -358.361588 
L 551.24625 -358.786115 
L 551.24625 -359.210642 
L 551.24625 -359.635168 
L 551.24625 -360.059695 
L 551.246247 -360.484222 
L 551.246218 -360.908748 
L 551.245972 -361.333275 
L 551.244525 -361.757802 
L 551.238504 -362.182328 
L 551.221102 -362.606855 
L 551.187225 -363.031382 
L 551.146056 -363.455908 
L 551.12297 -363.880435 
L 551.134735 -364.304961 
L 551.165664 -364.729488 
L 551.181696 -365.154015 
L 551.165813 -365.578541 
L 551.134872 -366.003068 
L 551.12294 -366.427595 
L 551.145866 -366.852121 
L 551.187015 -367.276648 
L 551.22097 -367.701175 
L 551.23845 -368.125701 
L 551.24451 -368.550228 
L 551.245969 -368.974755 
L 551.246215 -369.399281 
L 551.246214 -369.823808 
L 551.245967 -370.248334 
L 551.244499 -370.672861 
L 551.23841 -371.097388 
L 551.220872 -371.521914 
L 551.186863 -371.946441 
L 551.145784 -372.370968 
L 551.123381 -372.795494 
L 551.137617 -373.220021 
L 551.176815 -373.644548 
L 551.214153 -374.069074 
L 551.2354 -374.493601 
L 551.242733 -374.918127 
L 551.241111 -375.342654 
L 551.229095 -375.767181 
L 551.201154 -376.191707 
L 551.160287 -376.616234 
L 551.127773 -377.040761 
L 551.128204 -377.465287 
L 551.161221 -377.889814 
L 551.201973 -378.314341 
L 551.229582 -378.738867 
L 551.262918 -378.738867 
L 551.262918 -378.738867 
L 551.290527 -378.314341 
L 551.331279 -377.889814 
L 551.364296 -377.465287 
L 551.364727 -377.040761 
L 551.332213 -376.616234 
L 551.291346 -376.191707 
L 551.263405 -375.767181 
L 551.251389 -375.342654 
L 551.249767 -374.918127 
L 551.2571 -374.493601 
L 551.278347 -374.069074 
L 551.315685 -373.644548 
L 551.354883 -373.220021 
L 551.369119 -372.795494 
L 551.346716 -372.370968 
L 551.305637 -371.946441 
L 551.271628 -371.521914 
L 551.25409 -371.097388 
L 551.248001 -370.672861 
L 551.246533 -370.248334 
L 551.246286 -369.823808 
L 551.246285 -369.399281 
L 551.246531 -368.974755 
L 551.24799 -368.550228 
L 551.25405 -368.125701 
L 551.27153 -367.701175 
L 551.305485 -367.276648 
L 551.346634 -366.852121 
L 551.36956 -366.427595 
L 551.357628 -366.003068 
L 551.326687 -365.578541 
L 551.310804 -365.154015 
L 551.326836 -364.729488 
L 551.357765 -364.304961 
L 551.36953 -363.880435 
L 551.346444 -363.455908 
L 551.305275 -363.031382 
L 551.271398 -362.606855 
L 551.253996 -362.182328 
L 551.247975 -361.757802 
L 551.246528 -361.333275 
L 551.246282 -360.908748 
L 551.246253 -360.484222 
L 551.24625 -360.059695 
L 551.24625 -359.635168 
L 551.24625 -359.210642 
L 551.24625 -358.786115 
L 551.24625 -358.361588 
L 551.24625 -357.937062 
L 551.24625 -357.512535 
L 551.246253 -357.088009 
L 551.246289 -356.663482 
L 551.246578 -356.238955 
L 551.248237 -355.814429 
L 551.254986 -355.389902 
L 551.274232 -354.965375 
L 551.312197 -354.540849 
L 551.363062 -354.116322 
L 551.408202 -353.691795 
L 551.433375 -353.267269 
L 551.439393 -352.842742 
L 551.435625 -352.418216 
L 551.437281 -351.993689 
L 551.464144 -351.569162 
L 551.530176 -351.144636 
L 551.629823 -350.720109 
L 551.721006 -350.295582 
L 551.737977 -349.871056 
L 551.660591 -349.446529 
L 551.557291 -349.022002 
L 551.525181 -348.597476 
L 551.59651 -348.172949 
L 551.720378 -347.748422 
L 551.828654 -347.323896 
L 551.908715 -346.899369 
L 552.012676 -346.474843 
L 552.198488 -346.050316 
L 552.458049 -345.625789 
L 552.711302 -345.201263 
L 552.877544 -344.776736 
L 552.931244 -344.352209 
L 552.897573 -343.927683 
L 552.8488 -343.503156 
L 552.909955 -343.078629 
L 553.225474 -342.654103 
L 553.899136 -342.229576 
L 554.938948 -341.805049 
L 556.272943 -341.380523 
L 557.987851 -340.955996 
L 560.829337 -340.53147 
L 566.768664 -340.106943 
L 578.918572 -339.682416 
L 598.831928 -339.25789 
L 620.918636 -338.833363 
L 631.76725 -338.408836 
L 621.877552 -337.98431 
L 597.346573 -337.559783 
L 573.402454 -337.135256 
L 559.041627 -336.71073 
z
" style="stroke: #5c5c5c; stroke-width: 1.25"/>
    </defs>
    <g clip-path="url(#pdafcb618c0)">
     <use xlink:href="#m4cbcd4cf1f" x="0" y="576" style="fill: #4c67e6; stroke: #5c5c5c; stroke-width: 1.25"/>
    </g>
   </g>
   <g id="patch_3">
    <path d="M 148.64125 237.798684 
L 148.64125 237.798684 
L 148.64125 237.798684 
L 148.64125 237.798684 
z
" clip-path="url(#pdafcb618c0)" style="fill: #e6674c; stroke: #5c5c5c; stroke-width: 1.25; stroke-linejoin: miter"/>
   </g>
   <g id="patch_4">
    <path d="M 148.64125 237.798684 
L 148.64125 237.798684 
L 148.64125 237.798684 
L 148.64125 237.798684 
z
" clip-path="url(#pdafcb618c0)" style="fill: #4ce668; stroke: #5c5c5c; stroke-width: 1.25; stroke-linejoin: miter"/>
   </g>
   <g id="patch_5">
    <path d="M 148.64125 237.798684 
L 148.64125 237.798684 
L 148.64125 237.798684 
L 148.64125 237.798684 
z
" clip-path="url(#pdafcb618c0)" style="fill: #4c67e6; stroke: #5c5c5c; stroke-width: 1.25; stroke-linejoin: miter"/>
   </g>
   <g id="PolyCollection_4">
    <defs>
     <path id="mca20b3a76f" d="M 762.166869 -335.024744 
L 742.930631 -335.024744 
L 707.048801 -336.618307 
L 672.02775 -338.211869 
L 697.385133 -339.805432 
L 735.873671 -341.398994 
L 748.767266 -342.992557 
L 750.902959 -344.586119 
L 751.526871 -346.179682 
L 751.956171 -347.773244 
L 752.135211 -349.366807 
L 752.219184 -350.960369 
L 752.303822 -352.553932 
L 752.37867 -354.147494 
L 752.476935 -355.741057 
L 752.535376 -357.334619 
L 752.547354 -358.928182 
L 752.542777 -360.521744 
L 752.516422 -362.115307 
L 752.475673 -363.708869 
L 752.460737 -365.302432 
L 752.482178 -366.895994 
L 752.522005 -368.489557 
L 752.531806 -370.083119 
L 752.503263 -371.676682 
L 752.48904 -373.270244 
L 752.503137 -374.863807 
L 752.491982 -376.457369 
L 752.496369 -378.050932 
L 752.529773 -379.644494 
L 752.546226 -381.238057 
L 752.548627 -382.831619 
L 752.548748 -384.425182 
L 752.54875 -386.018745 
L 752.54875 -387.612307 
L 752.54875 -389.20587 
L 752.54875 -390.799432 
L 752.54875 -392.392995 
L 752.54875 -393.986557 
L 752.54875 -395.58012 
L 752.54875 -397.173682 
L 752.54875 -398.767245 
L 752.54875 -400.360807 
L 752.54875 -401.95437 
L 752.54875 -403.547932 
L 752.54875 -405.141495 
L 752.54875 -406.735057 
L 752.54875 -408.32862 
L 752.54875 -409.922182 
L 752.54875 -411.515745 
L 752.54875 -413.109307 
L 752.54875 -414.70287 
L 752.548749 -416.296432 
L 752.54871 -417.889995 
L 752.54764 -419.483557 
L 752.537382 -421.07712 
L 752.506221 -422.670682 
L 752.490606 -424.264245 
L 752.5197 -425.857807 
L 752.543446 -427.45137 
L 752.548396 -429.044932 
L 752.548741 -430.638495 
L 752.54875 -432.232057 
L 752.54875 -433.82562 
L 752.548729 -435.419182 
L 752.548059 -437.012745 
L 752.540414 -438.606307 
L 752.512008 -440.19987 
L 752.489568 -441.793432 
L 752.513913 -443.386995 
L 752.541256 -444.980557 
L 752.548161 -446.57412 
L 752.548733 -448.167682 
L 752.54875 -449.761245 
L 752.54875 -451.354807 
L 752.54875 -452.94837 
L 752.54875 -454.541932 
L 752.54875 -456.135495 
L 752.54875 -457.729057 
L 752.54875 -459.32262 
L 752.54875 -460.916182 
L 752.54875 -462.509745 
L 752.54875 -464.103307 
L 752.54875 -465.69687 
L 752.54875 -467.290432 
L 752.54875 -468.883995 
L 752.54875 -470.477557 
L 752.54875 -472.07112 
L 752.54875 -473.664682 
L 752.54875 -475.258245 
L 752.548746 -476.851807 
L 752.548545 -478.44537 
L 752.545114 -480.038932 
L 752.525234 -481.632495 
L 752.493156 -483.226057 
L 752.500125 -484.81962 
L 752.525799 -486.413182 
L 752.511452 -488.006745 
L 752.489475 -489.600307 
L 752.512721 -491.19387 
L 752.540738 -492.787432 
L 752.556762 -492.787432 
L 752.556762 -492.787432 
L 752.584779 -491.19387 
L 752.608025 -489.600307 
L 752.586048 -488.006745 
L 752.571701 -486.413182 
L 752.597375 -484.81962 
L 752.604344 -483.226057 
L 752.572266 -481.632495 
L 752.552386 -480.038932 
L 752.548955 -478.44537 
L 752.548754 -476.851807 
L 752.54875 -475.258245 
L 752.54875 -473.664682 
L 752.54875 -472.07112 
L 752.54875 -470.477557 
L 752.54875 -468.883995 
L 752.54875 -467.290432 
L 752.54875 -465.69687 
L 752.54875 -464.103307 
L 752.54875 -462.509745 
L 752.54875 -460.916182 
L 752.54875 -459.32262 
L 752.54875 -457.729057 
L 752.54875 -456.135495 
L 752.54875 -454.541932 
L 752.54875 -452.94837 
L 752.54875 -451.354807 
L 752.54875 -449.761245 
L 752.548767 -448.167682 
L 752.549339 -446.57412 
L 752.556244 -444.980557 
L 752.583587 -443.386995 
L 752.607932 -441.793432 
L 752.585492 -440.19987 
L 752.557086 -438.606307 
L 752.549441 -437.012745 
L 752.548771 -435.419182 
L 752.54875 -433.82562 
L 752.54875 -432.232057 
L 752.548759 -430.638495 
L 752.549104 -429.044932 
L 752.554054 -427.45137 
L 752.5778 -425.857807 
L 752.606894 -424.264245 
L 752.591279 -422.670682 
L 752.560118 -421.07712 
L 752.54986 -419.483557 
L 752.54879 -417.889995 
L 752.548751 -416.296432 
L 752.54875 -414.70287 
L 752.54875 -413.109307 
L 752.54875 -411.515745 
L 752.54875 -409.922182 
L 752.54875 -408.32862 
L 752.54875 -406.735057 
L 752.54875 -405.141495 
L 752.54875 -403.547932 
L 752.54875 -401.95437 
L 752.54875 -400.360807 
L 752.54875 -398.767245 
L 752.54875 -397.173682 
L 752.54875 -395.58012 
L 752.54875 -393.986557 
L 752.54875 -392.392995 
L 752.54875 -390.799432 
L 752.54875 -389.20587 
L 752.54875 -387.612307 
L 752.54875 -386.018745 
L 752.548752 -384.425182 
L 752.548873 -382.831619 
L 752.551274 -381.238057 
L 752.567727 -379.644494 
L 752.601131 -378.050932 
L 752.605518 -376.457369 
L 752.594363 -374.863807 
L 752.60846 -373.270244 
L 752.594237 -371.676682 
L 752.565694 -370.083119 
L 752.575495 -368.489557 
L 752.615322 -366.895994 
L 752.636763 -365.302432 
L 752.621827 -363.708869 
L 752.581078 -362.115307 
L 752.554723 -360.521744 
L 752.550146 -358.928182 
L 752.562124 -357.334619 
L 752.620565 -355.741057 
L 752.71883 -354.147494 
L 752.793678 -352.553932 
L 752.878316 -350.960369 
L 752.962289 -349.366807 
L 753.141329 -347.773244 
L 753.570629 -346.179682 
L 754.194541 -344.586119 
L 756.330234 -342.992557 
L 769.223829 -341.398994 
L 807.712367 -339.805432 
L 833.06975 -338.211869 
L 798.048699 -336.618307 
L 762.166869 -335.024744 
z
" style="stroke: #4d4d4d"/>
    </defs>
    <g clip-path="url(#pdafcb618c0)">
     <use xlink:href="#mca20b3a76f" x="0" y="576" style="fill: #808080; stroke: #4d4d4d"/>
    </g>
   </g>
   <g id="line2d_8">
    <path d="M 148.64125 237.798684 
L 148.64125 237.781951 
" clip-path="url(#pdafcb618c0)" style="fill: none; stroke: #5c5c5c; stroke-width: 1.875; stroke-linecap: round"/>
   </g>
   <g id="line2d_9">
    <path d="M 148.64125 237.7986 
L 148.64125 237.791822 
" clip-path="url(#pdafcb618c0)" style="fill: none; stroke: #5c5c5c; stroke-width: 5.625; stroke-linecap: round"/>
   </g>
   <g id="line2d_10">
    <path d="M 148.64125 237.797896 
" clip-path="url(#pdafcb618c0)" style="fill: none; stroke: #5c5c5c; stroke-width: 1.5; stroke-linecap: round"/>
    <defs>
     <path id="mc8ab7dacd3" d="M 2.34375 0 
L -2.34375 -0 
" style="stroke: #ffffff; stroke-width: 1.125"/>
    </defs>
    <g clip-path="url(#pdafcb618c0)">
     <use xlink:href="#mc8ab7dacd3" x="148.64125" y="237.797896" style="fill: #ffffff; stroke: #ffffff; stroke-width: 1.125"/>
    </g>
   </g>
   <g id="line2d_11">
    <path d="M 349.94375 152.037443 
L 349.94375 86.389139 
" clip-path="url(#pdafcb618c0)" style="fill: none; stroke: #5c5c5c; stroke-width: 1.875; stroke-linecap: round"/>
   </g>
   <g id="line2d_12">
    <path d="M 349.94375 138.695888 
L 349.94375 90.754162 
" clip-path="url(#pdafcb618c0)" style="fill: none; stroke: #5c5c5c; stroke-width: 5.625; stroke-linecap: round"/>
   </g>
   <g id="line2d_13">
    <path d="M 349.94375 113.228936 
" clip-path="url(#pdafcb618c0)" style="fill: none; stroke: #5c5c5c; stroke-width: 1.5; stroke-linecap: round"/>
    <g clip-path="url(#pdafcb618c0)">
     <use xlink:href="#mc8ab7dacd3" x="349.94375" y="113.228936" style="fill: #ffffff; stroke: #ffffff; stroke-width: 1.125"/>
    </g>
   </g>
   <g id="line2d_14">
    <path d="M 551.24625 237.79866 
L 551.24625 236.388446 
" clip-path="url(#pdafcb618c0)" style="fill: none; stroke: #5c5c5c; stroke-width: 1.875; stroke-linecap: round"/>
   </g>
   <g id="line2d_15">
    <path d="M 551.24625 237.774936 
L 551.24625 237.207575 
" clip-path="url(#pdafcb618c0)" style="fill: none; stroke: #5c5c5c; stroke-width: 5.625; stroke-linecap: round"/>
   </g>
   <g id="line2d_16">
    <path d="M 551.24625 237.674118 
" clip-path="url(#pdafcb618c0)" style="fill: none; stroke: #5c5c5c; stroke-width: 1.5; stroke-linecap: round"/>
    <g clip-path="url(#pdafcb618c0)">
     <use xlink:href="#mc8ab7dacd3" x="551.24625" y="237.674118" style="fill: #ffffff; stroke: #ffffff; stroke-width: 1.125"/>
    </g>
   </g>
   <g id="line2d_17">
    <path d="M 752.54875 237.798684 
L 752.54875 237.344252 
" clip-path="url(#pdafcb618c0)" style="fill: none; stroke: #4d4d4d; stroke-width: 1.5; stroke-linecap: round"/>
   </g>
   <g id="line2d_18">
    <path d="M 752.54875 237.797712 
L 752.54875 237.61542 
" clip-path="url(#pdafcb618c0)" style="fill: none; stroke: #4d4d4d; stroke-width: 4.5; stroke-linecap: round"/>
   </g>
   <g id="line2d_19">
    <path d="M 752.54875 237.781497 
" clip-path="url(#pdafcb618c0)" style="fill: none; stroke: #4d4d4d; stroke-width: 1.5; stroke-linecap: round"/>
    <defs>
     <path id="m123311d226" d="M 1.875 0 
L -1.875 -0 
" style="stroke: #ffffff; stroke-width: 0.9"/>
    </defs>
    <g clip-path="url(#pdafcb618c0)">
     <use xlink:href="#m123311d226" x="752.54875" y="237.781497" style="fill: #ffffff; stroke: #ffffff; stroke-width: 0.9"/>
    </g>
   </g>
   <g id="patch_6">
    <path d="M 47.99 251.130625 
L 47.99 27.7125 
" style="fill: none; stroke: #cccccc; stroke-width: 0.8; stroke-linejoin: miter; stroke-linecap: square"/>
   </g>
   <g id="patch_7">
    <path d="M 853.2 251.130625 
L 853.2 27.7125 
" style="fill: none; stroke: #cccccc; stroke-width: 0.8; stroke-linejoin: miter; stroke-linecap: square"/>
   </g>
   <g id="patch_8">
    <path d="M 47.99 251.130625 
L 853.2 251.130625 
" style="fill: none; stroke: #cccccc; stroke-width: 0.8; stroke-linejoin: miter; stroke-linecap: square"/>
   </g>
   <g id="patch_9">
    <path d="M 47.99 27.7125 
L 853.2 27.7125 
" style="fill: none; stroke: #cccccc; stroke-width: 0.8; stroke-linejoin: miter; stroke-linecap: square"/>
   </g>
   <g id="text_14">
    <!-- Số lượng người theo dõi theo từng nhóm -->
    <g style="fill: #262626" transform="translate(340.950625 21.7125) scale(0.12 -0.12)">
     <defs>
      <path id="ArialMT-1eeb" d="M 3488 2666 
L 3488 3319 
L 4091 3319 
L 4091 2803 
Q 4091 2313 3978 2119 
Q 3691 1619 3100 1556 
L 3100 0 
L 2597 0 
L 2597 488 
Q 2209 -75 1544 -75 
Q 1253 -75 998 36 
Q 744 147 619 319 
Q 494 491 444 738 
Q 409 906 409 1263 
L 409 3319 
L 972 3319 
L 972 1478 
Q 972 1031 1006 884 
Q 1116 409 1656 409 
Q 1916 409 2136 540 
Q 2356 672 2447 894 
Q 2538 1116 2538 1541 
L 2538 3319 
L 3100 3319 
L 3100 1794 
Q 3497 1863 3694 2166 
Q 3781 2297 3781 2666 
L 3488 2666 
z
M 2149 3731 
L 1696 3731 
L 974 4606 
L 1727 4606 
L 2149 3731 
z
" transform="scale(0.015625)"/>
     </defs>
     <use xlink:href="#ArialMT-53"/>
     <use xlink:href="#ArialMT-1ed1" x="66.699219"/>
     <use xlink:href="#ArialMT-20" x="122.314453"/>
     <use xlink:href="#ArialMT-6c" x="150.097656"/>
     <use xlink:href="#ArialMT-1b0" x="172.314453"/>
     <use xlink:href="#ArialMT-1ee3" x="239.257812"/>
     <use xlink:href="#ArialMT-6e" x="304.833984"/>
     <use xlink:href="#ArialMT-67" x="360.449219"/>
     <use xlink:href="#ArialMT-20" x="416.064453"/>
     <use xlink:href="#ArialMT-6e" x="443.847656"/>
     <use xlink:href="#ArialMT-67" x="499.462891"/>
     <use xlink:href="#ArialMT-1b0" x="555.078125"/>
     <use xlink:href="#ArialMT-1edd" x="622.021484"/>
     <use xlink:href="#ArialMT-69" x="687.597656"/>
     <use xlink:href="#ArialMT-20" x="709.814453"/>
     <use xlink:href="#ArialMT-74" x="737.597656"/>
     <use xlink:href="#ArialMT-68" x="765.380859"/>
     <use xlink:href="#ArialMT-65" x="820.996094"/>
     <use xlink:href="#ArialMT-6f" x="876.611328"/>
     <use xlink:href="#ArialMT-20" x="932.226562"/>
     <use xlink:href="#ArialMT-64" x="960.009766"/>
     <use xlink:href="#ArialMT-f5" x="1015.625"/>
     <use xlink:href="#ArialMT-69" x="1071.240234"/>
     <use xlink:href="#ArialMT-20" x="1093.457031"/>
     <use xlink:href="#ArialMT-74" x="1121.240234"/>
     <use xlink:href="#ArialMT-68" x="1149.023438"/>
     <use xlink:href="#ArialMT-65" x="1204.638672"/>
     <use xlink:href="#ArialMT-6f" x="1260.253906"/>
     <use xlink:href="#ArialMT-20" x="1315.869141"/>
     <use xlink:href="#ArialMT-74" x="1343.652344"/>
     <use xlink:href="#ArialMT-1eeb" x="1371.435547"/>
     <use xlink:href="#ArialMT-6e" x="1438.378906"/>
     <use xlink:href="#ArialMT-67" x="1493.994141"/>
     <use xlink:href="#ArialMT-20" x="1549.609375"/>
     <use xlink:href="#ArialMT-6e" x="1577.392578"/>
     <use xlink:href="#ArialMT-68" x="1633.007812"/>
     <use xlink:href="#ArialMT-f3" x="1688.623047"/>
     <use xlink:href="#ArialMT-6d" x="1744.238281"/>
    </g>
   </g>
   <g id="legend_1">
    <g id="patch_10">
     <path d="M 808.639063 78.148437 
L 846.2 78.148437 
Q 848.2 78.148437 848.2 76.148437 
L 848.2 34.7125 
Q 848.2 32.7125 846.2 32.7125 
L 808.639063 32.7125 
Q 806.639063 32.7125 806.639063 34.7125 
L 806.639063 76.148437 
Q 806.639063 78.148437 808.639063 78.148437 
z
" style="fill: #ffffff; opacity: 0.8; stroke: #cccccc; stroke-linejoin: miter"/>
    </g>
    <g id="patch_11">
     <path d="M 810.639063 43.870312 
L 830.639063 43.870312 
L 830.639063 36.870312 
L 810.639063 36.870312 
z
" style="fill: #e6674c; stroke: #5c5c5c; stroke-width: 1.25; stroke-linejoin: miter"/>
    </g>
    <g id="text_15">
     <!-- 0 -->
     <g style="fill: #262626" transform="translate(838.639063 43.870312) scale(0.1 -0.1)">
      <use xlink:href="#ArialMT-30"/>
     </g>
    </g>
    <g id="patch_12">
     <path d="M 810.639063 58.015625 
L 830.639063 58.015625 
L 830.639063 51.015625 
L 810.639063 51.015625 
z
" style="fill: #4ce668; stroke: #5c5c5c; stroke-width: 1.25; stroke-linejoin: miter"/>
    </g>
    <g id="text_16">
     <!-- 1 -->
     <g style="fill: #262626" transform="translate(838.639063 58.015625) scale(0.1 -0.1)">
      <use xlink:href="#ArialMT-31"/>
     </g>
    </g>
    <g id="patch_13">
     <path d="M 810.639063 72.160937 
L 830.639063 72.160937 
L 830.639063 65.160937 
L 810.639063 65.160937 
z
" style="fill: #4c67e6; stroke: #5c5c5c; stroke-width: 1.25; stroke-linejoin: miter"/>
    </g>
    <g id="text_17">
     <!-- 2 -->
     <g style="fill: #262626" transform="translate(838.639063 72.160937) scale(0.1 -0.1)">
      <use xlink:href="#ArialMT-32"/>
     </g>
    </g>
   </g>
  </g>
  <g id="axes_2">
   <g id="patch_14">
    <path d="M 47.99 534.04 
L 853.2 534.04 
L 853.2 310.621875 
L 47.99 310.621875 
z
" style="fill: #ffffff"/>
   </g>
   <g id="matplotlib.axis_3">
    <g id="xtick_5">
     <g id="text_18">
      <!-- 0 -->
      <g style="fill: #262626" transform="translate(145.860781 548.197812) scale(0.1 -0.1)">
       <use xlink:href="#ArialMT-30"/>
      </g>
     </g>
    </g>
    <g id="xtick_6">
     <g id="text_19">
      <!-- 1 -->
      <g style="fill: #262626" transform="translate(347.163281 548.197812) scale(0.1 -0.1)">
       <use xlink:href="#ArialMT-31"/>
      </g>
     </g>
    </g>
    <g id="xtick_7">
     <g id="text_20">
      <!-- 2 -->
      <g style="fill: #262626" transform="translate(548.465781 548.197812) scale(0.1 -0.1)">
       <use xlink:href="#ArialMT-32"/>
      </g>
     </g>
    </g>
    <g id="xtick_8"/>
    <g id="text_21">
     <!-- Nhóm -->
     <g style="fill: #262626" transform="translate(437.258281 561.343125) scale(0.1 -0.1)">
      <use xlink:href="#ArialMT-4e"/>
      <use xlink:href="#ArialMT-68" x="72.216797"/>
      <use xlink:href="#ArialMT-f3" x="127.832031"/>
      <use xlink:href="#ArialMT-6d" x="183.447266"/>
     </g>
    </g>
   </g>
   <g id="matplotlib.axis_4">
    <g id="ytick_8">
     <g id="line2d_20">
      <path d="M 47.99 506.849116 
L 853.2 506.849116 
" clip-path="url(#p5232feab2f)" style="fill: none; stroke: #cccccc; stroke-width: 0.8; stroke-linecap: round"/>
     </g>
     <g id="text_22">
      <!-- 0 -->
      <g style="fill: #262626" transform="translate(35.429063 510.428022) scale(0.1 -0.1)">
       <use xlink:href="#ArialMT-30"/>
      </g>
     </g>
    </g>
    <g id="ytick_9">
     <g id="line2d_21">
      <path d="M 47.99 466.602364 
L 853.2 466.602364 
" clip-path="url(#p5232feab2f)" style="fill: none; stroke: #cccccc; stroke-width: 0.8; stroke-linecap: round"/>
     </g>
     <g id="text_23">
      <!-- 20 -->
      <g style="fill: #262626" transform="translate(29.868125 470.18127) scale(0.1 -0.1)">
       <use xlink:href="#ArialMT-32"/>
       <use xlink:href="#ArialMT-30" x="55.615234"/>
      </g>
     </g>
    </g>
    <g id="ytick_10">
     <g id="line2d_22">
      <path d="M 47.99 426.355613 
L 853.2 426.355613 
" clip-path="url(#p5232feab2f)" style="fill: none; stroke: #cccccc; stroke-width: 0.8; stroke-linecap: round"/>
     </g>
     <g id="text_24">
      <!-- 40 -->
      <g style="fill: #262626" transform="translate(29.868125 429.934519) scale(0.1 -0.1)">
       <defs>
        <path id="ArialMT-34" d="M 2069 0 
L 2069 1097 
L 81 1097 
L 81 1613 
L 2172 4581 
L 2631 4581 
L 2631 1613 
L 3250 1613 
L 3250 1097 
L 2631 1097 
L 2631 0 
L 2069 0 
z
M 2069 1613 
L 2069 3678 
L 634 1613 
L 2069 1613 
z
" transform="scale(0.015625)"/>
       </defs>
       <use xlink:href="#ArialMT-34"/>
       <use xlink:href="#ArialMT-30" x="55.615234"/>
      </g>
     </g>
    </g>
    <g id="ytick_11">
     <g id="line2d_23">
      <path d="M 47.99 386.108861 
L 853.2 386.108861 
" clip-path="url(#p5232feab2f)" style="fill: none; stroke: #cccccc; stroke-width: 0.8; stroke-linecap: round"/>
     </g>
     <g id="text_25">
      <!-- 60 -->
      <g style="fill: #262626" transform="translate(29.868125 389.687767) scale(0.1 -0.1)">
       <defs>
        <path id="ArialMT-36" d="M 3184 3459 
L 2625 3416 
Q 2550 3747 2413 3897 
Q 2184 4138 1850 4138 
Q 1581 4138 1378 3988 
Q 1113 3794 959 3422 
Q 806 3050 800 2363 
Q 1003 2672 1297 2822 
Q 1591 2972 1913 2972 
Q 2475 2972 2870 2558 
Q 3266 2144 3266 1488 
Q 3266 1056 3080 686 
Q 2894 316 2569 119 
Q 2244 -78 1831 -78 
Q 1128 -78 684 439 
Q 241 956 241 2144 
Q 241 3472 731 4075 
Q 1159 4600 1884 4600 
Q 2425 4600 2770 4297 
Q 3116 3994 3184 3459 
z
M 888 1484 
Q 888 1194 1011 928 
Q 1134 663 1356 523 
Q 1578 384 1822 384 
Q 2178 384 2434 671 
Q 2691 959 2691 1453 
Q 2691 1928 2437 2201 
Q 2184 2475 1800 2475 
Q 1419 2475 1153 2201 
Q 888 1928 888 1484 
z
" transform="scale(0.015625)"/>
       </defs>
       <use xlink:href="#ArialMT-36"/>
       <use xlink:href="#ArialMT-30" x="55.615234"/>
      </g>
     </g>
    </g>
    <g id="ytick_12">
     <g id="line2d_24">
      <path d="M 47.99 345.862109 
L 853.2 345.862109 
" clip-path="url(#p5232feab2f)" style="fill: none; stroke: #cccccc; stroke-width: 0.8; stroke-linecap: round"/>
     </g>
     <g id="text_26">
      <!-- 80 -->
      <g style="fill: #262626" transform="translate(29.868125 349.441016) scale(0.1 -0.1)">
       <defs>
        <path id="ArialMT-38" d="M 1131 2484 
Q 781 2613 612 2850 
Q 444 3088 444 3419 
Q 444 3919 803 4259 
Q 1163 4600 1759 4600 
Q 2359 4600 2725 4251 
Q 3091 3903 3091 3403 
Q 3091 3084 2923 2848 
Q 2756 2613 2416 2484 
Q 2838 2347 3058 2040 
Q 3278 1734 3278 1309 
Q 3278 722 2862 322 
Q 2447 -78 1769 -78 
Q 1091 -78 675 323 
Q 259 725 259 1325 
Q 259 1772 486 2073 
Q 713 2375 1131 2484 
z
M 1019 3438 
Q 1019 3113 1228 2906 
Q 1438 2700 1772 2700 
Q 2097 2700 2305 2904 
Q 2513 3109 2513 3406 
Q 2513 3716 2298 3927 
Q 2084 4138 1766 4138 
Q 1444 4138 1231 3931 
Q 1019 3725 1019 3438 
z
M 838 1322 
Q 838 1081 952 856 
Q 1066 631 1291 507 
Q 1516 384 1775 384 
Q 2178 384 2440 643 
Q 2703 903 2703 1303 
Q 2703 1709 2433 1975 
Q 2163 2241 1756 2241 
Q 1359 2241 1098 1978 
Q 838 1716 838 1322 
z
" transform="scale(0.015625)"/>
       </defs>
       <use xlink:href="#ArialMT-38"/>
       <use xlink:href="#ArialMT-30" x="55.615234"/>
      </g>
     </g>
    </g>
    <g id="text_27">
     <!-- Độ phổ biến -->
     <g style="fill: #262626" transform="translate(23.880625 449.294219) rotate(-90) scale(0.1 -0.1)">
      <defs>
       <path id="ArialMT-110" d="M 494 0 
L 494 2084 
L -9 2084 
L -9 2497 
L 494 2497 
L 494 4581 
L 2075 4581 
Q 2606 4581 2888 4516 
Q 3281 4425 3559 4188 
Q 3922 3881 4101 3404 
Q 4281 2928 4281 2316 
Q 4281 1616 4059 1111 
Q 3838 606 3528 378 
Q 3219 150 2816 53 
Q 2594 0 2147 0 
L 494 0 
z
M 1100 541 
L 2078 541 
Q 2534 541 2790 625 
Q 3047 709 3197 859 
Q 3413 1075 3534 1437 
Q 3656 1800 3656 2322 
Q 3656 2859 3536 3181 
Q 3416 3503 3222 3697 
Q 3028 3891 2790 3966 
Q 2553 4041 2063 4041 
L 1100 4041 
L 1100 2497 
L 2363 2497 
L 2363 2084 
L 1100 2084 
L 1100 541 
z
" transform="scale(0.015625)"/>
       <path id="ArialMT-1ed9" d="M 213 1659 
Q 213 2581 725 3025 
Q 1153 3394 1769 3394 
Q 2453 3394 2887 2945 
Q 3322 2497 3322 1706 
Q 3322 1066 3130 698 
Q 2938 331 2570 128 
Q 2203 -75 1769 -75 
Q 1072 -75 642 372 
Q 213 819 213 1659 
z
M 791 1659 
Q 791 1022 1069 705 
Q 1347 388 1769 388 
Q 2188 388 2466 706 
Q 2744 1025 2744 1678 
Q 2744 2294 2464 2611 
Q 2184 2928 1769 2928 
Q 1347 2928 1069 2612 
Q 791 2297 791 1659 
z
M 1779 4263 
L 1426 3731 
L 782 3731 
L 1457 4606 
L 2057 4606 
L 2760 3731 
L 2123 3731 
L 1779 4263 
z
M 1422 -1016 
L 1422 -375 
L 2063 -375 
L 2063 -1016 
L 1422 -1016 
z
" transform="scale(0.015625)"/>
       <path id="ArialMT-70" d="M 422 -1272 
L 422 3319 
L 934 3319 
L 934 2888 
Q 1116 3141 1344 3267 
Q 1572 3394 1897 3394 
Q 2322 3394 2647 3175 
Q 2972 2956 3137 2557 
Q 3303 2159 3303 1684 
Q 3303 1175 3120 767 
Q 2938 359 2589 142 
Q 2241 -75 1856 -75 
Q 1575 -75 1351 44 
Q 1128 163 984 344 
L 984 -1272 
L 422 -1272 
z
M 931 1641 
Q 931 1000 1190 694 
Q 1450 388 1819 388 
Q 2194 388 2461 705 
Q 2728 1022 2728 1688 
Q 2728 2322 2467 2637 
Q 2206 2953 1844 2953 
Q 1484 2953 1207 2617 
Q 931 2281 931 1641 
z
" transform="scale(0.015625)"/>
       <path id="ArialMT-1ed5" d="M 213 1659 
Q 213 2581 725 3025 
Q 1153 3394 1769 3394 
Q 2453 3394 2887 2945 
Q 3322 2497 3322 1706 
Q 3322 1066 3130 698 
Q 2938 331 2570 128 
Q 2203 -75 1769 -75 
Q 1072 -75 642 372 
Q 213 819 213 1659 
z
M 791 1659 
Q 791 1022 1069 705 
Q 1347 388 1769 388 
Q 2188 388 2466 706 
Q 2744 1025 2744 1678 
Q 2744 2294 2464 2611 
Q 2184 2928 1769 2928 
Q 1347 2928 1069 2612 
Q 791 2297 791 1659 
z
M 1779 4263 
L 1426 3731 
L 782 3731 
L 1457 4606 
L 2057 4606 
L 2760 3731 
L 2123 3731 
L 1779 4263 
z
M 1587 5075 
Q 1765 5094 1815 5109 
Q 1980 5150 1983 5238 
Q 1987 5309 1896 5359 
Q 1765 5431 1480 5431 
Q 1383 5431 1187 5419 
L 1152 5713 
Q 1274 5738 1602 5734 
Q 1987 5731 2230 5609 
Q 2499 5478 2505 5269 
Q 2518 4953 1937 4881 
L 1937 4725 
L 1587 4725 
L 1587 5075 
z
" transform="scale(0.015625)"/>
       <path id="ArialMT-62" d="M 941 0 
L 419 0 
L 419 4581 
L 981 4581 
L 981 2947 
Q 1338 3394 1891 3394 
Q 2197 3394 2470 3270 
Q 2744 3147 2920 2923 
Q 3097 2700 3197 2384 
Q 3297 2069 3297 1709 
Q 3297 856 2875 390 
Q 2453 -75 1863 -75 
Q 1275 -75 941 416 
L 941 0 
z
M 934 1684 
Q 934 1088 1097 822 
Q 1363 388 1816 388 
Q 2184 388 2453 708 
Q 2722 1028 2722 1663 
Q 2722 2313 2464 2622 
Q 2206 2931 1841 2931 
Q 1472 2931 1203 2611 
Q 934 2291 934 1684 
z
" transform="scale(0.015625)"/>
       <path id="ArialMT-1ebf" d="M 2694 1069 
L 3275 997 
Q 3138 488 2766 206 
Q 2394 -75 1816 -75 
Q 1088 -75 661 373 
Q 234 822 234 1631 
Q 234 2469 665 2931 
Q 1097 3394 1784 3394 
Q 2450 3394 2872 2941 
Q 3294 2488 3294 1666 
Q 3294 1616 3291 1516 
L 816 1516 
Q 847 969 1125 678 
Q 1403 388 1819 388 
Q 2128 388 2347 550 
Q 2566 713 2694 1069 
z
M 847 1978 
L 2700 1978 
Q 2663 2397 2488 2606 
Q 2219 2931 1791 2931 
Q 1403 2931 1139 2672 
Q 875 2413 847 1978 
z
M 1771 4263 
L 1418 3731 
L 774 3731 
L 1449 4606 
L 2049 4606 
L 2752 3731 
L 2115 3731 
L 1771 4263 
z
M 1874 5709 
L 2628 5709 
L 1906 4834 
L 1453 4834 
L 1874 5709 
z
" transform="scale(0.015625)"/>
      </defs>
      <use xlink:href="#ArialMT-110"/>
      <use xlink:href="#ArialMT-1ed9" x="72.216797"/>
      <use xlink:href="#ArialMT-20" x="127.832031"/>
      <use xlink:href="#ArialMT-70" x="155.615234"/>
      <use xlink:href="#ArialMT-68" x="211.230469"/>
      <use xlink:href="#ArialMT-1ed5" x="266.845703"/>
      <use xlink:href="#ArialMT-20" x="322.460938"/>
      <use xlink:href="#ArialMT-62" x="350.244141"/>
      <use xlink:href="#ArialMT-69" x="405.859375"/>
      <use xlink:href="#ArialMT-1ebf" x="428.076172"/>
      <use xlink:href="#ArialMT-6e" x="483.691406"/>
     </g>
    </g>
   </g>
   <g id="PolyCollection_5">
    <defs>
     <path id="m55f601da1c" d="M 156.950433 -60.333717 
L 140.332067 -60.333717 
L 137.535364 -60.979354 
L 134.100519 -61.624992 
L 129.990245 -62.270629 
L 125.201489 -62.916266 
L 119.774416 -63.561904 
L 113.798691 -64.207541 
L 107.415629 -64.853178 
L 100.81508 -65.498816 
L 94.226543 -66.144453 
L 87.904788 -66.790091 
L 82.111175 -67.435728 
L 77.092593 -68.081365 
L 73.0605 -68.727003 
L 70.172682 -69.37264 
L 68.520069 -70.018277 
L 68.12025 -70.663915 
L 68.918395 -71.309552 
L 70.795206 -71.955189 
L 73.580577 -72.600827 
L 77.070947 -73.246464 
L 81.047997 -73.892102 
L 85.296435 -74.537739 
L 89.61901 -75.183376 
L 93.847565 -75.829014 
L 97.849624 -76.474651 
L 101.530681 -77.120288 
L 104.832871 -77.765926 
L 107.73095 -78.411563 
L 110.226644 -79.0572 
L 112.342277 -79.702838 
L 114.114467 -80.348475 
L 115.588363 -80.994113 
L 116.81275 -81.63975 
L 117.836118 -82.285387 
L 118.7037 -82.931025 
L 119.455394 -83.576662 
L 120.124477 -84.222299 
L 120.736987 -84.867937 
L 121.311691 -85.513574 
L 121.860512 -86.159211 
L 122.389349 -86.804849 
L 122.899172 -87.450486 
L 123.387299 -88.096123 
L 123.848744 -88.741761 
L 124.277538 -89.387398 
L 124.667896 -90.033036 
L 125.015163 -90.678673 
L 125.316433 -91.32431 
L 125.57083 -91.969948 
L 125.779411 -92.615585 
L 125.944762 -93.261222 
L 126.070329 -93.90686 
L 126.159623 -94.552497 
L 126.215417 -95.198134 
L 126.239059 -95.843772 
L 126.230025 -96.489409 
L 126.18578 -97.135047 
L 126.101963 -97.780684 
L 125.972875 -98.426321 
L 125.792193 -99.071959 
L 125.553798 -99.717596 
L 125.252611 -100.363233 
L 124.88533 -101.008871 
L 124.45102 -101.654508 
L 123.951514 -102.300145 
L 123.391675 -102.945783 
L 122.779554 -103.59142 
L 122.126514 -104.237058 
L 121.447364 -104.882695 
L 120.760514 -105.528332 
L 120.088093 -106.17397 
L 119.455959 -106.819607 
L 118.893458 -107.465244 
L 118.432825 -108.110882 
L 118.108115 -108.756519 
L 117.953634 -109.402156 
L 118.001911 -110.047794 
L 118.281353 -110.693431 
L 118.813783 -111.339069 
L 119.612149 -111.984706 
L 120.678658 -112.630343 
L 122.003633 -113.275981 
L 123.565248 -113.921618 
L 125.330264 -114.567255 
L 127.255728 -115.212893 
L 129.291512 -115.85853 
L 131.383436 -116.504167 
L 133.476686 -117.149805 
L 135.51918 -117.795442 
L 137.464561 -118.441079 
L 139.274557 -119.086717 
L 140.920524 -119.732354 
L 142.3841 -120.377992 
L 143.656999 -121.023629 
L 144.740069 -121.669266 
L 145.641797 -122.314904 
L 146.376486 -122.960541 
L 146.962323 -123.606178 
L 147.419537 -124.251816 
L 149.862963 -124.251816 
L 149.862963 -124.251816 
L 150.320177 -123.606178 
L 150.906014 -122.960541 
L 151.640703 -122.314904 
L 152.542431 -121.669266 
L 153.625501 -121.023629 
L 154.8984 -120.377992 
L 156.361976 -119.732354 
L 158.007943 -119.086717 
L 159.817939 -118.441079 
L 161.76332 -117.795442 
L 163.805814 -117.149805 
L 165.899064 -116.504167 
L 167.990988 -115.85853 
L 170.026772 -115.212893 
L 171.952236 -114.567255 
L 173.717252 -113.921618 
L 175.278867 -113.275981 
L 176.603842 -112.630343 
L 177.670351 -111.984706 
L 178.468717 -111.339069 
L 179.001147 -110.693431 
L 179.280589 -110.047794 
L 179.328866 -109.402156 
L 179.174385 -108.756519 
L 178.849675 -108.110882 
L 178.389042 -107.465244 
L 177.826541 -106.819607 
L 177.194407 -106.17397 
L 176.521986 -105.528332 
L 175.835136 -104.882695 
L 175.155986 -104.237058 
L 174.502946 -103.59142 
L 173.890825 -102.945783 
L 173.330986 -102.300145 
L 172.83148 -101.654508 
L 172.39717 -101.008871 
L 172.029889 -100.363233 
L 171.728702 -99.717596 
L 171.490307 -99.071959 
L 171.309625 -98.426321 
L 171.180537 -97.780684 
L 171.09672 -97.135047 
L 171.052475 -96.489409 
L 171.043441 -95.843772 
L 171.067083 -95.198134 
L 171.122877 -94.552497 
L 171.212171 -93.90686 
L 171.337738 -93.261222 
L 171.503089 -92.615585 
L 171.71167 -91.969948 
L 171.966067 -91.32431 
L 172.267337 -90.678673 
L 172.614604 -90.033036 
L 173.004962 -89.387398 
L 173.433756 -88.741761 
L 173.895201 -88.096123 
L 174.383328 -87.450486 
L 174.893151 -86.804849 
L 175.421988 -86.159211 
L 175.970809 -85.513574 
L 176.545513 -84.867937 
L 177.158023 -84.222299 
L 177.827106 -83.576662 
L 178.5788 -82.931025 
L 179.446382 -82.285387 
L 180.46975 -81.63975 
L 181.694137 -80.994113 
L 183.168033 -80.348475 
L 184.940223 -79.702838 
L 187.055856 -79.0572 
L 189.55155 -78.411563 
L 192.449629 -77.765926 
L 195.751819 -77.120288 
L 199.432876 -76.474651 
L 203.434935 -75.829014 
L 207.66349 -75.183376 
L 211.986065 -74.537739 
L 216.234503 -73.892102 
L 220.211553 -73.246464 
L 223.701923 -72.600827 
L 226.487294 -71.955189 
L 228.364105 -71.309552 
L 229.16225 -70.663915 
L 228.762431 -70.018277 
L 227.109818 -69.37264 
L 224.222 -68.727003 
L 220.189907 -68.081365 
L 215.171325 -67.435728 
L 209.377712 -66.790091 
L 203.055957 -66.144453 
L 196.46742 -65.498816 
L 189.866871 -64.853178 
L 183.483809 -64.207541 
L 177.508084 -63.561904 
L 172.081011 -62.916266 
L 167.292255 -62.270629 
L 163.181981 -61.624992 
L 159.747136 -60.979354 
L 156.950433 -60.333717 
z
" style="stroke: #5c5c5c; stroke-width: 1.25"/>
    </defs>
    <g clip-path="url(#p5232feab2f)">
     <use xlink:href="#m55f601da1c" x="0" y="576" style="fill: #e6674c; stroke: #5c5c5c; stroke-width: 1.25"/>
    </g>
   </g>
   <g id="PolyCollection_6">
    <defs>
     <path id="m6ce2b89a5d" d="M 353.675209 -221.362322 
L 346.212291 -221.362322 
L 345.657443 -221.600586 
L 345.044303 -221.83885 
L 344.370956 -222.077114 
L 343.636148 -222.315379 
L 342.839389 -222.553643 
L 341.981061 -222.791907 
L 341.062499 -223.030171 
L 340.086071 -223.268435 
L 339.055222 -223.506699 
L 337.974504 -223.744963 
L 336.849566 -223.983228 
L 335.687116 -224.221492 
L 334.494848 -224.459756 
L 333.281323 -224.69802 
L 332.055821 -224.936284 
L 330.828146 -225.174548 
L 329.608408 -225.412812 
L 328.406765 -225.651076 
L 327.233137 -225.889341 
L 326.096919 -226.127605 
L 325.006663 -226.365869 
L 323.969773 -226.604133 
L 322.992208 -226.842397 
L 322.078206 -227.080661 
L 321.230034 -227.318925 
L 320.447788 -227.55719 
L 319.729244 -227.795454 
L 319.069763 -228.033718 
L 318.462274 -228.271982 
L 317.897324 -228.510246 
L 317.363207 -228.74851 
L 316.846171 -228.986774 
L 316.3307 -229.225039 
L 315.799872 -229.463303 
L 315.235776 -229.701567 
L 314.619989 -229.939831 
L 313.934098 -230.178095 
L 313.160252 -230.416359 
L 312.281726 -230.654623 
L 311.283496 -230.892888 
L 310.152782 -231.131152 
L 308.879569 -231.369416 
L 307.457075 -231.60768 
L 305.882141 -231.845944 
L 304.15556 -232.084208 
L 302.282294 -232.322472 
L 300.271597 -232.560737 
L 298.137028 -232.799001 
L 295.896345 -233.037265 
L 293.571287 -233.275529 
L 291.187241 -233.513793 
L 288.772806 -233.752057 
L 286.35926 -233.990321 
L 283.979938 -234.228586 
L 281.669552 -234.46685 
L 279.463453 -234.705114 
L 277.396861 -234.943378 
L 275.504095 -235.181642 
L 273.817807 -235.419906 
L 272.368251 -235.65817 
L 271.182606 -235.896434 
L 270.284372 -236.134699 
L 269.692854 -236.372963 
L 269.42275 -236.611227 
L 269.483848 -236.849491 
L 269.880849 -237.087755 
L 270.613308 -237.326019 
L 271.675702 -237.564283 
L 273.057614 -237.802548 
L 274.744027 -238.040812 
L 276.715718 -238.279076 
L 278.949741 -238.51734 
L 281.419974 -238.755604 
L 284.097723 -238.993868 
L 286.952359 -239.232132 
L 289.95197 -239.470397 
L 293.064008 -239.708661 
L 296.255925 -239.946925 
L 299.495763 -240.185189 
L 302.752703 -240.423453 
L 305.997548 -240.661717 
L 309.203146 -240.899981 
L 312.344728 -241.138246 
L 315.400174 -241.37651 
L 318.350197 -241.614774 
L 321.178454 -241.853038 
L 323.871579 -242.091302 
L 326.41915 -242.329566 
L 328.813594 -242.56783 
L 331.050042 -242.806095 
L 333.126142 -243.044359 
L 335.041828 -243.282623 
L 336.799079 -243.520887 
L 338.401651 -243.759151 
L 339.854808 -243.997415 
L 341.165048 -244.235679 
L 342.339843 -244.473943 
L 343.387388 -244.712208 
L 344.316368 -244.950472 
L 355.571132 -244.950472 
L 355.571132 -244.950472 
L 356.500112 -244.712208 
L 357.547657 -244.473943 
L 358.722452 -244.235679 
L 360.032692 -243.997415 
L 361.485849 -243.759151 
L 363.088421 -243.520887 
L 364.845672 -243.282623 
L 366.761358 -243.044359 
L 368.837458 -242.806095 
L 371.073906 -242.56783 
L 373.46835 -242.329566 
L 376.015921 -242.091302 
L 378.709046 -241.853038 
L 381.537303 -241.614774 
L 384.487326 -241.37651 
L 387.542772 -241.138246 
L 390.684354 -240.899981 
L 393.889952 -240.661717 
L 397.134797 -240.423453 
L 400.391737 -240.185189 
L 403.631575 -239.946925 
L 406.823492 -239.708661 
L 409.93553 -239.470397 
L 412.935141 -239.232132 
L 415.789777 -238.993868 
L 418.467526 -238.755604 
L 420.937759 -238.51734 
L 423.171782 -238.279076 
L 425.143473 -238.040812 
L 426.829886 -237.802548 
L 428.211798 -237.564283 
L 429.274192 -237.326019 
L 430.006651 -237.087755 
L 430.403652 -236.849491 
L 430.46475 -236.611227 
L 430.194646 -236.372963 
L 429.603128 -236.134699 
L 428.704894 -235.896434 
L 427.519249 -235.65817 
L 426.069693 -235.419906 
L 424.383405 -235.181642 
L 422.490639 -234.943378 
L 420.424047 -234.705114 
L 418.217948 -234.46685 
L 415.907562 -234.228586 
L 413.52824 -233.990321 
L 411.114694 -233.752057 
L 408.700259 -233.513793 
L 406.316213 -233.275529 
L 403.991155 -233.037265 
L 401.750472 -232.799001 
L 399.615903 -232.560737 
L 397.605206 -232.322472 
L 395.73194 -232.084208 
L 394.005359 -231.845944 
L 392.430425 -231.60768 
L 391.007931 -231.369416 
L 389.734718 -231.131152 
L 388.604004 -230.892888 
L 387.605774 -230.654623 
L 386.727248 -230.416359 
L 385.953402 -230.178095 
L 385.267511 -229.939831 
L 384.651724 -229.701567 
L 384.087628 -229.463303 
L 383.5568 -229.225039 
L 383.041329 -228.986774 
L 382.524293 -228.74851 
L 381.990176 -228.510246 
L 381.425226 -228.271982 
L 380.817737 -228.033718 
L 380.158256 -227.795454 
L 379.439712 -227.55719 
L 378.657466 -227.318925 
L 377.809294 -227.080661 
L 376.895292 -226.842397 
L 375.917727 -226.604133 
L 374.880837 -226.365869 
L 373.790581 -226.127605 
L 372.654363 -225.889341 
L 371.480735 -225.651076 
L 370.279092 -225.412812 
L 369.059354 -225.174548 
L 367.831679 -224.936284 
L 366.606177 -224.69802 
L 365.392652 -224.459756 
L 364.200384 -224.221492 
L 363.037934 -223.983228 
L 361.912996 -223.744963 
L 360.832278 -223.506699 
L 359.801429 -223.268435 
L 358.825001 -223.030171 
L 357.906439 -222.791907 
L 357.048111 -222.553643 
L 356.251352 -222.315379 
L 355.516544 -222.077114 
L 354.843197 -221.83885 
L 354.230057 -221.600586 
L 353.675209 -221.362322 
z
" style="stroke: #5c5c5c; stroke-width: 1.25"/>
    </defs>
    <g clip-path="url(#p5232feab2f)">
     <use xlink:href="#m6ce2b89a5d" x="0" y="576" style="fill: #4ce668; stroke: #5c5c5c; stroke-width: 1.25"/>
    </g>
   </g>
   <g id="PolyCollection_7">
    <defs>
     <path id="m39f0bfb4d5" d="M 553.395145 -106.739611 
L 549.097355 -106.739611 
L 547.631748 -108.033233 
L 545.464806 -109.326856 
L 542.441031 -110.620479 
L 538.457329 -111.914101 
L 533.49926 -113.207724 
L 527.664635 -114.501347 
L 521.163848 -115.794969 
L 514.292919 -117.088592 
L 507.384911 -118.382214 
L 500.753832 -119.675837 
L 494.648206 -120.96946 
L 489.227231 -122.263082 
L 484.562911 -123.556705 
L 480.66138 -124.850328 
L 477.490696 -126.14395 
L 475.003022 -127.437573 
L 473.145127 -128.731196 
L 471.858704 -130.024818 
L 471.077088 -131.318441 
L 470.72525 -132.612064 
L 470.726167 -133.905686 
L 471.011391 -135.199309 
L 471.530237 -136.492932 
L 472.252283 -137.786554 
L 473.161457 -139.080177 
L 474.244496 -140.3738 
L 475.479444 -141.667422 
L 476.829538 -142.961045 
L 478.245015 -144.254668 
L 479.671823 -145.54829 
L 481.063652 -146.841913 
L 482.393074 -148.135535 
L 483.658405 -149.429158 
L 484.884558 -150.722781 
L 486.117976 -152.016403 
L 487.417352 -153.310026 
L 488.842752 -154.603649 
L 490.445746 -155.897271 
L 492.262065 -157.190894 
L 494.306827 -158.484517 
L 496.571544 -159.778139 
L 499.022481 -161.071762 
L 501.601349 -162.365385 
L 504.230293 -163.659007 
L 506.822632 -164.95263 
L 509.298411 -166.246253 
L 511.600856 -167.539875 
L 513.708165 -168.833498 
L 515.636006 -170.127121 
L 517.429399 -171.420743 
L 519.146729 -172.714366 
L 520.841351 -174.007989 
L 522.546692 -175.301611 
L 524.268854 -176.595234 
L 525.987885 -177.888857 
L 527.666126 -179.182479 
L 529.260283 -180.476102 
L 530.733364 -181.769724 
L 532.063248 -183.063347 
L 533.246172 -184.35697 
L 534.295305 -185.650592 
L 535.236083 -186.944215 
L 536.100529 -188.237838 
L 536.922222 -189.53146 
L 537.732422 -190.825083 
L 538.556972 -192.118706 
L 539.413503 -193.412328 
L 540.309147 -194.705951 
L 541.239636 -195.999574 
L 542.190695 -197.293196 
L 543.141827 -198.586819 
L 544.071386 -199.880442 
L 544.961148 -201.174064 
L 545.798787 -202.467687 
L 546.577696 -203.76131 
L 547.294819 -205.054932 
L 547.947905 -206.348555 
L 548.533549 -207.642178 
L 549.046735 -208.9358 
L 549.481812 -210.229423 
L 549.834319 -211.523045 
L 550.102946 -212.816668 
L 550.291045 -214.110291 
L 550.407367 -215.403913 
L 550.46582 -216.697536 
L 550.484205 -217.991159 
L 550.482072 -219.284781 
L 550.47803 -220.578404 
L 550.487076 -221.872027 
L 550.518572 -223.165649 
L 550.575384 -224.459272 
L 550.654382 -225.752895 
L 550.748098 -227.046517 
L 550.847055 -228.34014 
L 550.942089 -229.633763 
L 551.026124 -230.927385 
L 551.095061 -232.221008 
L 551.147773 -233.514631 
L 551.185459 -234.808253 
L 551.307041 -234.808253 
L 551.307041 -234.808253 
L 551.344727 -233.514631 
L 551.397439 -232.221008 
L 551.466376 -230.927385 
L 551.550411 -229.633763 
L 551.645445 -228.34014 
L 551.744402 -227.046517 
L 551.838118 -225.752895 
L 551.917116 -224.459272 
L 551.973928 -223.165649 
L 552.005424 -221.872027 
L 552.01447 -220.578404 
L 552.010428 -219.284781 
L 552.008295 -217.991159 
L 552.02668 -216.697536 
L 552.085133 -215.403913 
L 552.201455 -214.110291 
L 552.389554 -212.816668 
L 552.658181 -211.523045 
L 553.010688 -210.229423 
L 553.445765 -208.9358 
L 553.958951 -207.642178 
L 554.544595 -206.348555 
L 555.197681 -205.054932 
L 555.914804 -203.76131 
L 556.693713 -202.467687 
L 557.531352 -201.174064 
L 558.421114 -199.880442 
L 559.350673 -198.586819 
L 560.301805 -197.293196 
L 561.252864 -195.999574 
L 562.183353 -194.705951 
L 563.078997 -193.412328 
L 563.935528 -192.118706 
L 564.760078 -190.825083 
L 565.570278 -189.53146 
L 566.391971 -188.237838 
L 567.256417 -186.944215 
L 568.197195 -185.650592 
L 569.246328 -184.35697 
L 570.429252 -183.063347 
L 571.759136 -181.769724 
L 573.232217 -180.476102 
L 574.826374 -179.182479 
L 576.504615 -177.888857 
L 578.223646 -176.595234 
L 579.945808 -175.301611 
L 581.651149 -174.007989 
L 583.345771 -172.714366 
L 585.063101 -171.420743 
L 586.856494 -170.127121 
L 588.784335 -168.833498 
L 590.891644 -167.539875 
L 593.194089 -166.246253 
L 595.669868 -164.95263 
L 598.262207 -163.659007 
L 600.891151 -162.365385 
L 603.470019 -161.071762 
L 605.920956 -159.778139 
L 608.185673 -158.484517 
L 610.230435 -157.190894 
L 612.046754 -155.897271 
L 613.649748 -154.603649 
L 615.075148 -153.310026 
L 616.374524 -152.016403 
L 617.607942 -150.722781 
L 618.834095 -149.429158 
L 620.099426 -148.135535 
L 621.428848 -146.841913 
L 622.820677 -145.54829 
L 624.247485 -144.254668 
L 625.662962 -142.961045 
L 627.013056 -141.667422 
L 628.248004 -140.3738 
L 629.331043 -139.080177 
L 630.240217 -137.786554 
L 630.962263 -136.492932 
L 631.481109 -135.199309 
L 631.766333 -133.905686 
L 631.76725 -132.612064 
L 631.415412 -131.318441 
L 630.633796 -130.024818 
L 629.347373 -128.731196 
L 627.489478 -127.437573 
L 625.001804 -126.14395 
L 621.83112 -124.850328 
L 617.929589 -123.556705 
L 613.265269 -122.263082 
L 607.844294 -120.96946 
L 601.738668 -119.675837 
L 595.107589 -118.382214 
L 588.199581 -117.088592 
L 581.328652 -115.794969 
L 574.827865 -114.501347 
L 568.99324 -113.207724 
L 564.035171 -111.914101 
L 560.051469 -110.620479 
L 557.027694 -109.326856 
L 554.860752 -108.033233 
L 553.395145 -106.739611 
z
" style="stroke: #5c5c5c; stroke-width: 1.25"/>
    </defs>
    <g clip-path="url(#p5232feab2f)">
     <use xlink:href="#m39f0bfb4d5" x="0" y="576" style="fill: #4c67e6; stroke: #5c5c5c; stroke-width: 1.25"/>
    </g>
   </g>
   <g id="patch_15">
    <path d="M 148.64125 506.849116 
L 148.64125 506.849116 
L 148.64125 506.849116 
L 148.64125 506.849116 
z
" clip-path="url(#p5232feab2f)" style="fill: #e6674c; stroke: #5c5c5c; stroke-width: 1.25; stroke-linejoin: miter"/>
   </g>
   <g id="patch_16">
    <path d="M 148.64125 506.849116 
L 148.64125 506.849116 
L 148.64125 506.849116 
L 148.64125 506.849116 
z
" clip-path="url(#p5232feab2f)" style="fill: #4ce668; stroke: #5c5c5c; stroke-width: 1.25; stroke-linejoin: miter"/>
   </g>
   <g id="patch_17">
    <path d="M 148.64125 506.849116 
L 148.64125 506.849116 
L 148.64125 506.849116 
L 148.64125 506.849116 
z
" clip-path="url(#p5232feab2f)" style="fill: #4c67e6; stroke: #5c5c5c; stroke-width: 1.25; stroke-linejoin: miter"/>
   </g>
   <g id="PolyCollection_8">
    <defs>
     <path id="m8d2cce4995" d="M 760.100472 -52.115369 
L 744.997028 -52.115369 
L 740.427801 -54.166959 
L 734.13794 -56.218549 
L 726.069702 -58.270139 
L 716.462744 -60.321728 
L 705.906045 -62.373318 
L 695.301391 -64.424908 
L 685.725412 -66.476498 
L 678.21548 -68.528087 
L 673.540071 -70.579677 
L 672.02775 -72.631267 
L 673.511454 -74.682857 
L 677.402429 -76.734446 
L 682.8608 -78.786036 
L 688.999199 -80.837626 
L 695.054175 -82.889216 
L 700.483931 -84.940805 
L 704.985247 -86.992395 
L 708.450717 -89.043985 
L 710.899699 -91.095575 
L 712.412851 -93.147165 
L 713.087501 -95.198754 
L 713.017381 -97.250344 
L 712.290831 -99.301934 
L 710.997722 -101.353524 
L 709.236091 -103.405113 
L 707.112857 -105.456703 
L 704.737294 -107.508293 
L 702.209824 -109.559883 
L 699.611123 -111.611472 
L 696.996654 -113.663062 
L 694.399611 -115.714652 
L 691.841698 -117.766242 
L 689.347767 -119.817831 
L 686.958565 -121.869421 
L 684.736522 -123.921011 
L 682.762288 -125.972601 
L 681.123299 -128.02419 
L 679.898443 -130.07578 
L 679.143869 -132.12737 
L 678.883939 -134.17896 
L 679.109133 -136.23055 
L 679.780464 -138.282139 
L 680.838592 -140.333729 
L 682.215396 -142.385319 
L 683.845907 -144.436909 
L 685.678619 -146.488498 
L 687.682241 -148.540088 
L 689.847178 -150.591678 
L 692.180928 -152.643268 
L 694.698218 -154.694857 
L 697.408542 -156.746447 
L 700.305034 -158.798037 
L 703.358426 -160.849627 
L 706.518213 -162.901216 
L 709.720486 -164.952806 
L 712.899405 -167.004396 
L 715.998017 -169.055986 
L 718.974789 -171.107575 
L 721.804354 -173.159165 
L 724.473651 -175.210755 
L 726.976435 -177.262345 
L 729.309275 -179.313935 
L 731.470714 -181.365524 
L 733.463206 -183.417114 
L 735.295853 -185.468704 
L 736.98566 -187.520294 
L 738.555975 -189.571883 
L 740.032257 -191.623473 
L 741.436631 -193.675063 
L 742.783133 -195.726653 
L 744.075166 -197.778242 
L 745.305696 -199.829832 
L 746.459794 -201.881422 
L 747.518509 -203.933012 
L 748.462969 -205.984601 
L 749.277933 -208.036191 
L 749.954352 -210.087781 
L 750.490825 -212.139371 
L 750.8939 -214.19096 
L 751.17726 -216.24255 
L 751.359914 -218.29414 
L 751.463734 -220.34573 
L 751.510902 -222.39732 
L 751.521864 -224.448909 
L 751.514208 -226.500499 
L 751.502465 -228.552089 
L 751.498435 -230.603679 
L 751.511459 -232.655268 
L 751.548206 -234.706858 
L 751.611984 -236.758448 
L 751.702006 -238.810038 
L 751.813217 -240.861627 
L 751.937083 -242.913217 
L 752.063311 -244.964807 
L 752.181988 -247.016397 
L 752.285465 -249.067986 
L 752.369435 -251.119576 
L 752.433015 -253.171166 
L 752.47802 -255.222756 
L 752.61948 -255.222756 
L 752.61948 -255.222756 
L 752.664485 -253.171166 
L 752.728065 -251.119576 
L 752.812035 -249.067986 
L 752.915512 -247.016397 
L 753.034189 -244.964807 
L 753.160417 -242.913217 
L 753.284283 -240.861627 
L 753.395494 -238.810038 
L 753.485516 -236.758448 
L 753.549294 -234.706858 
L 753.586041 -232.655268 
L 753.599065 -230.603679 
L 753.595035 -228.552089 
L 753.583292 -226.500499 
L 753.575636 -224.448909 
L 753.586598 -222.39732 
L 753.633766 -220.34573 
L 753.737586 -218.29414 
L 753.92024 -216.24255 
L 754.2036 -214.19096 
L 754.606675 -212.139371 
L 755.143148 -210.087781 
L 755.819567 -208.036191 
L 756.634531 -205.984601 
L 757.578991 -203.933012 
L 758.637706 -201.881422 
L 759.791804 -199.829832 
L 761.022334 -197.778242 
L 762.314367 -195.726653 
L 763.660869 -193.675063 
L 765.065243 -191.623473 
L 766.541525 -189.571883 
L 768.11184 -187.520294 
L 769.801647 -185.468704 
L 771.634294 -183.417114 
L 773.626786 -181.365524 
L 775.788225 -179.313935 
L 778.121065 -177.262345 
L 780.623849 -175.210755 
L 783.293146 -173.159165 
L 786.122711 -171.107575 
L 789.099483 -169.055986 
L 792.198095 -167.004396 
L 795.377014 -164.952806 
L 798.579287 -162.901216 
L 801.739074 -160.849627 
L 804.792466 -158.798037 
L 807.688958 -156.746447 
L 810.399282 -154.694857 
L 812.916572 -152.643268 
L 815.250322 -150.591678 
L 817.415259 -148.540088 
L 819.418881 -146.488498 
L 821.251593 -144.436909 
L 822.882104 -142.385319 
L 824.258908 -140.333729 
L 825.317036 -138.282139 
L 825.988367 -136.23055 
L 826.213561 -134.17896 
L 825.953631 -132.12737 
L 825.199057 -130.07578 
L 823.974201 -128.02419 
L 822.335212 -125.972601 
L 820.360978 -123.921011 
L 818.138935 -121.869421 
L 815.749733 -119.817831 
L 813.255802 -117.766242 
L 810.697889 -115.714652 
L 808.100846 -113.663062 
L 805.486377 -111.611472 
L 802.887676 -109.559883 
L 800.360206 -107.508293 
L 797.984643 -105.456703 
L 795.861409 -103.405113 
L 794.099778 -101.353524 
L 792.806669 -99.301934 
L 792.080119 -97.250344 
L 792.009999 -95.198754 
L 792.684649 -93.147165 
L 794.197801 -91.095575 
L 796.646783 -89.043985 
L 800.112253 -86.992395 
L 804.613569 -84.940805 
L 810.043325 -82.889216 
L 816.098301 -80.837626 
L 822.2367 -78.786036 
L 827.695071 -76.734446 
L 831.586046 -74.682857 
L 833.06975 -72.631267 
L 831.557429 -70.579677 
L 826.88202 -68.528087 
L 819.372088 -66.476498 
L 809.796109 -64.424908 
L 799.191455 -62.373318 
L 788.634756 -60.321728 
L 779.027798 -58.270139 
L 770.95956 -56.218549 
L 764.669699 -54.166959 
L 760.100472 -52.115369 
z
" style="stroke: #4d4d4d"/>
    </defs>
    <g clip-path="url(#p5232feab2f)">
     <use xlink:href="#m8d2cce4995" x="0" y="576" style="fill: #808080; stroke: #4d4d4d"/>
    </g>
   </g>
   <g id="line2d_25">
    <path d="M 148.64125 506.849116 
L 148.64125 460.565352 
" clip-path="url(#p5232feab2f)" style="fill: none; stroke: #5c5c5c; stroke-width: 1.875; stroke-linecap: round"/>
   </g>
   <g id="line2d_26">
    <path d="M 148.64125 506.849116 
L 148.64125 476.664052 
" clip-path="url(#p5232feab2f)" style="fill: none; stroke: #5c5c5c; stroke-width: 5.625; stroke-linecap: round"/>
   </g>
   <g id="line2d_27">
    <path d="M 148.64125 496.787428 
" clip-path="url(#p5232feab2f)" style="fill: none; stroke: #5c5c5c; stroke-width: 1.5; stroke-linecap: round"/>
    <g clip-path="url(#p5232feab2f)">
     <use xlink:href="#mc8ab7dacd3" x="148.64125" y="496.787428" style="fill: #ffffff; stroke: #ffffff; stroke-width: 1.125"/>
    </g>
   </g>
   <g id="line2d_28">
    <path d="M 349.94375 341.837434 
L 349.94375 337.812759 
" clip-path="url(#p5232feab2f)" style="fill: none; stroke: #5c5c5c; stroke-width: 1.875; stroke-linecap: round"/>
   </g>
   <g id="line2d_29">
    <path d="M 349.94375 341.837434 
L 349.94375 339.322012 
" clip-path="url(#p5232feab2f)" style="fill: none; stroke: #5c5c5c; stroke-width: 5.625; stroke-linecap: round"/>
   </g>
   <g id="line2d_30">
    <path d="M 349.94375 339.825097 
" clip-path="url(#p5232feab2f)" style="fill: none; stroke: #5c5c5c; stroke-width: 1.5; stroke-linecap: round"/>
    <g clip-path="url(#p5232feab2f)">
     <use xlink:href="#mc8ab7dacd3" x="349.94375" y="339.825097" style="fill: #ffffff; stroke: #ffffff; stroke-width: 1.125"/>
    </g>
   </g>
   <g id="line2d_31">
    <path d="M 551.24625 458.553014 
L 551.24625 374.034836 
" clip-path="url(#p5232feab2f)" style="fill: none; stroke: #5c5c5c; stroke-width: 1.875; stroke-linecap: round"/>
   </g>
   <g id="line2d_32">
    <path d="M 551.24625 444.466651 
L 551.24625 416.293925 
" clip-path="url(#p5232feab2f)" style="fill: none; stroke: #5c5c5c; stroke-width: 5.625; stroke-linecap: round"/>
   </g>
   <g id="line2d_33">
    <path d="M 551.24625 432.392625 
" clip-path="url(#p5232feab2f)" style="fill: none; stroke: #5c5c5c; stroke-width: 1.5; stroke-linecap: round"/>
    <g clip-path="url(#p5232feab2f)">
     <use xlink:href="#mc8ab7dacd3" x="551.24625" y="432.392625" style="fill: #ffffff; stroke: #ffffff; stroke-width: 1.125"/>
    </g>
   </g>
   <g id="line2d_34">
    <path d="M 752.54875 506.849116 
L 752.54875 337.812759 
" clip-path="url(#p5232feab2f)" style="fill: none; stroke: #4d4d4d; stroke-width: 1.5; stroke-linecap: round"/>
   </g>
   <g id="line2d_35">
    <path d="M 752.54875 492.762753 
L 752.54875 428.36795 
" clip-path="url(#p5232feab2f)" style="fill: none; stroke: #4d4d4d; stroke-width: 4.5; stroke-linecap: round"/>
   </g>
   <g id="line2d_36">
    <path d="M 752.54875 452.516001 
" clip-path="url(#p5232feab2f)" style="fill: none; stroke: #4d4d4d; stroke-width: 1.5; stroke-linecap: round"/>
    <g clip-path="url(#p5232feab2f)">
     <use xlink:href="#m123311d226" x="752.54875" y="452.516001" style="fill: #ffffff; stroke: #ffffff; stroke-width: 0.9"/>
    </g>
   </g>
   <g id="patch_18">
    <path d="M 47.99 534.04 
L 47.99 310.621875 
" style="fill: none; stroke: #cccccc; stroke-width: 0.8; stroke-linejoin: miter; stroke-linecap: square"/>
   </g>
   <g id="patch_19">
    <path d="M 853.2 534.04 
L 853.2 310.621875 
" style="fill: none; stroke: #cccccc; stroke-width: 0.8; stroke-linejoin: miter; stroke-linecap: square"/>
   </g>
   <g id="patch_20">
    <path d="M 47.99 534.04 
L 853.2 534.04 
" style="fill: none; stroke: #cccccc; stroke-width: 0.8; stroke-linejoin: miter; stroke-linecap: square"/>
   </g>
   <g id="patch_21">
    <path d="M 47.99 310.621875 
L 853.2 310.621875 
" style="fill: none; stroke: #cccccc; stroke-width: 0.8; stroke-linejoin: miter; stroke-linecap: square"/>
   </g>
   <g id="text_28">
    <!-- Độ phổ biến theo từng nhóm -->
    <g style="fill: #262626" transform="translate(374.198125 304.621875) scale(0.12 -0.12)">
     <use xlink:href="#ArialMT-110"/>
     <use xlink:href="#ArialMT-1ed9" x="72.216797"/>
     <use xlink:href="#ArialMT-20" x="127.832031"/>
     <use xlink:href="#ArialMT-70" x="155.615234"/>
     <use xlink:href="#ArialMT-68" x="211.230469"/>
     <use xlink:href="#ArialMT-1ed5" x="266.845703"/>
     <use xlink:href="#ArialMT-20" x="322.460938"/>
     <use xlink:href="#ArialMT-62" x="350.244141"/>
     <use xlink:href="#ArialMT-69" x="405.859375"/>
     <use xlink:href="#ArialMT-1ebf" x="428.076172"/>
     <use xlink:href="#ArialMT-6e" x="483.691406"/>
     <use xlink:href="#ArialMT-20" x="539.306641"/>
     <use xlink:href="#ArialMT-74" x="567.089844"/>
     <use xlink:href="#ArialMT-68" x="594.873047"/>
     <use xlink:href="#ArialMT-65" x="650.488281"/>
     <use xlink:href="#ArialMT-6f" x="706.103516"/>
     <use xlink:href="#ArialMT-20" x="761.71875"/>
     <use xlink:href="#ArialMT-74" x="789.501953"/>
     <use xlink:href="#ArialMT-1eeb" x="817.285156"/>
     <use xlink:href="#ArialMT-6e" x="884.228516"/>
     <use xlink:href="#ArialMT-67" x="939.84375"/>
     <use xlink:href="#ArialMT-20" x="995.458984"/>
     <use xlink:href="#ArialMT-6e" x="1023.242188"/>
     <use xlink:href="#ArialMT-68" x="1078.857422"/>
     <use xlink:href="#ArialMT-f3" x="1134.472656"/>
     <use xlink:href="#ArialMT-6d" x="1190.087891"/>
    </g>
   </g>
   <g id="legend_2">
    <g id="patch_22">
     <path d="M 808.639063 361.057812 
L 846.2 361.057812 
Q 848.2 361.057812 848.2 359.057812 
L 848.2 317.621875 
Q 848.2 315.621875 846.2 315.621875 
L 808.639063 315.621875 
Q 806.639063 315.621875 806.639063 317.621875 
L 806.639063 359.057812 
Q 806.639063 361.057812 808.639063 361.057812 
z
" style="fill: #ffffff; opacity: 0.8; stroke: #cccccc; stroke-linejoin: miter"/>
    </g>
    <g id="patch_23">
     <path d="M 810.639063 326.779687 
L 830.639063 326.779687 
L 830.639063 319.779687 
L 810.639063 319.779687 
z
" style="fill: #e6674c; stroke: #5c5c5c; stroke-width: 1.25; stroke-linejoin: miter"/>
    </g>
    <g id="text_29">
     <!-- 0 -->
     <g style="fill: #262626" transform="translate(838.639063 326.779687) scale(0.1 -0.1)">
      <use xlink:href="#ArialMT-30"/>
     </g>
    </g>
    <g id="patch_24">
     <path d="M 810.639063 340.925 
L 830.639063 340.925 
L 830.639063 333.925 
L 810.639063 333.925 
z
" style="fill: #4ce668; stroke: #5c5c5c; stroke-width: 1.25; stroke-linejoin: miter"/>
    </g>
    <g id="text_30">
     <!-- 1 -->
     <g style="fill: #262626" transform="translate(838.639063 340.925) scale(0.1 -0.1)">
      <use xlink:href="#ArialMT-31"/>
     </g>
    </g>
    <g id="patch_25">
     <path d="M 810.639063 355.070312 
L 830.639063 355.070312 
L 830.639063 348.070312 
L 810.639063 348.070312 
z
" style="fill: #4c67e6; stroke: #5c5c5c; stroke-width: 1.25; stroke-linejoin: miter"/>
    </g>
    <g id="text_31">
     <!-- 2 -->
     <g style="fill: #262626" transform="translate(838.639063 355.070312) scale(0.1 -0.1)">
      <use xlink:href="#ArialMT-32"/>
     </g>
    </g>
   </g>
  </g>
 </g>
 <defs>
  <clipPath id="pdafcb618c0">
   <rect x="47.99" y="27.7125" width="805.21" height="223.418125"/>
  </clipPath>
  <clipPath id="p5232feab2f">
   <rect x="47.99" y="310.621875" width="805.21" height="223.418125"/>
  </clipPath>
 </defs>
</svg>
