<?xml version="1.0" encoding="utf-8" standalone="no"?>
<!DOCTYPE svg PUBLIC "-//W3C//DTD SVG 1.1//EN"
  "http://www.w3.org/Graphics/SVG/1.1/DTD/svg11.dtd">
<svg xmlns:xlink="http://www.w3.org/1999/xlink" width="864pt" height="576pt" viewBox="0 0 864 576" xmlns="http://www.w3.org/2000/svg" version="1.1">
 <metadata>
  <rdf:RDF xmlns:dc="http://purl.org/dc/elements/1.1/" xmlns:cc="http://creativecommons.org/ns#" xmlns:rdf="http://www.w3.org/1999/02/22-rdf-syntax-ns#">
   <cc:Work>
    <dc:type rdf:resource="http://purl.org/dc/dcmitype/StillImage"/>
    <dc:date>2025-03-10T11:20:02.501539</dc:date>
    <dc:format>image/svg+xml</dc:format>
    <dc:creator>
     <cc:Agent>
      <dc:title>Matplotlib v3.10.1, https://matplotlib.org/</dc:title>
     </cc:Agent>
    </dc:creator>
   </cc:Work>
  </rdf:RDF>
 </metadata>
 <defs>
  <style type="text/css">*{stroke-linejoin: round; stroke-linecap: butt}</style>
 </defs>
 <g id="figure_1">
  <g id="patch_1">
   <path d="M 0 576 
L 864 576 
L 864 0 
L 0 0 
z
" style="fill: #ffffff"/>
  </g>
  <g id="axes_1">
   <g id="patch_2">
    <path d="M 48.8 251.231875 
L 853.2 251.231875 
L 853.2 27.96 
L 48.8 27.96 
z
" style="fill: #ffffff"/>
   </g>
   <g id="FillBetweenPolyCollection_1">
    <defs>
     <path id="m6fcadd346a" d="M 159.423864 -337.749308 
L 139.276136 -337.749308 
L 103.372929 -337.917804 
L 68.91 -338.0863 
L 94.679123 -338.254797 
L 134.40563 -338.423293 
L 147.559545 -338.59179 
L 149.240561 -338.760286 
L 149.346235 -338.928782 
L 149.349933 -339.097279 
L 149.349999 -339.265775 
L 149.35 -339.434272 
L 149.35 -339.602768 
L 149.35 -339.771264 
L 149.35 -339.939761 
L 149.35 -340.108257 
L 149.35 -340.276754 
L 149.35 -340.44525 
L 149.35 -340.613746 
L 149.35 -340.782243 
L 149.35 -340.950739 
L 149.35 -341.119236 
L 149.35 -341.287732 
L 149.35 -341.456228 
L 149.35 -341.624725 
L 149.35 -341.793221 
L 149.35 -341.961718 
L 149.35 -342.130214 
L 149.35 -342.29871 
L 149.35 -342.467207 
L 149.35 -342.635703 
L 149.35 -342.8042 
L 149.35 -342.972696 
L 149.35 -343.141192 
L 149.35 -343.309689 
L 149.35 -343.478185 
L 149.35 -343.646682 
L 149.35 -343.815178 
L 149.35 -343.983674 
L 149.35 -344.152171 
L 149.35 -344.320667 
L 149.35 -344.489164 
L 149.35 -344.65766 
L 149.35 -344.826156 
L 149.35 -344.994653 
L 149.35 -345.163149 
L 149.35 -345.331646 
L 149.35 -345.500142 
L 149.35 -345.668638 
L 149.35 -345.837135 
L 149.35 -346.005631 
L 149.35 -346.174128 
L 149.35 -346.342624 
L 149.35 -346.51112 
L 149.35 -346.679617 
L 149.35 -346.848113 
L 149.35 -347.01661 
L 149.35 -347.185106 
L 149.35 -347.353602 
L 149.35 -347.522099 
L 149.35 -347.690595 
L 149.35 -347.859092 
L 149.35 -348.027588 
L 149.35 -348.196084 
L 149.35 -348.364581 
L 149.35 -348.533077 
L 149.35 -348.701574 
L 149.35 -348.87007 
L 149.35 -349.038567 
L 149.35 -349.207063 
L 149.35 -349.375559 
L 149.35 -349.544056 
L 149.35 -349.712552 
L 149.35 -349.881049 
L 149.35 -350.049545 
L 149.35 -350.218041 
L 149.35 -350.386538 
L 149.35 -350.555034 
L 149.35 -350.723531 
L 149.35 -350.892027 
L 149.35 -351.060523 
L 149.35 -351.22902 
L 149.35 -351.397516 
L 149.35 -351.566013 
L 149.35 -351.734509 
L 149.35 -351.903005 
L 149.35 -352.071502 
L 149.35 -352.239998 
L 149.35 -352.408495 
L 149.35 -352.576991 
L 149.35 -352.745487 
L 149.35 -352.913984 
L 149.35 -353.08248 
L 149.349999 -353.250977 
L 149.34994 -353.419473 
L 149.348265 -353.587969 
L 149.330918 -353.756466 
L 149.270494 -353.924962 
L 149.224515 -354.093459 
L 149.274978 -354.261955 
L 149.33301 -354.430451 
L 149.36699 -354.430451 
L 149.36699 -354.430451 
L 149.425022 -354.261955 
L 149.475485 -354.093459 
L 149.429506 -353.924962 
L 149.369082 -353.756466 
L 149.351735 -353.587969 
L 149.35006 -353.419473 
L 149.350001 -353.250977 
L 149.35 -353.08248 
L 149.35 -352.913984 
L 149.35 -352.745487 
L 149.35 -352.576991 
L 149.35 -352.408495 
L 149.35 -352.239998 
L 149.35 -352.071502 
L 149.35 -351.903005 
L 149.35 -351.734509 
L 149.35 -351.566013 
L 149.35 -351.397516 
L 149.35 -351.22902 
L 149.35 -351.060523 
L 149.35 -350.892027 
L 149.35 -350.723531 
L 149.35 -350.555034 
L 149.35 -350.386538 
L 149.35 -350.218041 
L 149.35 -350.049545 
L 149.35 -349.881049 
L 149.35 -349.712552 
L 149.35 -349.544056 
L 149.35 -349.375559 
L 149.35 -349.207063 
L 149.35 -349.038567 
L 149.35 -348.87007 
L 149.35 -348.701574 
L 149.35 -348.533077 
L 149.35 -348.364581 
L 149.35 -348.196084 
L 149.35 -348.027588 
L 149.35 -347.859092 
L 149.35 -347.690595 
L 149.35 -347.522099 
L 149.35 -347.353602 
L 149.35 -347.185106 
L 149.35 -347.01661 
L 149.35 -346.848113 
L 149.35 -346.679617 
L 149.35 -346.51112 
L 149.35 -346.342624 
L 149.35 -346.174128 
L 149.35 -346.005631 
L 149.35 -345.837135 
L 149.35 -345.668638 
L 149.35 -345.500142 
L 149.35 -345.331646 
L 149.35 -345.163149 
L 149.35 -344.994653 
L 149.35 -344.826156 
L 149.35 -344.65766 
L 149.35 -344.489164 
L 149.35 -344.320667 
L 149.35 -344.152171 
L 149.35 -343.983674 
L 149.35 -343.815178 
L 149.35 -343.646682 
L 149.35 -343.478185 
L 149.35 -343.309689 
L 149.35 -343.141192 
L 149.35 -342.972696 
L 149.35 -342.8042 
L 149.35 -342.635703 
L 149.35 -342.467207 
L 149.35 -342.29871 
L 149.35 -342.130214 
L 149.35 -341.961718 
L 149.35 -341.793221 
L 149.35 -341.624725 
L 149.35 -341.456228 
L 149.35 -341.287732 
L 149.35 -341.119236 
L 149.35 -340.950739 
L 149.35 -340.782243 
L 149.35 -340.613746 
L 149.35 -340.44525 
L 149.35 -340.276754 
L 149.35 -340.108257 
L 149.35 -339.939761 
L 149.35 -339.771264 
L 149.35 -339.602768 
L 149.35 -339.434272 
L 149.350001 -339.265775 
L 149.350067 -339.097279 
L 149.353765 -338.928782 
L 149.459439 -338.760286 
L 151.140455 -338.59179 
L 164.29437 -338.423293 
L 204.020877 -338.254797 
L 229.79 -338.0863 
L 195.327071 -337.917804 
L 159.423864 -337.749308 
z
" style="stroke: #3d3d3d; stroke-width: 1.25"/>
    </defs>
    <g clip-path="url(#pa89f69deb0)">
     <use xlink:href="#m6fcadd346a" x="0" y="576" style="fill: #3274a1; stroke: #3d3d3d; stroke-width: 1.25"/>
    </g>
   </g>
   <g id="FillBetweenPolyCollection_2">
    <defs>
     <path id="m2423aa2e99" d="M 356.081144 -375.306933 
L 344.818856 -375.306933 
L 343.967109 -376.949199 
L 343.018188 -378.591465 
L 341.966396 -380.233731 
L 340.806564 -381.875997 
L 339.534212 -383.518263 
L 338.145703 -385.160529 
L 336.63841 -386.802795 
L 335.010872 -388.445062 
L 333.262943 -390.087328 
L 331.395931 -391.729594 
L 329.412719 -393.37186 
L 327.317855 -395.014126 
L 325.117629 -396.656392 
L 322.820099 -398.298658 
L 320.435095 -399.940924 
L 317.974175 -401.583191 
L 315.450541 -403.225457 
L 312.878909 -404.867723 
L 310.275335 -406.509989 
L 307.656999 -408.152255 
L 305.041947 -409.794521 
L 302.448797 -411.436787 
L 299.896408 -413.079053 
L 297.403535 -414.721319 
L 294.988453 -416.363586 
L 292.668583 -418.005852 
L 290.460119 -419.648118 
L 288.377657 -421.290384 
L 286.43386 -422.93265 
L 284.639146 -424.574916 
L 283.001425 -426.217182 
L 281.525889 -427.859448 
L 280.214861 -429.501715 
L 279.067715 -431.143981 
L 278.08087 -432.786247 
L 277.247866 -434.428513 
L 276.559513 -436.070779 
L 276.004122 -437.713045 
L 275.567814 -439.355311 
L 275.234891 -440.997577 
L 274.988276 -442.639844 
L 274.809996 -444.28211 
L 274.681707 -445.924376 
L 274.585239 -447.566642 
L 274.503154 -449.208908 
L 274.419286 -450.851174 
L 274.319263 -452.49344 
L 274.190982 -454.135706 
L 274.025028 -455.777972 
L 273.815022 -457.420239 
L 273.557873 -459.062505 
L 273.253952 -460.704771 
L 272.907151 -462.347037 
L 272.524835 -463.989303 
L 272.117697 -465.631569 
L 271.6995 -467.273835 
L 271.286724 -468.916101 
L 270.898127 -470.558368 
L 270.554228 -472.200634 
L 270.276733 -473.8429 
L 270.08792 -475.485166 
L 270.01 -477.127432 
L 270.064473 -478.769698 
L 270.271506 -480.411964 
L 270.649347 -482.05423 
L 271.213791 -483.696496 
L 271.977716 -485.338763 
L 272.950713 -486.981029 
L 274.138795 -488.623295 
L 275.544224 -490.265561 
L 277.165432 -491.907827 
L 278.997054 -493.550093 
L 281.030058 -495.192359 
L 283.251976 -496.834625 
L 285.647215 -498.476892 
L 288.197441 -500.119158 
L 290.882029 -501.761424 
L 293.678545 -503.40369 
L 296.563263 -505.045956 
L 299.511693 -506.688222 
L 302.499096 -508.330488 
L 305.500991 -509.972754 
L 308.493615 -511.615021 
L 311.454352 -513.257287 
L 314.362101 -514.899553 
L 317.197585 -516.541819 
L 319.943594 -518.184085 
L 322.585166 -519.826351 
L 325.109699 -521.468617 
L 327.506999 -523.110883 
L 329.769267 -524.753149 
L 331.89104 -526.395416 
L 333.869076 -528.037682 
L 335.702202 -529.679948 
L 337.391135 -531.322214 
L 338.938278 -532.96448 
L 340.347496 -534.606746 
L 341.623893 -536.249012 
L 342.773583 -537.891278 
L 358.126417 -537.891278 
L 358.126417 -537.891278 
L 359.276107 -536.249012 
L 360.552504 -534.606746 
L 361.961722 -532.96448 
L 363.508865 -531.322214 
L 365.197798 -529.679948 
L 367.030924 -528.037682 
L 369.00896 -526.395416 
L 371.130733 -524.753149 
L 373.393001 -523.110883 
L 375.790301 -521.468617 
L 378.314834 -519.826351 
L 380.956406 -518.184085 
L 383.702415 -516.541819 
L 386.537899 -514.899553 
L 389.445648 -513.257287 
L 392.406385 -511.615021 
L 395.399009 -509.972754 
L 398.400904 -508.330488 
L 401.388307 -506.688222 
L 404.336737 -505.045956 
L 407.221455 -503.40369 
L 410.017971 -501.761424 
L 412.702559 -500.119158 
L 415.252785 -498.476892 
L 417.648024 -496.834625 
L 419.869942 -495.192359 
L 421.902946 -493.550093 
L 423.734568 -491.907827 
L 425.355776 -490.265561 
L 426.761205 -488.623295 
L 427.949287 -486.981029 
L 428.922284 -485.338763 
L 429.686209 -483.696496 
L 430.250653 -482.05423 
L 430.628494 -480.411964 
L 430.835527 -478.769698 
L 430.89 -477.127432 
L 430.81208 -475.485166 
L 430.623267 -473.8429 
L 430.345772 -472.200634 
L 430.001873 -470.558368 
L 429.613276 -468.916101 
L 429.2005 -467.273835 
L 428.782303 -465.631569 
L 428.375165 -463.989303 
L 427.992849 -462.347037 
L 427.646048 -460.704771 
L 427.342127 -459.062505 
L 427.084978 -457.420239 
L 426.874972 -455.777972 
L 426.709018 -454.135706 
L 426.580737 -452.49344 
L 426.480714 -450.851174 
L 426.396846 -449.208908 
L 426.314761 -447.566642 
L 426.218293 -445.924376 
L 426.090004 -444.28211 
L 425.911724 -442.639844 
L 425.665109 -440.997577 
L 425.332186 -439.355311 
L 424.895878 -437.713045 
L 424.340487 -436.070779 
L 423.652134 -434.428513 
L 422.81913 -432.786247 
L 421.832285 -431.143981 
L 420.685139 -429.501715 
L 419.374111 -427.859448 
L 417.898575 -426.217182 
L 416.260854 -424.574916 
L 414.46614 -422.93265 
L 412.522343 -421.290384 
L 410.439881 -419.648118 
L 408.231417 -418.005852 
L 405.911547 -416.363586 
L 403.496465 -414.721319 
L 401.003592 -413.079053 
L 398.451203 -411.436787 
L 395.858053 -409.794521 
L 393.243001 -408.152255 
L 390.624665 -406.509989 
L 388.021091 -404.867723 
L 385.449459 -403.225457 
L 382.925825 -401.583191 
L 380.464905 -399.940924 
L 378.079901 -398.298658 
L 375.782371 -396.656392 
L 373.582145 -395.014126 
L 371.487281 -393.37186 
L 369.504069 -391.729594 
L 367.637057 -390.087328 
L 365.889128 -388.445062 
L 364.26159 -386.802795 
L 362.754297 -385.160529 
L 361.365788 -383.518263 
L 360.093436 -381.875997 
L 358.933604 -380.233731 
L 357.881812 -378.591465 
L 356.932891 -376.949199 
L 356.081144 -375.306933 
z
" style="stroke: #3d3d3d; stroke-width: 1.25"/>
    </defs>
    <g clip-path="url(#pa89f69deb0)">
     <use xlink:href="#m2423aa2e99" x="0" y="576" style="fill: #e1812c; stroke: #3d3d3d; stroke-width: 1.25"/>
    </g>
   </g>
   <g id="FillBetweenPolyCollection_3">
    <defs>
     <path id="m4c22843a80" d="M 559.337536 -336.601728 
L 543.762464 -336.601728 
L 529.416085 -337.025977 
L 505.496051 -337.450226 
L 480.989749 -337.874475 
L 471.11 -338.298723 
L 481.947701 -338.722972 
L 504.01219 -339.147221 
L 523.905515 -339.57147 
L 536.0432 -339.995718 
L 541.976553 -340.419967 
L 544.815181 -340.844216 
L 546.528363 -341.268465 
L 547.861016 -341.692713 
L 548.899783 -342.116962 
L 549.572767 -342.541211 
L 549.887969 -342.96546 
L 549.949062 -343.389708 
L 549.900338 -343.813957 
L 549.866701 -344.238206 
L 549.920347 -344.662455 
L 550.086422 -345.086703 
L 550.33942 -345.510952 
L 550.59872 -345.935201 
L 550.784345 -346.35945 
L 550.888201 -346.783698 
L 550.968182 -347.207947 
L 551.076349 -347.632196 
L 551.200092 -348.056445 
L 551.271349 -348.480693 
L 551.239272 -348.904942 
L 551.136076 -349.329191 
L 551.058767 -349.75344 
L 551.075721 -350.177688 
L 551.166812 -350.601937 
L 551.26636 -351.026186 
L 551.332325 -351.450434 
L 551.359162 -351.874683 
L 551.360816 -352.298932 
L 551.357051 -352.723181 
L 551.363063 -353.147429 
L 551.388211 -353.571678 
L 551.433305 -353.995927 
L 551.484119 -354.420176 
L 551.522047 -354.844424 
L 551.541273 -355.268673 
L 551.548015 -355.692922 
L 551.549673 -356.117171 
L 551.549961 -356.541419 
L 551.549997 -356.965668 
L 551.55 -357.389917 
L 551.55 -357.814166 
L 551.55 -358.238414 
L 551.55 -358.662663 
L 551.55 -359.086912 
L 551.55 -359.511161 
L 551.55 -359.935409 
L 551.549997 -360.359658 
L 551.549968 -360.783907 
L 551.549723 -361.208156 
L 551.548277 -361.632404 
L 551.542262 -362.056653 
L 551.524878 -362.480902 
L 551.491035 -362.905151 
L 551.449907 -363.329399 
L 551.426844 -363.753648 
L 551.438597 -364.177897 
L 551.469495 -364.602146 
L 551.485511 -365.026394 
L 551.469644 -365.450643 
L 551.438734 -365.874892 
L 551.426814 -366.299141 
L 551.449717 -366.723389 
L 551.490824 -367.147638 
L 551.524746 -367.571887 
L 551.542208 -367.996136 
L 551.548262 -368.420384 
L 551.54972 -368.844633 
L 551.549965 -369.268882 
L 551.549964 -369.693131 
L 551.549717 -370.117379 
L 551.548251 -370.541628 
L 551.542168 -370.965877 
L 551.524647 -371.390125 
L 551.490673 -371.814374 
L 551.449635 -372.238623 
L 551.427254 -372.662872 
L 551.441476 -373.08712 
L 551.480634 -373.511369 
L 551.517935 -373.935618 
L 551.539161 -374.359867 
L 551.546487 -374.784115 
L 551.544866 -375.208364 
L 551.532862 -375.632613 
L 551.50495 -376.056862 
L 551.464123 -376.48111 
L 551.431642 -376.905359 
L 551.432072 -377.329608 
L 551.465057 -377.753857 
L 551.505768 -378.178105 
L 551.533349 -378.602354 
L 551.566651 -378.602354 
L 551.566651 -378.602354 
L 551.594232 -378.178105 
L 551.634943 -377.753857 
L 551.667928 -377.329608 
L 551.668358 -376.905359 
L 551.635877 -376.48111 
L 551.59505 -376.056862 
L 551.567138 -375.632613 
L 551.555134 -375.208364 
L 551.553513 -374.784115 
L 551.560839 -374.359867 
L 551.582065 -373.935618 
L 551.619366 -373.511369 
L 551.658524 -373.08712 
L 551.672746 -372.662872 
L 551.650365 -372.238623 
L 551.609327 -371.814374 
L 551.575353 -371.390125 
L 551.557832 -370.965877 
L 551.551749 -370.541628 
L 551.550283 -370.117379 
L 551.550036 -369.693131 
L 551.550035 -369.268882 
L 551.55028 -368.844633 
L 551.551738 -368.420384 
L 551.557792 -367.996136 
L 551.575254 -367.571887 
L 551.609176 -367.147638 
L 551.650283 -366.723389 
L 551.673186 -366.299141 
L 551.661266 -365.874892 
L 551.630356 -365.450643 
L 551.614489 -365.026394 
L 551.630505 -364.602146 
L 551.661403 -364.177897 
L 551.673156 -363.753648 
L 551.650093 -363.329399 
L 551.608965 -362.905151 
L 551.575122 -362.480902 
L 551.557738 -362.056653 
L 551.551723 -361.632404 
L 551.550277 -361.208156 
L 551.550032 -360.783907 
L 551.550003 -360.359658 
L 551.55 -359.935409 
L 551.55 -359.511161 
L 551.55 -359.086912 
L 551.55 -358.662663 
L 551.55 -358.238414 
L 551.55 -357.814166 
L 551.55 -357.389917 
L 551.550003 -356.965668 
L 551.550039 -356.541419 
L 551.550327 -356.117171 
L 551.551985 -355.692922 
L 551.558727 -355.268673 
L 551.577953 -354.844424 
L 551.615881 -354.420176 
L 551.666695 -353.995927 
L 551.711789 -353.571678 
L 551.736937 -353.147429 
L 551.742949 -352.723181 
L 551.739184 -352.298932 
L 551.740838 -351.874683 
L 551.767675 -351.450434 
L 551.83364 -351.026186 
L 551.933188 -350.601937 
L 552.024279 -350.177688 
L 552.041233 -349.75344 
L 551.963924 -349.329191 
L 551.860728 -348.904942 
L 551.828651 -348.480693 
L 551.899908 -348.056445 
L 552.023651 -347.632196 
L 552.131818 -347.207947 
L 552.211799 -346.783698 
L 552.315655 -346.35945 
L 552.50128 -345.935201 
L 552.76058 -345.510952 
L 553.013578 -345.086703 
L 553.179653 -344.662455 
L 553.233299 -344.238206 
L 553.199662 -343.813957 
L 553.150938 -343.389708 
L 553.212031 -342.96546 
L 553.527233 -342.541211 
L 554.200217 -342.116962 
L 555.238984 -341.692713 
L 556.571637 -341.268465 
L 558.284819 -340.844216 
L 561.123447 -340.419967 
L 567.0568 -339.995718 
L 579.194485 -339.57147 
L 599.08781 -339.147221 
L 621.152299 -338.722972 
L 631.99 -338.298723 
L 622.110251 -337.874475 
L 597.603949 -337.450226 
L 573.683915 -337.025977 
L 559.337536 -336.601728 
z
" style="stroke: #3d3d3d; stroke-width: 1.25"/>
    </defs>
    <g clip-path="url(#pa89f69deb0)">
     <use xlink:href="#m4c22843a80" x="0" y="576" style="fill: #3a923a; stroke: #3d3d3d; stroke-width: 1.25"/>
    </g>
   </g>
   <g id="patch_3">
    <path d="M 149.35 237.908661 
L 149.35 237.908661 
L 149.35 237.908661 
L 149.35 237.908661 
z
" clip-path="url(#pa89f69deb0)" style="fill: #3274a1; stroke: #3d3d3d; stroke-width: 1.25; stroke-linejoin: miter"/>
   </g>
   <g id="patch_4">
    <path d="M 149.35 237.908661 
L 149.35 237.908661 
L 149.35 237.908661 
L 149.35 237.908661 
z
" clip-path="url(#pa89f69deb0)" style="fill: #e1812c; stroke: #3d3d3d; stroke-width: 1.25; stroke-linejoin: miter"/>
   </g>
   <g id="patch_5">
    <path d="M 149.35 237.908661 
L 149.35 237.908661 
L 149.35 237.908661 
L 149.35 237.908661 
z
" clip-path="url(#pa89f69deb0)" style="fill: #3a923a; stroke: #3d3d3d; stroke-width: 1.25; stroke-linejoin: miter"/>
   </g>
   <g id="FillBetweenPolyCollection_4">
    <defs>
     <path id="m09726474d1" d="M 762.258444 -334.916847 
L 743.041556 -334.916847 
L 707.195822 -336.509366 
L 672.21 -338.101885 
L 697.541875 -339.694405 
L 735.991695 -341.286924 
L 748.87232 -342.879443 
L 751.005865 -344.471963 
L 751.629149 -346.064482 
L 752.058018 -347.657001 
L 752.236877 -349.249521 
L 752.320765 -350.84204 
L 752.405318 -352.43456 
L 752.480091 -354.027079 
L 752.578257 -355.619598 
L 752.636639 -357.212118 
L 752.648605 -358.804637 
L 752.644033 -360.397156 
L 752.617705 -361.989676 
L 752.576997 -363.582195 
L 752.562075 -365.174714 
L 752.583495 -366.767234 
L 752.623282 -368.359753 
L 752.633073 -369.952272 
L 752.604558 -371.544792 
L 752.59035 -373.137311 
L 752.604433 -374.729831 
L 752.59329 -376.32235 
L 752.597671 -377.914869 
L 752.631042 -379.507389 
L 752.647478 -381.099908 
L 752.649877 -382.692427 
L 752.649998 -384.284947 
L 752.65 -385.877466 
L 752.65 -387.469985 
L 752.65 -389.062505 
L 752.65 -390.655024 
L 752.65 -392.247543 
L 752.65 -393.840063 
L 752.65 -395.432582 
L 752.65 -397.025101 
L 752.65 -398.617621 
L 752.65 -400.21014 
L 752.65 -401.80266 
L 752.65 -403.395179 
L 752.65 -404.987698 
L 752.65 -406.580218 
L 752.65 -408.172737 
L 752.65 -409.765256 
L 752.65 -411.357776 
L 752.65 -412.950295 
L 752.65 -414.542814 
L 752.649999 -416.135334 
L 752.64996 -417.727853 
L 752.648891 -419.320372 
L 752.638644 -420.912892 
L 752.607514 -422.505411 
L 752.591914 -424.097931 
L 752.620979 -425.69045 
L 752.644701 -427.282969 
L 752.649646 -428.875489 
L 752.649991 -430.468008 
L 752.65 -432.060527 
L 752.65 -433.653047 
L 752.649979 -435.245566 
L 752.64931 -436.838085 
L 752.641673 -438.430605 
L 752.613295 -440.023124 
L 752.590877 -441.615643 
L 752.615198 -443.208163 
L 752.642514 -444.800682 
L 752.649412 -446.393202 
L 752.649983 -447.985721 
L 752.65 -449.57824 
L 752.65 -451.17076 
L 752.65 -452.763279 
L 752.65 -454.355798 
L 752.65 -455.948318 
L 752.65 -457.540837 
L 752.65 -459.133356 
L 752.65 -460.725876 
L 752.65 -462.318395 
L 752.65 -463.910914 
L 752.65 -465.503434 
L 752.65 -467.095953 
L 752.65 -468.688473 
L 752.65 -470.280992 
L 752.65 -471.873511 
L 752.65 -473.466031 
L 752.65 -475.05855 
L 752.649996 -476.651069 
L 752.649795 -478.243589 
L 752.646368 -479.836108 
L 752.626508 -481.428627 
L 752.594462 -483.021147 
L 752.601424 -484.613666 
L 752.627072 -486.206185 
L 752.61274 -487.798705 
L 752.590784 -489.391224 
L 752.614007 -490.983744 
L 752.641996 -492.576263 
L 752.658004 -492.576263 
L 752.658004 -492.576263 
L 752.685993 -490.983744 
L 752.709216 -489.391224 
L 752.68726 -487.798705 
L 752.672928 -486.206185 
L 752.698576 -484.613666 
L 752.705538 -483.021147 
L 752.673492 -481.428627 
L 752.653632 -479.836108 
L 752.650205 -478.243589 
L 752.650004 -476.651069 
L 752.65 -475.05855 
L 752.65 -473.466031 
L 752.65 -471.873511 
L 752.65 -470.280992 
L 752.65 -468.688473 
L 752.65 -467.095953 
L 752.65 -465.503434 
L 752.65 -463.910914 
L 752.65 -462.318395 
L 752.65 -460.725876 
L 752.65 -459.133356 
L 752.65 -457.540837 
L 752.65 -455.948318 
L 752.65 -454.355798 
L 752.65 -452.763279 
L 752.65 -451.17076 
L 752.65 -449.57824 
L 752.650017 -447.985721 
L 752.650588 -446.393202 
L 752.657486 -444.800682 
L 752.684802 -443.208163 
L 752.709123 -441.615643 
L 752.686705 -440.023124 
L 752.658327 -438.430605 
L 752.65069 -436.838085 
L 752.650021 -435.245566 
L 752.65 -433.653047 
L 752.65 -432.060527 
L 752.650009 -430.468008 
L 752.650354 -428.875489 
L 752.655299 -427.282969 
L 752.679021 -425.69045 
L 752.708086 -424.097931 
L 752.692486 -422.505411 
L 752.661356 -420.912892 
L 752.651109 -419.320372 
L 752.65004 -417.727853 
L 752.650001 -416.135334 
L 752.65 -414.542814 
L 752.65 -412.950295 
L 752.65 -411.357776 
L 752.65 -409.765256 
L 752.65 -408.172737 
L 752.65 -406.580218 
L 752.65 -404.987698 
L 752.65 -403.395179 
L 752.65 -401.80266 
L 752.65 -400.21014 
L 752.65 -398.617621 
L 752.65 -397.025101 
L 752.65 -395.432582 
L 752.65 -393.840063 
L 752.65 -392.247543 
L 752.65 -390.655024 
L 752.65 -389.062505 
L 752.65 -387.469985 
L 752.65 -385.877466 
L 752.650002 -384.284947 
L 752.650123 -382.692427 
L 752.652522 -381.099908 
L 752.668958 -379.507389 
L 752.702329 -377.914869 
L 752.70671 -376.32235 
L 752.695567 -374.729831 
L 752.70965 -373.137311 
L 752.695442 -371.544792 
L 752.666927 -369.952272 
L 752.676718 -368.359753 
L 752.716505 -366.767234 
L 752.737925 -365.174714 
L 752.723003 -363.582195 
L 752.682295 -361.989676 
L 752.655967 -360.397156 
L 752.651395 -358.804637 
L 752.663361 -357.212118 
L 752.721743 -355.619598 
L 752.819909 -354.027079 
L 752.894682 -352.43456 
L 752.979235 -350.84204 
L 753.063123 -349.249521 
L 753.241982 -347.657001 
L 753.670851 -346.064482 
L 754.294135 -344.471963 
L 756.42768 -342.879443 
L 769.308305 -341.286924 
L 807.758125 -339.694405 
L 833.09 -338.101885 
L 798.104178 -336.509366 
L 762.258444 -334.916847 
z
" style="stroke: #4d4d4d"/>
    </defs>
    <g clip-path="url(#pa89f69deb0)">
     <use xlink:href="#m09726474d1" x="0" y="576" style="fill: #808080; stroke: #4d4d4d"/>
    </g>
   </g>
   <g id="matplotlib.axis_1">
    <g id="xtick_1">
     <g id="line2d_1">
      <defs>
       <path id="m5f45c8aaea" d="M 0 0 
L 0 3.5 
" style="stroke: #000000; stroke-width: 0.8"/>
      </defs>
      <g>
       <use xlink:href="#m5f45c8aaea" x="149.35" y="251.231875" style="stroke: #000000; stroke-width: 0.8"/>
      </g>
     </g>
     <g id="text_1">
      <!-- 0 -->
      <g transform="translate(146.16875 265.830312) scale(0.1 -0.1)">
       <defs>
        <path id="DejaVuSans-30" d="M 2034 4250 
Q 1547 4250 1301 3770 
Q 1056 3291 1056 2328 
Q 1056 1369 1301 889 
Q 1547 409 2034 409 
Q 2525 409 2770 889 
Q 3016 1369 3016 2328 
Q 3016 3291 2770 3770 
Q 2525 4250 2034 4250 
z
M 2034 4750 
Q 2819 4750 3233 4129 
Q 3647 3509 3647 2328 
Q 3647 1150 3233 529 
Q 2819 -91 2034 -91 
Q 1250 -91 836 529 
Q 422 1150 422 2328 
Q 422 3509 836 4129 
Q 1250 4750 2034 4750 
z
" transform="scale(0.015625)"/>
       </defs>
       <use xlink:href="#DejaVuSans-30"/>
      </g>
     </g>
    </g>
    <g id="xtick_2">
     <g id="line2d_2">
      <g>
       <use xlink:href="#m5f45c8aaea" x="350.45" y="251.231875" style="stroke: #000000; stroke-width: 0.8"/>
      </g>
     </g>
     <g id="text_2">
      <!-- 1 -->
      <g transform="translate(347.26875 265.830312) scale(0.1 -0.1)">
       <defs>
        <path id="DejaVuSans-31" d="M 794 531 
L 1825 531 
L 1825 4091 
L 703 3866 
L 703 4441 
L 1819 4666 
L 2450 4666 
L 2450 531 
L 3481 531 
L 3481 0 
L 794 0 
L 794 531 
z
" transform="scale(0.015625)"/>
       </defs>
       <use xlink:href="#DejaVuSans-31"/>
      </g>
     </g>
    </g>
    <g id="xtick_3">
     <g id="line2d_3">
      <g>
       <use xlink:href="#m5f45c8aaea" x="551.55" y="251.231875" style="stroke: #000000; stroke-width: 0.8"/>
      </g>
     </g>
     <g id="text_3">
      <!-- 2 -->
      <g transform="translate(548.36875 265.830312) scale(0.1 -0.1)">
       <defs>
        <path id="DejaVuSans-32" d="M 1228 531 
L 3431 531 
L 3431 0 
L 469 0 
L 469 531 
Q 828 903 1448 1529 
Q 2069 2156 2228 2338 
Q 2531 2678 2651 2914 
Q 2772 3150 2772 3378 
Q 2772 3750 2511 3984 
Q 2250 4219 1831 4219 
Q 1534 4219 1204 4116 
Q 875 4013 500 3803 
L 500 4441 
Q 881 4594 1212 4672 
Q 1544 4750 1819 4750 
Q 2544 4750 2975 4387 
Q 3406 4025 3406 3419 
Q 3406 3131 3298 2873 
Q 3191 2616 2906 2266 
Q 2828 2175 2409 1742 
Q 1991 1309 1228 531 
z
" transform="scale(0.015625)"/>
       </defs>
       <use xlink:href="#DejaVuSans-32"/>
      </g>
     </g>
    </g>
    <g id="xtick_4">
     <g id="line2d_4">
      <g>
       <use xlink:href="#m5f45c8aaea" x="752.65" y="251.231875" style="stroke: #000000; stroke-width: 0.8"/>
      </g>
     </g>
    </g>
    <g id="text_4">
     <!-- Nhóm -->
     <g transform="translate(436.160937 279.508437) scale(0.1 -0.1)">
      <defs>
       <path id="DejaVuSans-4e" d="M 628 4666 
L 1478 4666 
L 3547 763 
L 3547 4666 
L 4159 4666 
L 4159 0 
L 3309 0 
L 1241 3903 
L 1241 0 
L 628 0 
L 628 4666 
z
" transform="scale(0.015625)"/>
       <path id="DejaVuSans-68" d="M 3513 2113 
L 3513 0 
L 2938 0 
L 2938 2094 
Q 2938 2591 2744 2837 
Q 2550 3084 2163 3084 
Q 1697 3084 1428 2787 
Q 1159 2491 1159 1978 
L 1159 0 
L 581 0 
L 581 4863 
L 1159 4863 
L 1159 2956 
Q 1366 3272 1645 3428 
Q 1925 3584 2291 3584 
Q 2894 3584 3203 3211 
Q 3513 2838 3513 2113 
z
" transform="scale(0.015625)"/>
       <path id="DejaVuSans-f3" d="M 1959 3097 
Q 1497 3097 1228 2736 
Q 959 2375 959 1747 
Q 959 1119 1226 758 
Q 1494 397 1959 397 
Q 2419 397 2687 759 
Q 2956 1122 2956 1747 
Q 2956 2369 2687 2733 
Q 2419 3097 1959 3097 
z
M 1959 3584 
Q 2709 3584 3137 3096 
Q 3566 2609 3566 1747 
Q 3566 888 3137 398 
Q 2709 -91 1959 -91 
Q 1206 -91 779 398 
Q 353 888 353 1747 
Q 353 2609 779 3096 
Q 1206 3584 1959 3584 
z
M 2394 5119 
L 3016 5119 
L 1998 3944 
L 1519 3944 
L 2394 5119 
z
" transform="scale(0.015625)"/>
       <path id="DejaVuSans-6d" d="M 3328 2828 
Q 3544 3216 3844 3400 
Q 4144 3584 4550 3584 
Q 5097 3584 5394 3201 
Q 5691 2819 5691 2113 
L 5691 0 
L 5113 0 
L 5113 2094 
Q 5113 2597 4934 2840 
Q 4756 3084 4391 3084 
Q 3944 3084 3684 2787 
Q 3425 2491 3425 1978 
L 3425 0 
L 2847 0 
L 2847 2094 
Q 2847 2600 2669 2842 
Q 2491 3084 2119 3084 
Q 1678 3084 1418 2786 
Q 1159 2488 1159 1978 
L 1159 0 
L 581 0 
L 581 3500 
L 1159 3500 
L 1159 2956 
Q 1356 3278 1631 3431 
Q 1906 3584 2284 3584 
Q 2666 3584 2933 3390 
Q 3200 3197 3328 2828 
z
" transform="scale(0.015625)"/>
      </defs>
      <use xlink:href="#DejaVuSans-4e"/>
      <use xlink:href="#DejaVuSans-68" transform="translate(74.804688 0)"/>
      <use xlink:href="#DejaVuSans-f3" transform="translate(138.183594 0)"/>
      <use xlink:href="#DejaVuSans-6d" transform="translate(199.365234 0)"/>
     </g>
    </g>
   </g>
   <g id="matplotlib.axis_2">
    <g id="ytick_1">
     <g id="line2d_5">
      <defs>
       <path id="m964614946b" d="M 0 0 
L -3.5 0 
" style="stroke: #000000; stroke-width: 0.8"/>
      </defs>
      <g>
       <use xlink:href="#m964614946b" x="48.8" y="237.908661" style="stroke: #000000; stroke-width: 0.8"/>
      </g>
     </g>
     <g id="text_5">
      <!-- 0.0 -->
      <g transform="translate(25.896875 241.70788) scale(0.1 -0.1)">
       <defs>
        <path id="DejaVuSans-2e" d="M 684 794 
L 1344 794 
L 1344 0 
L 684 0 
L 684 794 
z
" transform="scale(0.015625)"/>
       </defs>
       <use xlink:href="#DejaVuSans-30"/>
       <use xlink:href="#DejaVuSans-2e" transform="translate(63.623047 0)"/>
       <use xlink:href="#DejaVuSans-30" transform="translate(95.410156 0)"/>
      </g>
     </g>
    </g>
    <g id="ytick_2">
     <g id="line2d_6">
      <g>
       <use xlink:href="#m964614946b" x="48.8" y="207.844306" style="stroke: #000000; stroke-width: 0.8"/>
      </g>
     </g>
     <g id="text_6">
      <!-- 0.5 -->
      <g transform="translate(25.896875 211.643524) scale(0.1 -0.1)">
       <defs>
        <path id="DejaVuSans-35" d="M 691 4666 
L 3169 4666 
L 3169 4134 
L 1269 4134 
L 1269 2991 
Q 1406 3038 1543 3061 
Q 1681 3084 1819 3084 
Q 2600 3084 3056 2656 
Q 3513 2228 3513 1497 
Q 3513 744 3044 326 
Q 2575 -91 1722 -91 
Q 1428 -91 1123 -41 
Q 819 9 494 109 
L 494 744 
Q 775 591 1075 516 
Q 1375 441 1709 441 
Q 2250 441 2565 725 
Q 2881 1009 2881 1497 
Q 2881 1984 2565 2268 
Q 2250 2553 1709 2553 
Q 1456 2553 1204 2497 
Q 953 2441 691 2322 
L 691 4666 
z
" transform="scale(0.015625)"/>
       </defs>
       <use xlink:href="#DejaVuSans-30"/>
       <use xlink:href="#DejaVuSans-2e" transform="translate(63.623047 0)"/>
       <use xlink:href="#DejaVuSans-35" transform="translate(95.410156 0)"/>
      </g>
     </g>
    </g>
    <g id="ytick_3">
     <g id="line2d_7">
      <g>
       <use xlink:href="#m964614946b" x="48.8" y="177.77995" style="stroke: #000000; stroke-width: 0.8"/>
      </g>
     </g>
     <g id="text_7">
      <!-- 1.0 -->
      <g transform="translate(25.896875 181.579169) scale(0.1 -0.1)">
       <use xlink:href="#DejaVuSans-31"/>
       <use xlink:href="#DejaVuSans-2e" transform="translate(63.623047 0)"/>
       <use xlink:href="#DejaVuSans-30" transform="translate(95.410156 0)"/>
      </g>
     </g>
    </g>
    <g id="ytick_4">
     <g id="line2d_8">
      <g>
       <use xlink:href="#m964614946b" x="48.8" y="147.715595" style="stroke: #000000; stroke-width: 0.8"/>
      </g>
     </g>
     <g id="text_8">
      <!-- 1.5 -->
      <g transform="translate(25.896875 151.514813) scale(0.1 -0.1)">
       <use xlink:href="#DejaVuSans-31"/>
       <use xlink:href="#DejaVuSans-2e" transform="translate(63.623047 0)"/>
       <use xlink:href="#DejaVuSans-35" transform="translate(95.410156 0)"/>
      </g>
     </g>
    </g>
    <g id="ytick_5">
     <g id="line2d_9">
      <g>
       <use xlink:href="#m964614946b" x="48.8" y="117.651239" style="stroke: #000000; stroke-width: 0.8"/>
      </g>
     </g>
     <g id="text_9">
      <!-- 2.0 -->
      <g transform="translate(25.896875 121.450458) scale(0.1 -0.1)">
       <use xlink:href="#DejaVuSans-32"/>
       <use xlink:href="#DejaVuSans-2e" transform="translate(63.623047 0)"/>
       <use xlink:href="#DejaVuSans-30" transform="translate(95.410156 0)"/>
      </g>
     </g>
    </g>
    <g id="ytick_6">
     <g id="line2d_10">
      <g>
       <use xlink:href="#m964614946b" x="48.8" y="87.586884" style="stroke: #000000; stroke-width: 0.8"/>
      </g>
     </g>
     <g id="text_10">
      <!-- 2.5 -->
      <g transform="translate(25.896875 91.386102) scale(0.1 -0.1)">
       <use xlink:href="#DejaVuSans-32"/>
       <use xlink:href="#DejaVuSans-2e" transform="translate(63.623047 0)"/>
       <use xlink:href="#DejaVuSans-35" transform="translate(95.410156 0)"/>
      </g>
     </g>
    </g>
    <g id="ytick_7">
     <g id="line2d_11">
      <g>
       <use xlink:href="#m964614946b" x="48.8" y="57.522528" style="stroke: #000000; stroke-width: 0.8"/>
      </g>
     </g>
     <g id="text_11">
      <!-- 3.0 -->
      <g transform="translate(25.896875 61.321747) scale(0.1 -0.1)">
       <defs>
        <path id="DejaVuSans-33" d="M 2597 2516 
Q 3050 2419 3304 2112 
Q 3559 1806 3559 1356 
Q 3559 666 3084 287 
Q 2609 -91 1734 -91 
Q 1441 -91 1130 -33 
Q 819 25 488 141 
L 488 750 
Q 750 597 1062 519 
Q 1375 441 1716 441 
Q 2309 441 2620 675 
Q 2931 909 2931 1356 
Q 2931 1769 2642 2001 
Q 2353 2234 1838 2234 
L 1294 2234 
L 1294 2753 
L 1863 2753 
Q 2328 2753 2575 2939 
Q 2822 3125 2822 3475 
Q 2822 3834 2567 4026 
Q 2313 4219 1838 4219 
Q 1578 4219 1281 4162 
Q 984 4106 628 3988 
L 628 4550 
Q 988 4650 1302 4700 
Q 1616 4750 1894 4750 
Q 2613 4750 3031 4423 
Q 3450 4097 3450 3541 
Q 3450 3153 3228 2886 
Q 3006 2619 2597 2516 
z
" transform="scale(0.015625)"/>
       </defs>
       <use xlink:href="#DejaVuSans-33"/>
       <use xlink:href="#DejaVuSans-2e" transform="translate(63.623047 0)"/>
       <use xlink:href="#DejaVuSans-30" transform="translate(95.410156 0)"/>
      </g>
     </g>
    </g>
    <g id="text_12">
     <!-- Số lượng người theo dõi (triệu người) -->
     <g transform="translate(19.817188 231.683437) rotate(-90) scale(0.1 -0.1)">
      <defs>
       <path id="DejaVuSans-53" d="M 3425 4513 
L 3425 3897 
Q 3066 4069 2747 4153 
Q 2428 4238 2131 4238 
Q 1616 4238 1336 4038 
Q 1056 3838 1056 3469 
Q 1056 3159 1242 3001 
Q 1428 2844 1947 2747 
L 2328 2669 
Q 3034 2534 3370 2195 
Q 3706 1856 3706 1288 
Q 3706 609 3251 259 
Q 2797 -91 1919 -91 
Q 1588 -91 1214 -16 
Q 841 59 441 206 
L 441 856 
Q 825 641 1194 531 
Q 1563 422 1919 422 
Q 2459 422 2753 634 
Q 3047 847 3047 1241 
Q 3047 1584 2836 1778 
Q 2625 1972 2144 2069 
L 1759 2144 
Q 1053 2284 737 2584 
Q 422 2884 422 3419 
Q 422 4038 858 4394 
Q 1294 4750 2059 4750 
Q 2388 4750 2728 4690 
Q 3069 4631 3425 4513 
z
" transform="scale(0.015625)"/>
       <path id="DejaVuSans-1ed1" d="M 1658 4775 
L 2246 4775 
L 2905 3944 
L 2471 3944 
L 1952 4500 
L 1433 3944 
L 999 3944 
L 1658 4775 
z
M 3268 5409 
L 3846 5409 
L 3134 4584 
L 2655 4584 
L 3268 5409 
z
M 1959 3097 
Q 1497 3097 1228 2736 
Q 959 2375 959 1747 
Q 959 1119 1226 758 
Q 1494 397 1959 397 
Q 2419 397 2687 759 
Q 2956 1122 2956 1747 
Q 2956 2369 2687 2733 
Q 2419 3097 1959 3097 
z
M 1959 3584 
Q 2709 3584 3137 3096 
Q 3566 2609 3566 1747 
Q 3566 888 3137 398 
Q 2709 -91 1959 -91 
Q 1206 -91 779 398 
Q 353 888 353 1747 
Q 353 2609 779 3096 
Q 1206 3584 1959 3584 
z
" transform="scale(0.015625)"/>
       <path id="DejaVuSans-20" transform="scale(0.015625)"/>
       <path id="DejaVuSans-6c" d="M 603 4863 
L 1178 4863 
L 1178 0 
L 603 0 
L 603 4863 
z
" transform="scale(0.015625)"/>
       <path id="DejaVuSans-1b0" d="M 3094 3136 
L 3094 3508 
Q 3285 3367 3422 3300 
Q 3560 3233 3657 3233 
Q 3800 3233 3872 3319 
Q 3944 3405 3944 3573 
Q 3944 3673 3920 3770 
Q 3897 3867 3850 3964 
L 4266 3964 
Q 4297 3845 4312 3739 
Q 4328 3633 4328 3539 
Q 4328 3158 4192 2978 
Q 4057 2798 3766 2798 
Q 3616 2798 3452 2881 
Q 3288 2964 3094 3136 
z
M 552 1381 
L 552 3500 
L 1127 3500 
L 1127 1403 
Q 1127 906 1320 657 
Q 1514 409 1902 409 
Q 2367 409 2637 706 
Q 2908 1003 2908 1516 
L 2908 3500 
L 3483 3500 
L 3483 0 
L 2908 0 
L 2908 538 
Q 2699 219 2422 64 
Q 2146 -91 1780 -91 
Q 1177 -91 864 284 
Q 552 659 552 1381 
z
M 1999 3584 
L 1999 3584 
z
" transform="scale(0.015625)"/>
       <path id="DejaVuSans-1ee3" d="M 2622 3136 
L 2622 3508 
Q 2813 3367 2950 3300 
Q 3088 3233 3185 3233 
Q 3328 3233 3400 3319 
Q 3472 3405 3472 3573 
Q 3472 3673 3448 3770 
Q 3425 3867 3378 3964 
L 3794 3964 
Q 3825 3845 3840 3739 
Q 3856 3633 3856 3539 
Q 3856 3158 3720 2978 
Q 3585 2798 3294 2798 
Q 3144 2798 2980 2881 
Q 2816 2964 2622 3136 
z
M 1975 3097 
Q 1513 3097 1244 2736 
Q 975 2375 975 1747 
Q 975 1119 1242 758 
Q 1510 397 1975 397 
Q 2435 397 2703 759 
Q 2972 1122 2972 1747 
Q 2972 2369 2703 2733 
Q 2435 3097 1975 3097 
z
M 1975 3584 
Q 2725 3584 3153 3096 
Q 3582 2609 3582 1747 
Q 3582 888 3153 398 
Q 2725 -91 1975 -91 
Q 1222 -91 795 398 
Q 369 888 369 1747 
Q 369 2609 795 3096 
Q 1222 3584 1975 3584 
z
M 1666 -441 
L 2241 -441 
L 2241 -1172 
L 1666 -1172 
L 1666 -441 
z
" transform="scale(0.015625)"/>
       <path id="DejaVuSans-6e" d="M 3513 2113 
L 3513 0 
L 2938 0 
L 2938 2094 
Q 2938 2591 2744 2837 
Q 2550 3084 2163 3084 
Q 1697 3084 1428 2787 
Q 1159 2491 1159 1978 
L 1159 0 
L 581 0 
L 581 3500 
L 1159 3500 
L 1159 2956 
Q 1366 3272 1645 3428 
Q 1925 3584 2291 3584 
Q 2894 3584 3203 3211 
Q 3513 2838 3513 2113 
z
" transform="scale(0.015625)"/>
       <path id="DejaVuSans-67" d="M 2906 1791 
Q 2906 2416 2648 2759 
Q 2391 3103 1925 3103 
Q 1463 3103 1205 2759 
Q 947 2416 947 1791 
Q 947 1169 1205 825 
Q 1463 481 1925 481 
Q 2391 481 2648 825 
Q 2906 1169 2906 1791 
z
M 3481 434 
Q 3481 -459 3084 -895 
Q 2688 -1331 1869 -1331 
Q 1566 -1331 1297 -1286 
Q 1028 -1241 775 -1147 
L 775 -588 
Q 1028 -725 1275 -790 
Q 1522 -856 1778 -856 
Q 2344 -856 2625 -561 
Q 2906 -266 2906 331 
L 2906 616 
Q 2728 306 2450 153 
Q 2172 0 1784 0 
Q 1141 0 747 490 
Q 353 981 353 1791 
Q 353 2603 747 3093 
Q 1141 3584 1784 3584 
Q 2172 3584 2450 3431 
Q 2728 3278 2906 2969 
L 2906 3500 
L 3481 3500 
L 3481 434 
z
" transform="scale(0.015625)"/>
       <path id="DejaVuSans-1edd" d="M 1507 5119 
L 2388 3950 
L 1910 3950 
L 891 5119 
L 1507 5119 
z
M 2622 3136 
L 2622 3508 
Q 2813 3367 2950 3300 
Q 3088 3233 3185 3233 
Q 3328 3233 3400 3319 
Q 3472 3405 3472 3573 
Q 3472 3673 3448 3770 
Q 3425 3867 3378 3964 
L 3794 3964 
Q 3825 3845 3840 3739 
Q 3856 3633 3856 3539 
Q 3856 3158 3720 2978 
Q 3585 2798 3294 2798 
Q 3144 2798 2980 2881 
Q 2816 2964 2622 3136 
z
M 1975 3097 
Q 1513 3097 1244 2736 
Q 975 2375 975 1747 
Q 975 1119 1242 758 
Q 1510 397 1975 397 
Q 2435 397 2703 759 
Q 2972 1122 2972 1747 
Q 2972 2369 2703 2733 
Q 2435 3097 1975 3097 
z
M 1975 3584 
Q 2725 3584 3153 3096 
Q 3582 2609 3582 1747 
Q 3582 888 3153 398 
Q 2725 -91 1975 -91 
Q 1222 -91 795 398 
Q 369 888 369 1747 
Q 369 2609 795 3096 
Q 1222 3584 1975 3584 
z
" transform="scale(0.015625)"/>
       <path id="DejaVuSans-69" d="M 603 3500 
L 1178 3500 
L 1178 0 
L 603 0 
L 603 3500 
z
M 603 4863 
L 1178 4863 
L 1178 4134 
L 603 4134 
L 603 4863 
z
" transform="scale(0.015625)"/>
       <path id="DejaVuSans-74" d="M 1172 4494 
L 1172 3500 
L 2356 3500 
L 2356 3053 
L 1172 3053 
L 1172 1153 
Q 1172 725 1289 603 
Q 1406 481 1766 481 
L 2356 481 
L 2356 0 
L 1766 0 
Q 1100 0 847 248 
Q 594 497 594 1153 
L 594 3053 
L 172 3053 
L 172 3500 
L 594 3500 
L 594 4494 
L 1172 4494 
z
" transform="scale(0.015625)"/>
       <path id="DejaVuSans-65" d="M 3597 1894 
L 3597 1613 
L 953 1613 
Q 991 1019 1311 708 
Q 1631 397 2203 397 
Q 2534 397 2845 478 
Q 3156 559 3463 722 
L 3463 178 
Q 3153 47 2828 -22 
Q 2503 -91 2169 -91 
Q 1331 -91 842 396 
Q 353 884 353 1716 
Q 353 2575 817 3079 
Q 1281 3584 2069 3584 
Q 2775 3584 3186 3129 
Q 3597 2675 3597 1894 
z
M 3022 2063 
Q 3016 2534 2758 2815 
Q 2500 3097 2075 3097 
Q 1594 3097 1305 2825 
Q 1016 2553 972 2059 
L 3022 2063 
z
" transform="scale(0.015625)"/>
       <path id="DejaVuSans-6f" d="M 1959 3097 
Q 1497 3097 1228 2736 
Q 959 2375 959 1747 
Q 959 1119 1226 758 
Q 1494 397 1959 397 
Q 2419 397 2687 759 
Q 2956 1122 2956 1747 
Q 2956 2369 2687 2733 
Q 2419 3097 1959 3097 
z
M 1959 3584 
Q 2709 3584 3137 3096 
Q 3566 2609 3566 1747 
Q 3566 888 3137 398 
Q 2709 -91 1959 -91 
Q 1206 -91 779 398 
Q 353 888 353 1747 
Q 353 2609 779 3096 
Q 1206 3584 1959 3584 
z
" transform="scale(0.015625)"/>
       <path id="DejaVuSans-64" d="M 2906 2969 
L 2906 4863 
L 3481 4863 
L 3481 0 
L 2906 0 
L 2906 525 
Q 2725 213 2448 61 
Q 2172 -91 1784 -91 
Q 1150 -91 751 415 
Q 353 922 353 1747 
Q 353 2572 751 3078 
Q 1150 3584 1784 3584 
Q 2172 3584 2448 3432 
Q 2725 3281 2906 2969 
z
M 947 1747 
Q 947 1113 1208 752 
Q 1469 391 1925 391 
Q 2381 391 2643 752 
Q 2906 1113 2906 1747 
Q 2906 2381 2643 2742 
Q 2381 3103 1925 3103 
Q 1469 3103 1208 2742 
Q 947 2381 947 1747 
z
" transform="scale(0.015625)"/>
       <path id="DejaVuSans-f5" d="M 1959 3097 
Q 1497 3097 1228 2736 
Q 959 2375 959 1747 
Q 959 1119 1226 758 
Q 1494 397 1959 397 
Q 2419 397 2687 759 
Q 2956 1122 2956 1747 
Q 2956 2369 2687 2733 
Q 2419 3097 1959 3097 
z
M 1959 3584 
Q 2709 3584 3137 3096 
Q 3566 2609 3566 1747 
Q 3566 888 3137 398 
Q 2709 -91 1959 -91 
Q 1206 -91 779 398 
Q 353 888 353 1747 
Q 353 2609 779 3096 
Q 1206 3584 1959 3584 
z
M 1948 4281 
L 1769 4453 
Q 1701 4516 1649 4545 
Q 1598 4575 1557 4575 
Q 1438 4575 1382 4461 
Q 1326 4347 1319 4091 
L 929 4091 
Q 935 4513 1094 4742 
Q 1254 4972 1538 4972 
Q 1657 4972 1757 4928 
Q 1857 4884 1973 4781 
L 2151 4609 
Q 2219 4547 2271 4517 
Q 2323 4488 2363 4488 
Q 2482 4488 2538 4602 
Q 2594 4716 2601 4972 
L 2991 4972 
Q 2985 4550 2825 4320 
Q 2666 4091 2382 4091 
Q 2263 4091 2163 4134 
Q 2063 4178 1948 4281 
z
" transform="scale(0.015625)"/>
       <path id="DejaVuSans-28" d="M 1984 4856 
Q 1566 4138 1362 3434 
Q 1159 2731 1159 2009 
Q 1159 1288 1364 580 
Q 1569 -128 1984 -844 
L 1484 -844 
Q 1016 -109 783 600 
Q 550 1309 550 2009 
Q 550 2706 781 3412 
Q 1013 4119 1484 4856 
L 1984 4856 
z
" transform="scale(0.015625)"/>
       <path id="DejaVuSans-72" d="M 2631 2963 
Q 2534 3019 2420 3045 
Q 2306 3072 2169 3072 
Q 1681 3072 1420 2755 
Q 1159 2438 1159 1844 
L 1159 0 
L 581 0 
L 581 3500 
L 1159 3500 
L 1159 2956 
Q 1341 3275 1631 3429 
Q 1922 3584 2338 3584 
Q 2397 3584 2469 3576 
Q 2541 3569 2628 3553 
L 2631 2963 
z
" transform="scale(0.015625)"/>
       <path id="DejaVuSans-1ec7" d="M 1738 -441 
L 2313 -441 
L 2313 -1172 
L 1738 -1172 
L 1738 -441 
z
M 3597 1894 
L 3597 1613 
L 953 1613 
Q 991 1019 1311 708 
Q 1631 397 2203 397 
Q 2534 397 2845 478 
Q 3156 559 3463 722 
L 3463 178 
Q 3153 47 2828 -22 
Q 2503 -91 2169 -91 
Q 1331 -91 842 396 
Q 353 884 353 1716 
Q 353 2575 817 3079 
Q 1281 3584 2069 3584 
Q 2775 3584 3186 3129 
Q 3597 2675 3597 1894 
z
M 3022 2063 
Q 3016 2534 2758 2815 
Q 2500 3097 2075 3097 
Q 1594 3097 1305 2825 
Q 1016 2553 972 2059 
L 3022 2063 
z
M 1738 -441 
L 2313 -441 
L 2313 -1172 
L 1738 -1172 
L 1738 -441 
z
M 1801 5119 
L 2263 5119 
L 3029 3944 
L 2595 3944 
L 2032 4709 
L 1470 3944 
L 1035 3944 
L 1801 5119 
z
" transform="scale(0.015625)"/>
       <path id="DejaVuSans-75" d="M 544 1381 
L 544 3500 
L 1119 3500 
L 1119 1403 
Q 1119 906 1312 657 
Q 1506 409 1894 409 
Q 2359 409 2629 706 
Q 2900 1003 2900 1516 
L 2900 3500 
L 3475 3500 
L 3475 0 
L 2900 0 
L 2900 538 
Q 2691 219 2414 64 
Q 2138 -91 1772 -91 
Q 1169 -91 856 284 
Q 544 659 544 1381 
z
M 1991 3584 
L 1991 3584 
z
" transform="scale(0.015625)"/>
       <path id="DejaVuSans-29" d="M 513 4856 
L 1013 4856 
Q 1481 4119 1714 3412 
Q 1947 2706 1947 2009 
Q 1947 1309 1714 600 
Q 1481 -109 1013 -844 
L 513 -844 
Q 928 -128 1133 580 
Q 1338 1288 1338 2009 
Q 1338 2731 1133 3434 
Q 928 4138 513 4856 
z
" transform="scale(0.015625)"/>
      </defs>
      <use xlink:href="#DejaVuSans-53"/>
      <use xlink:href="#DejaVuSans-1ed1" transform="translate(63.476562 0)"/>
      <use xlink:href="#DejaVuSans-20" transform="translate(124.658203 0)"/>
      <use xlink:href="#DejaVuSans-6c" transform="translate(156.445312 0)"/>
      <use xlink:href="#DejaVuSans-1b0" transform="translate(184.228516 0)"/>
      <use xlink:href="#DejaVuSans-1ee3" transform="translate(247.607422 0)"/>
      <use xlink:href="#DejaVuSans-6e" transform="translate(308.789062 0)"/>
      <use xlink:href="#DejaVuSans-67" transform="translate(372.167969 0)"/>
      <use xlink:href="#DejaVuSans-20" transform="translate(435.644531 0)"/>
      <use xlink:href="#DejaVuSans-6e" transform="translate(467.431641 0)"/>
      <use xlink:href="#DejaVuSans-67" transform="translate(530.810547 0)"/>
      <use xlink:href="#DejaVuSans-1b0" transform="translate(594.287109 0)"/>
      <use xlink:href="#DejaVuSans-1edd" transform="translate(657.666016 0)"/>
      <use xlink:href="#DejaVuSans-69" transform="translate(718.847656 0)"/>
      <use xlink:href="#DejaVuSans-20" transform="translate(746.630859 0)"/>
      <use xlink:href="#DejaVuSans-74" transform="translate(778.417969 0)"/>
      <use xlink:href="#DejaVuSans-68" transform="translate(817.626953 0)"/>
      <use xlink:href="#DejaVuSans-65" transform="translate(881.005859 0)"/>
      <use xlink:href="#DejaVuSans-6f" transform="translate(942.529297 0)"/>
      <use xlink:href="#DejaVuSans-20" transform="translate(1003.710938 0)"/>
      <use xlink:href="#DejaVuSans-64" transform="translate(1035.498047 0)"/>
      <use xlink:href="#DejaVuSans-f5" transform="translate(1098.974609 0)"/>
      <use xlink:href="#DejaVuSans-69" transform="translate(1160.15625 0)"/>
      <use xlink:href="#DejaVuSans-20" transform="translate(1187.939453 0)"/>
      <use xlink:href="#DejaVuSans-28" transform="translate(1219.726562 0)"/>
      <use xlink:href="#DejaVuSans-74" transform="translate(1258.740234 0)"/>
      <use xlink:href="#DejaVuSans-72" transform="translate(1297.949219 0)"/>
      <use xlink:href="#DejaVuSans-69" transform="translate(1339.0625 0)"/>
      <use xlink:href="#DejaVuSans-1ec7" transform="translate(1366.845703 0)"/>
      <use xlink:href="#DejaVuSans-75" transform="translate(1428.369141 0)"/>
      <use xlink:href="#DejaVuSans-20" transform="translate(1491.748047 0)"/>
      <use xlink:href="#DejaVuSans-6e" transform="translate(1523.535156 0)"/>
      <use xlink:href="#DejaVuSans-67" transform="translate(1586.914062 0)"/>
      <use xlink:href="#DejaVuSans-1b0" transform="translate(1650.390625 0)"/>
      <use xlink:href="#DejaVuSans-1edd" transform="translate(1713.769531 0)"/>
      <use xlink:href="#DejaVuSans-69" transform="translate(1774.951172 0)"/>
      <use xlink:href="#DejaVuSans-29" transform="translate(1802.734375 0)"/>
     </g>
    </g>
    <g id="text_13">
     <!-- 1e7 -->
     <g transform="translate(48.8 24.96) scale(0.1 -0.1)">
      <defs>
       <path id="DejaVuSans-37" d="M 525 4666 
L 3525 4666 
L 3525 4397 
L 1831 0 
L 1172 0 
L 2766 4134 
L 525 4134 
L 525 4666 
z
" transform="scale(0.015625)"/>
      </defs>
      <use xlink:href="#DejaVuSans-31"/>
      <use xlink:href="#DejaVuSans-65" transform="translate(63.623047 0)"/>
      <use xlink:href="#DejaVuSans-37" transform="translate(125.146484 0)"/>
     </g>
    </g>
   </g>
   <g id="line2d_12">
    <path d="M 149.35 237.908661 
L 149.35 237.891939 
" clip-path="url(#pa89f69deb0)" style="fill: none; stroke: #3d3d3d; stroke-width: 1.875; stroke-linecap: square"/>
   </g>
   <g id="line2d_13">
    <path d="M 149.35 237.908577 
L 149.35 237.901803 
" clip-path="url(#pa89f69deb0)" style="fill: none; stroke: #3d3d3d; stroke-width: 5.625; stroke-linecap: square"/>
   </g>
   <g id="line2d_14">
    <path d="M 149.35 237.907873 
" clip-path="url(#pa89f69deb0)" style="fill: none; stroke: #3d3d3d; stroke-width: 1.5; stroke-linecap: square"/>
    <defs>
     <path id="m5196f0399e" d="M 2.34375 0 
L -2.34375 -0 
" style="stroke: #ffffff; stroke-width: 1.125"/>
    </defs>
    <g clip-path="url(#pa89f69deb0)">
     <use xlink:href="#m5196f0399e" x="149.35" y="237.907873" style="fill: #ffffff; stroke: #ffffff; stroke-width: 1.125"/>
    </g>
   </g>
   <g id="line2d_15">
    <path d="M 350.45 152.20356 
L 350.45 86.598229 
" clip-path="url(#pa89f69deb0)" style="fill: none; stroke: #3d3d3d; stroke-width: 1.875; stroke-linecap: square"/>
   </g>
   <g id="line2d_16">
    <path d="M 350.45 138.870738 
L 350.45 90.960395 
" clip-path="url(#pa89f69deb0)" style="fill: none; stroke: #3d3d3d; stroke-width: 5.625; stroke-linecap: square"/>
   </g>
   <g id="line2d_17">
    <path d="M 350.45 113.420457 
" clip-path="url(#pa89f69deb0)" style="fill: none; stroke: #3d3d3d; stroke-width: 1.5; stroke-linecap: square"/>
    <g clip-path="url(#pa89f69deb0)">
     <use xlink:href="#m5196f0399e" x="350.45" y="113.420457" style="fill: #ffffff; stroke: #ffffff; stroke-width: 1.125"/>
    </g>
   </g>
   <g id="line2d_18">
    <path d="M 551.55 237.908637 
L 551.55 236.499346 
" clip-path="url(#pa89f69deb0)" style="fill: none; stroke: #3d3d3d; stroke-width: 1.875; stroke-linecap: square"/>
   </g>
   <g id="line2d_19">
    <path d="M 551.55 237.884928 
L 551.55 237.317939 
" clip-path="url(#pa89f69deb0)" style="fill: none; stroke: #3d3d3d; stroke-width: 5.625; stroke-linecap: square"/>
   </g>
   <g id="line2d_20">
    <path d="M 551.55 237.784177 
" clip-path="url(#pa89f69deb0)" style="fill: none; stroke: #3d3d3d; stroke-width: 1.5; stroke-linecap: square"/>
    <g clip-path="url(#pa89f69deb0)">
     <use xlink:href="#m5196f0399e" x="551.55" y="237.784177" style="fill: #ffffff; stroke: #ffffff; stroke-width: 1.125"/>
    </g>
   </g>
   <g id="line2d_21">
    <path d="M 752.65 237.908661 
L 752.65 237.454527 
" clip-path="url(#pa89f69deb0)" style="fill: none; stroke: #4d4d4d; stroke-width: 1.5; stroke-linecap: square"/>
   </g>
   <g id="line2d_22">
    <path d="M 752.65 237.90769 
L 752.65 237.725517 
" clip-path="url(#pa89f69deb0)" style="fill: none; stroke: #4d4d4d; stroke-width: 4.5; stroke-linecap: square"/>
   </g>
   <g id="line2d_23">
    <path d="M 752.65 237.891485 
" clip-path="url(#pa89f69deb0)" style="fill: none; stroke: #4d4d4d; stroke-width: 1.5; stroke-linecap: square"/>
    <defs>
     <path id="m0c38e18746" d="M 1.875 0 
L -1.875 -0 
" style="stroke: #ffffff; stroke-width: 0.9"/>
    </defs>
    <g clip-path="url(#pa89f69deb0)">
     <use xlink:href="#m0c38e18746" x="752.65" y="237.891485" style="fill: #ffffff; stroke: #ffffff; stroke-width: 0.9"/>
    </g>
   </g>
   <g id="patch_6">
    <path d="M 48.8 251.231875 
L 48.8 27.96 
" style="fill: none; stroke: #000000; stroke-width: 0.8; stroke-linejoin: miter; stroke-linecap: square"/>
   </g>
   <g id="patch_7">
    <path d="M 853.2 251.231875 
L 853.2 27.96 
" style="fill: none; stroke: #000000; stroke-width: 0.8; stroke-linejoin: miter; stroke-linecap: square"/>
   </g>
   <g id="patch_8">
    <path d="M 48.8 251.231875 
L 853.2 251.231875 
" style="fill: none; stroke: #000000; stroke-width: 0.8; stroke-linejoin: miter; stroke-linecap: square"/>
   </g>
   <g id="patch_9">
    <path d="M 48.8 27.96 
L 853.2 27.96 
" style="fill: none; stroke: #000000; stroke-width: 0.8; stroke-linejoin: miter; stroke-linecap: square"/>
   </g>
   <g id="text_14">
    <!-- Số lượng người theo dõi theo từng nhóm -->
    <g transform="translate(329.5975 21.96) scale(0.12 -0.12)">
     <defs>
      <path id="DejaVuSans-1eeb" d="M 1531 5119 
L 2412 3950 
L 1934 3950 
L 915 5119 
L 1531 5119 
z
M 3094 3136 
L 3094 3508 
Q 3285 3367 3422 3300 
Q 3560 3233 3657 3233 
Q 3800 3233 3872 3319 
Q 3944 3405 3944 3573 
Q 3944 3673 3920 3770 
Q 3897 3867 3850 3964 
L 4266 3964 
Q 4297 3845 4312 3739 
Q 4328 3633 4328 3539 
Q 4328 3158 4192 2978 
Q 4057 2798 3766 2798 
Q 3616 2798 3452 2881 
Q 3288 2964 3094 3136 
z
M 552 1381 
L 552 3500 
L 1127 3500 
L 1127 1403 
Q 1127 906 1320 657 
Q 1514 409 1902 409 
Q 2367 409 2637 706 
Q 2908 1003 2908 1516 
L 2908 3500 
L 3483 3500 
L 3483 0 
L 2908 0 
L 2908 538 
Q 2699 219 2422 64 
Q 2146 -91 1780 -91 
Q 1177 -91 864 284 
Q 552 659 552 1381 
z
M 1999 3584 
L 1999 3584 
z
" transform="scale(0.015625)"/>
     </defs>
     <use xlink:href="#DejaVuSans-53"/>
     <use xlink:href="#DejaVuSans-1ed1" transform="translate(63.476562 0)"/>
     <use xlink:href="#DejaVuSans-20" transform="translate(124.658203 0)"/>
     <use xlink:href="#DejaVuSans-6c" transform="translate(156.445312 0)"/>
     <use xlink:href="#DejaVuSans-1b0" transform="translate(184.228516 0)"/>
     <use xlink:href="#DejaVuSans-1ee3" transform="translate(247.607422 0)"/>
     <use xlink:href="#DejaVuSans-6e" transform="translate(308.789062 0)"/>
     <use xlink:href="#DejaVuSans-67" transform="translate(372.167969 0)"/>
     <use xlink:href="#DejaVuSans-20" transform="translate(435.644531 0)"/>
     <use xlink:href="#DejaVuSans-6e" transform="translate(467.431641 0)"/>
     <use xlink:href="#DejaVuSans-67" transform="translate(530.810547 0)"/>
     <use xlink:href="#DejaVuSans-1b0" transform="translate(594.287109 0)"/>
     <use xlink:href="#DejaVuSans-1edd" transform="translate(657.666016 0)"/>
     <use xlink:href="#DejaVuSans-69" transform="translate(718.847656 0)"/>
     <use xlink:href="#DejaVuSans-20" transform="translate(746.630859 0)"/>
     <use xlink:href="#DejaVuSans-74" transform="translate(778.417969 0)"/>
     <use xlink:href="#DejaVuSans-68" transform="translate(817.626953 0)"/>
     <use xlink:href="#DejaVuSans-65" transform="translate(881.005859 0)"/>
     <use xlink:href="#DejaVuSans-6f" transform="translate(942.529297 0)"/>
     <use xlink:href="#DejaVuSans-20" transform="translate(1003.710938 0)"/>
     <use xlink:href="#DejaVuSans-64" transform="translate(1035.498047 0)"/>
     <use xlink:href="#DejaVuSans-f5" transform="translate(1098.974609 0)"/>
     <use xlink:href="#DejaVuSans-69" transform="translate(1160.15625 0)"/>
     <use xlink:href="#DejaVuSans-20" transform="translate(1187.939453 0)"/>
     <use xlink:href="#DejaVuSans-74" transform="translate(1219.726562 0)"/>
     <use xlink:href="#DejaVuSans-68" transform="translate(1258.935547 0)"/>
     <use xlink:href="#DejaVuSans-65" transform="translate(1322.314453 0)"/>
     <use xlink:href="#DejaVuSans-6f" transform="translate(1383.837891 0)"/>
     <use xlink:href="#DejaVuSans-20" transform="translate(1445.019531 0)"/>
     <use xlink:href="#DejaVuSans-74" transform="translate(1476.806641 0)"/>
     <use xlink:href="#DejaVuSans-1eeb" transform="translate(1516.015625 0)"/>
     <use xlink:href="#DejaVuSans-6e" transform="translate(1579.394531 0)"/>
     <use xlink:href="#DejaVuSans-67" transform="translate(1642.773438 0)"/>
     <use xlink:href="#DejaVuSans-20" transform="translate(1706.25 0)"/>
     <use xlink:href="#DejaVuSans-6e" transform="translate(1738.037109 0)"/>
     <use xlink:href="#DejaVuSans-68" transform="translate(1801.416016 0)"/>
     <use xlink:href="#DejaVuSans-f3" transform="translate(1864.794922 0)"/>
     <use xlink:href="#DejaVuSans-6d" transform="translate(1925.976562 0)"/>
    </g>
   </g>
   <g id="legend_1">
    <g id="patch_10">
     <path d="M 807.8375 79.994375 
L 846.2 79.994375 
Q 848.2 79.994375 848.2 77.994375 
L 848.2 34.96 
Q 848.2 32.96 846.2 32.96 
L 807.8375 32.96 
Q 805.8375 32.96 805.8375 34.96 
L 805.8375 77.994375 
Q 805.8375 79.994375 807.8375 79.994375 
z
" style="fill: #ffffff; opacity: 0.8; stroke: #cccccc; stroke-linejoin: miter"/>
    </g>
    <g id="patch_11">
     <path d="M 809.8375 44.558437 
L 829.8375 44.558437 
L 829.8375 37.558437 
L 809.8375 37.558437 
z
" style="fill: #3274a1; stroke: #3d3d3d; stroke-width: 1.25; stroke-linejoin: miter"/>
    </g>
    <g id="text_15">
     <!-- 0 -->
     <g transform="translate(837.8375 44.558437) scale(0.1 -0.1)">
      <use xlink:href="#DejaVuSans-30"/>
     </g>
    </g>
    <g id="patch_12">
     <path d="M 809.8375 59.236562 
L 829.8375 59.236562 
L 829.8375 52.236562 
L 809.8375 52.236562 
z
" style="fill: #e1812c; stroke: #3d3d3d; stroke-width: 1.25; stroke-linejoin: miter"/>
    </g>
    <g id="text_16">
     <!-- 1 -->
     <g transform="translate(837.8375 59.236562) scale(0.1 -0.1)">
      <use xlink:href="#DejaVuSans-31"/>
     </g>
    </g>
    <g id="patch_13">
     <path d="M 809.8375 73.914687 
L 829.8375 73.914687 
L 829.8375 66.914687 
L 809.8375 66.914687 
z
" style="fill: #3a923a; stroke: #3d3d3d; stroke-width: 1.25; stroke-linejoin: miter"/>
    </g>
    <g id="text_17">
     <!-- 2 -->
     <g transform="translate(837.8375 73.914687) scale(0.1 -0.1)">
      <use xlink:href="#DejaVuSans-32"/>
     </g>
    </g>
   </g>
  </g>
  <g id="axes_2">
   <g id="patch_14">
    <path d="M 48.8 534.04 
L 853.2 534.04 
L 853.2 310.768125 
L 48.8 310.768125 
z
" style="fill: #ffffff"/>
   </g>
   <g id="FillBetweenPolyCollection_5">
    <defs>
     <path id="m532e1ba2d3" d="M 157.650824 -60.321689 
L 141.049176 -60.321689 
L 138.255286 -60.966904 
L 134.823897 -61.612119 
L 130.717757 -62.257334 
L 125.933819 -62.902548 
L 120.512205 -63.547763 
L 114.54249 -64.192978 
L 108.165849 -64.838193 
L 101.571941 -65.483407 
L 94.990031 -66.128622 
L 88.674635 -66.773837 
L 82.886851 -67.419051 
L 77.873318 -68.064266 
L 73.845281 -68.709481 
L 70.960368 -69.354696 
L 69.309417 -69.99991 
L 68.91 -70.645125 
L 69.707343 -71.29034 
L 71.582265 -71.935555 
L 74.364834 -72.580769 
L 77.851693 -73.225984 
L 81.824743 -73.871199 
L 86.068906 -74.516413 
L 90.387133 -75.161628 
L 94.611435 -75.806843 
L 98.609468 -76.452058 
L 102.286822 -77.097272 
L 105.58569 -77.742487 
L 108.480854 -78.387702 
L 110.974037 -79.032917 
L 113.087542 -79.678131 
L 114.85795 -80.323346 
L 116.330363 -80.968561 
L 117.553518 -81.613775 
L 118.575856 -82.25899 
L 119.442565 -82.904205 
L 120.193504 -83.54942 
L 120.861913 -84.194634 
L 121.473808 -84.839849 
L 122.047933 -85.485064 
L 122.596202 -86.130278 
L 123.124507 -86.775493 
L 123.633817 -87.420708 
L 124.121453 -88.065923 
L 124.582434 -88.711137 
L 125.010796 -89.356352 
L 125.400762 -90.001567 
L 125.747679 -90.646782 
L 126.048647 -91.291996 
L 126.302787 -91.937211 
L 126.511159 -92.582426 
L 126.676344 -93.22764 
L 126.801784 -93.872855 
L 126.890989 -94.51807 
L 126.946727 -95.163285 
L 126.970344 -95.808499 
L 126.96132 -96.453714 
L 126.917119 -97.098929 
L 126.833386 -97.744144 
L 126.704428 -98.389358 
L 126.523928 -99.034573 
L 126.285773 -99.679788 
L 125.984889 -100.325002 
L 125.617977 -100.970217 
L 125.184104 -101.615432 
L 124.6851 -102.260647 
L 124.125825 -102.905861 
L 123.51432 -103.551076 
L 122.861936 -104.196291 
L 122.18347 -104.841506 
L 121.497311 -105.48672 
L 120.825566 -106.131935 
L 120.194068 -106.77715 
L 119.632132 -107.422364 
L 119.171963 -108.067579 
L 118.84758 -108.712794 
L 118.693254 -109.358009 
L 118.741483 -110.003223 
L 119.020643 -110.648438 
L 119.552538 -111.293653 
L 120.3501 -111.938868 
L 121.415537 -112.584082 
L 122.739179 -113.229297 
L 124.299223 -113.874512 
L 126.062464 -114.519726 
L 127.985991 -115.164941 
L 130.019727 -115.810156 
L 132.109546 -116.455371 
L 134.200691 -117.100585 
L 136.24113 -117.7458 
L 138.184554 -118.391015 
L 139.99273 -119.03623 
L 141.637041 -119.681444 
L 143.099144 -120.326659 
L 144.370763 -120.971874 
L 145.452743 -121.617088 
L 146.353565 -122.262303 
L 147.087514 -122.907518 
L 147.672762 -123.552733 
L 148.129516 -124.197947 
L 150.570484 -124.197947 
L 150.570484 -124.197947 
L 151.027238 -123.552733 
L 151.612486 -122.907518 
L 152.346435 -122.262303 
L 153.247257 -121.617088 
L 154.329237 -120.971874 
L 155.600856 -120.326659 
L 157.062959 -119.681444 
L 158.70727 -119.03623 
L 160.515446 -118.391015 
L 162.45887 -117.7458 
L 164.499309 -117.100585 
L 166.590454 -116.455371 
L 168.680273 -115.810156 
L 170.714009 -115.164941 
L 172.637536 -114.519726 
L 174.400777 -113.874512 
L 175.960821 -113.229297 
L 177.284463 -112.584082 
L 178.3499 -111.938868 
L 179.147462 -111.293653 
L 179.679357 -110.648438 
L 179.958517 -110.003223 
L 180.006746 -109.358009 
L 179.85242 -108.712794 
L 179.528037 -108.067579 
L 179.067868 -107.422364 
L 178.505932 -106.77715 
L 177.874434 -106.131935 
L 177.202689 -105.48672 
L 176.51653 -104.841506 
L 175.838064 -104.196291 
L 175.18568 -103.551076 
L 174.574175 -102.905861 
L 174.0149 -102.260647 
L 173.515896 -101.615432 
L 173.082023 -100.970217 
L 172.715111 -100.325002 
L 172.414227 -99.679788 
L 172.176072 -99.034573 
L 171.995572 -98.389358 
L 171.866614 -97.744144 
L 171.782881 -97.098929 
L 171.73868 -96.453714 
L 171.729656 -95.808499 
L 171.753273 -95.163285 
L 171.809011 -94.51807 
L 171.898216 -93.872855 
L 172.023656 -93.22764 
L 172.188841 -92.582426 
L 172.397213 -91.937211 
L 172.651353 -91.291996 
L 172.952321 -90.646782 
L 173.299238 -90.001567 
L 173.689204 -89.356352 
L 174.117566 -88.711137 
L 174.578547 -88.065923 
L 175.066183 -87.420708 
L 175.575493 -86.775493 
L 176.103798 -86.130278 
L 176.652067 -85.485064 
L 177.226192 -84.839849 
L 177.838087 -84.194634 
L 178.506496 -83.54942 
L 179.257435 -82.904205 
L 180.124144 -82.25899 
L 181.146482 -81.613775 
L 182.369637 -80.968561 
L 183.84205 -80.323346 
L 185.612458 -79.678131 
L 187.725963 -79.032917 
L 190.219146 -78.387702 
L 193.11431 -77.742487 
L 196.413178 -77.097272 
L 200.090532 -76.452058 
L 204.088565 -75.806843 
L 208.312867 -75.161628 
L 212.631094 -74.516413 
L 216.875257 -73.871199 
L 220.848307 -73.225984 
L 224.335166 -72.580769 
L 227.117735 -71.935555 
L 228.992657 -71.29034 
L 229.79 -70.645125 
L 229.390583 -69.99991 
L 227.739632 -69.354696 
L 224.854719 -68.709481 
L 220.826682 -68.064266 
L 215.813149 -67.419051 
L 210.025365 -66.773837 
L 203.709969 -66.128622 
L 197.128059 -65.483407 
L 190.534151 -64.838193 
L 184.15751 -64.192978 
L 178.187795 -63.547763 
L 172.766181 -62.902548 
L 167.982243 -62.257334 
L 163.876103 -61.612119 
L 160.444714 -60.966904 
L 157.650824 -60.321689 
z
" style="stroke: #3d3d3d; stroke-width: 1.25"/>
    </defs>
    <g clip-path="url(#p561e9e6647)">
     <use xlink:href="#m532e1ba2d3" x="0" y="576" style="fill: #3274a1; stroke: #3d3d3d; stroke-width: 1.25"/>
    </g>
   </g>
   <g id="FillBetweenPolyCollection_6">
    <defs>
     <path id="mdcef3912ba" d="M 354.177706 -221.244885 
L 346.722294 -221.244885 
L 346.168005 -221.482993 
L 345.555481 -221.721101 
L 344.882812 -221.959209 
L 344.148743 -222.197318 
L 343.352786 -222.435426 
L 342.495321 -222.673534 
L 341.577683 -222.911642 
L 340.602237 -223.14975 
L 339.572426 -223.387858 
L 338.492794 -223.625967 
L 337.368988 -223.864075 
L 336.207708 -224.102183 
L 335.016639 -224.340291 
L 333.804335 -224.578399 
L 332.580065 -224.816507 
L 331.353625 -225.054616 
L 330.135115 -225.292724 
L 328.93468 -225.530832 
L 327.762233 -225.76894 
L 326.627158 -226.007048 
L 325.537998 -226.245156 
L 324.502151 -226.483265 
L 323.52557 -226.721373 
L 322.612487 -226.959481 
L 321.765168 -227.197589 
L 320.98371 -227.435697 
L 320.265888 -227.673805 
L 319.607071 -227.911914 
L 319.000193 -228.150022 
L 318.435811 -228.38813 
L 317.902232 -228.626238 
L 317.385715 -228.864346 
L 316.870763 -229.102454 
L 316.340469 -229.340563 
L 315.77694 -229.578671 
L 315.161773 -229.816779 
L 314.476572 -230.054887 
L 313.703504 -230.292995 
L 312.825862 -230.531103 
L 311.828636 -230.769212 
L 310.699059 -231.00732 
L 309.427128 -231.245428 
L 308.006064 -231.483536 
L 306.432715 -231.721644 
L 304.707871 -231.959753 
L 302.836489 -232.197861 
L 300.827814 -232.435969 
L 298.695393 -232.674077 
L 296.456964 -232.912185 
L 294.134245 -233.150293 
L 291.752597 -233.388402 
L 289.340591 -233.62651 
L 286.929472 -233.864618 
L 284.552544 -234.102726 
L 282.244483 -234.340834 
L 280.040602 -234.578942 
L 277.976089 -234.817051 
L 276.085228 -235.055159 
L 274.400636 -235.293267 
L 272.952538 -235.531375 
L 271.768085 -235.769483 
L 270.870755 -236.007591 
L 270.279832 -236.2457 
L 270.01 -236.483808 
L 270.071037 -236.721916 
L 270.467638 -236.960024 
L 271.19936 -237.198132 
L 272.260686 -237.43624 
L 273.641208 -237.674349 
L 275.325924 -237.912457 
L 277.295631 -238.150565 
L 279.527407 -238.388673 
L 281.995155 -238.626781 
L 284.670211 -238.864889 
L 287.521976 -239.102998 
L 290.518569 -239.341106 
L 293.627476 -239.579214 
L 296.816182 -239.817322 
L 300.052761 -240.05543 
L 303.306424 -240.293539 
L 306.548006 -240.531647 
L 309.750379 -240.769755 
L 312.888801 -241.007863 
L 315.941173 -241.245971 
L 318.888229 -241.484079 
L 321.713641 -241.722188 
L 324.404057 -241.960296 
L 326.949065 -242.198404 
L 329.3411 -242.436512 
L 331.575299 -242.67462 
L 333.649309 -242.912728 
L 335.563068 -243.150837 
L 337.318552 -243.388945 
L 338.919512 -243.627053 
L 340.371207 -243.865161 
L 341.680128 -244.103269 
L 342.853742 -244.341377 
L 343.900234 -244.579486 
L 344.828279 -244.817594 
L 356.071721 -244.817594 
L 356.071721 -244.817594 
L 356.999766 -244.579486 
L 358.046258 -244.341377 
L 359.219872 -244.103269 
L 360.528793 -243.865161 
L 361.980488 -243.627053 
L 363.581448 -243.388945 
L 365.336932 -243.150837 
L 367.250691 -242.912728 
L 369.324701 -242.67462 
L 371.5589 -242.436512 
L 373.950935 -242.198404 
L 376.495943 -241.960296 
L 379.186359 -241.722188 
L 382.011771 -241.484079 
L 384.958827 -241.245971 
L 388.011199 -241.007863 
L 391.149621 -240.769755 
L 394.351994 -240.531647 
L 397.593576 -240.293539 
L 400.847239 -240.05543 
L 404.083818 -239.817322 
L 407.272524 -239.579214 
L 410.381431 -239.341106 
L 413.378024 -239.102998 
L 416.229789 -238.864889 
L 418.904845 -238.626781 
L 421.372593 -238.388673 
L 423.604369 -238.150565 
L 425.574076 -237.912457 
L 427.258792 -237.674349 
L 428.639314 -237.43624 
L 429.70064 -237.198132 
L 430.432362 -236.960024 
L 430.828963 -236.721916 
L 430.89 -236.483808 
L 430.620168 -236.2457 
L 430.029245 -236.007591 
L 429.131915 -235.769483 
L 427.947462 -235.531375 
L 426.499364 -235.293267 
L 424.814772 -235.055159 
L 422.923911 -234.817051 
L 420.859398 -234.578942 
L 418.655517 -234.340834 
L 416.347456 -234.102726 
L 413.970528 -233.864618 
L 411.559409 -233.62651 
L 409.147403 -233.388402 
L 406.765755 -233.150293 
L 404.443036 -232.912185 
L 402.204607 -232.674077 
L 400.072186 -232.435969 
L 398.063511 -232.197861 
L 396.192129 -231.959753 
L 394.467285 -231.721644 
L 392.893936 -231.483536 
L 391.472872 -231.245428 
L 390.200941 -231.00732 
L 389.071364 -230.769212 
L 388.074138 -230.531103 
L 387.196496 -230.292995 
L 386.423428 -230.054887 
L 385.738227 -229.816779 
L 385.12306 -229.578671 
L 384.559531 -229.340563 
L 384.029237 -229.102454 
L 383.514285 -228.864346 
L 382.997768 -228.626238 
L 382.464189 -228.38813 
L 381.899807 -228.150022 
L 381.292929 -227.911914 
L 380.634112 -227.673805 
L 379.91629 -227.435697 
L 379.134832 -227.197589 
L 378.287513 -226.959481 
L 377.37443 -226.721373 
L 376.397849 -226.483265 
L 375.362002 -226.245156 
L 374.272842 -226.007048 
L 373.137767 -225.76894 
L 371.96532 -225.530832 
L 370.764885 -225.292724 
L 369.546375 -225.054616 
L 368.319935 -224.816507 
L 367.095665 -224.578399 
L 365.883361 -224.340291 
L 364.692292 -224.102183 
L 363.531012 -223.864075 
L 362.407206 -223.625967 
L 361.327574 -223.387858 
L 360.297763 -223.14975 
L 359.322317 -222.911642 
L 358.404679 -222.673534 
L 357.547214 -222.435426 
L 356.751257 -222.197318 
L 356.017188 -221.959209 
L 355.344519 -221.721101 
L 354.731995 -221.482993 
L 354.177706 -221.244885 
z
" style="stroke: #3d3d3d; stroke-width: 1.25"/>
    </defs>
    <g clip-path="url(#p561e9e6647)">
     <use xlink:href="#mdcef3912ba" x="0" y="576" style="fill: #e1812c; stroke: #3d3d3d; stroke-width: 1.25"/>
    </g>
   </g>
   <g id="FillBetweenPolyCollection_7">
    <defs>
     <path id="m364679c1ce" d="M 553.696733 -106.697206 
L 549.403267 -106.697206 
L 547.939134 -107.989982 
L 545.774372 -109.282757 
L 542.753639 -110.575533 
L 538.773944 -111.868309 
L 533.820863 -113.161085 
L 527.992107 -114.453861 
L 521.497859 -115.746637 
L 514.633842 -117.039412 
L 507.732783 -118.332188 
L 501.108374 -119.624964 
L 495.008891 -120.91774 
L 489.593369 -122.210516 
L 484.933741 -123.503292 
L 481.036135 -124.796068 
L 477.86864 -126.088843 
L 475.383469 -127.381619 
L 473.527442 -128.674395 
L 472.242314 -129.967171 
L 471.461484 -131.259947 
L 471.11 -132.552723 
L 471.110916 -133.845498 
L 471.395853 -135.138274 
L 471.914177 -136.43105 
L 472.635497 -137.723826 
L 473.543756 -139.016602 
L 474.625705 -140.309378 
L 475.859412 -141.602154 
L 477.208147 -142.894929 
L 478.622201 -144.187705 
L 480.047573 -145.480481 
L 481.438002 -146.773257 
L 482.766086 -148.066033 
L 484.030145 -149.358809 
L 485.255065 -150.651584 
L 486.487242 -151.94436 
L 487.785311 -153.237136 
L 489.209277 -154.529912 
L 490.810658 -155.822688 
L 492.62515 -157.115464 
L 494.667855 -158.40824 
L 496.930294 -159.701015 
L 499.378765 -160.993791 
L 501.955039 -162.286567 
L 504.581338 -163.579343 
L 507.17107 -164.872119 
L 509.644359 -166.164895 
L 511.944487 -167.45767 
L 514.049677 -168.750446 
L 515.975578 -170.043222 
L 517.767167 -171.335998 
L 519.482769 -172.628774 
L 521.175687 -173.92155 
L 522.879313 -175.214325 
L 524.599742 -176.507101 
L 526.317044 -177.799877 
L 527.993597 -179.092653 
L 529.58615 -180.385429 
L 531.057749 -181.678205 
L 532.386295 -182.970981 
L 533.568029 -184.263756 
L 534.616107 -185.556532 
L 535.555939 -186.849308 
L 536.419515 -188.142084 
L 537.240381 -189.43486 
L 538.049766 -190.727636 
L 538.873486 -192.020411 
L 539.729156 -193.313187 
L 540.623899 -194.605963 
L 541.553452 -195.898739 
L 542.503554 -197.191515 
L 543.45373 -198.484291 
L 544.382353 -199.777067 
L 545.27122 -201.069842 
L 546.108017 -202.362618 
L 546.886142 -203.655394 
L 547.602544 -204.94817 
L 548.254973 -206.240946 
L 548.840028 -207.533722 
L 549.352698 -208.826497 
L 549.787337 -210.119273 
L 550.13949 -211.412049 
L 550.407846 -212.704825 
L 550.595755 -213.997601 
L 550.711961 -215.290377 
L 550.770355 -216.583153 
L 550.788721 -217.875928 
L 550.786591 -219.168704 
L 550.782553 -220.46148 
L 550.79159 -221.754256 
L 550.823054 -223.047032 
L 550.879809 -224.339808 
L 550.958727 -225.632583 
L 551.052349 -226.925359 
L 551.151206 -228.218135 
L 551.246145 -229.510911 
L 551.330096 -230.803687 
L 551.398963 -232.096463 
L 551.451622 -233.389238 
L 551.48927 -234.682014 
L 551.61073 -234.682014 
L 551.61073 -234.682014 
L 551.648378 -233.389238 
L 551.701037 -232.096463 
L 551.769904 -230.803687 
L 551.853855 -229.510911 
L 551.948794 -228.218135 
L 552.047651 -226.925359 
L 552.141273 -225.632583 
L 552.220191 -224.339808 
L 552.276946 -223.047032 
L 552.30841 -221.754256 
L 552.317447 -220.46148 
L 552.313409 -219.168704 
L 552.311279 -217.875928 
L 552.329645 -216.583153 
L 552.388039 -215.290377 
L 552.504245 -213.997601 
L 552.692154 -212.704825 
L 552.96051 -211.412049 
L 553.312663 -210.119273 
L 553.747302 -208.826497 
L 554.259972 -207.533722 
L 554.845027 -206.240946 
L 555.497456 -204.94817 
L 556.213858 -203.655394 
L 556.991983 -202.362618 
L 557.82878 -201.069842 
L 558.717647 -199.777067 
L 559.64627 -198.484291 
L 560.596446 -197.191515 
L 561.546548 -195.898739 
L 562.476101 -194.605963 
L 563.370844 -193.313187 
L 564.226514 -192.020411 
L 565.050234 -190.727636 
L 565.859619 -189.43486 
L 566.680485 -188.142084 
L 567.544061 -186.849308 
L 568.483893 -185.556532 
L 569.531971 -184.263756 
L 570.713705 -182.970981 
L 572.042251 -181.678205 
L 573.51385 -180.385429 
L 575.106403 -179.092653 
L 576.782956 -177.799877 
L 578.500258 -176.507101 
L 580.220687 -175.214325 
L 581.924313 -173.92155 
L 583.617231 -172.628774 
L 585.332833 -171.335998 
L 587.124422 -170.043222 
L 589.050323 -168.750446 
L 591.155513 -167.45767 
L 593.455641 -166.164895 
L 595.92893 -164.872119 
L 598.518662 -163.579343 
L 601.144961 -162.286567 
L 603.721235 -160.993791 
L 606.169706 -159.701015 
L 608.432145 -158.40824 
L 610.47485 -157.115464 
L 612.289342 -155.822688 
L 613.890723 -154.529912 
L 615.314689 -153.237136 
L 616.612758 -151.94436 
L 617.844935 -150.651584 
L 619.069855 -149.358809 
L 620.333914 -148.066033 
L 621.661998 -146.773257 
L 623.052427 -145.480481 
L 624.477799 -144.187705 
L 625.891853 -142.894929 
L 627.240588 -141.602154 
L 628.474295 -140.309378 
L 629.556244 -139.016602 
L 630.464503 -137.723826 
L 631.185823 -136.43105 
L 631.704147 -135.138274 
L 631.989084 -133.845498 
L 631.99 -132.552723 
L 631.638516 -131.259947 
L 630.857686 -129.967171 
L 629.572558 -128.674395 
L 627.716531 -127.381619 
L 625.23136 -126.088843 
L 622.063865 -124.796068 
L 618.166259 -123.503292 
L 613.506631 -122.210516 
L 608.091109 -120.91774 
L 601.991626 -119.624964 
L 595.367217 -118.332188 
L 588.466158 -117.039412 
L 581.602141 -115.746637 
L 575.107893 -114.453861 
L 569.279137 -113.161085 
L 564.326056 -111.868309 
L 560.346361 -110.575533 
L 557.325628 -109.282757 
L 555.160866 -107.989982 
L 553.696733 -106.697206 
z
" style="stroke: #3d3d3d; stroke-width: 1.25"/>
    </defs>
    <g clip-path="url(#p561e9e6647)">
     <use xlink:href="#m364679c1ce" x="0" y="576" style="fill: #3a923a; stroke: #3d3d3d; stroke-width: 1.25"/>
    </g>
   </g>
   <g id="patch_15">
    <path d="M 149.35 506.866915 
L 149.35 506.866915 
L 149.35 506.866915 
L 149.35 506.866915 
z
" clip-path="url(#p561e9e6647)" style="fill: #3274a1; stroke: #3d3d3d; stroke-width: 1.25; stroke-linejoin: miter"/>
   </g>
   <g id="patch_16">
    <path d="M 149.35 506.866915 
L 149.35 506.866915 
L 149.35 506.866915 
L 149.35 506.866915 
z
" clip-path="url(#p561e9e6647)" style="fill: #e1812c; stroke: #3d3d3d; stroke-width: 1.25; stroke-linejoin: miter"/>
   </g>
   <g id="patch_17">
    <path d="M 149.35 506.866915 
L 149.35 506.866915 
L 149.35 506.866915 
L 149.35 506.866915 
z
" clip-path="url(#p561e9e6647)" style="fill: #3a923a; stroke: #3d3d3d; stroke-width: 1.25; stroke-linejoin: miter"/>
   </g>
   <g id="FillBetweenPolyCollection_8">
    <defs>
     <path id="m8f02a46ead" d="M 760.194125 -52.108722 
L 745.105875 -52.108722 
L 740.541244 -54.158968 
L 734.25771 -56.209215 
L 726.197588 -58.259462 
L 716.600295 -60.309709 
L 706.054215 -62.359956 
L 695.460229 -64.410202 
L 685.893882 -66.460449 
L 678.391506 -68.510696 
L 673.7208 -70.560943 
L 672.21 -72.611189 
L 673.692212 -74.661436 
L 677.579273 -76.711683 
L 683.032153 -78.76193 
L 689.164376 -80.812177 
L 695.213262 -82.862423 
L 700.637555 -84.91267 
L 705.134343 -86.962917 
L 708.596328 -89.013164 
L 711.042846 -91.063411 
L 712.554476 -93.113657 
L 713.228447 -95.163904 
L 713.158397 -97.214151 
L 712.432579 -99.264398 
L 711.14077 -101.314644 
L 709.380911 -103.364891 
L 707.259813 -105.415138 
L 704.88664 -107.465385 
L 702.361712 -109.515632 
L 699.765625 -111.565878 
L 697.153787 -113.616125 
L 694.559356 -115.666372 
L 692.004016 -117.716619 
L 689.512594 -119.766866 
L 687.125796 -121.817112 
L 684.905988 -123.867359 
L 682.933739 -125.917606 
L 681.296399 -127.967853 
L 680.072775 -130.018099 
L 679.31896 -132.068346 
L 679.059292 -134.118593 
L 679.28426 -136.16884 
L 679.954915 -138.219087 
L 681.011979 -140.269333 
L 682.387398 -142.31958 
L 684.016269 -144.369827 
L 685.847137 -146.420074 
L 687.848743 -148.470321 
L 690.011502 -150.520567 
L 692.342905 -152.570814 
L 694.857662 -154.621061 
L 697.56526 -156.671308 
L 700.458839 -158.721554 
L 703.509159 -160.771801 
L 706.665767 -162.822048 
L 709.86482 -164.872295 
L 713.04054 -166.922542 
L 716.136035 -168.972788 
L 719.109813 -171.023035 
L 721.936531 -173.073282 
L 724.603143 -175.123529 
L 727.10341 -177.173776 
L 729.433903 -179.224022 
L 731.593167 -181.274269 
L 733.583655 -183.324516 
L 735.414458 -185.374763 
L 737.102566 -187.425009 
L 738.671301 -189.475256 
L 740.146098 -191.525503 
L 741.549059 -193.57575 
L 742.894207 -195.625997 
L 744.18494 -197.676243 
L 745.414232 -199.72649 
L 746.56717 -201.776737 
L 747.624819 -203.826984 
L 748.568329 -205.877231 
L 749.382473 -207.927477 
L 750.058212 -209.977724 
L 750.594145 -212.027971 
L 750.996814 -214.078218 
L 751.27989 -216.128464 
L 751.46236 -218.178711 
L 751.566075 -220.228958 
L 751.613196 -222.279205 
L 751.624147 -224.329452 
L 751.616499 -226.379698 
L 751.604767 -228.429945 
L 751.600741 -230.480192 
L 751.613753 -232.530439 
L 751.650463 -234.580686 
L 751.714177 -236.630932 
L 751.804108 -238.681179 
L 751.915206 -240.731426 
L 752.038948 -242.781673 
L 752.165049 -244.831919 
L 752.283607 -246.882166 
L 752.38698 -248.932413 
L 752.470866 -250.98266 
L 752.534381 -253.032907 
L 752.579341 -255.083153 
L 752.720659 -255.083153 
L 752.720659 -255.083153 
L 752.765619 -253.032907 
L 752.829134 -250.98266 
L 752.91302 -248.932413 
L 753.016393 -246.882166 
L 753.134951 -244.831919 
L 753.261052 -242.781673 
L 753.384794 -240.731426 
L 753.495892 -238.681179 
L 753.585823 -236.630932 
L 753.649537 -234.580686 
L 753.686247 -232.530439 
L 753.699259 -230.480192 
L 753.695233 -228.429945 
L 753.683501 -226.379698 
L 753.675853 -224.329452 
L 753.686804 -222.279205 
L 753.733925 -220.228958 
L 753.83764 -218.178711 
L 754.02011 -216.128464 
L 754.303186 -214.078218 
L 754.705855 -212.027971 
L 755.241788 -209.977724 
L 755.917527 -207.927477 
L 756.731671 -205.877231 
L 757.675181 -203.826984 
L 758.73283 -201.776737 
L 759.885768 -199.72649 
L 761.11506 -197.676243 
L 762.405793 -195.625997 
L 763.750941 -193.57575 
L 765.153902 -191.525503 
L 766.628699 -189.475256 
L 768.197434 -187.425009 
L 769.885542 -185.374763 
L 771.716345 -183.324516 
L 773.706833 -181.274269 
L 775.866097 -179.224022 
L 778.19659 -177.173776 
L 780.696857 -175.123529 
L 783.363469 -173.073282 
L 786.190187 -171.023035 
L 789.163965 -168.972788 
L 792.25946 -166.922542 
L 795.43518 -164.872295 
L 798.634233 -162.822048 
L 801.790841 -160.771801 
L 804.841161 -158.721554 
L 807.73474 -156.671308 
L 810.442338 -154.621061 
L 812.957095 -152.570814 
L 815.288498 -150.520567 
L 817.451257 -148.470321 
L 819.452863 -146.420074 
L 821.283731 -144.369827 
L 822.912602 -142.31958 
L 824.288021 -140.269333 
L 825.345085 -138.219087 
L 826.01574 -136.16884 
L 826.240708 -134.118593 
L 825.98104 -132.068346 
L 825.227225 -130.018099 
L 824.003601 -127.967853 
L 822.366261 -125.917606 
L 820.394012 -123.867359 
L 818.174204 -121.817112 
L 815.787406 -119.766866 
L 813.295984 -117.716619 
L 810.740644 -115.666372 
L 808.146213 -113.616125 
L 805.534375 -111.565878 
L 802.938288 -109.515632 
L 800.41336 -107.465385 
L 798.040187 -105.415138 
L 795.919089 -103.364891 
L 794.15923 -101.314644 
L 792.867421 -99.264398 
L 792.141603 -97.214151 
L 792.071553 -95.163904 
L 792.745524 -93.113657 
L 794.257154 -91.063411 
L 796.703672 -89.013164 
L 800.165657 -86.962917 
L 804.662445 -84.91267 
L 810.086738 -82.862423 
L 816.135624 -80.812177 
L 822.267847 -78.76193 
L 827.720727 -76.711683 
L 831.607788 -74.661436 
L 833.09 -72.611189 
L 831.5792 -70.560943 
L 826.908494 -68.510696 
L 819.406118 -66.460449 
L 809.839771 -64.410202 
L 799.245785 -62.359956 
L 788.699705 -60.309709 
L 779.102412 -58.259462 
L 771.04229 -56.209215 
L 764.758756 -54.158968 
L 760.194125 -52.108722 
z
" style="stroke: #4d4d4d"/>
    </defs>
    <g clip-path="url(#p561e9e6647)">
     <use xlink:href="#m8f02a46ead" x="0" y="576" style="fill: #808080; stroke: #4d4d4d"/>
    </g>
   </g>
   <g id="matplotlib.axis_3">
    <g id="xtick_5">
     <g id="line2d_24">
      <g>
       <use xlink:href="#m5f45c8aaea" x="149.35" y="534.04" style="stroke: #000000; stroke-width: 0.8"/>
      </g>
     </g>
     <g id="text_18">
      <!-- 0 -->
      <g transform="translate(146.16875 548.638438) scale(0.1 -0.1)">
       <use xlink:href="#DejaVuSans-30"/>
      </g>
     </g>
    </g>
    <g id="xtick_6">
     <g id="line2d_25">
      <g>
       <use xlink:href="#m5f45c8aaea" x="350.45" y="534.04" style="stroke: #000000; stroke-width: 0.8"/>
      </g>
     </g>
     <g id="text_19">
      <!-- 1 -->
      <g transform="translate(347.26875 548.638438) scale(0.1 -0.1)">
       <use xlink:href="#DejaVuSans-31"/>
      </g>
     </g>
    </g>
    <g id="xtick_7">
     <g id="line2d_26">
      <g>
       <use xlink:href="#m5f45c8aaea" x="551.55" y="534.04" style="stroke: #000000; stroke-width: 0.8"/>
      </g>
     </g>
     <g id="text_20">
      <!-- 2 -->
      <g transform="translate(548.36875 548.638438) scale(0.1 -0.1)">
       <use xlink:href="#DejaVuSans-32"/>
      </g>
     </g>
    </g>
    <g id="xtick_8">
     <g id="line2d_27">
      <g>
       <use xlink:href="#m5f45c8aaea" x="752.65" y="534.04" style="stroke: #000000; stroke-width: 0.8"/>
      </g>
     </g>
    </g>
    <g id="text_21">
     <!-- Nhóm -->
     <g transform="translate(436.160937 562.316563) scale(0.1 -0.1)">
      <use xlink:href="#DejaVuSans-4e"/>
      <use xlink:href="#DejaVuSans-68" transform="translate(74.804688 0)"/>
      <use xlink:href="#DejaVuSans-f3" transform="translate(138.183594 0)"/>
      <use xlink:href="#DejaVuSans-6d" transform="translate(199.365234 0)"/>
     </g>
    </g>
   </g>
   <g id="matplotlib.axis_4">
    <g id="ytick_8">
     <g id="line2d_28">
      <g>
       <use xlink:href="#m964614946b" x="48.8" y="506.866915" style="stroke: #000000; stroke-width: 0.8"/>
      </g>
     </g>
     <g id="text_22">
      <!-- 0 -->
      <g transform="translate(35.4375 510.666134) scale(0.1 -0.1)">
       <use xlink:href="#DejaVuSans-30"/>
      </g>
     </g>
    </g>
    <g id="ytick_9">
     <g id="line2d_29">
      <g>
       <use xlink:href="#m964614946b" x="48.8" y="466.646509" style="stroke: #000000; stroke-width: 0.8"/>
      </g>
     </g>
     <g id="text_23">
      <!-- 20 -->
      <g transform="translate(29.075 470.445728) scale(0.1 -0.1)">
       <use xlink:href="#DejaVuSans-32"/>
       <use xlink:href="#DejaVuSans-30" transform="translate(63.623047 0)"/>
      </g>
     </g>
    </g>
    <g id="ytick_10">
     <g id="line2d_30">
      <g>
       <use xlink:href="#m964614946b" x="48.8" y="426.426103" style="stroke: #000000; stroke-width: 0.8"/>
      </g>
     </g>
     <g id="text_24">
      <!-- 40 -->
      <g transform="translate(29.075 430.225322) scale(0.1 -0.1)">
       <defs>
        <path id="DejaVuSans-34" d="M 2419 4116 
L 825 1625 
L 2419 1625 
L 2419 4116 
z
M 2253 4666 
L 3047 4666 
L 3047 1625 
L 3713 1625 
L 3713 1100 
L 3047 1100 
L 3047 0 
L 2419 0 
L 2419 1100 
L 313 1100 
L 313 1709 
L 2253 4666 
z
" transform="scale(0.015625)"/>
       </defs>
       <use xlink:href="#DejaVuSans-34"/>
       <use xlink:href="#DejaVuSans-30" transform="translate(63.623047 0)"/>
      </g>
     </g>
    </g>
    <g id="ytick_11">
     <g id="line2d_31">
      <g>
       <use xlink:href="#m964614946b" x="48.8" y="386.205697" style="stroke: #000000; stroke-width: 0.8"/>
      </g>
     </g>
     <g id="text_25">
      <!-- 60 -->
      <g transform="translate(29.075 390.004916) scale(0.1 -0.1)">
       <defs>
        <path id="DejaVuSans-36" d="M 2113 2584 
Q 1688 2584 1439 2293 
Q 1191 2003 1191 1497 
Q 1191 994 1439 701 
Q 1688 409 2113 409 
Q 2538 409 2786 701 
Q 3034 994 3034 1497 
Q 3034 2003 2786 2293 
Q 2538 2584 2113 2584 
z
M 3366 4563 
L 3366 3988 
Q 3128 4100 2886 4159 
Q 2644 4219 2406 4219 
Q 1781 4219 1451 3797 
Q 1122 3375 1075 2522 
Q 1259 2794 1537 2939 
Q 1816 3084 2150 3084 
Q 2853 3084 3261 2657 
Q 3669 2231 3669 1497 
Q 3669 778 3244 343 
Q 2819 -91 2113 -91 
Q 1303 -91 875 529 
Q 447 1150 447 2328 
Q 447 3434 972 4092 
Q 1497 4750 2381 4750 
Q 2619 4750 2861 4703 
Q 3103 4656 3366 4563 
z
" transform="scale(0.015625)"/>
       </defs>
       <use xlink:href="#DejaVuSans-36"/>
       <use xlink:href="#DejaVuSans-30" transform="translate(63.623047 0)"/>
      </g>
     </g>
    </g>
    <g id="ytick_12">
     <g id="line2d_32">
      <g>
       <use xlink:href="#m964614946b" x="48.8" y="345.985291" style="stroke: #000000; stroke-width: 0.8"/>
      </g>
     </g>
     <g id="text_26">
      <!-- 80 -->
      <g transform="translate(29.075 349.78451) scale(0.1 -0.1)">
       <defs>
        <path id="DejaVuSans-38" d="M 2034 2216 
Q 1584 2216 1326 1975 
Q 1069 1734 1069 1313 
Q 1069 891 1326 650 
Q 1584 409 2034 409 
Q 2484 409 2743 651 
Q 3003 894 3003 1313 
Q 3003 1734 2745 1975 
Q 2488 2216 2034 2216 
z
M 1403 2484 
Q 997 2584 770 2862 
Q 544 3141 544 3541 
Q 544 4100 942 4425 
Q 1341 4750 2034 4750 
Q 2731 4750 3128 4425 
Q 3525 4100 3525 3541 
Q 3525 3141 3298 2862 
Q 3072 2584 2669 2484 
Q 3125 2378 3379 2068 
Q 3634 1759 3634 1313 
Q 3634 634 3220 271 
Q 2806 -91 2034 -91 
Q 1263 -91 848 271 
Q 434 634 434 1313 
Q 434 1759 690 2068 
Q 947 2378 1403 2484 
z
M 1172 3481 
Q 1172 3119 1398 2916 
Q 1625 2713 2034 2713 
Q 2441 2713 2670 2916 
Q 2900 3119 2900 3481 
Q 2900 3844 2670 4047 
Q 2441 4250 2034 4250 
Q 1625 4250 1398 4047 
Q 1172 3844 1172 3481 
z
" transform="scale(0.015625)"/>
       </defs>
       <use xlink:href="#DejaVuSans-38"/>
       <use xlink:href="#DejaVuSans-30" transform="translate(63.623047 0)"/>
      </g>
     </g>
    </g>
    <g id="text_27">
     <!-- Độ phổ biến -->
     <g transform="translate(22.995313 452.726719) rotate(-90) scale(0.1 -0.1)">
      <defs>
       <path id="DejaVuSans-110" d="M 659 4666 
L 1959 4666 
Q 3313 4666 3947 4102 
Q 4581 3538 4581 2338 
Q 4581 1131 3945 565 
Q 3309 0 1959 0 
L 659 0 
L 659 2188 
L 31 2188 
L 31 2638 
L 659 2638 
L 659 4666 
z
M 1294 4147 
L 1294 2638 
L 2344 2638 
L 2344 2188 
L 1294 2188 
L 1294 519 
L 2053 519 
Q 3019 519 3467 956 
Q 3916 1394 3916 2338 
Q 3916 3275 3467 3711 
Q 3019 4147 2053 4147 
L 1294 4147 
z
" transform="scale(0.015625)"/>
       <path id="DejaVuSans-1ed9" d="M 1666 -441 
L 2241 -441 
L 2241 -1172 
L 1666 -1172 
L 1666 -441 
z
M 1959 3097 
Q 1497 3097 1228 2736 
Q 959 2375 959 1747 
Q 959 1119 1226 758 
Q 1494 397 1959 397 
Q 2419 397 2687 759 
Q 2956 1122 2956 1747 
Q 2956 2369 2687 2733 
Q 2419 3097 1959 3097 
z
M 1959 3584 
Q 2709 3584 3137 3096 
Q 3566 2609 3566 1747 
Q 3566 888 3137 398 
Q 2709 -91 1959 -91 
Q 1206 -91 779 398 
Q 353 888 353 1747 
Q 353 2609 779 3096 
Q 1206 3584 1959 3584 
z
M 1666 -441 
L 2241 -441 
L 2241 -1172 
L 1666 -1172 
L 1666 -441 
z
M 1729 5119 
L 2191 5119 
L 2957 3944 
L 2523 3944 
L 1960 4709 
L 1398 3944 
L 963 3944 
L 1729 5119 
z
" transform="scale(0.015625)"/>
       <path id="DejaVuSans-70" d="M 1159 525 
L 1159 -1331 
L 581 -1331 
L 581 3500 
L 1159 3500 
L 1159 2969 
Q 1341 3281 1617 3432 
Q 1894 3584 2278 3584 
Q 2916 3584 3314 3078 
Q 3713 2572 3713 1747 
Q 3713 922 3314 415 
Q 2916 -91 2278 -91 
Q 1894 -91 1617 61 
Q 1341 213 1159 525 
z
M 3116 1747 
Q 3116 2381 2855 2742 
Q 2594 3103 2138 3103 
Q 1681 3103 1420 2742 
Q 1159 2381 1159 1747 
Q 1159 1113 1420 752 
Q 1681 391 2138 391 
Q 2594 391 2855 752 
Q 3116 1113 3116 1747 
z
" transform="scale(0.015625)"/>
       <path id="DejaVuSans-1ed5" d="M 2388 5345 
Q 2738 5504 3066 5504 
Q 3391 5504 3589 5371 
Q 3788 5239 3788 5029 
Q 3788 4839 3513 4636 
L 3375 4536 
Q 3266 4454 3254 4426 
Q 3232 4376 3232 4276 
L 2860 4276 
L 2860 4314 
Q 2860 4439 2907 4523 
Q 2954 4608 3113 4723 
L 3254 4829 
Q 3397 4936 3397 5061 
Q 3397 5126 3300 5182 
Q 3204 5239 2982 5239 
Q 2700 5239 2388 5076 
L 2388 5345 
z
M 1658 4775 
L 2246 4775 
L 2905 3944 
L 2471 3944 
L 1952 4500 
L 1433 3944 
L 999 3944 
L 1658 4775 
z
M 1959 3097 
Q 1497 3097 1228 2736 
Q 959 2375 959 1747 
Q 959 1119 1226 758 
Q 1494 397 1959 397 
Q 2419 397 2687 759 
Q 2956 1122 2956 1747 
Q 2956 2369 2687 2733 
Q 2419 3097 1959 3097 
z
M 1959 3584 
Q 2709 3584 3137 3096 
Q 3566 2609 3566 1747 
Q 3566 888 3137 398 
Q 2709 -91 1959 -91 
Q 1206 -91 779 398 
Q 353 888 353 1747 
Q 353 2609 779 3096 
Q 1206 3584 1959 3584 
z
" transform="scale(0.015625)"/>
       <path id="DejaVuSans-62" d="M 3116 1747 
Q 3116 2381 2855 2742 
Q 2594 3103 2138 3103 
Q 1681 3103 1420 2742 
Q 1159 2381 1159 1747 
Q 1159 1113 1420 752 
Q 1681 391 2138 391 
Q 2594 391 2855 752 
Q 3116 1113 3116 1747 
z
M 1159 2969 
Q 1341 3281 1617 3432 
Q 1894 3584 2278 3584 
Q 2916 3584 3314 3078 
Q 3713 2572 3713 1747 
Q 3713 922 3314 415 
Q 2916 -91 2278 -91 
Q 1894 -91 1617 61 
Q 1341 213 1159 525 
L 1159 0 
L 581 0 
L 581 4863 
L 1159 4863 
L 1159 2969 
z
" transform="scale(0.015625)"/>
       <path id="DejaVuSans-1ebf" d="M 1738 4775 
L 2326 4775 
L 2985 3944 
L 2551 3944 
L 2032 4500 
L 1513 3944 
L 1079 3944 
L 1738 4775 
z
M 3348 5409 
L 3926 5409 
L 3214 4584 
L 2735 4584 
L 3348 5409 
z
M 3597 1894 
L 3597 1613 
L 953 1613 
Q 991 1019 1311 708 
Q 1631 397 2203 397 
Q 2534 397 2845 478 
Q 3156 559 3463 722 
L 3463 178 
Q 3153 47 2828 -22 
Q 2503 -91 2169 -91 
Q 1331 -91 842 396 
Q 353 884 353 1716 
Q 353 2575 817 3079 
Q 1281 3584 2069 3584 
Q 2775 3584 3186 3129 
Q 3597 2675 3597 1894 
z
M 3022 2063 
Q 3016 2534 2758 2815 
Q 2500 3097 2075 3097 
Q 1594 3097 1305 2825 
Q 1016 2553 972 2059 
L 3022 2063 
z
" transform="scale(0.015625)"/>
      </defs>
      <use xlink:href="#DejaVuSans-110"/>
      <use xlink:href="#DejaVuSans-1ed9" transform="translate(77.490234 0)"/>
      <use xlink:href="#DejaVuSans-20" transform="translate(138.671875 0)"/>
      <use xlink:href="#DejaVuSans-70" transform="translate(170.458984 0)"/>
      <use xlink:href="#DejaVuSans-68" transform="translate(233.935547 0)"/>
      <use xlink:href="#DejaVuSans-1ed5" transform="translate(297.314453 0)"/>
      <use xlink:href="#DejaVuSans-20" transform="translate(358.496094 0)"/>
      <use xlink:href="#DejaVuSans-62" transform="translate(390.283203 0)"/>
      <use xlink:href="#DejaVuSans-69" transform="translate(453.759766 0)"/>
      <use xlink:href="#DejaVuSans-1ebf" transform="translate(481.542969 0)"/>
      <use xlink:href="#DejaVuSans-6e" transform="translate(543.066406 0)"/>
     </g>
    </g>
   </g>
   <g id="line2d_33">
    <path d="M 149.35 506.866915 
L 149.35 460.613448 
" clip-path="url(#p561e9e6647)" style="fill: none; stroke: #3d3d3d; stroke-width: 1.875; stroke-linecap: square"/>
   </g>
   <g id="line2d_34">
    <path d="M 149.35 506.866915 
L 149.35 476.701611 
" clip-path="url(#p561e9e6647)" style="fill: none; stroke: #3d3d3d; stroke-width: 5.625; stroke-linecap: square"/>
   </g>
   <g id="line2d_35">
    <path d="M 149.35 496.811814 
" clip-path="url(#p561e9e6647)" style="fill: none; stroke: #3d3d3d; stroke-width: 1.5; stroke-linecap: square"/>
    <g clip-path="url(#p561e9e6647)">
     <use xlink:href="#m5196f0399e" x="149.35" y="496.811814" style="fill: #ffffff; stroke: #ffffff; stroke-width: 1.125"/>
    </g>
   </g>
   <g id="line2d_36">
    <path d="M 350.45 341.963251 
L 350.45 337.94121 
" clip-path="url(#p561e9e6647)" style="fill: none; stroke: #3d3d3d; stroke-width: 1.875; stroke-linecap: square"/>
   </g>
   <g id="line2d_37">
    <path d="M 350.45 341.963251 
L 350.45 339.449475 
" clip-path="url(#p561e9e6647)" style="fill: none; stroke: #3d3d3d; stroke-width: 5.625; stroke-linecap: square"/>
   </g>
   <g id="line2d_38">
    <path d="M 350.45 339.95223 
" clip-path="url(#p561e9e6647)" style="fill: none; stroke: #3d3d3d; stroke-width: 1.5; stroke-linecap: square"/>
    <g clip-path="url(#p561e9e6647)">
     <use xlink:href="#m5196f0399e" x="350.45" y="339.95223" style="fill: #ffffff; stroke: #ffffff; stroke-width: 1.125"/>
    </g>
   </g>
   <g id="line2d_39">
    <path d="M 551.55 458.602428 
L 551.55 374.139575 
" clip-path="url(#p561e9e6647)" style="fill: none; stroke: #3d3d3d; stroke-width: 1.875; stroke-linecap: square"/>
   </g>
   <g id="line2d_40">
    <path d="M 551.55 444.525286 
L 551.55 416.371002 
" clip-path="url(#p561e9e6647)" style="fill: none; stroke: #3d3d3d; stroke-width: 5.625; stroke-linecap: square"/>
   </g>
   <g id="line2d_41">
    <path d="M 551.55 432.459164 
" clip-path="url(#p561e9e6647)" style="fill: none; stroke: #3d3d3d; stroke-width: 1.5; stroke-linecap: square"/>
    <g clip-path="url(#p561e9e6647)">
     <use xlink:href="#m5196f0399e" x="551.55" y="432.459164" style="fill: #ffffff; stroke: #ffffff; stroke-width: 1.125"/>
    </g>
   </g>
   <g id="line2d_42">
    <path d="M 752.65 506.866915 
L 752.65 337.94121 
" clip-path="url(#p561e9e6647)" style="fill: none; stroke: #4d4d4d; stroke-width: 1.5; stroke-linecap: square"/>
   </g>
   <g id="line2d_43">
    <path d="M 752.65 492.789773 
L 752.65 428.437123 
" clip-path="url(#p561e9e6647)" style="fill: none; stroke: #4d4d4d; stroke-width: 4.5; stroke-linecap: square"/>
   </g>
   <g id="line2d_44">
    <path d="M 752.65 452.569367 
" clip-path="url(#p561e9e6647)" style="fill: none; stroke: #4d4d4d; stroke-width: 1.5; stroke-linecap: square"/>
    <g clip-path="url(#p561e9e6647)">
     <use xlink:href="#m0c38e18746" x="752.65" y="452.569367" style="fill: #ffffff; stroke: #ffffff; stroke-width: 0.9"/>
    </g>
   </g>
   <g id="patch_18">
    <path d="M 48.8 534.04 
L 48.8 310.768125 
" style="fill: none; stroke: #000000; stroke-width: 0.8; stroke-linejoin: miter; stroke-linecap: square"/>
   </g>
   <g id="patch_19">
    <path d="M 853.2 534.04 
L 853.2 310.768125 
" style="fill: none; stroke: #000000; stroke-width: 0.8; stroke-linejoin: miter; stroke-linecap: square"/>
   </g>
   <g id="patch_20">
    <path d="M 48.8 534.04 
L 853.2 534.04 
" style="fill: none; stroke: #000000; stroke-width: 0.8; stroke-linejoin: miter; stroke-linecap: square"/>
   </g>
   <g id="patch_21">
    <path d="M 48.8 310.768125 
L 853.2 310.768125 
" style="fill: none; stroke: #000000; stroke-width: 0.8; stroke-linejoin: miter; stroke-linecap: square"/>
   </g>
   <g id="text_28">
    <!-- Độ phổ biến theo từng nhóm -->
    <g transform="translate(364.4875 304.768125) scale(0.12 -0.12)">
     <use xlink:href="#DejaVuSans-110"/>
     <use xlink:href="#DejaVuSans-1ed9" transform="translate(77.490234 0)"/>
     <use xlink:href="#DejaVuSans-20" transform="translate(138.671875 0)"/>
     <use xlink:href="#DejaVuSans-70" transform="translate(170.458984 0)"/>
     <use xlink:href="#DejaVuSans-68" transform="translate(233.935547 0)"/>
     <use xlink:href="#DejaVuSans-1ed5" transform="translate(297.314453 0)"/>
     <use xlink:href="#DejaVuSans-20" transform="translate(358.496094 0)"/>
     <use xlink:href="#DejaVuSans-62" transform="translate(390.283203 0)"/>
     <use xlink:href="#DejaVuSans-69" transform="translate(453.759766 0)"/>
     <use xlink:href="#DejaVuSans-1ebf" transform="translate(481.542969 0)"/>
     <use xlink:href="#DejaVuSans-6e" transform="translate(543.066406 0)"/>
     <use xlink:href="#DejaVuSans-20" transform="translate(606.445312 0)"/>
     <use xlink:href="#DejaVuSans-74" transform="translate(638.232422 0)"/>
     <use xlink:href="#DejaVuSans-68" transform="translate(677.441406 0)"/>
     <use xlink:href="#DejaVuSans-65" transform="translate(740.820312 0)"/>
     <use xlink:href="#DejaVuSans-6f" transform="translate(802.34375 0)"/>
     <use xlink:href="#DejaVuSans-20" transform="translate(863.525391 0)"/>
     <use xlink:href="#DejaVuSans-74" transform="translate(895.3125 0)"/>
     <use xlink:href="#DejaVuSans-1eeb" transform="translate(934.521484 0)"/>
     <use xlink:href="#DejaVuSans-6e" transform="translate(997.900391 0)"/>
     <use xlink:href="#DejaVuSans-67" transform="translate(1061.279297 0)"/>
     <use xlink:href="#DejaVuSans-20" transform="translate(1124.755859 0)"/>
     <use xlink:href="#DejaVuSans-6e" transform="translate(1156.542969 0)"/>
     <use xlink:href="#DejaVuSans-68" transform="translate(1219.921875 0)"/>
     <use xlink:href="#DejaVuSans-f3" transform="translate(1283.300781 0)"/>
     <use xlink:href="#DejaVuSans-6d" transform="translate(1344.482422 0)"/>
    </g>
   </g>
   <g id="legend_2">
    <g id="patch_22">
     <path d="M 807.8375 362.8025 
L 846.2 362.8025 
Q 848.2 362.8025 848.2 360.8025 
L 848.2 317.768125 
Q 848.2 315.768125 846.2 315.768125 
L 807.8375 315.768125 
Q 805.8375 315.768125 805.8375 317.768125 
L 805.8375 360.8025 
Q 805.8375 362.8025 807.8375 362.8025 
z
" style="fill: #ffffff; opacity: 0.8; stroke: #cccccc; stroke-linejoin: miter"/>
    </g>
    <g id="patch_23">
     <path d="M 809.8375 327.366562 
L 829.8375 327.366562 
L 829.8375 320.366562 
L 809.8375 320.366562 
z
" style="fill: #3274a1; stroke: #3d3d3d; stroke-width: 1.25; stroke-linejoin: miter"/>
    </g>
    <g id="text_29">
     <!-- 0 -->
     <g transform="translate(837.8375 327.366562) scale(0.1 -0.1)">
      <use xlink:href="#DejaVuSans-30"/>
     </g>
    </g>
    <g id="patch_24">
     <path d="M 809.8375 342.044688 
L 829.8375 342.044688 
L 829.8375 335.044688 
L 809.8375 335.044688 
z
" style="fill: #e1812c; stroke: #3d3d3d; stroke-width: 1.25; stroke-linejoin: miter"/>
    </g>
    <g id="text_30">
     <!-- 1 -->
     <g transform="translate(837.8375 342.044688) scale(0.1 -0.1)">
      <use xlink:href="#DejaVuSans-31"/>
     </g>
    </g>
    <g id="patch_25">
     <path d="M 809.8375 356.722813 
L 829.8375 356.722813 
L 829.8375 349.722813 
L 809.8375 349.722813 
z
" style="fill: #3a923a; stroke: #3d3d3d; stroke-width: 1.25; stroke-linejoin: miter"/>
    </g>
    <g id="text_31">
     <!-- 2 -->
     <g transform="translate(837.8375 356.722813) scale(0.1 -0.1)">
      <use xlink:href="#DejaVuSans-32"/>
     </g>
    </g>
   </g>
  </g>
 </g>
 <defs>
  <clipPath id="pa89f69deb0">
   <rect x="48.8" y="27.96" width="804.4" height="223.271875"/>
  </clipPath>
  <clipPath id="p561e9e6647">
   <rect x="48.8" y="310.768125" width="804.4" height="223.271875"/>
  </clipPath>
 </defs>
</svg>
