<?xml version="1.0" encoding="utf-8" standalone="no"?>
<!DOCTYPE svg PUBLIC "-//W3C//DTD SVG 1.1//EN"
  "http://www.w3.org/Graphics/SVG/1.1/DTD/svg11.dtd">
<svg xmlns:xlink="http://www.w3.org/1999/xlink" width="1296pt" height="432pt" viewBox="0 0 1296 432" xmlns="http://www.w3.org/2000/svg" version="1.1">
 <metadata>
  <rdf:RDF xmlns:dc="http://purl.org/dc/elements/1.1/" xmlns:cc="http://creativecommons.org/ns#" xmlns:rdf="http://www.w3.org/1999/02/22-rdf-syntax-ns#">
   <cc:Work>
    <dc:type rdf:resource="http://purl.org/dc/dcmitype/StillImage"/>
    <dc:date>2025-03-09T16:56:58.042960</dc:date>
    <dc:format>image/svg+xml</dc:format>
    <dc:creator>
     <cc:Agent>
      <dc:title>Matplotlib v3.8.4, https://matplotlib.org/</dc:title>
     </cc:Agent>
    </dc:creator>
   </cc:Work>
  </rdf:RDF>
 </metadata>
 <defs>
  <style type="text/css">*{stroke-linejoin: round; stroke-linecap: butt}</style>
 </defs>
 <g id="figure_1">
  <g id="patch_1">
   <path d="M 0 432 
L 1296 432 
L 1296 0 
L 0 0 
z
" style="fill: #ffffff"/>
  </g>
  <g id="axes_1">
   <g id="patch_2">
    <path d="M 162 384.48 
L 1166.4 384.48 
L 1166.4 51.84 
L 162 51.84 
z
" style="fill: #ffffff"/>
   </g>
   <g id="matplotlib.axis_1">
    <g id="xtick_1">
     <g id="line2d_1">
      <path d="M 207.654545 384.48 
L 207.654545 51.84 
" clip-path="url(#p082d88c616)" style="fill: none; stroke: #cccccc; stroke-width: 0.8; stroke-linecap: round"/>
     </g>
     <g id="text_1">
      <!-- 2000 -->
      <g style="fill: #262626" transform="translate(196.53267 398.637812) scale(0.1 -0.1)">
       <defs>
        <path id="ArialMT-32" d="M 3222 541 
L 3222 0 
L 194 0 
Q 188 203 259 391 
Q 375 700 629 1000 
Q 884 1300 1366 1694 
Q 2113 2306 2375 2664 
Q 2638 3022 2638 3341 
Q 2638 3675 2398 3904 
Q 2159 4134 1775 4134 
Q 1369 4134 1125 3890 
Q 881 3647 878 3216 
L 300 3275 
Q 359 3922 746 4261 
Q 1134 4600 1788 4600 
Q 2447 4600 2831 4234 
Q 3216 3869 3216 3328 
Q 3216 3053 3103 2787 
Q 2991 2522 2730 2228 
Q 2469 1934 1863 1422 
Q 1356 997 1212 845 
Q 1069 694 975 541 
L 3222 541 
z
" transform="scale(0.015625)"/>
        <path id="ArialMT-30" d="M 266 2259 
Q 266 3072 433 3567 
Q 600 4063 929 4331 
Q 1259 4600 1759 4600 
Q 2128 4600 2406 4451 
Q 2684 4303 2865 4023 
Q 3047 3744 3150 3342 
Q 3253 2941 3253 2259 
Q 3253 1453 3087 958 
Q 2922 463 2592 192 
Q 2263 -78 1759 -78 
Q 1097 -78 719 397 
Q 266 969 266 2259 
z
M 844 2259 
Q 844 1131 1108 757 
Q 1372 384 1759 384 
Q 2147 384 2411 759 
Q 2675 1134 2675 2259 
Q 2675 3391 2411 3762 
Q 2147 4134 1753 4134 
Q 1366 4134 1134 3806 
Q 844 3388 844 2259 
z
" transform="scale(0.015625)"/>
       </defs>
       <use xlink:href="#ArialMT-32"/>
       <use xlink:href="#ArialMT-30" x="55.615234"/>
       <use xlink:href="#ArialMT-30" x="111.230469"/>
       <use xlink:href="#ArialMT-30" x="166.845703"/>
      </g>
     </g>
    </g>
    <g id="xtick_2">
     <g id="line2d_2">
      <path d="M 245.7 384.48 
L 245.7 51.84 
" clip-path="url(#p082d88c616)" style="fill: none; stroke: #cccccc; stroke-width: 0.8; stroke-linecap: round"/>
     </g>
     <g id="text_2">
      <!-- 2001 -->
      <g style="fill: #262626" transform="translate(234.578125 398.637812) scale(0.1 -0.1)">
       <defs>
        <path id="ArialMT-31" d="M 2384 0 
L 1822 0 
L 1822 3584 
Q 1619 3391 1289 3197 
Q 959 3003 697 2906 
L 697 3450 
Q 1169 3672 1522 3987 
Q 1875 4303 2022 4600 
L 2384 4600 
L 2384 0 
z
" transform="scale(0.015625)"/>
       </defs>
       <use xlink:href="#ArialMT-32"/>
       <use xlink:href="#ArialMT-30" x="55.615234"/>
       <use xlink:href="#ArialMT-30" x="111.230469"/>
       <use xlink:href="#ArialMT-31" x="166.845703"/>
      </g>
     </g>
    </g>
    <g id="xtick_3">
     <g id="line2d_3">
      <path d="M 283.745455 384.48 
L 283.745455 51.84 
" clip-path="url(#p082d88c616)" style="fill: none; stroke: #cccccc; stroke-width: 0.8; stroke-linecap: round"/>
     </g>
     <g id="text_3">
      <!-- 2002 -->
      <g style="fill: #262626" transform="translate(272.62358 398.637812) scale(0.1 -0.1)">
       <use xlink:href="#ArialMT-32"/>
       <use xlink:href="#ArialMT-30" x="55.615234"/>
       <use xlink:href="#ArialMT-30" x="111.230469"/>
       <use xlink:href="#ArialMT-32" x="166.845703"/>
      </g>
     </g>
    </g>
    <g id="xtick_4">
     <g id="line2d_4">
      <path d="M 321.790909 384.48 
L 321.790909 51.84 
" clip-path="url(#p082d88c616)" style="fill: none; stroke: #cccccc; stroke-width: 0.8; stroke-linecap: round"/>
     </g>
     <g id="text_4">
      <!-- 2003 -->
      <g style="fill: #262626" transform="translate(310.669034 398.637812) scale(0.1 -0.1)">
       <defs>
        <path id="ArialMT-33" d="M 269 1209 
L 831 1284 
Q 928 806 1161 595 
Q 1394 384 1728 384 
Q 2125 384 2398 659 
Q 2672 934 2672 1341 
Q 2672 1728 2419 1979 
Q 2166 2231 1775 2231 
Q 1616 2231 1378 2169 
L 1441 2663 
Q 1497 2656 1531 2656 
Q 1891 2656 2178 2843 
Q 2466 3031 2466 3422 
Q 2466 3731 2256 3934 
Q 2047 4138 1716 4138 
Q 1388 4138 1169 3931 
Q 950 3725 888 3313 
L 325 3413 
Q 428 3978 793 4289 
Q 1159 4600 1703 4600 
Q 2078 4600 2393 4439 
Q 2709 4278 2876 4000 
Q 3044 3722 3044 3409 
Q 3044 3113 2884 2869 
Q 2725 2625 2413 2481 
Q 2819 2388 3044 2092 
Q 3269 1797 3269 1353 
Q 3269 753 2831 336 
Q 2394 -81 1725 -81 
Q 1122 -81 723 278 
Q 325 638 269 1209 
z
" transform="scale(0.015625)"/>
       </defs>
       <use xlink:href="#ArialMT-32"/>
       <use xlink:href="#ArialMT-30" x="55.615234"/>
       <use xlink:href="#ArialMT-30" x="111.230469"/>
       <use xlink:href="#ArialMT-33" x="166.845703"/>
      </g>
     </g>
    </g>
    <g id="xtick_5">
     <g id="line2d_5">
      <path d="M 359.836364 384.48 
L 359.836364 51.84 
" clip-path="url(#p082d88c616)" style="fill: none; stroke: #cccccc; stroke-width: 0.8; stroke-linecap: round"/>
     </g>
     <g id="text_5">
      <!-- 2004 -->
      <g style="fill: #262626" transform="translate(348.714489 398.637812) scale(0.1 -0.1)">
       <defs>
        <path id="ArialMT-34" d="M 2069 0 
L 2069 1097 
L 81 1097 
L 81 1613 
L 2172 4581 
L 2631 4581 
L 2631 1613 
L 3250 1613 
L 3250 1097 
L 2631 1097 
L 2631 0 
L 2069 0 
z
M 2069 1613 
L 2069 3678 
L 634 1613 
L 2069 1613 
z
" transform="scale(0.015625)"/>
       </defs>
       <use xlink:href="#ArialMT-32"/>
       <use xlink:href="#ArialMT-30" x="55.615234"/>
       <use xlink:href="#ArialMT-30" x="111.230469"/>
       <use xlink:href="#ArialMT-34" x="166.845703"/>
      </g>
     </g>
    </g>
    <g id="xtick_6">
     <g id="line2d_6">
      <path d="M 397.881818 384.48 
L 397.881818 51.84 
" clip-path="url(#p082d88c616)" style="fill: none; stroke: #cccccc; stroke-width: 0.8; stroke-linecap: round"/>
     </g>
     <g id="text_6">
      <!-- 2005 -->
      <g style="fill: #262626" transform="translate(386.759943 398.637812) scale(0.1 -0.1)">
       <defs>
        <path id="ArialMT-35" d="M 266 1200 
L 856 1250 
Q 922 819 1161 601 
Q 1400 384 1738 384 
Q 2144 384 2425 690 
Q 2706 997 2706 1503 
Q 2706 1984 2436 2262 
Q 2166 2541 1728 2541 
Q 1456 2541 1237 2417 
Q 1019 2294 894 2097 
L 366 2166 
L 809 4519 
L 3088 4519 
L 3088 3981 
L 1259 3981 
L 1013 2750 
Q 1425 3038 1878 3038 
Q 2478 3038 2890 2622 
Q 3303 2206 3303 1553 
Q 3303 931 2941 478 
Q 2500 -78 1738 -78 
Q 1113 -78 717 272 
Q 322 622 266 1200 
z
" transform="scale(0.015625)"/>
       </defs>
       <use xlink:href="#ArialMT-32"/>
       <use xlink:href="#ArialMT-30" x="55.615234"/>
       <use xlink:href="#ArialMT-30" x="111.230469"/>
       <use xlink:href="#ArialMT-35" x="166.845703"/>
      </g>
     </g>
    </g>
    <g id="xtick_7">
     <g id="line2d_7">
      <path d="M 435.927273 384.48 
L 435.927273 51.84 
" clip-path="url(#p082d88c616)" style="fill: none; stroke: #cccccc; stroke-width: 0.8; stroke-linecap: round"/>
     </g>
     <g id="text_7">
      <!-- 2006 -->
      <g style="fill: #262626" transform="translate(424.805398 398.637812) scale(0.1 -0.1)">
       <defs>
        <path id="ArialMT-36" d="M 3184 3459 
L 2625 3416 
Q 2550 3747 2413 3897 
Q 2184 4138 1850 4138 
Q 1581 4138 1378 3988 
Q 1113 3794 959 3422 
Q 806 3050 800 2363 
Q 1003 2672 1297 2822 
Q 1591 2972 1913 2972 
Q 2475 2972 2870 2558 
Q 3266 2144 3266 1488 
Q 3266 1056 3080 686 
Q 2894 316 2569 119 
Q 2244 -78 1831 -78 
Q 1128 -78 684 439 
Q 241 956 241 2144 
Q 241 3472 731 4075 
Q 1159 4600 1884 4600 
Q 2425 4600 2770 4297 
Q 3116 3994 3184 3459 
z
M 888 1484 
Q 888 1194 1011 928 
Q 1134 663 1356 523 
Q 1578 384 1822 384 
Q 2178 384 2434 671 
Q 2691 959 2691 1453 
Q 2691 1928 2437 2201 
Q 2184 2475 1800 2475 
Q 1419 2475 1153 2201 
Q 888 1928 888 1484 
z
" transform="scale(0.015625)"/>
       </defs>
       <use xlink:href="#ArialMT-32"/>
       <use xlink:href="#ArialMT-30" x="55.615234"/>
       <use xlink:href="#ArialMT-30" x="111.230469"/>
       <use xlink:href="#ArialMT-36" x="166.845703"/>
      </g>
     </g>
    </g>
    <g id="xtick_8">
     <g id="line2d_8">
      <path d="M 473.972727 384.48 
L 473.972727 51.84 
" clip-path="url(#p082d88c616)" style="fill: none; stroke: #cccccc; stroke-width: 0.8; stroke-linecap: round"/>
     </g>
     <g id="text_8">
      <!-- 2007 -->
      <g style="fill: #262626" transform="translate(462.850852 398.637812) scale(0.1 -0.1)">
       <defs>
        <path id="ArialMT-37" d="M 303 3981 
L 303 4522 
L 3269 4522 
L 3269 4084 
Q 2831 3619 2401 2847 
Q 1972 2075 1738 1259 
Q 1569 684 1522 0 
L 944 0 
Q 953 541 1156 1306 
Q 1359 2072 1739 2783 
Q 2119 3494 2547 3981 
L 303 3981 
z
" transform="scale(0.015625)"/>
       </defs>
       <use xlink:href="#ArialMT-32"/>
       <use xlink:href="#ArialMT-30" x="55.615234"/>
       <use xlink:href="#ArialMT-30" x="111.230469"/>
       <use xlink:href="#ArialMT-37" x="166.845703"/>
      </g>
     </g>
    </g>
    <g id="xtick_9">
     <g id="line2d_9">
      <path d="M 512.018182 384.48 
L 512.018182 51.84 
" clip-path="url(#p082d88c616)" style="fill: none; stroke: #cccccc; stroke-width: 0.8; stroke-linecap: round"/>
     </g>
     <g id="text_9">
      <!-- 2008 -->
      <g style="fill: #262626" transform="translate(500.896307 398.637812) scale(0.1 -0.1)">
       <defs>
        <path id="ArialMT-38" d="M 1131 2484 
Q 781 2613 612 2850 
Q 444 3088 444 3419 
Q 444 3919 803 4259 
Q 1163 4600 1759 4600 
Q 2359 4600 2725 4251 
Q 3091 3903 3091 3403 
Q 3091 3084 2923 2848 
Q 2756 2613 2416 2484 
Q 2838 2347 3058 2040 
Q 3278 1734 3278 1309 
Q 3278 722 2862 322 
Q 2447 -78 1769 -78 
Q 1091 -78 675 323 
Q 259 725 259 1325 
Q 259 1772 486 2073 
Q 713 2375 1131 2484 
z
M 1019 3438 
Q 1019 3113 1228 2906 
Q 1438 2700 1772 2700 
Q 2097 2700 2305 2904 
Q 2513 3109 2513 3406 
Q 2513 3716 2298 3927 
Q 2084 4138 1766 4138 
Q 1444 4138 1231 3931 
Q 1019 3725 1019 3438 
z
M 838 1322 
Q 838 1081 952 856 
Q 1066 631 1291 507 
Q 1516 384 1775 384 
Q 2178 384 2440 643 
Q 2703 903 2703 1303 
Q 2703 1709 2433 1975 
Q 2163 2241 1756 2241 
Q 1359 2241 1098 1978 
Q 838 1716 838 1322 
z
" transform="scale(0.015625)"/>
       </defs>
       <use xlink:href="#ArialMT-32"/>
       <use xlink:href="#ArialMT-30" x="55.615234"/>
       <use xlink:href="#ArialMT-30" x="111.230469"/>
       <use xlink:href="#ArialMT-38" x="166.845703"/>
      </g>
     </g>
    </g>
    <g id="xtick_10">
     <g id="line2d_10">
      <path d="M 550.063636 384.48 
L 550.063636 51.84 
" clip-path="url(#p082d88c616)" style="fill: none; stroke: #cccccc; stroke-width: 0.8; stroke-linecap: round"/>
     </g>
     <g id="text_10">
      <!-- 2009 -->
      <g style="fill: #262626" transform="translate(538.941761 398.637812) scale(0.1 -0.1)">
       <defs>
        <path id="ArialMT-39" d="M 350 1059 
L 891 1109 
Q 959 728 1153 556 
Q 1347 384 1650 384 
Q 1909 384 2104 503 
Q 2300 622 2425 820 
Q 2550 1019 2634 1356 
Q 2719 1694 2719 2044 
Q 2719 2081 2716 2156 
Q 2547 1888 2255 1720 
Q 1963 1553 1622 1553 
Q 1053 1553 659 1965 
Q 266 2378 266 3053 
Q 266 3750 677 4175 
Q 1088 4600 1706 4600 
Q 2153 4600 2523 4359 
Q 2894 4119 3086 3673 
Q 3278 3228 3278 2384 
Q 3278 1506 3087 986 
Q 2897 466 2520 194 
Q 2144 -78 1638 -78 
Q 1100 -78 759 220 
Q 419 519 350 1059 
z
M 2653 3081 
Q 2653 3566 2395 3850 
Q 2138 4134 1775 4134 
Q 1400 4134 1122 3828 
Q 844 3522 844 3034 
Q 844 2597 1108 2323 
Q 1372 2050 1759 2050 
Q 2150 2050 2401 2323 
Q 2653 2597 2653 3081 
z
" transform="scale(0.015625)"/>
       </defs>
       <use xlink:href="#ArialMT-32"/>
       <use xlink:href="#ArialMT-30" x="55.615234"/>
       <use xlink:href="#ArialMT-30" x="111.230469"/>
       <use xlink:href="#ArialMT-39" x="166.845703"/>
      </g>
     </g>
    </g>
    <g id="xtick_11">
     <g id="line2d_11">
      <path d="M 588.109091 384.48 
L 588.109091 51.84 
" clip-path="url(#p082d88c616)" style="fill: none; stroke: #cccccc; stroke-width: 0.8; stroke-linecap: round"/>
     </g>
     <g id="text_11">
      <!-- 2010 -->
      <g style="fill: #262626" transform="translate(576.987216 398.637812) scale(0.1 -0.1)">
       <use xlink:href="#ArialMT-32"/>
       <use xlink:href="#ArialMT-30" x="55.615234"/>
       <use xlink:href="#ArialMT-31" x="111.230469"/>
       <use xlink:href="#ArialMT-30" x="166.845703"/>
      </g>
     </g>
    </g>
    <g id="xtick_12">
     <g id="line2d_12">
      <path d="M 626.154545 384.48 
L 626.154545 51.84 
" clip-path="url(#p082d88c616)" style="fill: none; stroke: #cccccc; stroke-width: 0.8; stroke-linecap: round"/>
     </g>
     <g id="text_12">
      <!-- 2011 -->
      <g style="fill: #262626" transform="translate(615.40142 398.637812) scale(0.1 -0.1)">
       <use xlink:href="#ArialMT-32"/>
       <use xlink:href="#ArialMT-30" x="55.615234"/>
       <use xlink:href="#ArialMT-31" x="111.230469"/>
       <use xlink:href="#ArialMT-31" x="159.470703"/>
      </g>
     </g>
    </g>
    <g id="xtick_13">
     <g id="line2d_13">
      <path d="M 664.2 384.48 
L 664.2 51.84 
" clip-path="url(#p082d88c616)" style="fill: none; stroke: #cccccc; stroke-width: 0.8; stroke-linecap: round"/>
     </g>
     <g id="text_13">
      <!-- 2012 -->
      <g style="fill: #262626" transform="translate(653.078125 398.637812) scale(0.1 -0.1)">
       <use xlink:href="#ArialMT-32"/>
       <use xlink:href="#ArialMT-30" x="55.615234"/>
       <use xlink:href="#ArialMT-31" x="111.230469"/>
       <use xlink:href="#ArialMT-32" x="166.845703"/>
      </g>
     </g>
    </g>
    <g id="xtick_14">
     <g id="line2d_14">
      <path d="M 702.245455 384.48 
L 702.245455 51.84 
" clip-path="url(#p082d88c616)" style="fill: none; stroke: #cccccc; stroke-width: 0.8; stroke-linecap: round"/>
     </g>
     <g id="text_14">
      <!-- 2013 -->
      <g style="fill: #262626" transform="translate(691.12358 398.637812) scale(0.1 -0.1)">
       <use xlink:href="#ArialMT-32"/>
       <use xlink:href="#ArialMT-30" x="55.615234"/>
       <use xlink:href="#ArialMT-31" x="111.230469"/>
       <use xlink:href="#ArialMT-33" x="166.845703"/>
      </g>
     </g>
    </g>
    <g id="xtick_15">
     <g id="line2d_15">
      <path d="M 740.290909 384.48 
L 740.290909 51.84 
" clip-path="url(#p082d88c616)" style="fill: none; stroke: #cccccc; stroke-width: 0.8; stroke-linecap: round"/>
     </g>
     <g id="text_15">
      <!-- 2014 -->
      <g style="fill: #262626" transform="translate(729.169034 398.637812) scale(0.1 -0.1)">
       <use xlink:href="#ArialMT-32"/>
       <use xlink:href="#ArialMT-30" x="55.615234"/>
       <use xlink:href="#ArialMT-31" x="111.230469"/>
       <use xlink:href="#ArialMT-34" x="166.845703"/>
      </g>
     </g>
    </g>
    <g id="xtick_16">
     <g id="line2d_16">
      <path d="M 778.336364 384.48 
L 778.336364 51.84 
" clip-path="url(#p082d88c616)" style="fill: none; stroke: #cccccc; stroke-width: 0.8; stroke-linecap: round"/>
     </g>
     <g id="text_16">
      <!-- 2015 -->
      <g style="fill: #262626" transform="translate(767.214489 398.637812) scale(0.1 -0.1)">
       <use xlink:href="#ArialMT-32"/>
       <use xlink:href="#ArialMT-30" x="55.615234"/>
       <use xlink:href="#ArialMT-31" x="111.230469"/>
       <use xlink:href="#ArialMT-35" x="166.845703"/>
      </g>
     </g>
    </g>
    <g id="xtick_17">
     <g id="line2d_17">
      <path d="M 816.381818 384.48 
L 816.381818 51.84 
" clip-path="url(#p082d88c616)" style="fill: none; stroke: #cccccc; stroke-width: 0.8; stroke-linecap: round"/>
     </g>
     <g id="text_17">
      <!-- 2016 -->
      <g style="fill: #262626" transform="translate(805.259943 398.637812) scale(0.1 -0.1)">
       <use xlink:href="#ArialMT-32"/>
       <use xlink:href="#ArialMT-30" x="55.615234"/>
       <use xlink:href="#ArialMT-31" x="111.230469"/>
       <use xlink:href="#ArialMT-36" x="166.845703"/>
      </g>
     </g>
    </g>
    <g id="xtick_18">
     <g id="line2d_18">
      <path d="M 854.427273 384.48 
L 854.427273 51.84 
" clip-path="url(#p082d88c616)" style="fill: none; stroke: #cccccc; stroke-width: 0.8; stroke-linecap: round"/>
     </g>
     <g id="text_18">
      <!-- 2017 -->
      <g style="fill: #262626" transform="translate(843.305398 398.637812) scale(0.1 -0.1)">
       <use xlink:href="#ArialMT-32"/>
       <use xlink:href="#ArialMT-30" x="55.615234"/>
       <use xlink:href="#ArialMT-31" x="111.230469"/>
       <use xlink:href="#ArialMT-37" x="166.845703"/>
      </g>
     </g>
    </g>
    <g id="xtick_19">
     <g id="line2d_19">
      <path d="M 892.472727 384.48 
L 892.472727 51.84 
" clip-path="url(#p082d88c616)" style="fill: none; stroke: #cccccc; stroke-width: 0.8; stroke-linecap: round"/>
     </g>
     <g id="text_19">
      <!-- 2018 -->
      <g style="fill: #262626" transform="translate(881.350852 398.637812) scale(0.1 -0.1)">
       <use xlink:href="#ArialMT-32"/>
       <use xlink:href="#ArialMT-30" x="55.615234"/>
       <use xlink:href="#ArialMT-31" x="111.230469"/>
       <use xlink:href="#ArialMT-38" x="166.845703"/>
      </g>
     </g>
    </g>
    <g id="xtick_20">
     <g id="line2d_20">
      <path d="M 930.518182 384.48 
L 930.518182 51.84 
" clip-path="url(#p082d88c616)" style="fill: none; stroke: #cccccc; stroke-width: 0.8; stroke-linecap: round"/>
     </g>
     <g id="text_20">
      <!-- 2019 -->
      <g style="fill: #262626" transform="translate(919.396307 398.637812) scale(0.1 -0.1)">
       <use xlink:href="#ArialMT-32"/>
       <use xlink:href="#ArialMT-30" x="55.615234"/>
       <use xlink:href="#ArialMT-31" x="111.230469"/>
       <use xlink:href="#ArialMT-39" x="166.845703"/>
      </g>
     </g>
    </g>
    <g id="xtick_21">
     <g id="line2d_21">
      <path d="M 968.563636 384.48 
L 968.563636 51.84 
" clip-path="url(#p082d88c616)" style="fill: none; stroke: #cccccc; stroke-width: 0.8; stroke-linecap: round"/>
     </g>
     <g id="text_21">
      <!-- 2020 -->
      <g style="fill: #262626" transform="translate(957.441761 398.637812) scale(0.1 -0.1)">
       <use xlink:href="#ArialMT-32"/>
       <use xlink:href="#ArialMT-30" x="55.615234"/>
       <use xlink:href="#ArialMT-32" x="111.230469"/>
       <use xlink:href="#ArialMT-30" x="166.845703"/>
      </g>
     </g>
    </g>
    <g id="xtick_22">
     <g id="line2d_22">
      <path d="M 1006.609091 384.48 
L 1006.609091 51.84 
" clip-path="url(#p082d88c616)" style="fill: none; stroke: #cccccc; stroke-width: 0.8; stroke-linecap: round"/>
     </g>
     <g id="text_22">
      <!-- 2021 -->
      <g style="fill: #262626" transform="translate(995.487216 398.637812) scale(0.1 -0.1)">
       <use xlink:href="#ArialMT-32"/>
       <use xlink:href="#ArialMT-30" x="55.615234"/>
       <use xlink:href="#ArialMT-32" x="111.230469"/>
       <use xlink:href="#ArialMT-31" x="166.845703"/>
      </g>
     </g>
    </g>
    <g id="xtick_23">
     <g id="line2d_23">
      <path d="M 1044.654545 384.48 
L 1044.654545 51.84 
" clip-path="url(#p082d88c616)" style="fill: none; stroke: #cccccc; stroke-width: 0.8; stroke-linecap: round"/>
     </g>
     <g id="text_23">
      <!-- 2022 -->
      <g style="fill: #262626" transform="translate(1033.53267 398.637812) scale(0.1 -0.1)">
       <use xlink:href="#ArialMT-32"/>
       <use xlink:href="#ArialMT-30" x="55.615234"/>
       <use xlink:href="#ArialMT-32" x="111.230469"/>
       <use xlink:href="#ArialMT-32" x="166.845703"/>
      </g>
     </g>
    </g>
    <g id="xtick_24">
     <g id="line2d_24">
      <path d="M 1082.7 384.48 
L 1082.7 51.84 
" clip-path="url(#p082d88c616)" style="fill: none; stroke: #cccccc; stroke-width: 0.8; stroke-linecap: round"/>
     </g>
     <g id="text_24">
      <!-- 2023 -->
      <g style="fill: #262626" transform="translate(1071.578125 398.637812) scale(0.1 -0.1)">
       <use xlink:href="#ArialMT-32"/>
       <use xlink:href="#ArialMT-30" x="55.615234"/>
       <use xlink:href="#ArialMT-32" x="111.230469"/>
       <use xlink:href="#ArialMT-33" x="166.845703"/>
      </g>
     </g>
    </g>
    <g id="xtick_25">
     <g id="line2d_25">
      <path d="M 1120.745455 384.48 
L 1120.745455 51.84 
" clip-path="url(#p082d88c616)" style="fill: none; stroke: #cccccc; stroke-width: 0.8; stroke-linecap: round"/>
     </g>
     <g id="text_25">
      <!-- 2024 -->
      <g style="fill: #262626" transform="translate(1109.62358 398.637812) scale(0.1 -0.1)">
       <use xlink:href="#ArialMT-32"/>
       <use xlink:href="#ArialMT-30" x="55.615234"/>
       <use xlink:href="#ArialMT-32" x="111.230469"/>
       <use xlink:href="#ArialMT-34" x="166.845703"/>
      </g>
     </g>
    </g>
    <g id="text_26">
     <!-- Năm phát hành -->
     <g style="fill: #262626" transform="translate(623.175938 413.261563) scale(0.12 -0.12)">
      <defs>
       <path id="ArialMT-4e" d="M 488 0 
L 488 4581 
L 1109 4581 
L 3516 984 
L 3516 4581 
L 4097 4581 
L 4097 0 
L 3475 0 
L 1069 3600 
L 1069 0 
L 488 0 
z
" transform="scale(0.015625)"/>
       <path id="ArialMT-103" d="M 2588 409 
Q 2275 144 1986 34 
Q 1697 -75 1366 -75 
Q 819 -75 525 192 
Q 231 459 231 875 
Q 231 1119 342 1320 
Q 453 1522 633 1644 
Q 813 1766 1038 1828 
Q 1203 1872 1538 1913 
Q 2219 1994 2541 2106 
Q 2544 2222 2544 2253 
Q 2544 2597 2384 2738 
Q 2169 2928 1744 2928 
Q 1347 2928 1158 2789 
Q 969 2650 878 2297 
L 328 2372 
Q 403 2725 575 2942 
Q 747 3159 1072 3276 
Q 1397 3394 1825 3394 
Q 2250 3394 2515 3294 
Q 2781 3194 2906 3042 
Q 3031 2891 3081 2659 
Q 3109 2516 3109 2141 
L 3109 1391 
Q 3109 606 3145 398 
Q 3181 191 3288 0 
L 2700 0 
Q 2613 175 2588 409 
z
M 2541 1666 
Q 2234 1541 1622 1453 
Q 1275 1403 1131 1340 
Q 988 1278 909 1158 
Q 831 1038 831 891 
Q 831 666 1001 516 
Q 1172 366 1500 366 
Q 1825 366 2078 508 
Q 2331 650 2450 897 
Q 2541 1088 2541 1459 
L 2541 1666 
z
M 2374 4575 
L 2759 4575 
Q 2712 4184 2473 3975 
Q 2234 3766 1837 3766 
Q 1437 3766 1198 3973 
Q 959 4181 912 4575 
L 1296 4575 
Q 1340 4363 1469 4258 
Q 1599 4153 1818 4153 
Q 2071 4153 2201 4254 
Q 2331 4356 2374 4575 
z
" transform="scale(0.015625)"/>
       <path id="ArialMT-6d" d="M 422 0 
L 422 3319 
L 925 3319 
L 925 2853 
Q 1081 3097 1340 3245 
Q 1600 3394 1931 3394 
Q 2300 3394 2536 3241 
Q 2772 3088 2869 2813 
Q 3263 3394 3894 3394 
Q 4388 3394 4653 3120 
Q 4919 2847 4919 2278 
L 4919 0 
L 4359 0 
L 4359 2091 
Q 4359 2428 4304 2576 
Q 4250 2725 4106 2815 
Q 3963 2906 3769 2906 
Q 3419 2906 3187 2673 
Q 2956 2441 2956 1928 
L 2956 0 
L 2394 0 
L 2394 2156 
Q 2394 2531 2256 2718 
Q 2119 2906 1806 2906 
Q 1569 2906 1367 2781 
Q 1166 2656 1075 2415 
Q 984 2175 984 1722 
L 984 0 
L 422 0 
z
" transform="scale(0.015625)"/>
       <path id="ArialMT-20" transform="scale(0.015625)"/>
       <path id="ArialMT-70" d="M 422 -1272 
L 422 3319 
L 934 3319 
L 934 2888 
Q 1116 3141 1344 3267 
Q 1572 3394 1897 3394 
Q 2322 3394 2647 3175 
Q 2972 2956 3137 2557 
Q 3303 2159 3303 1684 
Q 3303 1175 3120 767 
Q 2938 359 2589 142 
Q 2241 -75 1856 -75 
Q 1575 -75 1351 44 
Q 1128 163 984 344 
L 984 -1272 
L 422 -1272 
z
M 931 1641 
Q 931 1000 1190 694 
Q 1450 388 1819 388 
Q 2194 388 2461 705 
Q 2728 1022 2728 1688 
Q 2728 2322 2467 2637 
Q 2206 2953 1844 2953 
Q 1484 2953 1207 2617 
Q 931 2281 931 1641 
z
" transform="scale(0.015625)"/>
       <path id="ArialMT-68" d="M 422 0 
L 422 4581 
L 984 4581 
L 984 2938 
Q 1378 3394 1978 3394 
Q 2347 3394 2619 3248 
Q 2891 3103 3008 2847 
Q 3125 2591 3125 2103 
L 3125 0 
L 2563 0 
L 2563 2103 
Q 2563 2525 2380 2717 
Q 2197 2909 1863 2909 
Q 1613 2909 1392 2779 
Q 1172 2650 1078 2428 
Q 984 2206 984 1816 
L 984 0 
L 422 0 
z
" transform="scale(0.015625)"/>
       <path id="ArialMT-e1" d="M 2588 409 
Q 2275 144 1986 34 
Q 1697 -75 1366 -75 
Q 819 -75 525 192 
Q 231 459 231 875 
Q 231 1119 342 1320 
Q 453 1522 633 1644 
Q 813 1766 1038 1828 
Q 1203 1872 1538 1913 
Q 2219 1994 2541 2106 
Q 2544 2222 2544 2253 
Q 2544 2597 2384 2738 
Q 2169 2928 1744 2928 
Q 1347 2928 1158 2789 
Q 969 2650 878 2297 
L 328 2372 
Q 403 2725 575 2942 
Q 747 3159 1072 3276 
Q 1397 3394 1825 3394 
Q 2250 3394 2515 3294 
Q 2781 3194 2906 3042 
Q 3031 2891 3081 2659 
Q 3109 2516 3109 2141 
L 3109 1391 
Q 3109 606 3145 398 
Q 3181 191 3288 0 
L 2700 0 
Q 2613 175 2588 409 
z
M 2541 1666 
Q 2234 1541 1622 1453 
Q 1275 1403 1131 1340 
Q 988 1278 909 1158 
Q 831 1038 831 891 
Q 831 666 1001 516 
Q 1172 366 1500 366 
Q 1825 366 2078 508 
Q 2331 650 2450 897 
Q 2541 1088 2541 1459 
L 2541 1666 
z
M 1446 3731 
L 1861 4606 
L 2599 4606 
L 1911 3731 
L 1446 3731 
z
" transform="scale(0.015625)"/>
       <path id="ArialMT-74" d="M 1650 503 
L 1731 6 
Q 1494 -44 1306 -44 
Q 1000 -44 831 53 
Q 663 150 594 308 
Q 525 466 525 972 
L 525 2881 
L 113 2881 
L 113 3319 
L 525 3319 
L 525 4141 
L 1084 4478 
L 1084 3319 
L 1650 3319 
L 1650 2881 
L 1084 2881 
L 1084 941 
Q 1084 700 1114 631 
Q 1144 563 1211 522 
Q 1278 481 1403 481 
Q 1497 481 1650 503 
z
" transform="scale(0.015625)"/>
       <path id="ArialMT-e0" d="M 2588 409 
Q 2275 144 1986 34 
Q 1697 -75 1366 -75 
Q 819 -75 525 192 
Q 231 459 231 875 
Q 231 1119 342 1320 
Q 453 1522 633 1644 
Q 813 1766 1038 1828 
Q 1203 1872 1538 1913 
Q 2219 1994 2541 2106 
Q 2544 2222 2544 2253 
Q 2544 2597 2384 2738 
Q 2169 2928 1744 2928 
Q 1347 2928 1158 2789 
Q 969 2650 878 2297 
L 328 2372 
Q 403 2725 575 2942 
Q 747 3159 1072 3276 
Q 1397 3394 1825 3394 
Q 2250 3394 2515 3294 
Q 2781 3194 2906 3042 
Q 3031 2891 3081 2659 
Q 3109 2516 3109 2141 
L 3109 1391 
Q 3109 606 3145 398 
Q 3181 191 3288 0 
L 2700 0 
Q 2613 175 2588 409 
z
M 2541 1666 
Q 2234 1541 1622 1453 
Q 1275 1403 1131 1340 
Q 988 1278 909 1158 
Q 831 1038 831 891 
Q 831 666 1001 516 
Q 1172 366 1500 366 
Q 1825 366 2078 508 
Q 2331 650 2450 897 
Q 2541 1088 2541 1459 
L 2541 1666 
z
M 2237 3731 
L 1784 3731 
L 1062 4606 
L 1815 4606 
L 2237 3731 
z
" transform="scale(0.015625)"/>
       <path id="ArialMT-6e" d="M 422 0 
L 422 3319 
L 928 3319 
L 928 2847 
Q 1294 3394 1984 3394 
Q 2284 3394 2536 3286 
Q 2788 3178 2913 3003 
Q 3038 2828 3088 2588 
Q 3119 2431 3119 2041 
L 3119 0 
L 2556 0 
L 2556 2019 
Q 2556 2363 2490 2533 
Q 2425 2703 2258 2804 
Q 2091 2906 1866 2906 
Q 1506 2906 1245 2678 
Q 984 2450 984 1813 
L 984 0 
L 422 0 
z
" transform="scale(0.015625)"/>
      </defs>
      <use xlink:href="#ArialMT-4e"/>
      <use xlink:href="#ArialMT-103" x="72.216797"/>
      <use xlink:href="#ArialMT-6d" x="127.832031"/>
      <use xlink:href="#ArialMT-20" x="211.132812"/>
      <use xlink:href="#ArialMT-70" x="238.916016"/>
      <use xlink:href="#ArialMT-68" x="294.53125"/>
      <use xlink:href="#ArialMT-e1" x="350.146484"/>
      <use xlink:href="#ArialMT-74" x="405.761719"/>
      <use xlink:href="#ArialMT-20" x="433.544922"/>
      <use xlink:href="#ArialMT-68" x="461.328125"/>
      <use xlink:href="#ArialMT-e0" x="516.943359"/>
      <use xlink:href="#ArialMT-6e" x="572.558594"/>
      <use xlink:href="#ArialMT-68" x="628.173828"/>
     </g>
    </g>
   </g>
   <g id="matplotlib.axis_2">
    <g id="ytick_1">
     <g id="text_27">
      <!-- 0 -->
      <g style="fill: #262626" transform="translate(149.439063 388.058906) scale(0.1 -0.1)">
       <use xlink:href="#ArialMT-30"/>
      </g>
     </g>
    </g>
    <g id="ytick_2">
     <g id="text_28">
      <!-- 50 -->
      <g style="fill: #262626" transform="translate(143.878125 354.794906) scale(0.1 -0.1)">
       <use xlink:href="#ArialMT-35"/>
       <use xlink:href="#ArialMT-30" x="55.615234"/>
      </g>
     </g>
    </g>
    <g id="ytick_3">
     <g id="text_29">
      <!-- 100 -->
      <g style="fill: #262626" transform="translate(138.317187 321.530906) scale(0.1 -0.1)">
       <use xlink:href="#ArialMT-31"/>
       <use xlink:href="#ArialMT-30" x="55.615234"/>
       <use xlink:href="#ArialMT-30" x="111.230469"/>
      </g>
     </g>
    </g>
    <g id="ytick_4">
     <g id="text_30">
      <!-- 150 -->
      <g style="fill: #262626" transform="translate(138.317187 288.266906) scale(0.1 -0.1)">
       <use xlink:href="#ArialMT-31"/>
       <use xlink:href="#ArialMT-35" x="55.615234"/>
       <use xlink:href="#ArialMT-30" x="111.230469"/>
      </g>
     </g>
    </g>
    <g id="ytick_5">
     <g id="text_31">
      <!-- 200 -->
      <g style="fill: #262626" transform="translate(138.317187 255.002906) scale(0.1 -0.1)">
       <use xlink:href="#ArialMT-32"/>
       <use xlink:href="#ArialMT-30" x="55.615234"/>
       <use xlink:href="#ArialMT-30" x="111.230469"/>
      </g>
     </g>
    </g>
    <g id="ytick_6">
     <g id="text_32">
      <!-- 250 -->
      <g style="fill: #262626" transform="translate(138.317187 221.738906) scale(0.1 -0.1)">
       <use xlink:href="#ArialMT-32"/>
       <use xlink:href="#ArialMT-35" x="55.615234"/>
       <use xlink:href="#ArialMT-30" x="111.230469"/>
      </g>
     </g>
    </g>
    <g id="ytick_7">
     <g id="text_33">
      <!-- 300 -->
      <g style="fill: #262626" transform="translate(138.317187 188.474906) scale(0.1 -0.1)">
       <use xlink:href="#ArialMT-33"/>
       <use xlink:href="#ArialMT-30" x="55.615234"/>
       <use xlink:href="#ArialMT-30" x="111.230469"/>
      </g>
     </g>
    </g>
    <g id="ytick_8">
     <g id="text_34">
      <!-- 350 -->
      <g style="fill: #262626" transform="translate(138.317187 155.210906) scale(0.1 -0.1)">
       <use xlink:href="#ArialMT-33"/>
       <use xlink:href="#ArialMT-35" x="55.615234"/>
       <use xlink:href="#ArialMT-30" x="111.230469"/>
      </g>
     </g>
    </g>
    <g id="ytick_9">
     <g id="text_35">
      <!-- 400 -->
      <g style="fill: #262626" transform="translate(138.317187 121.946906) scale(0.1 -0.1)">
       <use xlink:href="#ArialMT-34"/>
       <use xlink:href="#ArialMT-30" x="55.615234"/>
       <use xlink:href="#ArialMT-30" x="111.230469"/>
      </g>
     </g>
    </g>
    <g id="ytick_10">
     <g id="text_36">
      <!-- 450 -->
      <g style="fill: #262626" transform="translate(138.317187 88.682906) scale(0.1 -0.1)">
       <use xlink:href="#ArialMT-34"/>
       <use xlink:href="#ArialMT-35" x="55.615234"/>
       <use xlink:href="#ArialMT-30" x="111.230469"/>
      </g>
     </g>
    </g>
    <g id="ytick_11">
     <g id="text_37">
      <!-- 500 -->
      <g style="fill: #262626" transform="translate(138.317187 55.418906) scale(0.1 -0.1)">
       <use xlink:href="#ArialMT-35"/>
       <use xlink:href="#ArialMT-30" x="55.615234"/>
       <use xlink:href="#ArialMT-30" x="111.230469"/>
      </g>
     </g>
    </g>
    <g id="text_38">
     <!-- Số lượng bài hát -->
     <g style="fill: #262626" transform="translate(131.791562 262.802812) rotate(-90) scale(0.12 -0.12)">
      <defs>
       <path id="ArialMT-53" d="M 288 1472 
L 859 1522 
Q 900 1178 1048 958 
Q 1197 738 1509 602 
Q 1822 466 2213 466 
Q 2559 466 2825 569 
Q 3091 672 3220 851 
Q 3350 1031 3350 1244 
Q 3350 1459 3225 1620 
Q 3100 1781 2813 1891 
Q 2628 1963 1997 2114 
Q 1366 2266 1113 2400 
Q 784 2572 623 2826 
Q 463 3081 463 3397 
Q 463 3744 659 4045 
Q 856 4347 1234 4503 
Q 1613 4659 2075 4659 
Q 2584 4659 2973 4495 
Q 3363 4331 3572 4012 
Q 3781 3694 3797 3291 
L 3216 3247 
Q 3169 3681 2898 3903 
Q 2628 4125 2100 4125 
Q 1550 4125 1298 3923 
Q 1047 3722 1047 3438 
Q 1047 3191 1225 3031 
Q 1400 2872 2139 2705 
Q 2878 2538 3153 2413 
Q 3553 2228 3743 1945 
Q 3934 1663 3934 1294 
Q 3934 928 3725 604 
Q 3516 281 3123 101 
Q 2731 -78 2241 -78 
Q 1619 -78 1198 103 
Q 778 284 539 648 
Q 300 1013 288 1472 
z
" transform="scale(0.015625)"/>
       <path id="ArialMT-1ed1" d="M 213 1659 
Q 213 2581 725 3025 
Q 1153 3394 1769 3394 
Q 2453 3394 2887 2945 
Q 3322 2497 3322 1706 
Q 3322 1066 3130 698 
Q 2938 331 2570 128 
Q 2203 -75 1769 -75 
Q 1072 -75 642 372 
Q 213 819 213 1659 
z
M 791 1659 
Q 791 1022 1069 705 
Q 1347 388 1769 388 
Q 2188 388 2466 706 
Q 2744 1025 2744 1678 
Q 2744 2294 2464 2611 
Q 2184 2928 1769 2928 
Q 1347 2928 1069 2612 
Q 791 2297 791 1659 
z
M 1779 4263 
L 1426 3731 
L 782 3731 
L 1457 4606 
L 2057 4606 
L 2760 3731 
L 2123 3731 
L 1779 4263 
z
M 1874 5709 
L 2628 5709 
L 1906 4834 
L 1453 4834 
L 1874 5709 
z
" transform="scale(0.015625)"/>
       <path id="ArialMT-6c" d="M 409 0 
L 409 4581 
L 972 4581 
L 972 0 
L 409 0 
z
" transform="scale(0.015625)"/>
       <path id="ArialMT-1b0" d="M 3488 2666 
L 3488 3319 
L 4091 3319 
L 4091 2803 
Q 4091 2313 3978 2119 
Q 3691 1619 3100 1556 
L 3100 0 
L 2597 0 
L 2597 488 
Q 2209 -75 1544 -75 
Q 1253 -75 998 36 
Q 744 147 619 319 
Q 494 491 444 738 
Q 409 906 409 1263 
L 409 3319 
L 972 3319 
L 972 1478 
Q 972 1031 1006 884 
Q 1116 409 1656 409 
Q 1916 409 2136 540 
Q 2356 672 2447 894 
Q 2538 1116 2538 1541 
L 2538 3319 
L 3100 3319 
L 3100 1794 
Q 3497 1863 3694 2166 
Q 3781 2297 3781 2666 
L 3488 2666 
z
" transform="scale(0.015625)"/>
       <path id="ArialMT-1ee3" d="M 791 1659 
Q 791 1044 1069 706 
Q 1331 388 1769 388 
Q 2206 388 2466 706 
Q 2744 1047 2744 1678 
Q 2744 2275 2463 2609 
Q 2200 2928 1769 2928 
Q 1328 2928 1069 2613 
Q 791 2275 791 1659 
z
M 3397 2747 
L 3397 3400 
L 4000 3400 
L 4000 2884 
Q 4000 2497 3881 2291 
Q 3728 2022 3322 1797 
Q 3322 1753 3322 1706 
Q 3322 544 2572 128 
Q 2203 -75 1769 -75 
Q 1056 -75 641 372 
Q 213 834 213 1659 
Q 213 2581 725 3025 
Q 1153 3394 1769 3394 
Q 2453 3394 2888 2947 
Q 3216 2606 3297 2069 
Q 3509 2200 3601 2340 
Q 3694 2481 3691 2747 
L 3397 2747 
z
M 1422 -1016 
L 1422 -375 
L 2063 -375 
L 2063 -1016 
L 1422 -1016 
z
" transform="scale(0.015625)"/>
       <path id="ArialMT-67" d="M 319 -275 
L 866 -356 
Q 900 -609 1056 -725 
Q 1266 -881 1628 -881 
Q 2019 -881 2231 -725 
Q 2444 -569 2519 -288 
Q 2563 -116 2559 434 
Q 2191 0 1641 0 
Q 956 0 581 494 
Q 206 988 206 1678 
Q 206 2153 378 2554 
Q 550 2956 876 3175 
Q 1203 3394 1644 3394 
Q 2231 3394 2613 2919 
L 2613 3319 
L 3131 3319 
L 3131 450 
Q 3131 -325 2973 -648 
Q 2816 -972 2473 -1159 
Q 2131 -1347 1631 -1347 
Q 1038 -1347 672 -1080 
Q 306 -813 319 -275 
z
M 784 1719 
Q 784 1066 1043 766 
Q 1303 466 1694 466 
Q 2081 466 2343 764 
Q 2606 1063 2606 1700 
Q 2606 2309 2336 2618 
Q 2066 2928 1684 2928 
Q 1309 2928 1046 2623 
Q 784 2319 784 1719 
z
" transform="scale(0.015625)"/>
       <path id="ArialMT-62" d="M 941 0 
L 419 0 
L 419 4581 
L 981 4581 
L 981 2947 
Q 1338 3394 1891 3394 
Q 2197 3394 2470 3270 
Q 2744 3147 2920 2923 
Q 3097 2700 3197 2384 
Q 3297 2069 3297 1709 
Q 3297 856 2875 390 
Q 2453 -75 1863 -75 
Q 1275 -75 941 416 
L 941 0 
z
M 934 1684 
Q 934 1088 1097 822 
Q 1363 388 1816 388 
Q 2184 388 2453 708 
Q 2722 1028 2722 1663 
Q 2722 2313 2464 2622 
Q 2206 2931 1841 2931 
Q 1472 2931 1203 2611 
Q 934 2291 934 1684 
z
" transform="scale(0.015625)"/>
       <path id="ArialMT-69" d="M 425 3934 
L 425 4581 
L 988 4581 
L 988 3934 
L 425 3934 
z
M 425 0 
L 425 3319 
L 988 3319 
L 988 0 
L 425 0 
z
" transform="scale(0.015625)"/>
      </defs>
      <use xlink:href="#ArialMT-53"/>
      <use xlink:href="#ArialMT-1ed1" x="66.699219"/>
      <use xlink:href="#ArialMT-20" x="122.314453"/>
      <use xlink:href="#ArialMT-6c" x="150.097656"/>
      <use xlink:href="#ArialMT-1b0" x="172.314453"/>
      <use xlink:href="#ArialMT-1ee3" x="239.257812"/>
      <use xlink:href="#ArialMT-6e" x="304.833984"/>
      <use xlink:href="#ArialMT-67" x="360.449219"/>
      <use xlink:href="#ArialMT-20" x="416.064453"/>
      <use xlink:href="#ArialMT-62" x="443.847656"/>
      <use xlink:href="#ArialMT-e0" x="499.462891"/>
      <use xlink:href="#ArialMT-69" x="555.078125"/>
      <use xlink:href="#ArialMT-20" x="577.294922"/>
      <use xlink:href="#ArialMT-68" x="605.078125"/>
      <use xlink:href="#ArialMT-e1" x="660.693359"/>
      <use xlink:href="#ArialMT-74" x="716.308594"/>
     </g>
    </g>
   </g>
   <g id="PolyCollection_1"/>
   <g id="line2d_26">
    <path d="M 207.654545 363.85632 
L 245.7 333.91872 
L 283.745455 358.53408 
L 321.790909 335.24928 
L 359.836364 369.17856 
L 397.881818 331.2576 
L 435.927273 327.26592 
L 473.972727 356.53824 
L 512.018182 355.20768 
L 550.063636 369.17856 
L 588.109091 359.86464 
L 626.154545 357.20352 
L 664.2 356.53824 
L 702.245455 346.55904 
L 740.290909 353.21184 
L 778.336364 264.06432 
L 816.381818 313.96032 
L 854.427273 269.38656 
L 892.472727 73.79424 
L 930.518182 208.84608 
L 968.563636 207.51552 
L 1006.609091 180.23904 
L 1044.654545 170.92512 
L 1082.7 170.25984 
L 1120.745455 156.95424 
" clip-path="url(#p082d88c616)" style="fill: none; stroke: #0000ff; stroke-width: 2; stroke-linecap: round"/>
    <defs>
     <path id="m711c770d54" d="M 0 3 
C 0.795609 3 1.55874 2.683901 2.12132 2.12132 
C 2.683901 1.55874 3 0.795609 3 0 
C 3 -0.795609 2.683901 -1.55874 2.12132 -2.12132 
C 1.55874 -2.683901 0.795609 -3 0 -3 
C -0.795609 -3 -1.55874 -2.683901 -2.12132 -2.12132 
C -2.683901 -1.55874 -3 -0.795609 -3 0 
C -3 0.795609 -2.683901 1.55874 -2.12132 2.12132 
C -1.55874 2.683901 -0.795609 3 0 3 
z
" style="stroke: #ffffff; stroke-width: 0.75"/>
    </defs>
    <g clip-path="url(#p082d88c616)">
     <use xlink:href="#m711c770d54" x="207.654545" y="363.85632" style="fill: #0000ff; stroke: #ffffff; stroke-width: 0.75"/>
     <use xlink:href="#m711c770d54" x="245.7" y="333.91872" style="fill: #0000ff; stroke: #ffffff; stroke-width: 0.75"/>
     <use xlink:href="#m711c770d54" x="283.745455" y="358.53408" style="fill: #0000ff; stroke: #ffffff; stroke-width: 0.75"/>
     <use xlink:href="#m711c770d54" x="321.790909" y="335.24928" style="fill: #0000ff; stroke: #ffffff; stroke-width: 0.75"/>
     <use xlink:href="#m711c770d54" x="359.836364" y="369.17856" style="fill: #0000ff; stroke: #ffffff; stroke-width: 0.75"/>
     <use xlink:href="#m711c770d54" x="397.881818" y="331.2576" style="fill: #0000ff; stroke: #ffffff; stroke-width: 0.75"/>
     <use xlink:href="#m711c770d54" x="435.927273" y="327.26592" style="fill: #0000ff; stroke: #ffffff; stroke-width: 0.75"/>
     <use xlink:href="#m711c770d54" x="473.972727" y="356.53824" style="fill: #0000ff; stroke: #ffffff; stroke-width: 0.75"/>
     <use xlink:href="#m711c770d54" x="512.018182" y="355.20768" style="fill: #0000ff; stroke: #ffffff; stroke-width: 0.75"/>
     <use xlink:href="#m711c770d54" x="550.063636" y="369.17856" style="fill: #0000ff; stroke: #ffffff; stroke-width: 0.75"/>
     <use xlink:href="#m711c770d54" x="588.109091" y="359.86464" style="fill: #0000ff; stroke: #ffffff; stroke-width: 0.75"/>
     <use xlink:href="#m711c770d54" x="626.154545" y="357.20352" style="fill: #0000ff; stroke: #ffffff; stroke-width: 0.75"/>
     <use xlink:href="#m711c770d54" x="664.2" y="356.53824" style="fill: #0000ff; stroke: #ffffff; stroke-width: 0.75"/>
     <use xlink:href="#m711c770d54" x="702.245455" y="346.55904" style="fill: #0000ff; stroke: #ffffff; stroke-width: 0.75"/>
     <use xlink:href="#m711c770d54" x="740.290909" y="353.21184" style="fill: #0000ff; stroke: #ffffff; stroke-width: 0.75"/>
     <use xlink:href="#m711c770d54" x="778.336364" y="264.06432" style="fill: #0000ff; stroke: #ffffff; stroke-width: 0.75"/>
     <use xlink:href="#m711c770d54" x="816.381818" y="313.96032" style="fill: #0000ff; stroke: #ffffff; stroke-width: 0.75"/>
     <use xlink:href="#m711c770d54" x="854.427273" y="269.38656" style="fill: #0000ff; stroke: #ffffff; stroke-width: 0.75"/>
     <use xlink:href="#m711c770d54" x="892.472727" y="73.79424" style="fill: #0000ff; stroke: #ffffff; stroke-width: 0.75"/>
     <use xlink:href="#m711c770d54" x="930.518182" y="208.84608" style="fill: #0000ff; stroke: #ffffff; stroke-width: 0.75"/>
     <use xlink:href="#m711c770d54" x="968.563636" y="207.51552" style="fill: #0000ff; stroke: #ffffff; stroke-width: 0.75"/>
     <use xlink:href="#m711c770d54" x="1006.609091" y="180.23904" style="fill: #0000ff; stroke: #ffffff; stroke-width: 0.75"/>
     <use xlink:href="#m711c770d54" x="1044.654545" y="170.92512" style="fill: #0000ff; stroke: #ffffff; stroke-width: 0.75"/>
     <use xlink:href="#m711c770d54" x="1082.7" y="170.25984" style="fill: #0000ff; stroke: #ffffff; stroke-width: 0.75"/>
     <use xlink:href="#m711c770d54" x="1120.745455" y="156.95424" style="fill: #0000ff; stroke: #ffffff; stroke-width: 0.75"/>
    </g>
   </g>
   <g id="patch_3">
    <path d="M 162 384.48 
L 162 51.84 
" style="fill: none; stroke: #cccccc; stroke-width: 0.8; stroke-linejoin: miter; stroke-linecap: square"/>
   </g>
   <g id="patch_4">
    <path d="M 1166.4 384.48 
L 1166.4 51.84 
" style="fill: none; stroke: #cccccc; stroke-width: 0.8; stroke-linejoin: miter; stroke-linecap: square"/>
   </g>
   <g id="patch_5">
    <path d="M 162 384.48 
L 1166.4 384.48 
" style="fill: none; stroke: #cccccc; stroke-width: 0.8; stroke-linejoin: miter; stroke-linecap: square"/>
   </g>
   <g id="patch_6">
    <path d="M 162 51.84 
L 1166.4 51.84 
" style="fill: none; stroke: #cccccc; stroke-width: 0.8; stroke-linejoin: miter; stroke-linecap: square"/>
   </g>
   <g id="text_39">
    <!-- Tần suất phát hành nhạc tại thị trường âm nhạc Việt Nam trong giai đoạn 2000 - 2024 -->
    <g style="fill: #262626" transform="translate(397.844531 45.84) scale(0.14 -0.14)">
     <defs>
      <path id="ArialMT-54" d="M 1659 0 
L 1659 4041 
L 150 4041 
L 150 4581 
L 3781 4581 
L 3781 4041 
L 2266 4041 
L 2266 0 
L 1659 0 
z
" transform="scale(0.015625)"/>
      <path id="ArialMT-1ea7" d="M 2588 409 
Q 2275 144 1986 34 
Q 1697 -75 1366 -75 
Q 819 -75 525 192 
Q 231 459 231 875 
Q 231 1119 342 1320 
Q 453 1522 633 1644 
Q 813 1766 1038 1828 
Q 1203 1872 1538 1913 
Q 2219 1994 2541 2106 
Q 2544 2222 2544 2253 
Q 2544 2597 2384 2738 
Q 2169 2928 1744 2928 
Q 1347 2928 1158 2789 
Q 969 2650 878 2297 
L 328 2372 
Q 403 2725 575 2942 
Q 747 3159 1072 3276 
Q 1397 3394 1825 3394 
Q 2250 3394 2515 3294 
Q 2781 3194 2906 3042 
Q 3031 2891 3081 2659 
Q 3109 2516 3109 2141 
L 3109 1391 
Q 3109 606 3145 398 
Q 3181 191 3288 0 
L 2700 0 
Q 2613 175 2588 409 
z
M 2541 1666 
Q 2234 1541 1622 1453 
Q 1275 1403 1131 1340 
Q 988 1278 909 1158 
Q 831 1038 831 891 
Q 831 666 1001 516 
Q 1172 366 1500 366 
Q 1825 366 2078 508 
Q 2331 650 2450 897 
Q 2541 1088 2541 1459 
L 2541 1666 
z
M 1771 4263 
L 1418 3731 
L 774 3731 
L 1449 4606 
L 2049 4606 
L 2752 3731 
L 2115 3731 
L 1771 4263 
z
M 2050 4834 
L 1597 4834 
L 875 5709 
L 1628 5709 
L 2050 4834 
z
" transform="scale(0.015625)"/>
      <path id="ArialMT-73" d="M 197 991 
L 753 1078 
Q 800 744 1014 566 
Q 1228 388 1613 388 
Q 2000 388 2187 545 
Q 2375 703 2375 916 
Q 2375 1106 2209 1216 
Q 2094 1291 1634 1406 
Q 1016 1563 777 1677 
Q 538 1791 414 1992 
Q 291 2194 291 2438 
Q 291 2659 392 2848 
Q 494 3038 669 3163 
Q 800 3259 1026 3326 
Q 1253 3394 1513 3394 
Q 1903 3394 2198 3281 
Q 2494 3169 2634 2976 
Q 2775 2784 2828 2463 
L 2278 2388 
Q 2241 2644 2061 2787 
Q 1881 2931 1553 2931 
Q 1166 2931 1000 2803 
Q 834 2675 834 2503 
Q 834 2394 903 2306 
Q 972 2216 1119 2156 
Q 1203 2125 1616 2013 
Q 2213 1853 2448 1751 
Q 2684 1650 2818 1456 
Q 2953 1263 2953 975 
Q 2953 694 2789 445 
Q 2625 197 2315 61 
Q 2006 -75 1616 -75 
Q 969 -75 630 194 
Q 291 463 197 991 
z
" transform="scale(0.015625)"/>
      <path id="ArialMT-75" d="M 2597 0 
L 2597 488 
Q 2209 -75 1544 -75 
Q 1250 -75 995 37 
Q 741 150 617 320 
Q 494 491 444 738 
Q 409 903 409 1263 
L 409 3319 
L 972 3319 
L 972 1478 
Q 972 1038 1006 884 
Q 1059 663 1231 536 
Q 1403 409 1656 409 
Q 1909 409 2131 539 
Q 2353 669 2445 892 
Q 2538 1116 2538 1541 
L 2538 3319 
L 3100 3319 
L 3100 0 
L 2597 0 
z
" transform="scale(0.015625)"/>
      <path id="ArialMT-1ea5" d="M 2588 409 
Q 2275 144 1986 34 
Q 1697 -75 1366 -75 
Q 819 -75 525 192 
Q 231 459 231 875 
Q 231 1119 342 1320 
Q 453 1522 633 1644 
Q 813 1766 1038 1828 
Q 1203 1872 1538 1913 
Q 2219 1994 2541 2106 
Q 2544 2222 2544 2253 
Q 2544 2597 2384 2738 
Q 2169 2928 1744 2928 
Q 1347 2928 1158 2789 
Q 969 2650 878 2297 
L 328 2372 
Q 403 2725 575 2942 
Q 747 3159 1072 3276 
Q 1397 3394 1825 3394 
Q 2250 3394 2515 3294 
Q 2781 3194 2906 3042 
Q 3031 2891 3081 2659 
Q 3109 2516 3109 2141 
L 3109 1391 
Q 3109 606 3145 398 
Q 3181 191 3288 0 
L 2700 0 
Q 2613 175 2588 409 
z
M 2541 1666 
Q 2234 1541 1622 1453 
Q 1275 1403 1131 1340 
Q 988 1278 909 1158 
Q 831 1038 831 891 
Q 831 666 1001 516 
Q 1172 366 1500 366 
Q 1825 366 2078 508 
Q 2331 650 2450 897 
Q 2541 1088 2541 1459 
L 2541 1666 
z
M 1771 4263 
L 1418 3731 
L 774 3731 
L 1449 4606 
L 2049 4606 
L 2752 3731 
L 2115 3731 
L 1771 4263 
z
M 1866 5709 
L 2620 5709 
L 1898 4834 
L 1445 4834 
L 1866 5709 
z
" transform="scale(0.015625)"/>
      <path id="ArialMT-1ea1" d="M 2588 409 
Q 2275 144 1986 34 
Q 1697 -75 1366 -75 
Q 819 -75 525 192 
Q 231 459 231 875 
Q 231 1119 342 1320 
Q 453 1522 633 1644 
Q 813 1766 1038 1828 
Q 1203 1872 1538 1913 
Q 2219 1994 2541 2106 
Q 2544 2222 2544 2253 
Q 2544 2597 2384 2738 
Q 2169 2928 1744 2928 
Q 1347 2928 1158 2789 
Q 969 2650 878 2297 
L 328 2372 
Q 403 2725 575 2942 
Q 747 3159 1072 3276 
Q 1397 3394 1825 3394 
Q 2250 3394 2515 3294 
Q 2781 3194 2906 3042 
Q 3031 2891 3081 2659 
Q 3109 2516 3109 2141 
L 3109 1391 
Q 3109 606 3145 398 
Q 3181 191 3288 0 
L 2700 0 
Q 2613 175 2588 409 
z
M 2541 1666 
Q 2234 1541 1622 1453 
Q 1275 1403 1131 1340 
Q 988 1278 909 1158 
Q 831 1038 831 891 
Q 831 666 1001 516 
Q 1172 366 1500 366 
Q 1825 366 2078 508 
Q 2331 650 2450 897 
Q 2541 1088 2541 1459 
L 2541 1666 
z
M 1430 -1016 
L 1430 -375 
L 2071 -375 
L 2071 -1016 
L 1430 -1016 
z
" transform="scale(0.015625)"/>
      <path id="ArialMT-63" d="M 2588 1216 
L 3141 1144 
Q 3050 572 2676 248 
Q 2303 -75 1759 -75 
Q 1078 -75 664 370 
Q 250 816 250 1647 
Q 250 2184 428 2587 
Q 606 2991 970 3192 
Q 1334 3394 1763 3394 
Q 2303 3394 2647 3120 
Q 2991 2847 3088 2344 
L 2541 2259 
Q 2463 2594 2264 2762 
Q 2066 2931 1784 2931 
Q 1359 2931 1093 2626 
Q 828 2322 828 1663 
Q 828 994 1084 691 
Q 1341 388 1753 388 
Q 2084 388 2306 591 
Q 2528 794 2588 1216 
z
" transform="scale(0.015625)"/>
      <path id="ArialMT-1ecb" d="M 425 3934 
L 425 4581 
L 988 4581 
L 988 3934 
L 425 3934 
z
M 425 0 
L 425 3319 
L 988 3319 
L 988 0 
L 425 0 
z
M 390 -1016 
L 390 -375 
L 1031 -375 
L 1031 -1016 
L 390 -1016 
z
" transform="scale(0.015625)"/>
      <path id="ArialMT-72" d="M 416 0 
L 416 3319 
L 922 3319 
L 922 2816 
Q 1116 3169 1280 3281 
Q 1444 3394 1641 3394 
Q 1925 3394 2219 3213 
L 2025 2691 
Q 1819 2813 1613 2813 
Q 1428 2813 1281 2702 
Q 1134 2591 1072 2394 
Q 978 2094 978 1738 
L 978 0 
L 416 0 
z
" transform="scale(0.015625)"/>
      <path id="ArialMT-1edd" d="M 791 1659 
Q 791 1044 1069 706 
Q 1331 388 1769 388 
Q 2206 388 2466 706 
Q 2744 1047 2744 1678 
Q 2744 2275 2463 2609 
Q 2200 2928 1769 2928 
Q 1328 2928 1069 2613 
Q 791 2275 791 1659 
z
M 3397 2747 
L 3397 3400 
L 4000 3400 
L 4000 2884 
Q 4000 2497 3881 2291 
Q 3728 2022 3322 1797 
Q 3322 1753 3322 1706 
Q 3322 544 2572 128 
Q 2203 -75 1769 -75 
Q 1056 -75 641 372 
Q 213 834 213 1659 
Q 213 2581 725 3025 
Q 1153 3394 1769 3394 
Q 2453 3394 2888 2947 
Q 3216 2606 3297 2069 
Q 3509 2200 3601 2340 
Q 3694 2481 3691 2747 
L 3397 2747 
z
M 2149 3731 
L 1696 3731 
L 974 4606 
L 1727 4606 
L 2149 3731 
z
" transform="scale(0.015625)"/>
      <path id="ArialMT-e2" d="M 2588 409 
Q 2275 144 1986 34 
Q 1697 -75 1366 -75 
Q 819 -75 525 192 
Q 231 459 231 875 
Q 231 1119 342 1320 
Q 453 1522 633 1644 
Q 813 1766 1038 1828 
Q 1203 1872 1538 1913 
Q 2219 1994 2541 2106 
Q 2544 2222 2544 2253 
Q 2544 2597 2384 2738 
Q 2169 2928 1744 2928 
Q 1347 2928 1158 2789 
Q 969 2650 878 2297 
L 328 2372 
Q 403 2725 575 2942 
Q 747 3159 1072 3276 
Q 1397 3394 1825 3394 
Q 2250 3394 2515 3294 
Q 2781 3194 2906 3042 
Q 3031 2891 3081 2659 
Q 3109 2516 3109 2141 
L 3109 1391 
Q 3109 606 3145 398 
Q 3181 191 3288 0 
L 2700 0 
Q 2613 175 2588 409 
z
M 2541 1666 
Q 2234 1541 1622 1453 
Q 1275 1403 1131 1340 
Q 988 1278 909 1158 
Q 831 1038 831 891 
Q 831 666 1001 516 
Q 1172 366 1500 366 
Q 1825 366 2078 508 
Q 2331 650 2450 897 
Q 2541 1088 2541 1459 
L 2541 1666 
z
M 1771 4263 
L 1418 3731 
L 774 3731 
L 1449 4606 
L 2049 4606 
L 2752 3731 
L 2115 3731 
L 1771 4263 
z
" transform="scale(0.015625)"/>
      <path id="ArialMT-56" d="M 1803 0 
L 28 4581 
L 684 4581 
L 1875 1253 
Q 2019 853 2116 503 
Q 2222 878 2363 1253 
L 3600 4581 
L 4219 4581 
L 2425 0 
L 1803 0 
z
" transform="scale(0.015625)"/>
      <path id="ArialMT-1ec7" d="M 2694 1069 
L 3275 997 
Q 3138 488 2766 206 
Q 2394 -75 1816 -75 
Q 1088 -75 661 373 
Q 234 822 234 1631 
Q 234 2469 665 2931 
Q 1097 3394 1784 3394 
Q 2450 3394 2872 2941 
Q 3294 2488 3294 1666 
Q 3294 1616 3291 1516 
L 816 1516 
Q 847 969 1125 678 
Q 1403 388 1819 388 
Q 2128 388 2347 550 
Q 2566 713 2694 1069 
z
M 847 1978 
L 2700 1978 
Q 2663 2397 2488 2606 
Q 2219 2931 1791 2931 
Q 1403 2931 1139 2672 
Q 875 2413 847 1978 
z
M 1771 4263 
L 1418 3731 
L 774 3731 
L 1449 4606 
L 2049 4606 
L 2752 3731 
L 2115 3731 
L 1771 4263 
z
M 1486 -1016 
L 1486 -375 
L 2127 -375 
L 2127 -1016 
L 1486 -1016 
z
" transform="scale(0.015625)"/>
      <path id="ArialMT-61" d="M 2588 409 
Q 2275 144 1986 34 
Q 1697 -75 1366 -75 
Q 819 -75 525 192 
Q 231 459 231 875 
Q 231 1119 342 1320 
Q 453 1522 633 1644 
Q 813 1766 1038 1828 
Q 1203 1872 1538 1913 
Q 2219 1994 2541 2106 
Q 2544 2222 2544 2253 
Q 2544 2597 2384 2738 
Q 2169 2928 1744 2928 
Q 1347 2928 1158 2789 
Q 969 2650 878 2297 
L 328 2372 
Q 403 2725 575 2942 
Q 747 3159 1072 3276 
Q 1397 3394 1825 3394 
Q 2250 3394 2515 3294 
Q 2781 3194 2906 3042 
Q 3031 2891 3081 2659 
Q 3109 2516 3109 2141 
L 3109 1391 
Q 3109 606 3145 398 
Q 3181 191 3288 0 
L 2700 0 
Q 2613 175 2588 409 
z
M 2541 1666 
Q 2234 1541 1622 1453 
Q 1275 1403 1131 1340 
Q 988 1278 909 1158 
Q 831 1038 831 891 
Q 831 666 1001 516 
Q 1172 366 1500 366 
Q 1825 366 2078 508 
Q 2331 650 2450 897 
Q 2541 1088 2541 1459 
L 2541 1666 
z
" transform="scale(0.015625)"/>
      <path id="ArialMT-6f" d="M 213 1659 
Q 213 2581 725 3025 
Q 1153 3394 1769 3394 
Q 2453 3394 2887 2945 
Q 3322 2497 3322 1706 
Q 3322 1066 3130 698 
Q 2938 331 2570 128 
Q 2203 -75 1769 -75 
Q 1072 -75 642 372 
Q 213 819 213 1659 
z
M 791 1659 
Q 791 1022 1069 705 
Q 1347 388 1769 388 
Q 2188 388 2466 706 
Q 2744 1025 2744 1678 
Q 2744 2294 2464 2611 
Q 2184 2928 1769 2928 
Q 1347 2928 1069 2612 
Q 791 2297 791 1659 
z
" transform="scale(0.015625)"/>
      <path id="ArialMT-111" d="M 2538 3809 
L 1456 3809 
L 1456 4222 
L 2538 4222 
L 2538 4581 
L 3097 4581 
L 3097 4222 
L 3550 4222 
L 3550 3809 
L 3097 3809 
L 3097 0 
L 2575 0 
L 2575 419 
Q 2259 -75 1647 -75 
Q 1250 -75 917 144 
Q 584 363 401 755 
Q 219 1147 219 1656 
Q 219 2153 384 2558 
Q 550 2963 881 3178 
Q 1213 3394 1622 3394 
Q 1922 3394 2156 3267 
Q 2391 3141 2538 2938 
L 2538 3809 
z
M 797 1656 
Q 797 1019 1065 703 
Q 1334 388 1700 388 
Q 2069 388 2326 689 
Q 2584 991 2584 1609 
Q 2584 2291 2321 2609 
Q 2059 2928 1675 2928 
Q 1300 2928 1048 2622 
Q 797 2316 797 1656 
z
" transform="scale(0.015625)"/>
      <path id="ArialMT-2d" d="M 203 1375 
L 203 1941 
L 1931 1941 
L 1931 1375 
L 203 1375 
z
" transform="scale(0.015625)"/>
     </defs>
     <use xlink:href="#ArialMT-54"/>
     <use xlink:href="#ArialMT-1ea7" x="61.083984"/>
     <use xlink:href="#ArialMT-6e" x="116.699219"/>
     <use xlink:href="#ArialMT-20" x="172.314453"/>
     <use xlink:href="#ArialMT-73" x="200.097656"/>
     <use xlink:href="#ArialMT-75" x="250.097656"/>
     <use xlink:href="#ArialMT-1ea5" x="305.712891"/>
     <use xlink:href="#ArialMT-74" x="361.328125"/>
     <use xlink:href="#ArialMT-20" x="389.111328"/>
     <use xlink:href="#ArialMT-70" x="416.894531"/>
     <use xlink:href="#ArialMT-68" x="472.509766"/>
     <use xlink:href="#ArialMT-e1" x="528.125"/>
     <use xlink:href="#ArialMT-74" x="583.740234"/>
     <use xlink:href="#ArialMT-20" x="611.523438"/>
     <use xlink:href="#ArialMT-68" x="639.306641"/>
     <use xlink:href="#ArialMT-e0" x="694.921875"/>
     <use xlink:href="#ArialMT-6e" x="750.537109"/>
     <use xlink:href="#ArialMT-68" x="806.152344"/>
     <use xlink:href="#ArialMT-20" x="861.767578"/>
     <use xlink:href="#ArialMT-6e" x="889.550781"/>
     <use xlink:href="#ArialMT-68" x="945.166016"/>
     <use xlink:href="#ArialMT-1ea1" x="1000.78125"/>
     <use xlink:href="#ArialMT-63" x="1056.396484"/>
     <use xlink:href="#ArialMT-20" x="1106.396484"/>
     <use xlink:href="#ArialMT-74" x="1134.179688"/>
     <use xlink:href="#ArialMT-1ea1" x="1161.962891"/>
     <use xlink:href="#ArialMT-69" x="1217.578125"/>
     <use xlink:href="#ArialMT-20" x="1239.794922"/>
     <use xlink:href="#ArialMT-74" x="1267.578125"/>
     <use xlink:href="#ArialMT-68" x="1295.361328"/>
     <use xlink:href="#ArialMT-1ecb" x="1350.976562"/>
     <use xlink:href="#ArialMT-20" x="1373.193359"/>
     <use xlink:href="#ArialMT-74" x="1400.976562"/>
     <use xlink:href="#ArialMT-72" x="1428.759766"/>
     <use xlink:href="#ArialMT-1b0" x="1462.060547"/>
     <use xlink:href="#ArialMT-1edd" x="1529.003906"/>
     <use xlink:href="#ArialMT-6e" x="1594.580078"/>
     <use xlink:href="#ArialMT-67" x="1650.195312"/>
     <use xlink:href="#ArialMT-20" x="1705.810547"/>
     <use xlink:href="#ArialMT-e2" x="1733.59375"/>
     <use xlink:href="#ArialMT-6d" x="1789.208984"/>
     <use xlink:href="#ArialMT-20" x="1872.509766"/>
     <use xlink:href="#ArialMT-6e" x="1900.292969"/>
     <use xlink:href="#ArialMT-68" x="1955.908203"/>
     <use xlink:href="#ArialMT-1ea1" x="2011.523438"/>
     <use xlink:href="#ArialMT-63" x="2067.138672"/>
     <use xlink:href="#ArialMT-20" x="2117.138672"/>
     <use xlink:href="#ArialMT-56" x="2144.921875"/>
     <use xlink:href="#ArialMT-69" x="2209.871094"/>
     <use xlink:href="#ArialMT-1ec7" x="2232.087891"/>
     <use xlink:href="#ArialMT-74" x="2287.703125"/>
     <use xlink:href="#ArialMT-20" x="2315.486328"/>
     <use xlink:href="#ArialMT-4e" x="2343.269531"/>
     <use xlink:href="#ArialMT-61" x="2415.486328"/>
     <use xlink:href="#ArialMT-6d" x="2471.101562"/>
     <use xlink:href="#ArialMT-20" x="2554.402344"/>
     <use xlink:href="#ArialMT-74" x="2582.185547"/>
     <use xlink:href="#ArialMT-72" x="2609.96875"/>
     <use xlink:href="#ArialMT-6f" x="2643.269531"/>
     <use xlink:href="#ArialMT-6e" x="2698.884766"/>
     <use xlink:href="#ArialMT-67" x="2754.5"/>
     <use xlink:href="#ArialMT-20" x="2810.115234"/>
     <use xlink:href="#ArialMT-67" x="2837.898438"/>
     <use xlink:href="#ArialMT-69" x="2893.513672"/>
     <use xlink:href="#ArialMT-61" x="2915.730469"/>
     <use xlink:href="#ArialMT-69" x="2971.345703"/>
     <use xlink:href="#ArialMT-20" x="2993.5625"/>
     <use xlink:href="#ArialMT-111" x="3021.345703"/>
     <use xlink:href="#ArialMT-6f" x="3076.960938"/>
     <use xlink:href="#ArialMT-1ea1" x="3132.576172"/>
     <use xlink:href="#ArialMT-6e" x="3188.191406"/>
     <use xlink:href="#ArialMT-20" x="3243.806641"/>
     <use xlink:href="#ArialMT-32" x="3271.589844"/>
     <use xlink:href="#ArialMT-30" x="3327.205078"/>
     <use xlink:href="#ArialMT-30" x="3382.820312"/>
     <use xlink:href="#ArialMT-30" x="3438.435547"/>
     <use xlink:href="#ArialMT-20" x="3494.050781"/>
     <use xlink:href="#ArialMT-2d" x="3521.833984"/>
     <use xlink:href="#ArialMT-20" x="3555.134766"/>
     <use xlink:href="#ArialMT-32" x="3582.917969"/>
     <use xlink:href="#ArialMT-30" x="3638.533203"/>
     <use xlink:href="#ArialMT-32" x="3694.148438"/>
     <use xlink:href="#ArialMT-34" x="3749.763672"/>
    </g>
   </g>
  </g>
 </g>
 <defs>
  <clipPath id="p082d88c616">
   <rect x="162" y="51.84" width="1004.4" height="332.64"/>
  </clipPath>
 </defs>
</svg>
