<?xml version="1.0" encoding="utf-8" standalone="no"?>
<!DOCTYPE svg PUBLIC "-//W3C//DTD SVG 1.1//EN"
  "http://www.w3.org/Graphics/SVG/1.1/DTD/svg11.dtd">
<svg xmlns:xlink="http://www.w3.org/1999/xlink" width="864pt" height="432pt" viewBox="0 0 864 432" xmlns="http://www.w3.org/2000/svg" version="1.1">
 <metadata>
  <rdf:RDF xmlns:dc="http://purl.org/dc/elements/1.1/" xmlns:cc="http://creativecommons.org/ns#" xmlns:rdf="http://www.w3.org/1999/02/22-rdf-syntax-ns#">
   <cc:Work>
    <dc:type rdf:resource="http://purl.org/dc/dcmitype/StillImage"/>
    <dc:date>2025-03-24T23:28:25.833167</dc:date>
    <dc:format>image/svg+xml</dc:format>
    <dc:creator>
     <cc:Agent>
      <dc:title>Matplotlib v3.8.4, https://matplotlib.org/</dc:title>
     </cc:Agent>
    </dc:creator>
   </cc:Work>
  </rdf:RDF>
 </metadata>
 <defs>
  <style type="text/css">*{stroke-linejoin: round; stroke-linecap: butt}</style>
 </defs>
 <g id="figure_1">
  <g id="patch_1">
   <path d="M 0 432 
L 864 432 
L 864 0 
L 0 0 
z
" style="fill: #ffffff"/>
  </g>
  <g id="axes_1">
   <g id="patch_2">
    <path d="M 57.53 390.04 
L 853.2 390.04 
L 853.2 27.2625 
L 57.53 27.2625 
z
" style="fill: #ffffff"/>
   </g>
   <g id="PathCollection_1">
    <path d="M 93.696818 381.117147 
C 95.703619 381.117147 97.628497 380.319837 99.047519 378.900815 
C 100.466542 377.481792 101.263852 375.556914 101.263852 373.550114 
C 101.263852 371.543313 100.466542 369.618435 99.047519 368.199413 
C 97.628497 366.78039 95.703619 365.98308 93.696818 365.98308 
C 91.690017 365.98308 89.76514 366.78039 88.346117 368.199413 
C 86.927095 369.618435 86.129784 371.543313 86.129784 373.550114 
C 86.129784 375.556914 86.927095 377.481792 88.346117 378.900815 
C 89.76514 380.319837 91.690017 381.117147 93.696818 381.117147 
z
" clip-path="url(#p5e8142e421)" style="fill: #ff0000; fill-opacity: 0.5; stroke: #ffffff; stroke-opacity: 0.5"/>
    <path d="M 134.299178 369.591418 
C 136.45227 369.591418 138.517466 368.735986 140.039932 367.21352 
C 141.562397 365.691055 142.41783 363.625858 142.41783 361.472767 
C 142.41783 359.319675 141.562397 357.254479 140.039932 355.732013 
C 138.517466 354.209548 136.45227 353.354115 134.299178 353.354115 
C 132.146087 353.354115 130.080891 354.209548 128.558425 355.732013 
C 127.035959 357.254479 126.180527 359.319675 126.180527 361.472767 
C 126.180527 363.625858 127.035959 365.691055 128.558425 367.21352 
C 130.080891 368.735986 132.146087 369.591418 134.299178 369.591418 
z
" clip-path="url(#p5e8142e421)" style="fill: #ff0000; fill-opacity: 0.5; stroke: #ffffff; stroke-opacity: 0.5"/>
    <path d="M 174.279718 354.842797 
C 176.606261 354.842797 178.837828 353.918452 180.482943 352.273338 
C 182.128057 350.628223 183.052403 348.396656 183.052403 346.070113 
C 183.052403 343.743569 182.128057 341.512002 180.482943 339.866888 
C 178.837828 338.221773 176.606261 337.297428 174.279718 337.297428 
C 171.953175 337.297428 169.721607 338.221773 168.076493 339.866888 
C 166.431378 341.512002 165.507033 343.743569 165.507033 346.070113 
C 165.507033 348.396656 166.431378 350.628223 168.076493 352.273338 
C 169.721607 353.918452 171.953175 354.842797 174.279718 354.842797 
z
" clip-path="url(#p5e8142e421)" style="fill: #ff0000; fill-opacity: 0.5; stroke: #ffffff; stroke-opacity: 0.5"/>
    <path d="M 213.697048 338.746327 
C 216.200831 338.746327 218.602402 337.751564 220.372844 335.981122 
C 222.143285 334.210681 223.138049 331.809109 223.138049 329.305326 
C 223.138049 326.801544 222.143285 324.399972 220.372844 322.629531 
C 218.602402 320.859089 216.200831 319.864325 213.697048 319.864325 
C 211.193265 319.864325 208.791694 320.859089 207.021252 322.629531 
C 205.25081 324.399972 204.256047 326.801544 204.256047 329.305326 
C 204.256047 331.809109 205.25081 334.210681 207.021252 335.981122 
C 208.791694 337.751564 211.193265 338.746327 213.697048 338.746327 
z
" clip-path="url(#p5e8142e421)" style="fill: #ff0000; fill-opacity: 0.5; stroke: #ffffff; stroke-opacity: 0.5"/>
    <path d="M 252.299741 324.041768 
C 254.958361 324.041768 257.508448 322.985487 259.388376 321.105559 
C 261.268304 319.225631 262.324585 316.675544 262.324585 314.016924 
C 262.324585 311.358304 261.268304 308.808217 259.388376 306.928289 
C 257.508448 305.048361 254.958361 303.99208 252.299741 303.99208 
C 249.641121 303.99208 247.091034 305.048361 245.211106 306.928289 
C 243.331178 308.808217 242.274897 311.358304 242.274897 314.016924 
C 242.274897 316.675544 243.331178 319.225631 245.211106 321.105559 
C 247.091034 322.985487 249.641121 324.041768 252.299741 324.041768 
z
" clip-path="url(#p5e8142e421)" style="fill: #ff0000; fill-opacity: 0.5; stroke: #ffffff; stroke-opacity: 0.5"/>
    <path d="M 289.615071 298.945949 
C 292.51359 298.945949 295.293784 297.794355 297.343347 295.744792 
C 299.392909 293.695229 300.544503 290.915035 300.544503 288.016516 
C 300.544503 285.117997 299.392909 282.337803 297.343347 280.28824 
C 295.293784 278.238677 292.51359 277.087083 289.615071 277.087083 
C 286.716551 277.087083 283.936357 278.238677 281.886795 280.28824 
C 279.837232 282.337803 278.685638 285.117997 278.685638 288.016516 
C 278.685638 290.915035 279.837232 293.695229 281.886795 295.744792 
C 283.936357 297.794355 286.716551 298.945949 289.615071 298.945949 
z
" clip-path="url(#p5e8142e421)" style="fill: #ff0000; fill-opacity: 0.5; stroke: #ffffff; stroke-opacity: 0.5"/>
    <path d="M 343.375613 277.701228 
C 346.473953 277.701228 349.44581 276.470245 351.636666 274.279388 
C 353.827523 272.088531 355.058507 269.116674 355.058507 266.018335 
C 355.058507 262.919995 353.827523 259.948138 351.636666 257.757281 
C 349.44581 255.566425 346.473953 254.335441 343.375613 254.335441 
C 340.277274 254.335441 337.305417 255.566425 335.11456 257.757281 
C 332.923703 259.948138 331.69272 262.919995 331.69272 266.018335 
C 331.69272 269.116674 332.923703 272.088531 335.11456 274.279388 
C 337.305417 276.470245 340.277274 277.701228 343.375613 277.701228 
z
" clip-path="url(#p5e8142e421)" style="fill: #ff0000; fill-opacity: 0.5; stroke: #ffffff; stroke-opacity: 0.5"/>
    <path d="M 416.352698 255.320394 
C 419.659585 255.320394 422.831475 254.006554 425.169797 251.668232 
C 427.50812 249.32991 428.82196 246.158019 428.82196 242.851132 
C 428.82196 239.544245 427.50812 236.372355 425.169797 234.034032 
C 422.831475 231.69571 419.659585 230.38187 416.352698 230.38187 
C 413.045811 230.38187 409.87392 231.69571 407.535598 234.034032 
C 405.197276 236.372355 403.883435 239.544245 403.883435 242.851132 
C 403.883435 246.158019 405.197276 249.32991 407.535598 251.668232 
C 409.87392 254.006554 413.045811 255.320394 416.352698 255.320394 
z
" clip-path="url(#p5e8142e421)" style="fill: #ff0000; fill-opacity: 0.5; stroke: #ffffff; stroke-opacity: 0.5"/>
    <path d="M 493.16095 235.827763 
C 496.64953 235.827763 499.995696 234.441735 502.462495 231.974937 
C 504.929294 229.508138 506.315321 226.161971 506.315321 222.673391 
C 506.315321 219.184811 504.929294 215.838644 502.462495 213.371846 
C 499.995696 210.905047 496.64953 209.519019 493.16095 209.519019 
C 489.672369 209.519019 486.326203 210.905047 483.859404 213.371846 
C 481.392605 215.838644 480.006578 219.184811 480.006578 222.673391 
C 480.006578 226.161971 481.392605 229.508138 483.859404 231.974937 
C 486.326203 234.441735 489.672369 235.827763 493.16095 235.827763 
z
" clip-path="url(#p5e8142e421)" style="fill: #ff0000; fill-opacity: 0.5; stroke: #ffffff; stroke-opacity: 0.5"/>
    <path d="M 557.112344 207.417188 
C 560.837456 207.417188 564.410499 205.937186 567.044551 203.303133 
C 569.678604 200.669081 571.158606 197.096038 571.158606 193.370926 
C 571.158606 189.645813 569.678604 186.07277 567.044551 183.438718 
C 564.410499 180.804666 560.837456 179.324663 557.112344 179.324663 
C 553.387231 179.324663 549.814188 180.804666 547.180136 183.438718 
C 544.546084 186.07277 543.066081 189.645813 543.066081 193.370926 
C 543.066081 197.096038 544.546084 200.669081 547.180136 203.303133 
C 549.814188 205.937186 553.387231 207.417188 557.112344 207.417188 
z
" clip-path="url(#p5e8142e421)" style="fill: #ff0000; fill-opacity: 0.5; stroke: #ffffff; stroke-opacity: 0.5"/>
    <path d="M 606.667491 174.535877 
C 610.644233 174.535877 614.458634 172.955901 617.270615 170.143919 
C 620.082597 167.331938 621.662573 163.517537 621.662573 159.540795 
C 621.662573 155.564053 620.082597 151.749652 617.270615 148.93767 
C 614.458634 146.125689 610.644233 144.545712 606.667491 144.545712 
C 602.690748 144.545712 598.876348 146.125689 596.064366 148.93767 
C 593.252385 151.749652 591.672408 155.564053 591.672408 159.540795 
C 591.672408 163.517537 593.252385 167.331938 596.064366 170.143919 
C 598.876348 172.955901 602.690748 174.535877 606.667491 174.535877 
z
" clip-path="url(#p5e8142e421)" style="fill: #ff0000; fill-opacity: 0.5; stroke: #ffffff; stroke-opacity: 0.5"/>
    <path d="M 657.120386 151.964312 
C 661.271641 151.964312 665.25343 150.315001 668.18881 147.37962 
C 671.12419 144.44424 672.773501 140.462451 672.773501 136.311197 
C 672.773501 132.159942 671.12419 128.178154 668.18881 125.242773 
C 665.25343 122.307393 661.271641 120.658082 657.120386 120.658082 
C 652.969132 120.658082 648.987343 122.307393 646.051963 125.242773 
C 643.116583 128.178154 641.467272 132.159942 641.467272 136.311197 
C 641.467272 140.462451 643.116583 144.44424 646.051963 147.37962 
C 648.987343 150.315001 652.969132 151.964312 657.120386 151.964312 
z
" clip-path="url(#p5e8142e421)" style="fill: #ff0000; fill-opacity: 0.5; stroke: #ffffff; stroke-opacity: 0.5"/>
    <path d="M 709.011433 122.809709 
C 713.375797 122.809709 717.561995 121.075729 720.648067 117.989658 
C 723.734138 114.903586 725.468118 110.717388 725.468118 106.353024 
C 725.468118 101.98866 723.734138 97.802461 720.648067 94.71639 
C 717.561995 91.630318 713.375797 89.896338 709.011433 89.896338 
C 704.647069 89.896338 700.46087 91.630318 697.374799 94.71639 
C 694.288727 97.802461 692.554747 101.98866 692.554747 106.353024 
C 692.554747 110.717388 694.288727 114.903586 697.374799 117.989658 
C 700.46087 121.075729 704.647069 122.809709 709.011433 122.809709 
z
" clip-path="url(#p5e8142e421)" style="fill: #ff0000; fill-opacity: 0.5; stroke: #ffffff; stroke-opacity: 0.5"/>
    <path d="M 761.933585 103.145527 
C 766.447456 103.145527 770.777058 101.352147 773.968846 98.160359 
C 777.160634 94.96857 778.954014 90.638969 778.954014 86.125098 
C 778.954014 81.611228 777.160634 77.281626 773.968846 74.089838 
C 770.777058 70.898049 766.447456 69.104669 761.933585 69.104669 
C 757.419715 69.104669 753.090113 70.898049 749.898325 74.089838 
C 746.706536 77.281626 744.913157 81.611228 744.913157 86.125098 
C 744.913157 90.638969 746.706536 94.96857 749.898325 98.160359 
C 753.090113 101.352147 757.419715 103.145527 761.933585 103.145527 
z
" clip-path="url(#p5e8142e421)" style="fill: #ff0000; fill-opacity: 0.5; stroke: #ffffff; stroke-opacity: 0.5"/>
    <path d="M 817.033182 61.819829 
C 821.824724 61.819829 826.420662 59.91613 829.808793 56.527998 
C 833.196925 53.139866 835.100625 48.543928 835.100625 43.752386 
C 835.100625 38.960844 833.196925 34.364907 829.808793 30.976775 
C 826.420662 27.588643 821.824724 25.684943 817.033182 25.684943 
C 812.24164 25.684943 807.645702 27.588643 804.25757 30.976775 
C 800.869439 34.364907 798.965739 38.960844 798.965739 43.752386 
C 798.965739 48.543928 800.869439 53.139866 804.25757 56.527998 
C 807.645702 59.91613 812.24164 61.819829 817.033182 61.819829 
z
" clip-path="url(#p5e8142e421)" style="fill: #ff0000; fill-opacity: 0.5; stroke: #ffffff; stroke-opacity: 0.5"/>
   </g>
   <g id="matplotlib.axis_1">
    <g id="xtick_1">
     <g id="line2d_1">
      <path d="M 135.824923 390.04 
L 135.824923 27.2625 
" clip-path="url(#p5e8142e421)" style="fill: none; stroke: #b0b0b0; stroke-width: 0.8; stroke-linecap: square"/>
     </g>
     <g id="line2d_2">
      <defs>
       <path id="mc844c545bc" d="M 0 0 
L 0 3.5 
" style="stroke: #000000; stroke-width: 0.8"/>
      </defs>
      <g>
       <use xlink:href="#mc844c545bc" x="135.824923" y="390.04" style="stroke: #000000; stroke-width: 0.8"/>
      </g>
     </g>
     <g id="text_1">
      <!-- 7.8 -->
      <g transform="translate(127.87336 404.638438) scale(0.1 -0.1)">
       <defs>
        <path id="DejaVuSans-37" d="M 525 4666 
L 3525 4666 
L 3525 4397 
L 1831 0 
L 1172 0 
L 2766 4134 
L 525 4134 
L 525 4666 
z
" transform="scale(0.015625)"/>
        <path id="DejaVuSans-2e" d="M 684 794 
L 1344 794 
L 1344 0 
L 684 0 
L 684 794 
z
" transform="scale(0.015625)"/>
        <path id="DejaVuSans-38" d="M 2034 2216 
Q 1584 2216 1326 1975 
Q 1069 1734 1069 1313 
Q 1069 891 1326 650 
Q 1584 409 2034 409 
Q 2484 409 2743 651 
Q 3003 894 3003 1313 
Q 3003 1734 2745 1975 
Q 2488 2216 2034 2216 
z
M 1403 2484 
Q 997 2584 770 2862 
Q 544 3141 544 3541 
Q 544 4100 942 4425 
Q 1341 4750 2034 4750 
Q 2731 4750 3128 4425 
Q 3525 4100 3525 3541 
Q 3525 3141 3298 2862 
Q 3072 2584 2669 2484 
Q 3125 2378 3379 2068 
Q 3634 1759 3634 1313 
Q 3634 634 3220 271 
Q 2806 -91 2034 -91 
Q 1263 -91 848 271 
Q 434 634 434 1313 
Q 434 1759 690 2068 
Q 947 2378 1403 2484 
z
M 1172 3481 
Q 1172 3119 1398 2916 
Q 1625 2713 2034 2713 
Q 2441 2713 2670 2916 
Q 2900 3119 2900 3481 
Q 2900 3844 2670 4047 
Q 2441 4250 2034 4250 
Q 1625 4250 1398 4047 
Q 1172 3844 1172 3481 
z
" transform="scale(0.015625)"/>
       </defs>
       <use xlink:href="#DejaVuSans-37"/>
       <use xlink:href="#DejaVuSans-2e" x="63.623047"/>
       <use xlink:href="#DejaVuSans-38" x="95.410156"/>
      </g>
     </g>
    </g>
    <g id="xtick_2">
     <g id="line2d_3">
      <path d="M 235.419846 390.04 
L 235.419846 27.2625 
" clip-path="url(#p5e8142e421)" style="fill: none; stroke: #b0b0b0; stroke-width: 0.8; stroke-linecap: square"/>
     </g>
     <g id="line2d_4">
      <g>
       <use xlink:href="#mc844c545bc" x="235.419846" y="390.04" style="stroke: #000000; stroke-width: 0.8"/>
      </g>
     </g>
     <g id="text_2">
      <!-- 8.0 -->
      <g transform="translate(227.468283 404.638438) scale(0.1 -0.1)">
       <defs>
        <path id="DejaVuSans-30" d="M 2034 4250 
Q 1547 4250 1301 3770 
Q 1056 3291 1056 2328 
Q 1056 1369 1301 889 
Q 1547 409 2034 409 
Q 2525 409 2770 889 
Q 3016 1369 3016 2328 
Q 3016 3291 2770 3770 
Q 2525 4250 2034 4250 
z
M 2034 4750 
Q 2819 4750 3233 4129 
Q 3647 3509 3647 2328 
Q 3647 1150 3233 529 
Q 2819 -91 2034 -91 
Q 1250 -91 836 529 
Q 422 1150 422 2328 
Q 422 3509 836 4129 
Q 1250 4750 2034 4750 
z
" transform="scale(0.015625)"/>
       </defs>
       <use xlink:href="#DejaVuSans-38"/>
       <use xlink:href="#DejaVuSans-2e" x="63.623047"/>
       <use xlink:href="#DejaVuSans-30" x="95.410156"/>
      </g>
     </g>
    </g>
    <g id="xtick_3">
     <g id="line2d_5">
      <path d="M 335.014769 390.04 
L 335.014769 27.2625 
" clip-path="url(#p5e8142e421)" style="fill: none; stroke: #b0b0b0; stroke-width: 0.8; stroke-linecap: square"/>
     </g>
     <g id="line2d_6">
      <g>
       <use xlink:href="#mc844c545bc" x="335.014769" y="390.04" style="stroke: #000000; stroke-width: 0.8"/>
      </g>
     </g>
     <g id="text_3">
      <!-- 8.2 -->
      <g transform="translate(327.063206 404.638438) scale(0.1 -0.1)">
       <defs>
        <path id="DejaVuSans-32" d="M 1228 531 
L 3431 531 
L 3431 0 
L 469 0 
L 469 531 
Q 828 903 1448 1529 
Q 2069 2156 2228 2338 
Q 2531 2678 2651 2914 
Q 2772 3150 2772 3378 
Q 2772 3750 2511 3984 
Q 2250 4219 1831 4219 
Q 1534 4219 1204 4116 
Q 875 4013 500 3803 
L 500 4441 
Q 881 4594 1212 4672 
Q 1544 4750 1819 4750 
Q 2544 4750 2975 4387 
Q 3406 4025 3406 3419 
Q 3406 3131 3298 2873 
Q 3191 2616 2906 2266 
Q 2828 2175 2409 1742 
Q 1991 1309 1228 531 
z
" transform="scale(0.015625)"/>
       </defs>
       <use xlink:href="#DejaVuSans-38"/>
       <use xlink:href="#DejaVuSans-2e" x="63.623047"/>
       <use xlink:href="#DejaVuSans-32" x="95.410156"/>
      </g>
     </g>
    </g>
    <g id="xtick_4">
     <g id="line2d_7">
      <path d="M 434.609692 390.04 
L 434.609692 27.2625 
" clip-path="url(#p5e8142e421)" style="fill: none; stroke: #b0b0b0; stroke-width: 0.8; stroke-linecap: square"/>
     </g>
     <g id="line2d_8">
      <g>
       <use xlink:href="#mc844c545bc" x="434.609692" y="390.04" style="stroke: #000000; stroke-width: 0.8"/>
      </g>
     </g>
     <g id="text_4">
      <!-- 8.4 -->
      <g transform="translate(426.658129 404.638438) scale(0.1 -0.1)">
       <defs>
        <path id="DejaVuSans-34" d="M 2419 4116 
L 825 1625 
L 2419 1625 
L 2419 4116 
z
M 2253 4666 
L 3047 4666 
L 3047 1625 
L 3713 1625 
L 3713 1100 
L 3047 1100 
L 3047 0 
L 2419 0 
L 2419 1100 
L 313 1100 
L 313 1709 
L 2253 4666 
z
" transform="scale(0.015625)"/>
       </defs>
       <use xlink:href="#DejaVuSans-38"/>
       <use xlink:href="#DejaVuSans-2e" x="63.623047"/>
       <use xlink:href="#DejaVuSans-34" x="95.410156"/>
      </g>
     </g>
    </g>
    <g id="xtick_5">
     <g id="line2d_9">
      <path d="M 534.204615 390.04 
L 534.204615 27.2625 
" clip-path="url(#p5e8142e421)" style="fill: none; stroke: #b0b0b0; stroke-width: 0.8; stroke-linecap: square"/>
     </g>
     <g id="line2d_10">
      <g>
       <use xlink:href="#mc844c545bc" x="534.204615" y="390.04" style="stroke: #000000; stroke-width: 0.8"/>
      </g>
     </g>
     <g id="text_5">
      <!-- 8.6 -->
      <g transform="translate(526.253052 404.638438) scale(0.1 -0.1)">
       <defs>
        <path id="DejaVuSans-36" d="M 2113 2584 
Q 1688 2584 1439 2293 
Q 1191 2003 1191 1497 
Q 1191 994 1439 701 
Q 1688 409 2113 409 
Q 2538 409 2786 701 
Q 3034 994 3034 1497 
Q 3034 2003 2786 2293 
Q 2538 2584 2113 2584 
z
M 3366 4563 
L 3366 3988 
Q 3128 4100 2886 4159 
Q 2644 4219 2406 4219 
Q 1781 4219 1451 3797 
Q 1122 3375 1075 2522 
Q 1259 2794 1537 2939 
Q 1816 3084 2150 3084 
Q 2853 3084 3261 2657 
Q 3669 2231 3669 1497 
Q 3669 778 3244 343 
Q 2819 -91 2113 -91 
Q 1303 -91 875 529 
Q 447 1150 447 2328 
Q 447 3434 972 4092 
Q 1497 4750 2381 4750 
Q 2619 4750 2861 4703 
Q 3103 4656 3366 4563 
z
" transform="scale(0.015625)"/>
       </defs>
       <use xlink:href="#DejaVuSans-38"/>
       <use xlink:href="#DejaVuSans-2e" x="63.623047"/>
       <use xlink:href="#DejaVuSans-36" x="95.410156"/>
      </g>
     </g>
    </g>
    <g id="xtick_6">
     <g id="line2d_11">
      <path d="M 633.799538 390.04 
L 633.799538 27.2625 
" clip-path="url(#p5e8142e421)" style="fill: none; stroke: #b0b0b0; stroke-width: 0.8; stroke-linecap: square"/>
     </g>
     <g id="line2d_12">
      <g>
       <use xlink:href="#mc844c545bc" x="633.799538" y="390.04" style="stroke: #000000; stroke-width: 0.8"/>
      </g>
     </g>
     <g id="text_6">
      <!-- 8.8 -->
      <g transform="translate(625.847975 404.638438) scale(0.1 -0.1)">
       <use xlink:href="#DejaVuSans-38"/>
       <use xlink:href="#DejaVuSans-2e" x="63.623047"/>
       <use xlink:href="#DejaVuSans-38" x="95.410156"/>
      </g>
     </g>
    </g>
    <g id="xtick_7">
     <g id="line2d_13">
      <path d="M 733.394461 390.04 
L 733.394461 27.2625 
" clip-path="url(#p5e8142e421)" style="fill: none; stroke: #b0b0b0; stroke-width: 0.8; stroke-linecap: square"/>
     </g>
     <g id="line2d_14">
      <g>
       <use xlink:href="#mc844c545bc" x="733.394461" y="390.04" style="stroke: #000000; stroke-width: 0.8"/>
      </g>
     </g>
     <g id="text_7">
      <!-- 9.0 -->
      <g transform="translate(725.442899 404.638438) scale(0.1 -0.1)">
       <defs>
        <path id="DejaVuSans-39" d="M 703 97 
L 703 672 
Q 941 559 1184 500 
Q 1428 441 1663 441 
Q 2288 441 2617 861 
Q 2947 1281 2994 2138 
Q 2813 1869 2534 1725 
Q 2256 1581 1919 1581 
Q 1219 1581 811 2004 
Q 403 2428 403 3163 
Q 403 3881 828 4315 
Q 1253 4750 1959 4750 
Q 2769 4750 3195 4129 
Q 3622 3509 3622 2328 
Q 3622 1225 3098 567 
Q 2575 -91 1691 -91 
Q 1453 -91 1209 -44 
Q 966 3 703 97 
z
M 1959 2075 
Q 2384 2075 2632 2365 
Q 2881 2656 2881 3163 
Q 2881 3666 2632 3958 
Q 2384 4250 1959 4250 
Q 1534 4250 1286 3958 
Q 1038 3666 1038 3163 
Q 1038 2656 1286 2365 
Q 1534 2075 1959 2075 
z
" transform="scale(0.015625)"/>
       </defs>
       <use xlink:href="#DejaVuSans-39"/>
       <use xlink:href="#DejaVuSans-2e" x="63.623047"/>
       <use xlink:href="#DejaVuSans-30" x="95.410156"/>
      </g>
     </g>
    </g>
    <g id="xtick_8">
     <g id="line2d_15">
      <path d="M 832.989384 390.04 
L 832.989384 27.2625 
" clip-path="url(#p5e8142e421)" style="fill: none; stroke: #b0b0b0; stroke-width: 0.8; stroke-linecap: square"/>
     </g>
     <g id="line2d_16">
      <g>
       <use xlink:href="#mc844c545bc" x="832.989384" y="390.04" style="stroke: #000000; stroke-width: 0.8"/>
      </g>
     </g>
     <g id="text_8">
      <!-- 9.2 -->
      <g transform="translate(825.037822 404.638438) scale(0.1 -0.1)">
       <use xlink:href="#DejaVuSans-39"/>
       <use xlink:href="#DejaVuSans-2e" x="63.623047"/>
       <use xlink:href="#DejaVuSans-32" x="95.410156"/>
      </g>
     </g>
    </g>
    <g id="text_9">
     <!-- Dân số -->
     <g transform="translate(438.029063 418.316562) scale(0.1 -0.1)">
      <defs>
       <path id="DejaVuSans-44" d="M 1259 4147 
L 1259 519 
L 2022 519 
Q 2988 519 3436 956 
Q 3884 1394 3884 2338 
Q 3884 3275 3436 3711 
Q 2988 4147 2022 4147 
L 1259 4147 
z
M 628 4666 
L 1925 4666 
Q 3281 4666 3915 4102 
Q 4550 3538 4550 2338 
Q 4550 1131 3912 565 
Q 3275 0 1925 0 
L 628 0 
L 628 4666 
z
" transform="scale(0.015625)"/>
       <path id="DejaVuSans-e2" d="M 2194 1759 
Q 1497 1759 1228 1600 
Q 959 1441 959 1056 
Q 959 750 1161 570 
Q 1363 391 1709 391 
Q 2188 391 2477 730 
Q 2766 1069 2766 1631 
L 2766 1759 
L 2194 1759 
z
M 3341 1997 
L 3341 0 
L 2766 0 
L 2766 531 
Q 2569 213 2275 61 
Q 1981 -91 1556 -91 
Q 1019 -91 701 211 
Q 384 513 384 1019 
Q 384 1609 779 1909 
Q 1175 2209 1959 2209 
L 2766 2209 
L 2766 2266 
Q 2766 2663 2505 2880 
Q 2244 3097 1772 3097 
Q 1472 3097 1187 3025 
Q 903 2953 641 2809 
L 641 3341 
Q 956 3463 1253 3523 
Q 1550 3584 1831 3584 
Q 2591 3584 2966 3190 
Q 3341 2797 3341 1997 
z
M 1625 5119 
L 2087 5119 
L 2853 3944 
L 2419 3944 
L 1856 4709 
L 1294 3944 
L 859 3944 
L 1625 5119 
z
" transform="scale(0.015625)"/>
       <path id="DejaVuSans-6e" d="M 3513 2113 
L 3513 0 
L 2938 0 
L 2938 2094 
Q 2938 2591 2744 2837 
Q 2550 3084 2163 3084 
Q 1697 3084 1428 2787 
Q 1159 2491 1159 1978 
L 1159 0 
L 581 0 
L 581 3500 
L 1159 3500 
L 1159 2956 
Q 1366 3272 1645 3428 
Q 1925 3584 2291 3584 
Q 2894 3584 3203 3211 
Q 3513 2838 3513 2113 
z
" transform="scale(0.015625)"/>
       <path id="DejaVuSans-20" transform="scale(0.015625)"/>
       <path id="DejaVuSans-73" d="M 2834 3397 
L 2834 2853 
Q 2591 2978 2328 3040 
Q 2066 3103 1784 3103 
Q 1356 3103 1142 2972 
Q 928 2841 928 2578 
Q 928 2378 1081 2264 
Q 1234 2150 1697 2047 
L 1894 2003 
Q 2506 1872 2764 1633 
Q 3022 1394 3022 966 
Q 3022 478 2636 193 
Q 2250 -91 1575 -91 
Q 1294 -91 989 -36 
Q 684 19 347 128 
L 347 722 
Q 666 556 975 473 
Q 1284 391 1588 391 
Q 1994 391 2212 530 
Q 2431 669 2431 922 
Q 2431 1156 2273 1281 
Q 2116 1406 1581 1522 
L 1381 1569 
Q 847 1681 609 1914 
Q 372 2147 372 2553 
Q 372 3047 722 3315 
Q 1072 3584 1716 3584 
Q 2034 3584 2315 3537 
Q 2597 3491 2834 3397 
z
" transform="scale(0.015625)"/>
       <path id="DejaVuSans-1ed1" d="M 1658 4775 
L 2246 4775 
L 2905 3944 
L 2471 3944 
L 1952 4500 
L 1433 3944 
L 999 3944 
L 1658 4775 
z
M 3268 5409 
L 3846 5409 
L 3134 4584 
L 2655 4584 
L 3268 5409 
z
M 1959 3097 
Q 1497 3097 1228 2736 
Q 959 2375 959 1747 
Q 959 1119 1226 758 
Q 1494 397 1959 397 
Q 2419 397 2687 759 
Q 2956 1122 2956 1747 
Q 2956 2369 2687 2733 
Q 2419 3097 1959 3097 
z
M 1959 3584 
Q 2709 3584 3137 3096 
Q 3566 2609 3566 1747 
Q 3566 888 3137 398 
Q 2709 -91 1959 -91 
Q 1206 -91 779 398 
Q 353 888 353 1747 
Q 353 2609 779 3096 
Q 1206 3584 1959 3584 
z
" transform="scale(0.015625)"/>
      </defs>
      <use xlink:href="#DejaVuSans-44"/>
      <use xlink:href="#DejaVuSans-e2" x="77.001953"/>
      <use xlink:href="#DejaVuSans-6e" x="138.28125"/>
      <use xlink:href="#DejaVuSans-20" x="201.660156"/>
      <use xlink:href="#DejaVuSans-73" x="233.447266"/>
      <use xlink:href="#DejaVuSans-1ed1" x="285.546875"/>
     </g>
    </g>
    <g id="text_10">
     <!-- 1e7 -->
     <g transform="translate(834.321875 417.316562) scale(0.1 -0.1)">
      <defs>
       <path id="DejaVuSans-31" d="M 794 531 
L 1825 531 
L 1825 4091 
L 703 3866 
L 703 4441 
L 1819 4666 
L 2450 4666 
L 2450 531 
L 3481 531 
L 3481 0 
L 794 0 
L 794 531 
z
" transform="scale(0.015625)"/>
       <path id="DejaVuSans-65" d="M 3597 1894 
L 3597 1613 
L 953 1613 
Q 991 1019 1311 708 
Q 1631 397 2203 397 
Q 2534 397 2845 478 
Q 3156 559 3463 722 
L 3463 178 
Q 3153 47 2828 -22 
Q 2503 -91 2169 -91 
Q 1331 -91 842 396 
Q 353 884 353 1716 
Q 353 2575 817 3079 
Q 1281 3584 2069 3584 
Q 2775 3584 3186 3129 
Q 3597 2675 3597 1894 
z
M 3022 2063 
Q 3016 2534 2758 2815 
Q 2500 3097 2075 3097 
Q 1594 3097 1305 2825 
Q 1016 2553 972 2059 
L 3022 2063 
z
" transform="scale(0.015625)"/>
      </defs>
      <use xlink:href="#DejaVuSans-31"/>
      <use xlink:href="#DejaVuSans-65" x="63.623047"/>
      <use xlink:href="#DejaVuSans-37" x="125.146484"/>
     </g>
    </g>
   </g>
   <g id="matplotlib.axis_2">
    <g id="ytick_1">
     <g id="line2d_17">
      <path d="M 57.53 343.378085 
L 853.2 343.378085 
" clip-path="url(#p5e8142e421)" style="fill: none; stroke: #b0b0b0; stroke-width: 0.8; stroke-linecap: square"/>
     </g>
     <g id="line2d_18">
      <defs>
       <path id="m084cabc103" d="M 0 0 
L -3.5 0 
" style="stroke: #000000; stroke-width: 0.8"/>
      </defs>
      <g>
       <use xlink:href="#m084cabc103" x="57.53" y="343.378085" style="stroke: #000000; stroke-width: 0.8"/>
      </g>
     </g>
     <g id="text_11">
      <!-- 400 -->
      <g transform="translate(31.4425 347.177304) scale(0.1 -0.1)">
       <use xlink:href="#DejaVuSans-34"/>
       <use xlink:href="#DejaVuSans-30" x="63.623047"/>
       <use xlink:href="#DejaVuSans-30" x="127.246094"/>
      </g>
     </g>
    </g>
    <g id="ytick_2">
     <g id="line2d_19">
      <path d="M 57.53 284.870704 
L 853.2 284.870704 
" clip-path="url(#p5e8142e421)" style="fill: none; stroke: #b0b0b0; stroke-width: 0.8; stroke-linecap: square"/>
     </g>
     <g id="line2d_20">
      <g>
       <use xlink:href="#m084cabc103" x="57.53" y="284.870704" style="stroke: #000000; stroke-width: 0.8"/>
      </g>
     </g>
     <g id="text_12">
      <!-- 600 -->
      <g transform="translate(31.4425 288.669922) scale(0.1 -0.1)">
       <use xlink:href="#DejaVuSans-36"/>
       <use xlink:href="#DejaVuSans-30" x="63.623047"/>
       <use xlink:href="#DejaVuSans-30" x="127.246094"/>
      </g>
     </g>
    </g>
    <g id="ytick_3">
     <g id="line2d_21">
      <path d="M 57.53 226.363322 
L 853.2 226.363322 
" clip-path="url(#p5e8142e421)" style="fill: none; stroke: #b0b0b0; stroke-width: 0.8; stroke-linecap: square"/>
     </g>
     <g id="line2d_22">
      <g>
       <use xlink:href="#m084cabc103" x="57.53" y="226.363322" style="stroke: #000000; stroke-width: 0.8"/>
      </g>
     </g>
     <g id="text_13">
      <!-- 800 -->
      <g transform="translate(31.4425 230.162541) scale(0.1 -0.1)">
       <use xlink:href="#DejaVuSans-38"/>
       <use xlink:href="#DejaVuSans-30" x="63.623047"/>
       <use xlink:href="#DejaVuSans-30" x="127.246094"/>
      </g>
     </g>
    </g>
    <g id="ytick_4">
     <g id="line2d_23">
      <path d="M 57.53 167.85594 
L 853.2 167.85594 
" clip-path="url(#p5e8142e421)" style="fill: none; stroke: #b0b0b0; stroke-width: 0.8; stroke-linecap: square"/>
     </g>
     <g id="line2d_24">
      <g>
       <use xlink:href="#m084cabc103" x="57.53" y="167.85594" style="stroke: #000000; stroke-width: 0.8"/>
      </g>
     </g>
     <g id="text_14">
      <!-- 1000 -->
      <g transform="translate(25.08 171.655159) scale(0.1 -0.1)">
       <use xlink:href="#DejaVuSans-31"/>
       <use xlink:href="#DejaVuSans-30" x="63.623047"/>
       <use xlink:href="#DejaVuSans-30" x="127.246094"/>
       <use xlink:href="#DejaVuSans-30" x="190.869141"/>
      </g>
     </g>
    </g>
    <g id="ytick_5">
     <g id="line2d_25">
      <path d="M 57.53 109.348558 
L 853.2 109.348558 
" clip-path="url(#p5e8142e421)" style="fill: none; stroke: #b0b0b0; stroke-width: 0.8; stroke-linecap: square"/>
     </g>
     <g id="line2d_26">
      <g>
       <use xlink:href="#m084cabc103" x="57.53" y="109.348558" style="stroke: #000000; stroke-width: 0.8"/>
      </g>
     </g>
     <g id="text_15">
      <!-- 1200 -->
      <g transform="translate(25.08 113.147777) scale(0.1 -0.1)">
       <use xlink:href="#DejaVuSans-31"/>
       <use xlink:href="#DejaVuSans-32" x="63.623047"/>
       <use xlink:href="#DejaVuSans-30" x="127.246094"/>
       <use xlink:href="#DejaVuSans-30" x="190.869141"/>
      </g>
     </g>
    </g>
    <g id="ytick_6">
     <g id="line2d_27">
      <path d="M 57.53 50.841177 
L 853.2 50.841177 
" clip-path="url(#p5e8142e421)" style="fill: none; stroke: #b0b0b0; stroke-width: 0.8; stroke-linecap: square"/>
     </g>
     <g id="line2d_28">
      <g>
       <use xlink:href="#m084cabc103" x="57.53" y="50.841177" style="stroke: #000000; stroke-width: 0.8"/>
      </g>
     </g>
     <g id="text_16">
      <!-- 1400 -->
      <g transform="translate(25.08 54.640395) scale(0.1 -0.1)">
       <use xlink:href="#DejaVuSans-31"/>
       <use xlink:href="#DejaVuSans-34" x="63.623047"/>
       <use xlink:href="#DejaVuSans-30" x="127.246094"/>
       <use xlink:href="#DejaVuSans-30" x="190.869141"/>
      </g>
     </g>
    </g>
    <g id="text_17">
     <!-- Tiêu thụ điện/người -->
     <g transform="translate(19.000312 257.112188) rotate(-90) scale(0.1 -0.1)">
      <defs>
       <path id="DejaVuSans-54" d="M -19 4666 
L 3928 4666 
L 3928 4134 
L 2272 4134 
L 2272 0 
L 1638 0 
L 1638 4134 
L -19 4134 
L -19 4666 
z
" transform="scale(0.015625)"/>
       <path id="DejaVuSans-69" d="M 603 3500 
L 1178 3500 
L 1178 0 
L 603 0 
L 603 3500 
z
M 603 4863 
L 1178 4863 
L 1178 4134 
L 603 4134 
L 603 4863 
z
" transform="scale(0.015625)"/>
       <path id="DejaVuSans-ea" d="M 3597 1894 
L 3597 1613 
L 953 1613 
Q 991 1019 1311 708 
Q 1631 397 2203 397 
Q 2534 397 2845 478 
Q 3156 559 3463 722 
L 3463 178 
Q 3153 47 2828 -22 
Q 2503 -91 2169 -91 
Q 1331 -91 842 396 
Q 353 884 353 1716 
Q 353 2575 817 3079 
Q 1281 3584 2069 3584 
Q 2775 3584 3186 3129 
Q 3597 2675 3597 1894 
z
M 3022 2063 
Q 3016 2534 2758 2815 
Q 2500 3097 2075 3097 
Q 1594 3097 1305 2825 
Q 1016 2553 972 2059 
L 3022 2063 
z
M 1801 5119 
L 2263 5119 
L 3029 3944 
L 2595 3944 
L 2032 4709 
L 1470 3944 
L 1035 3944 
L 1801 5119 
z
" transform="scale(0.015625)"/>
       <path id="DejaVuSans-75" d="M 544 1381 
L 544 3500 
L 1119 3500 
L 1119 1403 
Q 1119 906 1312 657 
Q 1506 409 1894 409 
Q 2359 409 2629 706 
Q 2900 1003 2900 1516 
L 2900 3500 
L 3475 3500 
L 3475 0 
L 2900 0 
L 2900 538 
Q 2691 219 2414 64 
Q 2138 -91 1772 -91 
Q 1169 -91 856 284 
Q 544 659 544 1381 
z
M 1991 3584 
L 1991 3584 
z
" transform="scale(0.015625)"/>
       <path id="DejaVuSans-74" d="M 1172 4494 
L 1172 3500 
L 2356 3500 
L 2356 3053 
L 1172 3053 
L 1172 1153 
Q 1172 725 1289 603 
Q 1406 481 1766 481 
L 2356 481 
L 2356 0 
L 1766 0 
Q 1100 0 847 248 
Q 594 497 594 1153 
L 594 3053 
L 172 3053 
L 172 3500 
L 594 3500 
L 594 4494 
L 1172 4494 
z
" transform="scale(0.015625)"/>
       <path id="DejaVuSans-68" d="M 3513 2113 
L 3513 0 
L 2938 0 
L 2938 2094 
Q 2938 2591 2744 2837 
Q 2550 3084 2163 3084 
Q 1697 3084 1428 2787 
Q 1159 2491 1159 1978 
L 1159 0 
L 581 0 
L 581 4863 
L 1159 4863 
L 1159 2956 
Q 1366 3272 1645 3428 
Q 1925 3584 2291 3584 
Q 2894 3584 3203 3211 
Q 3513 2838 3513 2113 
z
" transform="scale(0.015625)"/>
       <path id="DejaVuSans-1ee5" d="M 544 1381 
L 544 3500 
L 1119 3500 
L 1119 1403 
Q 1119 906 1312 657 
Q 1506 409 1894 409 
Q 2359 409 2629 706 
Q 2900 1003 2900 1516 
L 2900 3500 
L 3475 3500 
L 3475 0 
L 2900 0 
L 2900 538 
Q 2691 219 2414 64 
Q 2138 -91 1772 -91 
Q 1169 -91 856 284 
Q 544 659 544 1381 
z
M 1991 3584 
L 1991 3584 
z
M 1690 -441 
L 2265 -441 
L 2265 -1172 
L 1690 -1172 
L 1690 -441 
z
" transform="scale(0.015625)"/>
       <path id="DejaVuSans-111" d="M 2906 2969 
L 2906 4013 
L 1888 4013 
L 1888 4403 
L 2906 4403 
L 2906 4863 
L 3481 4863 
L 3481 4403 
L 3963 4403 
L 3963 4013 
L 3481 4013 
L 3481 0 
L 2906 0 
L 2906 525 
Q 2725 213 2448 61 
Q 2172 -91 1784 -91 
Q 1150 -91 751 415 
Q 353 922 353 1747 
Q 353 2572 751 3078 
Q 1150 3584 1784 3584 
Q 2172 3584 2448 3432 
Q 2725 3281 2906 2969 
z
M 947 1747 
Q 947 1113 1208 752 
Q 1469 391 1925 391 
Q 2381 391 2643 752 
Q 2906 1113 2906 1747 
Q 2906 2381 2643 2742 
Q 2381 3103 1925 3103 
Q 1469 3103 1208 2742 
Q 947 2381 947 1747 
z
" transform="scale(0.015625)"/>
       <path id="DejaVuSans-1ec7" d="M 1738 -441 
L 2313 -441 
L 2313 -1172 
L 1738 -1172 
L 1738 -441 
z
M 3597 1894 
L 3597 1613 
L 953 1613 
Q 991 1019 1311 708 
Q 1631 397 2203 397 
Q 2534 397 2845 478 
Q 3156 559 3463 722 
L 3463 178 
Q 3153 47 2828 -22 
Q 2503 -91 2169 -91 
Q 1331 -91 842 396 
Q 353 884 353 1716 
Q 353 2575 817 3079 
Q 1281 3584 2069 3584 
Q 2775 3584 3186 3129 
Q 3597 2675 3597 1894 
z
M 3022 2063 
Q 3016 2534 2758 2815 
Q 2500 3097 2075 3097 
Q 1594 3097 1305 2825 
Q 1016 2553 972 2059 
L 3022 2063 
z
M 1738 -441 
L 2313 -441 
L 2313 -1172 
L 1738 -1172 
L 1738 -441 
z
M 1801 5119 
L 2263 5119 
L 3029 3944 
L 2595 3944 
L 2032 4709 
L 1470 3944 
L 1035 3944 
L 1801 5119 
z
" transform="scale(0.015625)"/>
       <path id="DejaVuSans-2f" d="M 1625 4666 
L 2156 4666 
L 531 -594 
L 0 -594 
L 1625 4666 
z
" transform="scale(0.015625)"/>
       <path id="DejaVuSans-67" d="M 2906 1791 
Q 2906 2416 2648 2759 
Q 2391 3103 1925 3103 
Q 1463 3103 1205 2759 
Q 947 2416 947 1791 
Q 947 1169 1205 825 
Q 1463 481 1925 481 
Q 2391 481 2648 825 
Q 2906 1169 2906 1791 
z
M 3481 434 
Q 3481 -459 3084 -895 
Q 2688 -1331 1869 -1331 
Q 1566 -1331 1297 -1286 
Q 1028 -1241 775 -1147 
L 775 -588 
Q 1028 -725 1275 -790 
Q 1522 -856 1778 -856 
Q 2344 -856 2625 -561 
Q 2906 -266 2906 331 
L 2906 616 
Q 2728 306 2450 153 
Q 2172 0 1784 0 
Q 1141 0 747 490 
Q 353 981 353 1791 
Q 353 2603 747 3093 
Q 1141 3584 1784 3584 
Q 2172 3584 2450 3431 
Q 2728 3278 2906 2969 
L 2906 3500 
L 3481 3500 
L 3481 434 
z
" transform="scale(0.015625)"/>
       <path id="DejaVuSans-1b0" d="M 3094 3136 
L 3094 3508 
Q 3285 3367 3422 3300 
Q 3560 3233 3657 3233 
Q 3800 3233 3872 3319 
Q 3944 3405 3944 3573 
Q 3944 3673 3920 3770 
Q 3897 3867 3850 3964 
L 4266 3964 
Q 4297 3845 4312 3739 
Q 4328 3633 4328 3539 
Q 4328 3158 4192 2978 
Q 4057 2798 3766 2798 
Q 3616 2798 3452 2881 
Q 3288 2964 3094 3136 
z
M 552 1381 
L 552 3500 
L 1127 3500 
L 1127 1403 
Q 1127 906 1320 657 
Q 1514 409 1902 409 
Q 2367 409 2637 706 
Q 2908 1003 2908 1516 
L 2908 3500 
L 3483 3500 
L 3483 0 
L 2908 0 
L 2908 538 
Q 2699 219 2422 64 
Q 2146 -91 1780 -91 
Q 1177 -91 864 284 
Q 552 659 552 1381 
z
M 1999 3584 
L 1999 3584 
z
" transform="scale(0.015625)"/>
       <path id="DejaVuSans-1edd" d="M 1507 5119 
L 2388 3950 
L 1910 3950 
L 891 5119 
L 1507 5119 
z
M 2622 3136 
L 2622 3508 
Q 2813 3367 2950 3300 
Q 3088 3233 3185 3233 
Q 3328 3233 3400 3319 
Q 3472 3405 3472 3573 
Q 3472 3673 3448 3770 
Q 3425 3867 3378 3964 
L 3794 3964 
Q 3825 3845 3840 3739 
Q 3856 3633 3856 3539 
Q 3856 3158 3720 2978 
Q 3585 2798 3294 2798 
Q 3144 2798 2980 2881 
Q 2816 2964 2622 3136 
z
M 1975 3097 
Q 1513 3097 1244 2736 
Q 975 2375 975 1747 
Q 975 1119 1242 758 
Q 1510 397 1975 397 
Q 2435 397 2703 759 
Q 2972 1122 2972 1747 
Q 2972 2369 2703 2733 
Q 2435 3097 1975 3097 
z
M 1975 3584 
Q 2725 3584 3153 3096 
Q 3582 2609 3582 1747 
Q 3582 888 3153 398 
Q 2725 -91 1975 -91 
Q 1222 -91 795 398 
Q 369 888 369 1747 
Q 369 2609 795 3096 
Q 1222 3584 1975 3584 
z
" transform="scale(0.015625)"/>
      </defs>
      <use xlink:href="#DejaVuSans-54"/>
      <use xlink:href="#DejaVuSans-69" x="57.958984"/>
      <use xlink:href="#DejaVuSans-ea" x="85.742188"/>
      <use xlink:href="#DejaVuSans-75" x="147.265625"/>
      <use xlink:href="#DejaVuSans-20" x="210.644531"/>
      <use xlink:href="#DejaVuSans-74" x="242.431641"/>
      <use xlink:href="#DejaVuSans-68" x="281.640625"/>
      <use xlink:href="#DejaVuSans-1ee5" x="345.019531"/>
      <use xlink:href="#DejaVuSans-20" x="408.398438"/>
      <use xlink:href="#DejaVuSans-111" x="440.185547"/>
      <use xlink:href="#DejaVuSans-69" x="503.662109"/>
      <use xlink:href="#DejaVuSans-1ec7" x="531.445312"/>
      <use xlink:href="#DejaVuSans-6e" x="592.96875"/>
      <use xlink:href="#DejaVuSans-2f" x="656.347656"/>
      <use xlink:href="#DejaVuSans-6e" x="690.039062"/>
      <use xlink:href="#DejaVuSans-67" x="753.417969"/>
      <use xlink:href="#DejaVuSans-1b0" x="816.894531"/>
      <use xlink:href="#DejaVuSans-1edd" x="880.273438"/>
      <use xlink:href="#DejaVuSans-69" x="941.455078"/>
     </g>
    </g>
   </g>
   <g id="patch_3">
    <path d="M 57.53 390.04 
L 57.53 27.2625 
" style="fill: none; stroke: #000000; stroke-width: 0.8; stroke-linejoin: miter; stroke-linecap: square"/>
   </g>
   <g id="patch_4">
    <path d="M 853.2 390.04 
L 853.2 27.2625 
" style="fill: none; stroke: #000000; stroke-width: 0.8; stroke-linejoin: miter; stroke-linecap: square"/>
   </g>
   <g id="patch_5">
    <path d="M 57.53 390.04 
L 853.2 390.04 
" style="fill: none; stroke: #000000; stroke-width: 0.8; stroke-linejoin: miter; stroke-linecap: square"/>
   </g>
   <g id="patch_6">
    <path d="M 57.53 27.2625 
L 853.2 27.2625 
" style="fill: none; stroke: #000000; stroke-width: 0.8; stroke-linejoin: miter; stroke-linecap: square"/>
   </g>
   <g id="text_18">
    <!-- 2000 -->
    <g transform="translate(82.244318 376.033551) scale(0.09 -0.09)">
     <use xlink:href="#DejaVuSans-32"/>
     <use xlink:href="#DejaVuSans-30" x="63.623047"/>
     <use xlink:href="#DejaVuSans-30" x="127.246094"/>
     <use xlink:href="#DejaVuSans-30" x="190.869141"/>
    </g>
   </g>
   <g id="text_19">
    <!-- 2001 -->
    <g transform="translate(122.846678 363.956204) scale(0.09 -0.09)">
     <use xlink:href="#DejaVuSans-32"/>
     <use xlink:href="#DejaVuSans-30" x="63.623047"/>
     <use xlink:href="#DejaVuSans-30" x="127.246094"/>
     <use xlink:href="#DejaVuSans-31" x="190.869141"/>
    </g>
   </g>
   <g id="text_20">
    <!-- 2002 -->
    <g transform="translate(162.827218 348.55355) scale(0.09 -0.09)">
     <use xlink:href="#DejaVuSans-32"/>
     <use xlink:href="#DejaVuSans-30" x="63.623047"/>
     <use xlink:href="#DejaVuSans-30" x="127.246094"/>
     <use xlink:href="#DejaVuSans-32" x="190.869141"/>
    </g>
   </g>
   <g id="text_21">
    <!-- 2003 -->
    <g transform="translate(202.244548 331.788764) scale(0.09 -0.09)">
     <defs>
      <path id="DejaVuSans-33" d="M 2597 2516 
Q 3050 2419 3304 2112 
Q 3559 1806 3559 1356 
Q 3559 666 3084 287 
Q 2609 -91 1734 -91 
Q 1441 -91 1130 -33 
Q 819 25 488 141 
L 488 750 
Q 750 597 1062 519 
Q 1375 441 1716 441 
Q 2309 441 2620 675 
Q 2931 909 2931 1356 
Q 2931 1769 2642 2001 
Q 2353 2234 1838 2234 
L 1294 2234 
L 1294 2753 
L 1863 2753 
Q 2328 2753 2575 2939 
Q 2822 3125 2822 3475 
Q 2822 3834 2567 4026 
Q 2313 4219 1838 4219 
Q 1578 4219 1281 4162 
Q 984 4106 628 3988 
L 628 4550 
Q 988 4650 1302 4700 
Q 1616 4750 1894 4750 
Q 2613 4750 3031 4423 
Q 3450 4097 3450 3541 
Q 3450 3153 3228 2886 
Q 3006 2619 2597 2516 
z
" transform="scale(0.015625)"/>
     </defs>
     <use xlink:href="#DejaVuSans-32"/>
     <use xlink:href="#DejaVuSans-30" x="63.623047"/>
     <use xlink:href="#DejaVuSans-30" x="127.246094"/>
     <use xlink:href="#DejaVuSans-33" x="190.869141"/>
    </g>
   </g>
   <g id="text_22">
    <!-- 2004 -->
    <g transform="translate(240.847241 316.500361) scale(0.09 -0.09)">
     <use xlink:href="#DejaVuSans-32"/>
     <use xlink:href="#DejaVuSans-30" x="63.623047"/>
     <use xlink:href="#DejaVuSans-30" x="127.246094"/>
     <use xlink:href="#DejaVuSans-34" x="190.869141"/>
    </g>
   </g>
   <g id="text_23">
    <!-- 2005 -->
    <g transform="translate(278.162571 290.499954) scale(0.09 -0.09)">
     <defs>
      <path id="DejaVuSans-35" d="M 691 4666 
L 3169 4666 
L 3169 4134 
L 1269 4134 
L 1269 2991 
Q 1406 3038 1543 3061 
Q 1681 3084 1819 3084 
Q 2600 3084 3056 2656 
Q 3513 2228 3513 1497 
Q 3513 744 3044 326 
Q 2575 -91 1722 -91 
Q 1428 -91 1123 -41 
Q 819 9 494 109 
L 494 744 
Q 775 591 1075 516 
Q 1375 441 1709 441 
Q 2250 441 2565 725 
Q 2881 1009 2881 1497 
Q 2881 1984 2565 2268 
Q 2250 2553 1709 2553 
Q 1456 2553 1204 2497 
Q 953 2441 691 2322 
L 691 4666 
z
" transform="scale(0.015625)"/>
     </defs>
     <use xlink:href="#DejaVuSans-32"/>
     <use xlink:href="#DejaVuSans-30" x="63.623047"/>
     <use xlink:href="#DejaVuSans-30" x="127.246094"/>
     <use xlink:href="#DejaVuSans-35" x="190.869141"/>
    </g>
   </g>
   <g id="text_24">
    <!-- 2006 -->
    <g transform="translate(331.923113 268.501772) scale(0.09 -0.09)">
     <use xlink:href="#DejaVuSans-32"/>
     <use xlink:href="#DejaVuSans-30" x="63.623047"/>
     <use xlink:href="#DejaVuSans-30" x="127.246094"/>
     <use xlink:href="#DejaVuSans-36" x="190.869141"/>
    </g>
   </g>
   <g id="text_25">
    <!-- 2007 -->
    <g transform="translate(404.900198 245.33457) scale(0.09 -0.09)">
     <use xlink:href="#DejaVuSans-32"/>
     <use xlink:href="#DejaVuSans-30" x="63.623047"/>
     <use xlink:href="#DejaVuSans-30" x="127.246094"/>
     <use xlink:href="#DejaVuSans-37" x="190.869141"/>
    </g>
   </g>
   <g id="text_26">
    <!-- 2008 -->
    <g transform="translate(481.70845 225.156829) scale(0.09 -0.09)">
     <use xlink:href="#DejaVuSans-32"/>
     <use xlink:href="#DejaVuSans-30" x="63.623047"/>
     <use xlink:href="#DejaVuSans-30" x="127.246094"/>
     <use xlink:href="#DejaVuSans-38" x="190.869141"/>
    </g>
   </g>
   <g id="text_27">
    <!-- 2009 -->
    <g transform="translate(545.659844 195.854363) scale(0.09 -0.09)">
     <use xlink:href="#DejaVuSans-32"/>
     <use xlink:href="#DejaVuSans-30" x="63.623047"/>
     <use xlink:href="#DejaVuSans-30" x="127.246094"/>
     <use xlink:href="#DejaVuSans-39" x="190.869141"/>
    </g>
   </g>
   <g id="text_28">
    <!-- 2010 -->
    <g transform="translate(595.214991 162.024232) scale(0.09 -0.09)">
     <use xlink:href="#DejaVuSans-32"/>
     <use xlink:href="#DejaVuSans-30" x="63.623047"/>
     <use xlink:href="#DejaVuSans-31" x="127.246094"/>
     <use xlink:href="#DejaVuSans-30" x="190.869141"/>
    </g>
   </g>
   <g id="text_29">
    <!-- 2011 -->
    <g transform="translate(645.667886 138.794634) scale(0.09 -0.09)">
     <use xlink:href="#DejaVuSans-32"/>
     <use xlink:href="#DejaVuSans-30" x="63.623047"/>
     <use xlink:href="#DejaVuSans-31" x="127.246094"/>
     <use xlink:href="#DejaVuSans-31" x="190.869141"/>
    </g>
   </g>
   <g id="text_30">
    <!-- 2012 -->
    <g transform="translate(697.558933 108.836461) scale(0.09 -0.09)">
     <use xlink:href="#DejaVuSans-32"/>
     <use xlink:href="#DejaVuSans-30" x="63.623047"/>
     <use xlink:href="#DejaVuSans-31" x="127.246094"/>
     <use xlink:href="#DejaVuSans-32" x="190.869141"/>
    </g>
   </g>
   <g id="text_31">
    <!-- 2013 -->
    <g transform="translate(750.481085 88.608536) scale(0.09 -0.09)">
     <use xlink:href="#DejaVuSans-32"/>
     <use xlink:href="#DejaVuSans-30" x="63.623047"/>
     <use xlink:href="#DejaVuSans-31" x="127.246094"/>
     <use xlink:href="#DejaVuSans-33" x="190.869141"/>
    </g>
   </g>
   <g id="text_32">
    <!-- 2014 -->
    <g transform="translate(805.580682 46.235824) scale(0.09 -0.09)">
     <use xlink:href="#DejaVuSans-32"/>
     <use xlink:href="#DejaVuSans-30" x="63.623047"/>
     <use xlink:href="#DejaVuSans-31" x="127.246094"/>
     <use xlink:href="#DejaVuSans-34" x="190.869141"/>
    </g>
   </g>
   <g id="text_33">
    <!-- Dân số và tiêu thụ điện tại Việt Nam (2000-2020) -->
    <g transform="translate(306.865 21.2625) scale(0.12 -0.12)">
     <defs>
      <path id="DejaVuSans-76" d="M 191 3500 
L 800 3500 
L 1894 563 
L 2988 3500 
L 3597 3500 
L 2284 0 
L 1503 0 
L 191 3500 
z
" transform="scale(0.015625)"/>
      <path id="DejaVuSans-e0" d="M 2194 1759 
Q 1497 1759 1228 1600 
Q 959 1441 959 1056 
Q 959 750 1161 570 
Q 1363 391 1709 391 
Q 2188 391 2477 730 
Q 2766 1069 2766 1631 
L 2766 1759 
L 2194 1759 
z
M 3341 1997 
L 3341 0 
L 2766 0 
L 2766 531 
Q 2569 213 2275 61 
Q 1981 -91 1556 -91 
Q 1019 -91 701 211 
Q 384 513 384 1019 
Q 384 1609 779 1909 
Q 1175 2209 1959 2209 
L 2766 2209 
L 2766 2266 
Q 2766 2663 2505 2880 
Q 2244 3097 1772 3097 
Q 1472 3097 1187 3025 
Q 903 2953 641 2809 
L 641 3341 
Q 956 3463 1253 3523 
Q 1550 3584 1831 3584 
Q 2591 3584 2966 3190 
Q 3341 2797 3341 1997 
z
M 1403 5119 
L 2284 3950 
L 1806 3950 
L 787 5119 
L 1403 5119 
z
" transform="scale(0.015625)"/>
      <path id="DejaVuSans-1ea1" d="M 1410 -441 
L 1985 -441 
L 1985 -1172 
L 1410 -1172 
L 1410 -441 
z
M 2194 1759 
Q 1497 1759 1228 1600 
Q 959 1441 959 1056 
Q 959 750 1161 570 
Q 1363 391 1709 391 
Q 2188 391 2477 730 
Q 2766 1069 2766 1631 
L 2766 1759 
L 2194 1759 
z
M 3341 1997 
L 3341 0 
L 2766 0 
L 2766 531 
Q 2569 213 2275 61 
Q 1981 -91 1556 -91 
Q 1019 -91 701 211 
Q 384 513 384 1019 
Q 384 1609 779 1909 
Q 1175 2209 1959 2209 
L 2766 2209 
L 2766 2266 
Q 2766 2663 2505 2880 
Q 2244 3097 1772 3097 
Q 1472 3097 1187 3025 
Q 903 2953 641 2809 
L 641 3341 
Q 956 3463 1253 3523 
Q 1550 3584 1831 3584 
Q 2591 3584 2966 3190 
Q 3341 2797 3341 1997 
z
" transform="scale(0.015625)"/>
      <path id="DejaVuSans-56" d="M 1831 0 
L 50 4666 
L 709 4666 
L 2188 738 
L 3669 4666 
L 4325 4666 
L 2547 0 
L 1831 0 
z
" transform="scale(0.015625)"/>
      <path id="DejaVuSans-4e" d="M 628 4666 
L 1478 4666 
L 3547 763 
L 3547 4666 
L 4159 4666 
L 4159 0 
L 3309 0 
L 1241 3903 
L 1241 0 
L 628 0 
L 628 4666 
z
" transform="scale(0.015625)"/>
      <path id="DejaVuSans-61" d="M 2194 1759 
Q 1497 1759 1228 1600 
Q 959 1441 959 1056 
Q 959 750 1161 570 
Q 1363 391 1709 391 
Q 2188 391 2477 730 
Q 2766 1069 2766 1631 
L 2766 1759 
L 2194 1759 
z
M 3341 1997 
L 3341 0 
L 2766 0 
L 2766 531 
Q 2569 213 2275 61 
Q 1981 -91 1556 -91 
Q 1019 -91 701 211 
Q 384 513 384 1019 
Q 384 1609 779 1909 
Q 1175 2209 1959 2209 
L 2766 2209 
L 2766 2266 
Q 2766 2663 2505 2880 
Q 2244 3097 1772 3097 
Q 1472 3097 1187 3025 
Q 903 2953 641 2809 
L 641 3341 
Q 956 3463 1253 3523 
Q 1550 3584 1831 3584 
Q 2591 3584 2966 3190 
Q 3341 2797 3341 1997 
z
" transform="scale(0.015625)"/>
      <path id="DejaVuSans-6d" d="M 3328 2828 
Q 3544 3216 3844 3400 
Q 4144 3584 4550 3584 
Q 5097 3584 5394 3201 
Q 5691 2819 5691 2113 
L 5691 0 
L 5113 0 
L 5113 2094 
Q 5113 2597 4934 2840 
Q 4756 3084 4391 3084 
Q 3944 3084 3684 2787 
Q 3425 2491 3425 1978 
L 3425 0 
L 2847 0 
L 2847 2094 
Q 2847 2600 2669 2842 
Q 2491 3084 2119 3084 
Q 1678 3084 1418 2786 
Q 1159 2488 1159 1978 
L 1159 0 
L 581 0 
L 581 3500 
L 1159 3500 
L 1159 2956 
Q 1356 3278 1631 3431 
Q 1906 3584 2284 3584 
Q 2666 3584 2933 3390 
Q 3200 3197 3328 2828 
z
" transform="scale(0.015625)"/>
      <path id="DejaVuSans-28" d="M 1984 4856 
Q 1566 4138 1362 3434 
Q 1159 2731 1159 2009 
Q 1159 1288 1364 580 
Q 1569 -128 1984 -844 
L 1484 -844 
Q 1016 -109 783 600 
Q 550 1309 550 2009 
Q 550 2706 781 3412 
Q 1013 4119 1484 4856 
L 1984 4856 
z
" transform="scale(0.015625)"/>
      <path id="DejaVuSans-2d" d="M 313 2009 
L 1997 2009 
L 1997 1497 
L 313 1497 
L 313 2009 
z
" transform="scale(0.015625)"/>
      <path id="DejaVuSans-29" d="M 513 4856 
L 1013 4856 
Q 1481 4119 1714 3412 
Q 1947 2706 1947 2009 
Q 1947 1309 1714 600 
Q 1481 -109 1013 -844 
L 513 -844 
Q 928 -128 1133 580 
Q 1338 1288 1338 2009 
Q 1338 2731 1133 3434 
Q 928 4138 513 4856 
z
" transform="scale(0.015625)"/>
     </defs>
     <use xlink:href="#DejaVuSans-44"/>
     <use xlink:href="#DejaVuSans-e2" x="77.001953"/>
     <use xlink:href="#DejaVuSans-6e" x="138.28125"/>
     <use xlink:href="#DejaVuSans-20" x="201.660156"/>
     <use xlink:href="#DejaVuSans-73" x="233.447266"/>
     <use xlink:href="#DejaVuSans-1ed1" x="285.546875"/>
     <use xlink:href="#DejaVuSans-20" x="346.728516"/>
     <use xlink:href="#DejaVuSans-76" x="378.515625"/>
     <use xlink:href="#DejaVuSans-e0" x="437.695312"/>
     <use xlink:href="#DejaVuSans-20" x="498.974609"/>
     <use xlink:href="#DejaVuSans-74" x="530.761719"/>
     <use xlink:href="#DejaVuSans-69" x="569.970703"/>
     <use xlink:href="#DejaVuSans-ea" x="597.753906"/>
     <use xlink:href="#DejaVuSans-75" x="659.277344"/>
     <use xlink:href="#DejaVuSans-20" x="722.65625"/>
     <use xlink:href="#DejaVuSans-74" x="754.443359"/>
     <use xlink:href="#DejaVuSans-68" x="793.652344"/>
     <use xlink:href="#DejaVuSans-1ee5" x="857.03125"/>
     <use xlink:href="#DejaVuSans-20" x="920.410156"/>
     <use xlink:href="#DejaVuSans-111" x="952.197266"/>
     <use xlink:href="#DejaVuSans-69" x="1015.673828"/>
     <use xlink:href="#DejaVuSans-1ec7" x="1043.457031"/>
     <use xlink:href="#DejaVuSans-6e" x="1104.980469"/>
     <use xlink:href="#DejaVuSans-20" x="1168.359375"/>
     <use xlink:href="#DejaVuSans-74" x="1200.146484"/>
     <use xlink:href="#DejaVuSans-1ea1" x="1239.355469"/>
     <use xlink:href="#DejaVuSans-69" x="1300.634766"/>
     <use xlink:href="#DejaVuSans-20" x="1328.417969"/>
     <use xlink:href="#DejaVuSans-56" x="1360.205078"/>
     <use xlink:href="#DejaVuSans-69" x="1426.363281"/>
     <use xlink:href="#DejaVuSans-1ec7" x="1454.146484"/>
     <use xlink:href="#DejaVuSans-74" x="1515.669922"/>
     <use xlink:href="#DejaVuSans-20" x="1554.878906"/>
     <use xlink:href="#DejaVuSans-4e" x="1586.666016"/>
     <use xlink:href="#DejaVuSans-61" x="1661.470703"/>
     <use xlink:href="#DejaVuSans-6d" x="1722.75"/>
     <use xlink:href="#DejaVuSans-20" x="1820.162109"/>
     <use xlink:href="#DejaVuSans-28" x="1851.949219"/>
     <use xlink:href="#DejaVuSans-32" x="1890.962891"/>
     <use xlink:href="#DejaVuSans-30" x="1954.585938"/>
     <use xlink:href="#DejaVuSans-30" x="2018.208984"/>
     <use xlink:href="#DejaVuSans-30" x="2081.832031"/>
     <use xlink:href="#DejaVuSans-2d" x="2145.455078"/>
     <use xlink:href="#DejaVuSans-32" x="2181.539062"/>
     <use xlink:href="#DejaVuSans-30" x="2245.162109"/>
     <use xlink:href="#DejaVuSans-32" x="2308.785156"/>
     <use xlink:href="#DejaVuSans-30" x="2372.408203"/>
     <use xlink:href="#DejaVuSans-29" x="2436.03125"/>
    </g>
   </g>
  </g>
 </g>
 <defs>
  <clipPath id="p5e8142e421">
   <rect x="57.53" y="27.2625" width="795.67" height="362.7775"/>
  </clipPath>
 </defs>
</svg>
